<svg width="135" height="40" fill="none" xmlns="http://www.w3.org/2000/svg"><path d="M130.197 40H4.729A4.74 4.74 0 010 35.267V4.726A4.733 4.733 0 014.729 0h125.468C132.803 0 135 2.12 135 4.726v30.541c0 2.605-2.197 4.733-4.803 4.733z" fill="#A6A6A6"/><path d="M134.032 35.268a3.83 3.83 0 01-3.834 3.83H4.729a3.835 3.835 0 01-3.839-3.83V4.725A3.84 3.84 0 014.729.89h125.468a3.834 3.834 0 013.834 3.835l.001 30.543z" fill="#000"/><path d="M30.128 19.784c-.029-3.223 2.639-4.79 2.761-4.864-1.511-2.203-3.853-2.504-4.676-2.528-1.967-.207-3.875 1.177-4.877 1.177-1.022 0-2.565-1.157-4.228-1.123-2.14.033-4.142 1.272-5.24 3.196-2.266 3.923-.576 9.688 1.595 12.86 1.086 1.552 2.355 3.286 4.016 3.225 1.625-.067 2.232-1.036 4.193-1.036 1.943 0 2.513 1.036 4.207.997 1.744-.028 2.842-1.56 3.89-3.127 1.255-1.78 1.759-3.533 1.779-3.623-.041-.014-3.387-1.29-3.42-5.154zm-3.2-9.478c.874-1.093 1.472-2.58 1.306-4.09-1.265.057-2.847.876-3.758 1.945-.806.942-1.526 2.486-1.34 3.938 1.421.106 2.88-.717 3.792-1.793z" fill="#fff"/><g fill="#fff"><path fill-rule="evenodd" clip-rule="evenodd" d="M51.374 31.504h2.271L49.34 18.196h-2.646L42.41 31.504h2.211l1.185-3.91h4.324l1.244 3.91zM48.63 22.48l1.125 3.475h-3.573l1.105-3.475a96.75 96.75 0 00.632-2.507h.04c.329 1.316.552 2.152.671 2.507zm14.709 7.977c.882-.947 1.323-2.237 1.323-3.87 0-1.46-.378-2.638-1.136-3.534-.756-.895-1.701-1.342-2.833-1.342-1.448 0-2.527.572-3.238 1.718h-.04l-.119-1.521h-1.875c.052 1.08.079 2.133.079 3.159v10.347h2.132v-5.055h.04c.553.908 1.461 1.362 2.725 1.362 1.171 0 2.152-.421 2.942-1.264zm-1.481-6.101c.422.606.632 1.376.632 2.31 0 1.014-.224 1.83-.672 2.449-.447.618-1.072.928-1.875.928-.684 0-1.24-.24-1.668-.721-.428-.481-.642-1.07-.642-1.768v-1.6c0-.17.033-.386.099-.65a2.426 2.426 0 01.839-1.373 2.217 2.217 0 011.431-.523c.776 0 1.395.316 1.856.948zm12.517 6.101c.883-.947 1.324-2.237 1.324-3.87 0-1.46-.379-2.638-1.134-3.534-.758-.895-1.703-1.342-2.834-1.342-1.449 0-2.528.572-3.238 1.718h-.04l-.119-1.521h-1.875c.052 1.08.079 2.133.079 3.159v10.347h2.132v-5.055h.04c.552.908 1.46 1.362 2.724 1.362 1.171 0 2.152-.421 2.941-1.264zm-1.481-6.101c.422.606.633 1.376.633 2.31 0 1.014-.224 1.83-.672 2.449-.447.618-1.072.928-1.875.928-.686 0-1.242-.241-1.67-.721-.426-.481-.64-1.07-.64-1.768v-1.6c0-.17.034-.386.099-.65.131-.566.41-1.023.838-1.373a2.22 2.22 0 011.432-.523c.777 0 1.394.316 1.855.948z"/><path d="M88.039 27.772c0 1.132-.393 2.053-1.182 2.764-.867.777-2.074 1.165-3.625 1.165-1.432 0-2.58-.276-3.449-.829l.494-1.777c.936.566 1.963.85 3.082.85.803 0 1.428-.182 1.877-.544.447-.362.67-.848.67-1.454 0-.54-.184-.995-.553-1.364-.367-.369-.98-.712-1.836-1.029-2.33-.869-3.494-2.142-3.494-3.816 0-1.094.408-1.991 1.225-2.689.814-.699 1.9-1.048 3.258-1.048 1.211 0 2.217.211 3.02.632l-.533 1.738c-.75-.408-1.598-.612-2.547-.612-.75 0-1.336.185-1.756.553a1.58 1.58 0 00-.533 1.205c0 .526.203.961.611 1.303.355.316 1 .658 1.936 1.027 1.145.461 1.986 1 2.527 1.618.539.616.808 1.387.808 2.307zm7.049-4.264h-2.35v4.66c0 1.184.414 1.776 1.244 1.776.381 0 .697-.033.947-.099l.059 1.62c-.42.156-.973.235-1.658.235-.842 0-1.5-.257-1.975-.77-.473-.514-.711-1.376-.711-2.587v-4.837h-1.4v-1.6h1.4V20.15l2.094-.632v2.39h2.35v1.601z"/><path fill-rule="evenodd" clip-rule="evenodd" d="M104.427 30.26c.842-.947 1.264-2.158 1.264-3.633 0-1.435-.408-2.606-1.226-3.513-.855-.935-1.988-1.402-3.396-1.402-1.461 0-2.623.474-3.484 1.422-.863.947-1.293 2.165-1.293 3.652 0 1.42.418 2.6 1.254 3.534.836.934 1.957 1.4 3.365 1.4 1.461 0 2.633-.485 3.516-1.46zm-1.52-5.841c.383.633.572 1.392.572 2.277 0 .884-.198 1.65-.591 2.296-.461.778-1.1 1.168-1.914 1.168-.831 0-1.475-.382-1.936-1.148-.383-.632-.572-1.391-.572-2.276 0-.912.189-1.683.572-2.317.447-.765 1.098-1.148 1.955-1.148.828 0 1.467.382 1.914 1.148z"/><path d="M112.621 23.783a3.702 3.702 0 00-.672-.06c-.75 0-1.33.284-1.738.85-.355.5-.533 1.133-.533 1.896v5.035h-2.131l.02-6.574c0-1.106-.027-2.113-.08-3.021h1.857l.078 1.836h.059c.225-.631.58-1.14 1.066-1.52a2.578 2.578 0 011.541-.514c.197 0 .375.014.533.039v2.033z"/><path fill-rule="evenodd" clip-rule="evenodd" d="M122.078 27.219a5 5 0 00.078-.967c0-1.197-.283-2.205-.846-3.02-.711-1.026-1.758-1.54-3.141-1.54-1.408 0-2.527.514-3.355 1.54-.791.96-1.186 2.166-1.186 3.613 0 1.474.425 2.649 1.273 3.524.85.875 2.018 1.313 3.506 1.313 1.237 0 2.309-.197 3.217-.593l-.334-1.48c-.777.303-1.641.454-2.588.454-.856 0-1.553-.224-2.092-.671-.594-.5-.903-1.225-.928-2.173h6.396zm-2.369-3.16c.289.462.428 1.008.414 1.64v-.001h-4.441c.065-.644.276-1.197.631-1.658.433-.58 1-.87 1.697-.87.763 0 1.33.297 1.699.89z"/></g><g fill="#fff"><path fill-rule="evenodd" clip-rule="evenodd" d="M47.992 12.667c.705-.595 1.058-1.48 1.058-2.658 0-1.048-.327-1.853-.979-2.416-.582-.498-1.445-.747-2.59-.747-.648 0-1.248.046-1.805.136v6.431c.427.052.937.078 1.533.078 1.202 0 2.13-.275 2.783-.824zm-.653-4.385c.404.408.606.993.606 1.756 0 .854-.22 1.504-.656 1.95-.436.446-1.055.67-1.857.67-.343 0-.579-.01-.708-.03V7.74c.233-.046.514-.068.844-.068.777 0 1.367.204 1.771.611zm6.949 4.54c.414-.466.621-1.06.621-1.785 0-.704-.201-1.28-.601-1.726-.421-.459-.977-.688-1.669-.688-.718 0-1.288.233-1.712.698-.424.465-.635 1.064-.635 1.794 0 .698.205 1.277.615 1.736.411.46.962.689 1.654.689.718 0 1.293-.239 1.727-.718zm-.747-2.87c.187.311.281.684.281 1.119 0 .435-.097.811-.291 1.128-.226.383-.54.574-.94.574-.408 0-.724-.188-.951-.564-.187-.311-.281-.684-.281-1.119 0-.448.093-.827.281-1.138.22-.376.54-.564.961-.564.407 0 .72.188.94.564z"/><path d="M62.765 8.72l-1.475 4.713h-.96l-.61-2.047a15.322 15.322 0 01-.38-1.523h-.019a11.15 11.15 0 01-.379 1.523l-.649 2.047h-.97L55.934 8.72h1.077l.533 2.241c.13.53.235 1.035.32 1.513h.02c.077-.394.206-.896.388-1.503l.67-2.25h.853l.641 2.202c.155.537.281 1.054.378 1.552h.03c.07-.485.177-1.002.32-1.552l.571-2.202h1.03zm5.433 4.713H67.15v-2.7c0-.832-.316-1.248-.95-1.248a.946.946 0 00-.757.343 1.217 1.217 0 00-.291.808v2.796h-1.048v-3.366c0-.414-.013-.863-.038-1.349h.921l.049.737h.029c.122-.229.304-.418.543-.569.284-.176.602-.265.95-.265.44 0 .806.142 1.097.427.362.35.543.87.543 1.562v2.824zm2.89 0h-1.047V6.556h1.047v6.877z"/><path fill-rule="evenodd" clip-rule="evenodd" d="M76.637 12.822c.414-.466.621-1.06.621-1.785 0-.704-.201-1.28-.601-1.726-.422-.459-.977-.688-1.67-.688-.717 0-1.287.233-1.711.698-.424.465-.635 1.064-.635 1.794 0 .698.205 1.277.615 1.736.41.46.961.689 1.654.689.717 0 1.293-.239 1.727-.718zm-.748-2.87c.187.311.281.684.281 1.119 0 .435-.096.811-.291 1.128-.226.383-.539.574-.939.574-.408 0-.724-.188-.951-.564-.187-.311-.281-.684-.281-1.119 0-.448.093-.827.281-1.138.219-.376.539-.564.961-.564.406 0 .72.188.939.564zm5.5 3.481h.941a7.363 7.363 0 01-.068-1.124v-1.736c0-1.3-.618-1.95-1.85-1.95-.638 0-1.179.136-1.617.407l.213.688a2.192 2.192 0 011.229-.349c.653 0 .979.31.979.931v.088c-.873-.007-1.551.142-2.033.446-.483.304-.723.743-.723 1.319 0 .381.123.702.369.96.271.284.631.427 1.076.427.596 0 1.055-.217 1.377-.65h.029l.078.543zm-.147-2.347v.727a.893.893 0 01-.38.742 1.058 1.058 0 01-.641.218.733.733 0 01-.512-.184c-.135-.123-.201-.307-.201-.553 0-.653.578-.97 1.734-.95zm6.113 2.347h.93a19.858 19.858 0 01-.037-1.27V6.556h-1.049v2.706h-.02c-.252-.427-.695-.64-1.328-.64-.576 0-1.06.22-1.455.66-.408.472-.611 1.09-.611 1.853 0 .711.187 1.29.562 1.736.375.446.848.67 1.416.67.711 0 1.217-.289 1.514-.865h.029l.049.757zm-.156-2.774v.786c0 .336-.099.624-.301.863a1.01 1.01 0 01-.828.388c-.383 0-.689-.155-.916-.465-.215-.29-.322-.669-.322-1.135 0-.485.113-.882.336-1.193.225-.31.531-.466.922-.466.271 0 .506.086.701.257a1.194 1.194 0 01.408.965zm9.428 2.163c.414-.466.621-1.06.621-1.785 0-.704-.201-1.28-.601-1.726-.42-.459-.977-.688-1.668-.688-.719 0-1.289.233-1.713.698-.424.465-.635 1.064-.635 1.794 0 .698.205 1.277.615 1.736.412.46.963.689 1.654.689.719 0 1.293-.239 1.727-.718zm-.746-2.87c.187.311.281.684.281 1.119 0 .435-.098.811-.291 1.128-.226.383-.541.574-.941.574-.408 0-.724-.188-.951-.564-.187-.311-.281-.684-.281-1.119 0-.448.093-.827.281-1.138.221-.376.541-.564.961-.564.408 0 .72.188.941.564z"/><path d="M102.883 13.433h-1.047v-2.7c0-.832-.316-1.248-.951-1.248a.942.942 0 00-.756.343 1.212 1.212 0 00-.291.808v2.796h-1.049v-3.366c0-.414-.012-.863-.037-1.349h.92l.049.737h.029a1.53 1.53 0 01.543-.569c.285-.176.602-.265.951-.265.439 0 .805.142 1.096.427.363.35.543.87.543 1.562v2.824zm7.053-3.929h-1.154v2.29c0 .582.205.873.611.873.188 0 .344-.016.467-.05l.027.796c-.207.078-.479.117-.814.117-.414 0-.736-.126-.969-.378-.234-.252-.35-.676-.35-1.271V9.504h-.689v-.785h.689v-.864l1.027-.31v1.173h1.154v.786h.001zm5.548 3.929h-1.049v-2.68c0-.845-.316-1.268-.949-1.268-.486 0-.818.245-1 .735a1.317 1.317 0 00-.049.377v2.835h-1.047V6.556h1.047v2.841h.02c.33-.517.803-.775 1.416-.775.434 0 .793.142 1.078.427.355.355.533.883.533 1.581v2.803z"/><path fill-rule="evenodd" clip-rule="evenodd" d="M121.168 11.328a2.53 2.53 0 00.039-.475c0-.588-.139-1.083-.42-1.483-.348-.504-.863-.756-1.541-.756-.693 0-1.242.252-1.648.756-.389.472-.582 1.064-.582 1.775 0 .724.207 1.3.625 1.73.416.43.991.646 1.721.646.609 0 1.135-.097 1.582-.291l-.164-.728a3.472 3.472 0 01-1.271.223c-.42 0-.763-.11-1.029-.33-.291-.246-.441-.601-.455-1.067h3.143zm-1.164-1.551c.142.226.211.494.203.805h-2.182c.034-.317.137-.588.311-.815a.995.995 0 01.834-.427c.375 0 .652.146.834.437z"/></g></svg>