<svg width="137" height="40" fill="none" xmlns="http://www.w3.org/2000/svg"><path d="M131.922 39.994H5.073C2.285 39.994 0 37.744 0 34.996V5c0-2.75 2.285-5 5.073-5h126.849c2.789 0 5.073 2.251 5.073 5v29.996c.001 2.748-2.283 4.998-5.073 4.998z" fill="#000"/><path fill-rule="evenodd" clip-rule="evenodd" d="M5.073 0h126.849c2.79 0 5.074 2.251 5.073 5v29.996c0 2.748-2.284 5-5.073 5H5.073c-2.788 0-5.073-2.252-5.073-5V5c0-2.75 2.285-5 5.073-5zm131.109 5c0-2.316-1.91-4.2-4.26-4.2H5.073C2.725.8.813 2.687.813 5v29.996c0 2.315 1.91 4.198 4.26 4.198h126.849c2.348 0 4.26-1.884 4.26-4.198V5z" fill="#A6A6A6"/><path d="M45.126 13.214a3.19 3.19 0 01-2.296-.922c-.629-.617-.947-1.389-.947-2.294 0-.906.32-1.676.947-2.289.628-.614 1.4-.926 2.296-.926.434 0 .865.087 1.28.26.412.173.742.406.983.69l.047.058-.644.64-.057-.065c-.394-.458-.92-.68-1.61-.68-.615 0-1.157.216-1.608.642-.447.427-.674.989-.674 1.67 0 .685.227 1.248.674 1.676.456.424.998.64 1.608.64.657 0 1.209-.217 1.644-.645.267-.265.424-.618.477-1.078h-2.201v-.884h3.094l.014.063c.032.144.047.293.047.47 0 .853-.26 1.546-.777 2.06-.59.606-1.362.914-2.297.914zm7.75-.138h-3.714V6.921h3.714v.898h-2.768v1.738h2.497v.884h-2.497v1.737h2.768v.898zm3.301 0h-.946V7.82h-1.7v-.9h4.345v.898h-1.7v5.257zm5.509 0h-.945V6.921h.945v6.155zm3.47 0h-.94V7.82H62.51v-.9h4.35v.898h-1.706v5.257h.002z" fill="#fff"/><path fill-rule="evenodd" clip-rule="evenodd" d="M70.174 12.282c.613.618 1.384.932 2.293.932.906 0 1.676-.314 2.288-.931.612-.618.921-1.385.921-2.282 0-.891-.312-1.658-.925-2.278-.613-.622-1.38-.938-2.284-.938-.909 0-1.68.314-2.293.932-.61.617-.92 1.386-.92 2.283 0 .896.31 1.664.92 2.282zm2.293.033c-.636 0-1.158-.212-1.598-.65-.435-.433-.655-.993-.654-1.667 0-.673.22-1.234.654-1.667.44-.436.963-.65 1.598-.65.628 0 1.163.219 1.593.65.434.433.655.994.655 1.667 0 .674-.22 1.234-.655 1.667-.428.431-.964.65-1.593.65z" fill="#fff"/><path d="M81.466 13.076h-.942l-.023-.037-2.976-4.7.028.92v3.817h-.94V6.921h1.076l2.86 4.507-.027-.914V6.92h.944v6.155z" fill="#fff"/><path fill-rule="evenodd" clip-rule="evenodd" d="M48.45 23.053v1.808h4.38c-.128 1.01-.471 1.752-.996 2.27-.64.624-1.635 1.318-3.384 1.318a4.774 4.774 0 01-4.807-4.8c0-2.655 2.111-4.8 4.807-4.8 1.457 0 2.518.562 3.3 1.29l1.292-1.274c-1.094-1.03-2.55-1.82-4.592-1.82-3.697 0-6.803 2.963-6.803 6.605 0 3.641 3.107 6.605 6.803 6.605 1.997 0 3.498-.645 4.678-1.855 1.21-1.192 1.585-2.866 1.585-4.218 0-.42-.035-.806-.098-1.129H48.45zm11.243-1.303c-2.389 0-4.33 1.787-4.33 4.253 0 2.445 1.941 4.252 4.33 4.252 2.388 0 4.33-1.807 4.33-4.252 0-2.466-1.942-4.253-4.33-4.253zm5.118 4.253c0-2.466 1.948-4.253 4.331-4.253 2.389 0 4.337 1.787 4.335 4.253 0 2.445-1.946 4.252-4.335 4.252-2.383 0-4.33-1.807-4.33-4.252zm1.898 0c0 1.513 1.125 2.576 2.433 2.576 1.308 0 2.439-1.063 2.438-2.576 0-1.534-1.13-2.578-2.438-2.578-1.308 0-2.433 1.044-2.433 2.578zm-9.454 0c0 1.513 1.129 2.576 2.438 2.576 1.308 0 2.433-1.063 2.433-2.576 0-1.534-1.125-2.578-2.433-2.578-1.309 0-2.438 1.044-2.438 2.578zm33.476-4.253c2.24 0 3.34 1.753 3.696 2.704 0 0 .2.484.198.484l-5.772 2.353c.44.854 1.13 1.288 2.09 1.288.966 0 1.634-.468 2.125-1.175l1.472.966a4.292 4.292 0 01-3.597 1.885c-2.452 0-4.28-1.87-4.28-4.252 0-2.53 1.847-4.253 4.068-4.253zm-2.19 4.12c-.05-1.64 1.292-2.48 2.254-2.48.753 0 1.393.372 1.605.903l-3.86 1.577zm-2.794 4.126H83.85V17.498h1.897v12.498zm-5.005-7.299h-.063c-.427-.497-1.24-.947-2.27-.947-2.16 0-4.138 1.869-4.138 4.267 0 2.384 1.976 4.238 4.138 4.238 1.03 0 1.843-.453 2.27-.967h.063v.61c0 1.626-.882 2.5-2.304 2.5-1.16 0-1.879-.824-2.175-1.519l-1.651.68c.476 1.127 1.735 2.515 3.826 2.515 2.225 0 4.103-1.29 4.103-4.429V22.01h-1.8v.688zm-4.573 3.319c0 1.485 1.094 2.564 2.402 2.564 1.289 0 2.305-1.078 2.305-2.564 0-1.5-1.016-2.592-2.305-2.592-1.308 0-2.402 1.093-2.402 2.592zm27.142-8.518h-4.538v12.498h1.893V25.26h2.647c2.101 0 4.163-1.5 4.163-3.882-.001-2.381-2.068-3.88-4.165-3.88zm-2.645 6.024h2.695c1.412 0 2.219-1.176 2.219-2.143 0-.986-.805-2.142-2.219-2.142h-2.695v4.285zm14.394-1.796c-1.367 0-2.789.595-3.374 1.913l1.68.693c.362-.693 1.026-.918 1.729-.918.981 0 1.977.581 1.992 1.608v.131c-.343-.195-1.075-.484-1.977-.484-1.808 0-3.652.981-3.652 2.813 0 1.675 1.482 2.753 3.148 2.753 1.273 0 1.976-.567 2.417-1.225h.065v.967h1.828v-4.794c-.001-2.217-1.68-3.457-3.856-3.457zm-1.71 5.79c0 .756.862 1.059 1.481 1.059 1.097 0 2.108-.82 2.256-1.977-.506-.24-.897-.42-1.73-.42-.932 0-2.007.37-2.007 1.338zm12.225-5.517l-2.175 5.419h-.066l-2.248-5.419h-2.042l3.379 7.572-1.929 4.213h1.978l5.207-11.785h-2.104zm-15.162 7.997h-1.898V17.498h1.898v12.498z" fill="#fff"/><path d="M10.59 7.537c-.298.308-.472.786-.472 1.406v22.112c0 .62.172 1.099.471 1.405l.074.068L23.24 20.142v-.292L10.663 7.465l-.074.072z" fill="url(#paint0_linear_0_1519)"/><path d="M27.426 24.275l-4.187-4.13v-.293l4.193-4.13.094.053 4.965 2.784c1.417.79 1.417 2.09 0 2.885l-4.965 2.777-.1.054z" fill="url(#paint1_linear_0_1519)"/><path d="M27.525 24.22l-4.287-4.223-12.649 12.465c.472.487 1.238.546 2.112.059l14.824-8.3" fill="url(#paint2_linear_0_1519)"/><path d="M27.525 15.774L12.7 7.474c-.873-.483-1.64-.424-2.112.063l12.65 12.46 4.287-4.223z" fill="url(#paint3_linear_0_1519)"/><defs><linearGradient id="paint0_linear_0_1519" x1="26.514" y1="15.022" x2="6.417" y2="9.595" gradientUnits="userSpaceOnUse"><stop stop-color="#00A0FF"/><stop offset=".007" stop-color="#00A1FF"/><stop offset=".26" stop-color="#00BEFF"/><stop offset=".512" stop-color="#00D2FF"/><stop offset=".76" stop-color="#00DFFF"/><stop offset="1" stop-color="#00E3FF"/></linearGradient><linearGradient id="paint1_linear_0_1519" x1="34.335" y1="9.818" x2="9.78" y2="9.818" gradientUnits="userSpaceOnUse"><stop stop-color="#FFE000"/><stop offset=".409" stop-color="#FFBD00"/><stop offset=".775" stop-color="orange"/><stop offset="1" stop-color="#FF9C00"/></linearGradient><linearGradient id="paint2_linear_0_1519" x1="31.707" y1="17.276" x2="15.892" y2="-9.741" gradientUnits="userSpaceOnUse"><stop stop-color="#FF3A44"/><stop offset="1" stop-color="#C31162"/></linearGradient><linearGradient id="paint3_linear_0_1519" x1="5.632" y1="35.392" x2="12.689" y2="23.326" gradientUnits="userSpaceOnUse"><stop stop-color="#32A071"/><stop offset=".069" stop-color="#2DA771"/><stop offset=".476" stop-color="#15CF74"/><stop offset=".801" stop-color="#06E775"/><stop offset="1" stop-color="#00F076"/></linearGradient></defs></svg>