<svg width="24" height="24" fill="none" xmlns="http://www.w3.org/2000/svg"><path fill-rule="evenodd" clip-rule="evenodd" d="M12 0C8.741 0 8.332.014 7.052.072 5.775.13 4.902.333 4.14.63a5.882 5.882 0 00-2.126 1.384A5.882 5.882 0 00.63 4.14c-.297.763-.5 1.635-.558 2.912C.014 8.332 0 8.741 0 12c0 3.259.014 3.668.072 4.948.058 1.277.261 2.15.558 2.912.307.79.717 1.459 1.384 2.126A5.882 5.882 0 004.14 23.37c.763.297 1.635.5 2.912.558C8.332 23.986 8.741 24 12 24c3.259 0 3.668-.014 4.948-.072 1.277-.059 2.15-.261 2.912-.558a5.881 5.881 0 002.126-1.384 5.881 5.881 0 001.384-2.126c.297-.763.5-1.635.558-2.912.058-1.28.072-1.689.072-4.948 0-3.259-.014-3.668-.072-4.948-.059-1.277-.261-2.15-.558-2.912a5.882 5.882 0 00-1.384-2.126A5.881 5.881 0 0019.86.63c-.763-.297-1.635-.5-2.912-.558C15.668.014 15.259 0 12 0zm0 2.162c3.204 0 3.584.012 4.849.07 1.17.053 1.805.249 2.228.413.56.218.96.478 1.38.898.42.42.68.82.898 1.38.164.423.36 1.058.413 2.228.058 1.265.07 1.645.07 4.849s-.012 3.584-.07 4.849c-.053 1.17-.249 1.805-.413 2.228-.218.56-.478.96-.898 1.38-.42.42-.82.68-1.38.898-.423.164-1.058.36-2.228.413-1.265.058-1.645.07-4.849.07s-3.584-.012-4.849-.07c-1.17-.053-1.805-.249-2.228-.413a3.717 3.717 0 01-1.38-.898c-.42-.42-.68-.82-.898-1.38-.164-.423-.36-1.058-.413-2.228-.058-1.265-.07-1.645-.07-4.849s.012-3.584.07-4.849c.053-1.17.249-1.805.413-2.228.218-.56.478-.96.898-1.38.42-.42.82-.68 1.38-.898.423-.164 1.058-.36 2.228-.413 1.265-.058 1.645-.07 4.849-.07zM5.838 12a6.162 6.162 0 1112.324 0 6.162 6.162 0 01-12.324 0zM12 16a4 4 0 110-8 4 4 0 010 8zm6.406-8.966a1.44 1.44 0 100-2.88 1.44 1.44 0 000 2.88z" fill="#fff"/></svg>