<svg width="204" height="62" fill="none" xmlns="http://www.w3.org/2000/svg"><path fill-rule="evenodd" clip-rule="evenodd" d="M101.317 12.43a3.353 3.353 0 00-2.53 3.24 3.353 3.353 0 002.53 3.242V12.43zm0-1.94V6.698a2.07 2.07 0 00-1.243 1.897 2.07 2.07 0 001.243 1.895zm1.65 0a2.073 2.073 0 001.244-1.895c0-.849-.514-1.577-1.244-1.897v3.792zm2.53 5.18c0-1.564-1.08-2.87-2.53-3.24v6.482a3.353 3.353 0 002.53-3.241zm-4.18 10.917l-6.667-6.326v9.654H93V16.422l8.317 7.89v-3.708a5.011 5.011 0 01-4.18-4.933 5.006 5.006 0 012.513-4.335 3.699 3.699 0 01-1.226-2.741 3.72 3.72 0 012.893-3.621V0h1.65v4.974a3.722 3.722 0 012.894 3.62c0 1.089-.479 2.06-1.226 2.742a5.007 5.007 0 012.512 4.335 5.011 5.011 0 01-4.18 4.933v3.729l8.338-7.911v13.493h-1.65V20.26l-6.688 6.346v11.637h-1.65V26.587zm64.378 32.718v1.598h-10.319l2.89-4.301c2.312-3.468 3.752-5.604 4.318-6.409h-5.117c-.362 0-.685-.093-.969-.28-.283-.188-.425-.44-.425-.757V48h1.53v.221c0 .181.034.292.102.332.068.04.216.059.442.059h7.361l-7.293 10.693h7.48zM84.42 57.673h4.726l1.275 3.23h1.904l-5.372-12.801h-.102L81.48 60.903h1.632l1.31-3.23zm-72.197-9.452v12.682h-1.632v-7.956l-4.522 6.409h-.034l-4.437-6.188v7.735H0V48.221h.017l6.052 8.568 6.137-8.568h.017zm6.13.391v12.291h-1.65V48.612h1.65zm6.129 10.693V48.612h-1.65v12.291h7.906v-1.598h-6.256zM36 48.612v10.693h6.256v1.598h-7.905V48.612h1.65zm11.52 12.291V48.612h-1.65v12.291h1.65zm3.715-6.137c0-1.122.284-2.165.85-3.128a6.455 6.455 0 012.287-2.303 6.003 6.003 0 013.136-.859c1.122 0 2.165.286 3.128.858a6.5 6.5 0 012.304 2.304c.572.963.858 2.006.858 3.128a6.093 6.093 0 01-.85 3.145 6.278 6.278 0 01-2.303 2.286 6.154 6.154 0 01-3.137.842 6.189 6.189 0 01-3.145-.833 6.187 6.187 0 01-2.286-2.27c-.561-.957-.842-2.014-.842-3.17zm2.312 2.346a4.614 4.614 0 01-.612-2.329c0-.85.201-1.638.604-2.363.402-.725.955-1.3 1.657-1.726a4.384 4.384 0 012.312-.637c.839 0 1.61.21 2.312.629.703.42 1.258.992 1.666 1.717a4.74 4.74 0 01.612 2.363c0 .85-.2 1.635-.603 2.355a4.483 4.483 0 01-3.953 2.32c-.838 0-1.612-.21-2.32-.629a4.59 4.59 0 01-1.675-1.7zm24.677-8.5v12.699h-.051l-9.027-9.163.034 8.755h-1.666V48.238h.085l9.01 9.265-.034-8.891h1.649zm10.362 7.633l-1.75-4.488-1.82 4.488h3.57zm8.629 4.658V48.612h-1.65v12.291h1.65zm11.246 0l-2.89-4.539a3.6 3.6 0 01-.408.017h-1.819v4.522h-1.649V48.612h3.281c.839 0 1.587.147 2.244.442a3.524 3.524 0 011.547 1.3c.374.573.561 1.261.561 2.066a4.42 4.42 0 01-.501 2.091c-.335.635-.848 1.116-1.539 1.445l3.094 4.947h-1.921zm-1.419-6.817c-.392.465-1.029.697-1.913.697h-1.785v-4.59h1.904c.544 0 .995.116 1.352.349.357.232.617.524.782.875.164.351.246.708.246 1.071 0 .6-.195 1.133-.586 1.598zm14.807-5.474v1.581h-6.341v3.74h5.661v1.581h-5.661v3.791h6.579v1.598h-8.228V48.612h7.99zm17.512 7.08c-.408-.504-.963-.892-1.666-1.164a2.979 2.979 0 001.233-1.13c.289-.482.433-1.046.433-1.692 0-1.031-.345-1.805-1.037-2.32-.691-.516-1.666-.774-2.924-.774h-3.179v12.291h3.655a5.49 5.49 0 002.032-.365 3.335 3.335 0 001.496-1.14c.38-.515.569-1.164.569-1.946 0-.669-.204-1.255-.612-1.76zm-5.491-1.708h1.87c.635 0 1.114-.181 1.437-.544.323-.363.484-.827.484-1.394 0-.623-.192-1.088-.578-1.394-.385-.306-.923-.459-1.615-.459h-1.598v3.791zm3.706 4.904c-.464.324-1.054.485-1.768.485h-1.938v-3.791h1.819c.714 0 1.324.153 1.828.459.504.306.756.782.756 1.428 0 .623-.232 1.096-.697 1.42zm12.284-1.215h-4.726l-1.309 3.23h-1.632l5.372-12.801h.102l5.372 12.801h-1.904l-1.275-3.23zm-2.312-5.916l1.751 4.488h-3.57l1.819-4.488zm23.513 5.916h4.726l1.275 3.23h1.904l-5.372-12.801h-.102l-5.372 12.801h1.632l1.309-3.23zm4.165-1.428l-1.751-4.488-1.819 4.488h3.57zm8.696 1.428h4.726l1.275 3.23h1.904l-5.372-12.801h-.102l-5.372 12.801h1.632l1.309-3.23zm4.165-1.428l-1.751-4.488-1.819 4.488h3.57zm10.856.119l2.89 4.539h1.921l-3.094-4.947c.691-.329 1.204-.81 1.538-1.445a4.421 4.421 0 00.502-2.091c0-.805-.187-1.493-.561-2.066a3.524 3.524 0 00-1.547-1.3c-.658-.295-1.406-.442-2.244-.442h-3.281v12.291h1.649v-4.522h1.819a3.6 3.6 0 00.408-.017zm-.442-1.581c.884 0 1.521-.232 1.912-.697.391-.465.587-.997.587-1.598 0-.363-.083-.72-.247-1.071a2.098 2.098 0 00-.782-.876c-.357-.232-.807-.348-1.351-.348h-1.904v4.59h1.785z" fill="url(#paint0_linear_0_1099)"/><defs><linearGradient id="paint0_linear_0_1099" x1="98.409" y1="-43.883" x2="42.743" y2="98.843" gradientUnits="userSpaceOnUse"><stop stop-color="#9E7816"/><stop offset=".562" stop-color="#FFCA76"/><stop offset="1" stop-color="#774C00"/></linearGradient></defs></svg>