<svg width="16" height="16" fill="none" xmlns="http://www.w3.org/2000/svg"><path fill-rule="evenodd" clip-rule="evenodd" d="M2.5 5a2.5 2.5 0 110-5 2.5 2.5 0 010 5zM4 15.496a.492.492 0 01-.48.504H1.48a.492.492 0 01-.48-.504V6.504C1 6.226 1.215 6 1.48 6h2.04c.265 0 .48.226.48.504v8.992zM15.527 16c.261 0 .473-.225.473-.502v-4.751C16 8.69 16 5 12.257 5c-1.7 0-2.5.66-3.036 1.516v-.85a.488.488 0 00-.474-.502H6.473c-.261 0-.473.224-.473.502v9.832c0 .277.212.502.473.502h2.274a.489.489 0 00.474-.502v-5.272c.059-.708.353-2.287 1.802-2.287 1.73 0 1.696 1.98 1.681 2.813l-.002.175v4.57c0 .278.212.503.473.503h2.352z" fill="#0C0C12"/></svg>