<svg width="20" height="20" fill="none" xmlns="http://www.w3.org/2000/svg"><path fill-rule="evenodd" clip-rule="evenodd" d="M10 0C7.282 0 6.942.012 5.875.06 4.812.11 4.085.278 3.45.525A4.902 4.902 0 001.678 1.68 4.902 4.902 0 00.524 3.45C.277 4.087.108 4.814.06 5.878.011 6.944 0 7.284 0 10s.012 3.057.06 4.123c.049 1.065.218 1.792.465 2.428a4.902 4.902 0 001.154 1.77 4.902 4.902 0 001.77 1.154c.637.247 1.364.416 2.428.465 1.067.049 1.407.06 4.123.06s3.057-.011 4.123-.06c1.065-.049 1.792-.218 2.428-.465a4.901 4.901 0 001.77-1.153 4.902 4.902 0 001.154-1.771c.247-.636.416-1.363.465-2.428.049-1.066.06-1.407.06-4.123s-.011-3.056-.06-4.123c-.049-1.064-.218-1.791-.465-2.427a4.902 4.902 0 00-1.153-1.771A4.9 4.9 0 0016.55.525C15.914.278 15.187.11 14.122.06 13.056.012 12.715 0 10 0zm0 1.802c2.67 0 2.986.01 4.04.058.975.045 1.505.208 1.857.345.467.181.8.398 1.15.748.35.35.566.683.748 1.15.137.352.3.881.344 1.856.048 1.055.058 1.371.058 4.041 0 2.67-.01 2.987-.058 4.041-.044.975-.207 1.505-.344 1.857-.182.467-.398.8-.748 1.15-.35.35-.683.566-1.15.748-.352.137-.882.3-1.857.344-1.054.048-1.37.058-4.04.058-2.671 0-2.987-.01-4.042-.058-.975-.044-1.504-.207-1.856-.344a3.097 3.097 0 01-1.15-.748 3.098 3.098 0 01-.748-1.15c-.137-.352-.3-.882-.345-1.857-.048-1.054-.058-1.37-.058-4.04s.01-2.987.058-4.042c.045-.975.208-1.504.345-1.857a3.1 3.1 0 01.748-1.15 3.09 3.09 0 011.15-.747c.352-.137.881-.3 1.856-.345C7.013 1.812 7.33 1.802 10 1.802zM4.863 10a5.135 5.135 0 1110.27 0 5.135 5.135 0 01-10.27 0zM10 13.334a3.333 3.333 0 110-6.667 3.333 3.333 0 010 6.667zm5.338-7.472a1.2 1.2 0 100-2.4 1.2 1.2 0 000 2.4z" fill="#0C0C12"/></svg>