<svg width="25" height="20" fill="none" xmlns="http://www.w3.org/2000/svg"><path fill-rule="evenodd" clip-rule="evenodd" d="M2.232 0h20.536c.604 0 1.127.223 1.57.667A2.2 2.2 0 0125 2.273c0 .748-.228 1.463-.683 2.145a6.7 6.7 0 01-1.702 1.747 13753.253 13753.253 0 00-6.53 4.616l-.208.151-.384.282c-.302.223-.553.403-.753.54a14.8 14.8 0 01-.726.462c-.284.17-.551.298-.802.384a2.186 2.186 0 01-.698.127h-.028c-.213 0-.446-.042-.697-.127a4.199 4.199 0 01-.802-.384 13.56 13.56 0 01-.726-.462c-.2-.137-.45-.317-.753-.54l-.385-.282-.01-.007A924.323 924.323 0 005.26 8.188 601.506 601.506 0 012.4 6.166c-.576-.398-1.12-.945-1.632-1.64C.257 3.827 0 3.181 0 2.584 0 1.847.193 1.231.58.738.964.246 1.515 0 2.231 0zM0 6.449c.41.464.88.876 1.41 1.236a483.571 483.571 0 014.833 3.38L0 17.42V6.45zm24.23 12.989c-.413.373-.9.562-1.462.562H2.232a2.116 2.116 0 01-1.463-.562l7.084-7.214c.178.13.342.25.49.361.53.398.96.708 1.29.93.33.223.77.45 1.318.682.55.232 1.06.348 1.535.348h.028c.474 0 .986-.116 1.535-.348.548-.232.988-.459 1.318-.682.33-.222.76-.532 1.29-.93l.49-.359 7.084 7.212zm-.625-11.753c-1.9 1.31-3.515 2.437-4.845 3.382L25 17.421V6.45c-.4.455-.865.866-1.395 1.236z" fill="#0C0C12"/></svg>