<svg width="118" height="38" fill="none" xmlns="http://www.w3.org/2000/svg"><path fill-rule="evenodd" clip-rule="evenodd" d="M33.548 26.11l.184.455c.479 1.385.626 2.694.333 4.003-.405 2.769-2.211 5.163-4.792 6.211-.922.412-1.953.599-2.986.599-.295 0-.664-.037-.959-.075a9.634 9.634 0 01-3.686-1.272c-1.474-.86-2.949-2.095-4.57-3.89-1.623 1.795-3.06 3.03-4.572 3.89a9.645 9.645 0 01-3.686 1.272 8.213 8.213 0 01-.959.075 7.47 7.47 0 01-2.986-.599C2.325 35.731.483 33.374.077 30.57c-.185-1.35-.037-2.66.443-4.044.185-.486.369-.935.553-1.347.13-.3.262-.59.39-.875.16-.356.315-.7.458-1.033l.037-.075c2.544-5.612 5.308-11.299 8.147-16.91l.11-.226c.302-.582.597-1.168.885-1.758.368-.674.774-1.385 1.327-2.058C13.642.823 15.301 0 17.144 0c1.806 0 3.502.823 4.682 2.32.543.621.899 1.273 1.24 1.9l.087.158c.287.59.581 1.176.884 1.759l.11.225a392.513 392.513 0 018.147 16.91l.037.038c.144.335.3.681.461 1.04.127.282.257.571.387.868.123.275.246.584.37.892zM62.19 9.392c0 1.347-1.07 2.431-2.397 2.431-1.327 0-2.396-1.084-2.396-2.431S58.43 6.96 59.793 6.96c1.365.037 2.397 1.122 2.397 2.432zm-9.88 4.901v.6s-1.142-1.498-3.575-1.498c-4.018 0-7.152 3.105-7.152 7.408 0 4.265 3.097 7.408 7.152 7.408 2.47 0 3.575-1.534 3.575-1.534v.636c0 .3.222.523.516.523h2.986V13.768h-2.986a.534.534 0 00-.516.525zm-2.985 10.551c1.326 0 2.433-.71 2.985-1.534v-5.014c-.516-.786-1.695-1.534-2.985-1.534-2.36 0-4.166 1.497-4.166 4.041 0 2.545 1.806 4.041 4.166 4.041zm8.699-11.075h3.539v14.068h-3.539V13.77zm49.286 1.123s1.143-1.497 3.576-1.497c3.981 0 7.114 3.144 7.114 7.41 0 4.265-3.133 7.407-7.152 7.407-2.432 0-3.575-1.534-3.575-1.534v.635a.531.531 0 01-.516.524h-2.986V6.997h3.539v7.895zm2.986 9.915c-1.364 0-2.433-.71-2.986-1.534v-5.014c.553-.749 1.732-1.534 2.986-1.534 2.359 0 4.165 1.496 4.165 4.04 0 2.545-1.806 4.041-4.165 4.041zm-8.368 3.068v-8.381c0-2.357-.479-3.704-1.732-4.752-1.032-.898-2.323-1.347-3.871-1.347-1.364 0-2.728.412-3.76 1.497v-.599a.532.532 0 00-.516-.524h-2.8v14.069h3.537v-9.803c.701-.824 1.808-1.385 2.876-1.385 1.99 0 2.727.936 2.727 3.255v7.97h3.539zm-21.27-14.48c-2.433 0-3.576 1.497-3.576 1.497V6.997h-3.538v20.84h2.985a.532.532 0 00.516-.524v-.635s1.144 1.534 3.576 1.534c4.018 0 7.151-3.142 7.151-7.408.037-4.266-3.096-7.41-7.114-7.41zm-3.576 9.878c.553.823 1.622 1.534 2.986 1.534 2.36 0 4.166-1.497 4.166-4.041 0-2.545-1.806-4.041-4.166-4.041-1.253 0-2.433.785-2.986 1.534v5.014zm-6.598-9.878c1.068 0 1.622.187 1.622.187v3.33s-2.95-1.01-4.792 1.123v9.84h-3.54V13.768h2.987a.53.53 0 01.515.524v.599c.665-.786 2.102-1.497 3.208-1.497zM17.107 28.51c-1.99-2.545-3.281-4.94-3.723-6.959-.184-.86-.222-1.61-.11-2.283a3.656 3.656 0 01.59-1.571c.7-1.01 1.88-1.646 3.243-1.646 1.365 0 2.581.598 3.245 1.646.295.449.516.973.59 1.571.11.674.073 1.46-.11 2.283-.445 1.983-1.735 4.377-3.725 6.959zm11.353 6.136a5.548 5.548 0 003.354-4.378c.148-.972.038-1.908-.256-2.88-.077-.26-.19-.52-.313-.806-.054-.124-.11-.254-.167-.39a21.902 21.902 0 01-.422-.934 21.9 21.9 0 00-.426-.938v-.038a498.803 498.803 0 00-8.073-16.836l-.11-.225c-.145-.275-.29-.56-.434-.844-.15-.295-.3-.591-.451-.877-.295-.598-.627-1.16-1.032-1.647-.774-.897-1.806-1.384-2.95-1.384-1.142 0-2.174.487-2.948 1.384-.406.487-.738 1.048-1.033 1.647-.143.272-.286.554-.429.835-.152.299-.304.597-.456.886l-.11.225a410.567 410.567 0 00-8.11 16.799l-.037.074c-.295.636-.59 1.273-.847 1.871-.057.138-.114.269-.168.395a7.235 7.235 0 00-.312.803 6.276 6.276 0 00-.331 2.918 5.548 5.548 0 003.354 4.378 5.818 5.818 0 002.801.373c.922-.111 1.843-.41 2.801-.972 1.328-.749 2.692-1.909 4.203-3.63-2.396-3.03-3.907-5.837-4.46-8.306a7.886 7.886 0 01-.184-3.18 6.14 6.14 0 01.995-2.545c1.143-1.646 3.06-2.656 5.198-2.656 2.137 0 4.054.972 5.198 2.656a6.14 6.14 0 01.995 2.545 9.5 9.5 0 01-.184 3.18c-.554 2.47-2.028 5.239-4.46 8.269 1.548 1.721 2.875 2.88 4.202 3.63.957.56 1.88.86 2.801.972.958.112 1.917 0 2.801-.374z" fill="#9B9B9B"/></svg>