<svg width="34" height="33" fill="none" xmlns="http://www.w3.org/2000/svg"><g filter="url(#filter0_d_259_12355)"><path d="M27.164 6.063a23.429 23.429 0 00-5.97-1.936.087.087 0 00-.056.007.092.092 0 00-.041.04c-.257.48-.543 1.104-.743 1.597a21.37 21.37 0 00-6.706 0 16.441 16.441 0 00-.755-1.597.096.096 0 00-.04-.04.09.09 0 00-.056-.007 23.362 23.362 0 00-5.97 1.936.087.087 0 00-.04.034c-3.803 5.94-4.845 11.734-4.333 17.455a.108.108 0 00.037.072 23.939 23.939 0 007.325 3.872.091.091 0 00.057-.001.096.096 0 00.046-.035 18.161 18.161 0 001.498-2.548.1.1 0 00-.017-.113.09.09 0 00-.033-.022 15.727 15.727 0 01-2.288-1.14.096.096 0 01-.033-.033.102.102 0 01.023-.13c.155-.121.306-.245.455-.373a.088.088 0 01.094-.013c4.8 2.29 9.998 2.29 14.742 0a.087.087 0 01.095.012c.147.126.301.253.456.374a.098.098 0 01.038.083.097.097 0 01-.045.08c-.731.445-1.497.827-2.29 1.139a.094.094 0 00-.053.056.102.102 0 00.004.08c.44.892.943 1.74 1.497 2.547a.093.093 0 00.046.035.088.088 0 00.056 0 23.861 23.861 0 007.336-3.87.096.096 0 00.04-.07c.61-6.615-1.025-12.361-4.338-17.454a.076.076 0 00-.038-.039v.002zm-15.03 14.004c-1.445 0-2.636-1.386-2.636-3.09s1.169-3.092 2.637-3.092c1.478 0 2.659 1.4 2.636 3.092 0 1.704-1.169 3.09-2.636 3.09zm9.747 0c-1.445 0-2.636-1.386-2.636-3.09s1.167-3.092 2.636-3.092c1.48 0 2.66 1.4 2.637 3.092 0 1.704-1.156 3.09-2.637 3.09z" fill="#FFD7B7"/></g><defs><filter id="filter0_d_259_12355" x="-1" y="-2" width="36" height="37" filterUnits="userSpaceOnUse" color-interpolation-filters="sRGB"><feFlood flood-opacity="0" result="BackgroundImageFix"/><feColorMatrix in="SourceAlpha" values="0 0 0 0 0 0 0 0 0 0 0 0 0 0 0 0 0 0 127 0" result="hardAlpha"/><feOffset/><feGaussianBlur stdDeviation="1"/><feComposite in2="hardAlpha" operator="out"/><feColorMatrix values="0 0 0 0 0.229167 0 0 0 0 0.0315538 0 0 0 0 0.0185243 0 0 0 1 0"/><feBlend in2="BackgroundImageFix" result="effect1_dropShadow_259_12355"/><feBlend in="SourceGraphic" in2="effect1_dropShadow_259_12355" result="shape"/></filter></defs></svg>