<svg width="33" height="33" fill="none" xmlns="http://www.w3.org/2000/svg"><g filter="url(#filter0_d_259_12356)"><path fill-rule="evenodd" clip-rule="evenodd" d="M9.228 5.46a81.65 81.65 0 0114.543 0l2.087.186a4.511 4.511 0 014.061 3.84 48.48 48.48 0 010 14.027 4.511 4.511 0 01-4.061 3.84l-2.087.187a81.663 81.663 0 01-14.543 0l-2.086-.187a4.51 4.51 0 01-4.062-3.84 48.48 48.48 0 010-14.026 4.51 4.51 0 014.062-3.84l2.086-.187zM8.051 9.404a1.031 1.031 0 00-1.52.908v13.063a1.031 1.031 0 002.062 0V12.039l7.418 3.994c.305.164.672.164.978 0l7.417-3.994v11.336a1.031 1.031 0 002.063 0V10.312a1.031 1.031 0 00-1.52-.908l-8.45 4.55-8.448-4.55z" fill="#FFD7B7"/></g><defs><filter id="filter0_d_259_12356" x="-2" y="-2" width="37" height="37" filterUnits="userSpaceOnUse" color-interpolation-filters="sRGB"><feFlood flood-opacity="0" result="BackgroundImageFix"/><feColorMatrix in="SourceAlpha" values="0 0 0 0 0 0 0 0 0 0 0 0 0 0 0 0 0 0 127 0" result="hardAlpha"/><feOffset/><feGaussianBlur stdDeviation="1"/><feComposite in2="hardAlpha" operator="out"/><feColorMatrix values="0 0 0 0 0.229167 0 0 0 0 0.0315538 0 0 0 0 0.0185243 0 0 0 1 0"/><feBlend in2="BackgroundImageFix" result="effect1_dropShadow_259_12356"/><feBlend in="SourceGraphic" in2="effect1_dropShadow_259_12356" result="shape"/></filter></defs></svg>