<svg width="33" height="33" fill="none" xmlns="http://www.w3.org/2000/svg"><g filter="url(#filter0_d_259_12354)" fill="#FFD7B7"><path d="M16.498 12.031a4.469 4.469 0 100 8.938 4.469 4.469 0 000-8.938z"/><path fill-rule="evenodd" clip-rule="evenodd" d="M9.307 4.237c4.74-.53 9.642-.53 14.383 0 2.61.292 4.716 2.348 5.022 4.968a62.808 62.808 0 010 14.59c-.306 2.62-2.411 4.676-5.022 4.968-4.74.53-9.642.53-14.383 0-2.61-.292-4.716-2.349-5.022-4.968a62.798 62.798 0 010-14.59c.306-2.62 2.411-4.676 5.022-4.968zM23.373 8.25a1.375 1.375 0 100 2.75 1.375 1.375 0 000-2.75zM9.967 16.5a6.531 6.531 0 1113.063 0 6.531 6.531 0 01-13.063 0z"/></g><defs><filter id="filter0_d_259_12354" x="-2" y="-2" width="37" height="37" filterUnits="userSpaceOnUse" color-interpolation-filters="sRGB"><feFlood flood-opacity="0" result="BackgroundImageFix"/><feColorMatrix in="SourceAlpha" values="0 0 0 0 0 0 0 0 0 0 0 0 0 0 0 0 0 0 127 0" result="hardAlpha"/><feOffset/><feGaussianBlur stdDeviation="1"/><feComposite in2="hardAlpha" operator="out"/><feColorMatrix values="0 0 0 0 0.229167 0 0 0 0 0.0315538 0 0 0 0 0.0185243 0 0 0 1 0"/><feBlend in2="BackgroundImageFix" result="effect1_dropShadow_259_12354"/><feBlend in="SourceGraphic" in2="effect1_dropShadow_259_12354" result="shape"/></filter></defs></svg>