<svg width="37" height="33" fill="none" xmlns="http://www.w3.org/2000/svg"><g clip-path="url(#clip0_259_12358)" filter="url(#filter0_d_259_12358)"><path d="M20.614 16.5c0 5.125-4.166 9.281-9.308 9.281A9.295 9.295 0 012 16.5c0-5.127 4.166-9.281 9.306-9.281a9.294 9.294 0 019.308 9.281zm10.21 0c0 4.826-2.084 8.737-4.654 8.737s-4.653-3.913-4.653-8.737c0-4.826 2.084-8.737 4.653-8.737 2.57 0 4.653 3.913 4.653 8.737zm4.176 0c0 4.323-.732 7.827-1.638 7.827-.903 0-1.635-3.506-1.635-7.827 0-4.323.732-7.827 1.637-7.827.904 0 1.636 3.504 1.636 7.827z" fill="#FFD7B7"/></g><defs><clipPath id="clip0_259_12358"><path fill="#fff" transform="translate(2)" d="M0 0h33v33H0z"/></clipPath><filter id="filter0_d_259_12358" x="0" y="-2" width="37" height="37" filterUnits="userSpaceOnUse" color-interpolation-filters="sRGB"><feFlood flood-opacity="0" result="BackgroundImageFix"/><feColorMatrix in="SourceAlpha" values="0 0 0 0 0 0 0 0 0 0 0 0 0 0 0 0 0 0 127 0" result="hardAlpha"/><feOffset/><feGaussianBlur stdDeviation="1"/><feComposite in2="hardAlpha" operator="out"/><feColorMatrix values="0 0 0 0 0.229167 0 0 0 0 0.0315538 0 0 0 0 0.0185243 0 0 0 1 0"/><feBlend in2="BackgroundImageFix" result="effect1_dropShadow_259_12358"/><feBlend in="SourceGraphic" in2="effect1_dropShadow_259_12358" result="shape"/></filter></defs></svg>