<svg width="32" height="33" fill="none" xmlns="http://www.w3.org/2000/svg"><g filter="url(#filter0_d_259_12359)"><path d="M29.08 8.562c.077-.11-.037-.254-.16-.205-.88.351-1.797.588-2.733.705a5.636 5.636 0 002.293-2.778.13.13 0 00-.187-.161c-.97.551-2.014.949-3.1 1.178a.132.132 0 01-.124-.041 5.418 5.418 0 00-3.056-1.681 5.323 5.323 0 00-3.488.586 5.572 5.572 0 00-2.411 2.664 5.8 5.8 0 00-.366 3.45c.018.09-.05.175-.14.169a15.157 15.157 0 01-6.063-1.703 15.612 15.612 0 01-4.901-4.03.129.129 0 00-.218.02 5.864 5.864 0 00.003 5.33 5.567 5.567 0 001.784 2.03 5.27 5.27 0 01-2.278-.592.134.134 0 00-.196.126c.055 1.222.49 2.45 1.244 3.391a5.439 5.439 0 003.15 1.942c-.475.15-.97.228-1.466.234a6.325 6.325 0 01-.809-.062.136.136 0 00-.146.18 5.64 5.64 0 001.876 2.58c.915.7 2.02 1.088 3.159 1.11a10.752 10.752 0 01-7.5 2.395c-.142-.01-.207.185-.085.26a15.073 15.073 0 007.891 2.227 15.04 15.04 0 005.991-1.177 15.426 15.426 0 005.083-3.476 15.98 15.98 0 003.383-5.232 16.37 16.37 0 001.157-6.175v-.66a.14.14 0 01.053-.11c.905-.704 1.7-1.545 2.36-2.494z" fill="#FFD7B7"/></g><defs><filter id="filter0_d_259_12359" x="-2" y="-2" width="36" height="37" filterUnits="userSpaceOnUse" color-interpolation-filters="sRGB"><feFlood flood-opacity="0" result="BackgroundImageFix"/><feColorMatrix in="SourceAlpha" values="0 0 0 0 0 0 0 0 0 0 0 0 0 0 0 0 0 0 127 0" result="hardAlpha"/><feOffset/><feGaussianBlur stdDeviation="1"/><feComposite in2="hardAlpha" operator="out"/><feColorMatrix values="0 0 0 0 0.229167 0 0 0 0 0.0315538 0 0 0 0 0.0185243 0 0 0 1 0"/><feBlend in2="BackgroundImageFix" result="effect1_dropShadow_259_12359"/><feBlend in="SourceGraphic" in2="effect1_dropShadow_259_12359" result="shape"/></filter></defs></svg>