<?xml version="1.0" encoding="utf-8"?><svg width="28" height="30" fill="none" xmlns="http://www.w3.org/2000/svg" viewBox="0 0 28 30"><path fill-rule="evenodd" clip-rule="evenodd" d="M.5.5H17l.5.5v12h8l1 .5v15l-1 1H1l-.5-1V.5z" fill="#4785EE" fill-opacity=".3"/><path fill-rule="evenodd" clip-rule="evenodd" d="M.44 26.303a.438.438 0 00.439-.439V.88H17.2v1.267a.44.44 0 10.878 0V.44a.441.441 0 00-.44-.44H.44A.44.44 0 000 .44v25.424a.44.44 0 00.44.439zM13.063 3.45a3.132 3.132 0 00-2.22-.92c-.671 0-1.294.21-1.804.57a3.141 3.141 0 00-.698-.368 3.132 3.132 0 00-3.325.718 3.125 3.125 0 00-.92 2.22c0 .87.35 1.653.92 2.223a3.13 3.13 0 003.329.716c.249-.093.481-.218.694-.366.51.36 1.133.568 1.804.568a3.136 3.136 0 003.14-3.14c0-.868-.352-1.653-.92-2.221zM.44 30a.44.44 0 01-.44-.439v-1.707a.44.44 0 01.879 0v1.267h12.166a1.855 1.855 0 01-.28-.981V14.266c0-.513.209-.978.546-1.316a1.854 1.854 0 011.314-.546H17.2V4.137a.438.438 0 11.878 0v8.267h7.455c.513 0 .978.21 1.315.546.337.338.547.803.547 1.316V28.14c0 .511-.21.976-.547 1.313a1.855 1.855 0 01-1.315.547H.44zm14.427-4.372h2.337a.44.44 0 01.44.439v1.732a.44.44 0 01-.44.44h-2.337a.44.44 0 01-.44-.44v-1.732a.44.44 0 01.44-.439zm.439.88h1.46v.853h-1.46v-.854zm7.648-.88h2.339c.242 0 .438.196.438.439v1.732a.44.44 0 01-.438.44h-2.339a.44.44 0 01-.438-.44v-1.732c0-.243.196-.439.438-.439zm.44.88h1.459v.853h-1.459v-.854zm-4.482-.88h2.337c.242 0 .438.196.438.439v1.732a.44.44 0 01-.438.44h-2.337a.44.44 0 01-.44-.44v-1.732c0-.243.195-.439.44-.439zm.438.88h1.458v.853H19.35v-.854zm-4.483-4.318h2.337a.44.44 0 01.44.439v1.732a.44.44 0 01-.44.44h-2.337a.44.44 0 01-.44-.44V22.63a.44.44 0 01.44-.439zm.439.879h1.46v.852h-1.46v-.852zm7.648-.879h2.339c.242 0 .438.196.438.439v1.732a.44.44 0 01-.438.44h-2.339a.44.44 0 01-.438-.44V22.63c0-.243.196-.439.438-.439zm.44.879h1.459v.852h-1.459v-.852zm-4.482-.879h2.337c.242 0 .438.196.438.439v1.732a.44.44 0 01-.438.44h-2.337a.44.44 0 01-.44-.44V22.63c0-.243.195-.439.44-.439zm.438.879h1.458v.852H19.35v-.852zm-4.483-4.317h2.337a.44.44 0 01.44.439v1.732a.44.44 0 01-.44.44h-2.337a.44.44 0 01-.44-.44V19.19a.44.44 0 01.44-.439zm.439.879h1.46v.852h-1.46v-.852zm7.648-.879h2.339c.242 0 .438.196.438.439v1.732a.44.44 0 01-.438.44h-2.339a.44.44 0 01-.438-.44V19.19c0-.243.196-.439.438-.439zm.44.879h1.459v.852h-1.459v-.852zm-4.482-.879h2.337c.242 0 .438.196.438.439v1.732a.44.44 0 01-.438.44h-2.337a.44.44 0 01-.44-.44V19.19c0-.243.195-.439.44-.439zm.438.879h1.458v.852H19.35v-.852zm-.266-2.586a.44.44 0 110 .879h-4.217a.44.44 0 01-.44-.44v-2.918a.44.44 0 01.44-.438h10.426c.242 0 .438.196.438.438v2.919a.438.438 0 01-.438.438h-4.219a.44.44 0 010-.879h3.779v-2.037h-9.547v2.038h3.778zM7.132 24.753c0 .243.198.44.44.44h3.64a.44.44 0 100-.878h-3.64a.44.44 0 00-.44.438zm.44-3.541a.44.44 0 110-.879h3.64a.438.438 0 110 .879h-3.64zm-.44-4.422c0 .243.198.44.44.44h3.64a.44.44 0 100-.878h-3.64a.44.44 0 00-.44.438zm.44-3.54a.44.44 0 010-.881h3.64a.44.44 0 110 .88h-3.64zM2.33 24.441a.44.44 0 000 .622l.939.938c.17.173.45.173.621 0l1.877-1.877a.44.44 0 00-.621-.62L3.579 25.07l-.627-.628a.44.44 0 00-.622 0zm0-3.36a.44.44 0 01.622-.62l.627.627 1.567-1.566a.44.44 0 01.62.621L3.89 22.021a.437.437 0 01-.621 0l-.939-.939zm0-4.602a.44.44 0 000 .621l.939.939c.17.172.45.172.621 0l1.877-1.877a.44.44 0 00-.621-.622l-1.567 1.567-.627-.628a.44.44 0 00-.622 0zm0-3.36a.44.44 0 01.622-.621l.627.627 1.567-1.566a.44.44 0 01.62.621L3.89 14.058a.44.44 0 01-.621 0l-.939-.938zm6.051-5.498a3.127 3.127 0 01-.68-1.952c0-.737.255-1.415.682-1.951a2.24 2.24 0 00-1.146-.31c-.625 0-1.191.253-1.6.662-.41.41-.662.975-.662 1.6 0 .624.252 1.19.662 1.599.409.41.975.663 1.6.663a2.224 2.224 0 001.144-.31zm2.462-4.214c.624 0 1.19.254 1.6.663.41.41.662.975.662 1.6a2.25 2.25 0 01-.663 1.599 2.25 2.25 0 01-1.6.663 2.25 2.25 0 01-1.599-.663 2.257 2.257 0 010-3.199 2.257 2.257 0 011.6-.663zm3.782 25.713h10.909c.27 0 .515-.11.694-.289a.98.98 0 00.29-.692V14.266a.984.984 0 00-.983-.983h-10.91a.98.98 0 00-.693.289.974.974 0 00-.289.694V28.14c0 .269.11.515.29.692.177.18.423.29.692.29z" fill="#4785EE"/></svg>