<?xml version="1.0" encoding="utf-8"?><svg width="25" height="30" fill="none" xmlns="http://www.w3.org/2000/svg" viewBox="0 0 25 30"><path fill-rule="evenodd" clip-rule="evenodd" d="M.5 13.5V5h3l2-.5L8 4l2-1.5L12 1l2 1.5 2 1 2 1 2 .5 2.5.5h1V17L22 20l-2 3-1 1.5-2.5 2-2 1.5-2.5 1.5-3-2L7 26l-1.5-1.5-2-2-1-2-1-2.5-.5-2-.5-2.5z" fill="#4785EE" fill-opacity=".3"/><path fill-rule="evenodd" clip-rule="evenodd" d="M11.905 29.96a.426.426 0 00.362 0 22.87 22.87 0 008.72-6.84c.1-.136.2-.273.286-.402a16.439 16.439 0 001.72-3.078c.184-.428.346-.865.485-1.31a14.16 14.16 0 00.632-3.086c.042-.427.063-.856.061-1.285V4.913a.429.429 0 00-.464-.429c-4.776.402-8.473-1.019-11.296-4.333A.428.428 0 0011.76.15C8.875 3.518 5.18 4.936.47 4.485a.429.429 0 00-.47.427v9.047c0 6.55 4.45 12.531 11.905 16.001zM.857 13.96V5.377c4.615.331 8.296-1.079 11.229-4.3 2.874 3.17 6.557 4.58 11.228 4.295v8.587c.002.402-.018.804-.058 1.204-.09.99-.289 1.966-.595 2.912-.131.418-.284.83-.458 1.233a15.6 15.6 0 01-1.638 2.931 7.22 7.22 0 01-.273.381 21.916 21.916 0 01-8.206 6.48C5.05 25.761.857 20.114.857 13.959z" fill="#4785EE"/><path d="M21.099 15.63a.429.429 0 01-.426-.482c.048-.395.071-.792.07-1.19a.429.429 0 11.857-.004v.005c.002.433-.024.866-.076 1.296a.429.429 0 01-.425.375zM19.77 19.903a.429.429 0 01-.38-.628c.212-.398.4-.808.563-1.228a.429.429 0 11.8.309c-.176.45-.378.89-.604 1.318a.428.428 0 01-.38.229z" fill="#4785EE"/><path d="M12.086 27.133a.431.431 0 01-.2-.05c-5.832-3.071-9.315-7.978-9.315-13.124V7.547c0-.229.18-.417.408-.428a14.455 14.455 0 008.829-3.402.429.429 0 01.552 0 14.65 14.65 0 008.833 3.377c.228.012.406.2.406.428v3.433a.429.429 0 01-.857 0V7.923A15.437 15.437 0 0112.086 4.6a15.24 15.24 0 01-8.657 3.35v6.009c0 4.836 3.151 9.294 8.657 12.26a19.341 19.341 0 005.248-4.032.428.428 0 11.637.574 20.303 20.303 0 01-5.686 4.323.431.431 0 01-.2.049z" fill="#4785EE"/></svg>