<?xml version="1.0" encoding="utf-8"?><svg width="31" height="30" fill="none" xmlns="http://www.w3.org/2000/svg" viewBox="0 0 31 30"><path fill-rule="evenodd" clip-rule="evenodd" d="M9.5 13.5l-.5-3L8.5 9 8 6l1-3.5L11 1l4.5-.5 3 .5h1l1 1.5 1 1L22 5v3l-.5 2.5-1 2-1 3-1 2.5.5 1.5 8 2.5 2 3 .5 4-8 .5H2l-1.5-1 .5-3L2 23l2-1.5 3-1 3-1 1-.5 1-1.5-1.5-1.5-1-2.5z" fill="#4785EE" fill-opacity=".3"/><path d="M14.192 22.23a.51.51 0 00-.712.109l-.063.085a.51.51 0 00.82.605l.064-.087a.51.51 0 00-.109-.712z" fill="#4785EE"/><path d="M14.325 27.075l-1.31-2.382 1.223-1.665a.51.51 0 10-.82-.603l-1.416 1.928a.51.51 0 00-.036.546l1.467 2.667a.509.509 0 10.892-.491zM18.12 24.353l-1.409-1.92a.508.508 0 10-.82.603l1.216 1.657-1.3 2.366a.51.51 0 00.892.491l1.457-2.65a.51.51 0 00-.035-.547z" fill="#4785EE"/><path fill-rule="evenodd" clip-rule="evenodd" d="M18.402 16.38a.51.51 0 01.798.42v1.821a.51.51 0 01-.238.431L15.36 21.46l-.006.005-.006.003a.493.493 0 01-.287.088.509.509 0 01-.281-.084l-.01-.007-.001-.001-3.611-2.413a.51.51 0 01-.235-.429v-1.747a.51.51 0 01.794-.422c.161.109.323.227.481.351 1.034.812 2.01 1.307 2.552 1.293a.498.498 0 01.093.006c.05.007 1.353.175 2.723-1.064.252-.227.533-.449.836-.657zm-3.34 4.053l3.12-2.084v-.495c-1.58 1.386-3.14 1.294-3.447 1.26h-.006c-.91 0-2.028-.677-2.788-1.229v.463l3.12 2.085z" fill="#4785EE"/><path d="M15.564 20.962a.51.51 0 00-.913-.217l-1.17 1.594a.51.51 0 00.82.603l1.165-1.586a.509.509 0 00.098-.394z" fill="#4785EE"/><path fill-rule="evenodd" clip-rule="evenodd" d="M20.95 2.063c1.622.68 1.86 2.401 1.87 2.48a.513.513 0 01.004.065V8.26c0 .424-.12.841-.349 1.207-.655 1.052-.859 2.365-.86 2.379a.51.51 0 01-1.014-.076V7.572a2.165 2.165 0 00-1.42-1.638l-2.367-.831a1.476 1.476 0 00-1.013.013c-.486.184-1.153.432-1.573.567-.245.078-.5.118-.76.118h-2.211c-.204.038-1.384.316-1.73 1.746v3.497a.51.51 0 01-1.017.029c-.04-.705-.304-1.171-.519-1.438a3.073 3.073 0 01-.67-1.919V5.034A5.04 5.04 0 0112.355 0h6.835c.033 0 .065.003.097.01.747.144 1.256.476 1.514.984.192.378.197.767.15 1.069zm.67 6.85c.121-.201.186-.427.186-.654V4.647c-.035-.202-.3-1.445-1.596-1.757a.51.51 0 01-.342-.712s.181-.421.023-.727c-.13-.25-.471-.372-.752-.432h-6.784a4.02 4.02 0 00-4.016 4.015v2.682c0 .285.059.565.17.821V7.49a.51.51 0 01.012-.111 3.242 3.242 0 012.629-2.591.518.518 0 01.065-.004h2.252c.155 0 .306-.024.45-.07.316-.101.842-.291 1.522-.55a2.49 2.49 0 011.712-.021l2.37.832.007.002a3.175 3.175 0 012.089 2.507.505.505 0 01.003.055v1.375z" fill="#4785EE"/><path fill-rule="evenodd" clip-rule="evenodd" d="M19.529 4.976a3.174 3.174 0 012.088 2.507.564.564 0 01.003.055v4.231c0 .015 0 .03-.002.046-.301 3.361-1.735 4.796-2.563 5.352l-.033.023-.004.003-.038.026a7.098 7.098 0 00-.73.574c-1.302 1.177-2.602 1.337-3.21 1.337-.142 0-.246-.009-.305-.015h-.006c-1.074 0-2.437-.943-3.16-1.51a7.368 7.368 0 00-.455-.332l-.013-.009C8.62 15.622 8.512 12.03 8.51 11.878V7.49a.51.51 0 01.012-.111 3.242 3.242 0 012.629-2.591.518.518 0 01.065-.005h2.252c.155 0 .306-.023.45-.069.316-.101.842-.291 1.522-.55a2.498 2.498 0 011.712-.021l2.37.832.008.002zm-1.041 11.345c.543-.365 1.836-1.541 2.113-4.575V7.572a2.165 2.165 0 00-1.42-1.638l-2.367-.831a1.476 1.476 0 00-1.013.012c-.486.185-1.153.433-1.573.568-.245.078-.5.118-.76.118h-2.212c-.194.036-1.381.31-1.729 1.746v4.313c.005.129.136 3.23 2.138 4.556l.04.027.012.009c.161.109.323.227.481.351 1.034.812 2.01 1.307 2.552 1.293.03-.001.06 0 .09.005.063.01 1.36.171 2.726-1.063.252-.228.533-.449.836-.657l.028-.02.058-.04z" fill="#4785EE"/><path d="M15.517 20.819a.51.51 0 00-.866-.074l-1.22 1.661a.51.51 0 00.82.604l1.22-1.655a.527.527 0 00.046-.537zM15.55 29.018a.51.51 0 00-.712-.023l-.117.106a.51.51 0 00-.1.624l.003.007a.509.509 0 00.805.111l.112-.113a.51.51 0 00.008-.712z" fill="#4785EE"/><path d="M15.401 29.101l-.116-.106a.51.51 0 00-.704.736l.113.113a.51.51 0 00.806-.116l.004-.006a.51.51 0 00-.103-.62z" fill="#4785EE"/><path d="M15.41 29.11v-.002a.51.51 0 00-.696 0l-.001.001a.51.51 0 00-.016.737l.005.006a.507.507 0 00.72-.001l.005-.005a.509.509 0 00-.017-.737zM15.226 20.553a.511.511 0 00-.515.845.508.508 0 00.655.057.509.509 0 00.216-.416v-.002a.509.509 0 00-.356-.484z" fill="#4785EE"/><path d="M15.475 20.74l-.004-.005a.51.51 0 00-.92.302v.009a.51.51 0 00.796.422.51.51 0 00.128-.728z" fill="#4785EE"/><path fill-rule="evenodd" clip-rule="evenodd" d="M20.815 18.841a.51.51 0 01.275.725L18.156 24.9a.51.51 0 01-.856.056l-2.65-3.607a.509.509 0 01.13-.727l.29.419-.284-.423.004-.002 3.618-2.418a.509.509 0 01.455-.055l1.952.7zm-5.028 2.333l1.861 2.535 2.261-4.11-1.149-.412-2.973 1.987z" fill="#4785EE"/><path fill-rule="evenodd" clip-rule="evenodd" d="M15.345 20.623a.51.51 0 01.127.724l-1.23 1.676-.004.005-1.415 1.927a.51.51 0 01-.857-.056l-2.933-5.333a.51.51 0 01.274-.724l1.953-.7a.51.51 0 01.455.056l3.63 2.425zm-1.931 1.806l.003-.004.919-1.251-2.974-1.987-1.15.412 2.262 4.11.94-1.28zM29.44 23.867l.657 3.968A1.858 1.858 0 0128.261 30H15.073a.51.51 0 01-.447-.265l-.004-.007a.51.51 0 01.086-.605l.113-.113a.608.608 0 01.017-.015l5.465-5-.534-1.02a.51.51 0 01.444-.745l1.302-.02-1.327-2.662a.51.51 0 01.629-.706l6.356 2.3a3.512 3.512 0 012.267 2.725zm-1.179 5.114a.841.841 0 00.832-.98l-.657-3.967a2.492 2.492 0 00-1.61-1.935l-5.159-1.866 1.12 2.246a.51.51 0 01-.447.736l-1.285.02.333.635a.509.509 0 01-.108.612l-4.919 4.5h11.9z" fill="#4785EE"/><path d="M15.414 29.113l-.006-.005a.51.51 0 00-.703.018l-.005.006a.51.51 0 00.361.868h.011a.51.51 0 00.342-.887z" fill="#4785EE"/><path d="M15.398 29.098a.508.508 0 00-.787.134l-.004.006a.51.51 0 00.081.6l.002.001a.508.508 0 00.709.022l.005-.004a.51.51 0 00-.006-.759z" fill="#4785EE"/><path fill-rule="evenodd" clip-rule="evenodd" d="M15.418 29.127l.002.003a.509.509 0 01-.359.87h-13.2a1.858 1.858 0 01-1.836-2.165l.657-3.968a3.512 3.512 0 012.268-2.725l6.356-2.3a.509.509 0 01.629.706L8.608 22.21l1.302.02a.51.51 0 01.443.745l-.534 1.02 5.466 5 .016.015.113.113.004.004zm-14.2-.443c.161.189.395.297.643.297h11.9l-4.919-4.5a.51.51 0 01-.107-.611l.332-.635-1.284-.02a.51.51 0 01-.448-.736l1.12-2.246-5.159 1.866a2.492 2.492 0 00-1.609 1.935L1.03 28a.842.842 0 00.189.683z" fill="#4785EE"/><path fill-rule="evenodd" clip-rule="evenodd" d="M16.711 22.433a.51.51 0 01.008.593l-.513.735.55 3.463a.51.51 0 01-.057.326l-1.192 2.166a.509.509 0 01-.892 0l-1.182-2.15a.509.509 0 01-.057-.325l.552-3.48-.518-.744a.51.51 0 01.008-.594l1.217-1.65a.508.508 0 01.837-.028l1.24 1.688zm-2.302 4.795l.652 1.185.661-1.201-.554-3.494a.51.51 0 01.085-.37l.422-.606-.612-.833-.609.826.427.613a.51.51 0 01.085.37l-.557 3.51z" fill="#4785EE"/></svg>