<?xml version="1.0" encoding="utf-8"?><svg width="30" height="30" fill="none" xmlns="http://www.w3.org/2000/svg" viewBox="0 0 30 30"><path fill-rule="evenodd" clip-rule="evenodd" d="M.5 19v-7.5l.5-5L4 3 7 .5h14s.346-.269.5.5l.5 2.5V28l-.5 1-1 .5H1l-.5-1V19zM24.5 10v15l1.5 4.5 1-4.5V8l-.5-1h-1v.5H25l-.5.5v2z" fill="#4785EE" fill-opacity=".3"/><circle cx="5.026" cy="15.219" r=".64" fill="#4785EE"/><circle cx="5.026" cy="18.379" r=".64" fill="#4785EE"/><circle cx="5.026" cy="21.539" r=".64" fill="#4785EE"/><path fill-rule="evenodd" clip-rule="evenodd" d="M7.394 0h13.272c.968 0 1.756.788 1.756 1.757v26.486c0 .969-.788 1.757-1.756 1.757H1.756A1.759 1.759 0 010 28.243V15.671a.443.443 0 01.886 0v12.572c0 .48.39.87.87.87h18.91c.48 0 .87-.39.87-.87V1.757c0-.48-.39-.87-.87-.87H7.394c-.047 0-.094.002-.14.005v4.212a1.823 1.823 0 01-1.821 1.822H.893a1.738 1.738 0 00-.007.14v6.832a.443.443 0 01-.886 0V7.065a2.584 2.584 0 01.773-1.85L5.56.756A2.584 2.584 0 017.394 0zM5.433 6.04c.515 0 .935-.42.935-.936V1.227a1.741 1.741 0 00-.198.172L1.383 5.86a1.741 1.741 0 00-.156.18h4.206z" fill="#4785EE"/><path d="M18.037 14.776H7.757a.443.443 0 000 .886h10.28a.443.443 0 000-.886zM18.037 17.936H7.757a.443.443 0 000 .886h10.28a.443.443 0 000-.886zM18.037 21.096H7.757a.443.443 0 000 .886h10.28a.443.443 0 000-.886zM9.889 10.38H4.644a.443.443 0 000 .887h5.245a.443.443 0 000-.887z" fill="#4785EE"/><path fill-rule="evenodd" clip-rule="evenodd" d="M29.02 9.325h-1.363V8.258c0-1.015-.826-1.84-1.84-1.84-1.016 0-1.842.825-1.842 1.84v5.982a.443.443 0 00.886 0v-4.03h1.91v13.998h-1.91v-8.195a.443.443 0 00-.886 0v8.647a.338.338 0 00.008.069.65.65 0 00.005.025v.004l.002.006 1.267 4.813a.582.582 0 001.117 0l1.268-4.813v-.002l.003-.008a.41.41 0 00.012-.094V10.211h.92v6.396a.443.443 0 00.886 0v-6.84a.443.443 0 00-.443-.442zm-4.159 0V8.258a.956.956 0 011.91 0v1.067h-1.91zm.132 15.769l.823 3.125.823-3.125h-1.646z" fill="#4785EE"/></svg>