<?xml version="1.0" encoding="utf-8"?><svg width="40" height="31" fill="none" xmlns="http://www.w3.org/2000/svg" viewBox="0 0 40 31"><path fill-rule="evenodd" clip-rule="evenodd" d="M1 19.5l1-1v-6h4.5v-6H9l3.5-.5 2.5.5V12l.5.5h4L20 10l.5-2.5H22l1 1h7.5L33 16l3.5 2.5 1.5 1v6l1.5.5v1.5H35l-.5 1.5-1.5.5-1.5.5-2-.5-1-1-1.5-1H12.5l-1 .5-1 1-2 1L6 29l-1.5-1-1-.5H1v-8z" fill="#4785EE" fill-opacity=".3"/><path fill-rule="evenodd" clip-rule="evenodd" d="M39.355 24.516h-.645V18.71a.645.645 0 00-.323-.56l-4.302-2.46-2.505-7.507a.645.645 0 00-.612-.441h-7.742v-.645a.645.645 0 00-.645-.645H20a.645.645 0 00-.645.645v4.516h-3.226V5.806a.645.645 0 00-.645-.645H6.452a.645.645 0 00-.646.645v5.807h-3.87a.645.645 0 00-.646.645v5.806H.645A.645.645 0 000 18.71v9.032c0 .356.289.645.645.645h3.668a4.506 4.506 0 008.148 0H27.54a4.506 4.506 0 008.148 0h3.668a.645.645 0 00.645-.645v-2.58a.645.645 0 00-.645-.646zm-3.226-5.161h1.29v1.29h-1.29v-1.29zm-10.322-3.871h6.846l-1.29-3.871h-5.556v3.87zm4.696-6.452l.43 1.29H25.16a.645.645 0 00-.645.646v5.161c0 .356.289.645.645.645h8.216l2.258 1.29h-.151a.645.645 0 00-.645.646v2.58c0 .357.289.645.645.645h1.935v2.581h-1.732a4.507 4.507 0 00-8.148 0h-4.313V9.032h7.277zm-8.567 15.484V7.742h-1.29v16.774h1.29zm-2.581-6.451h-7.742v-5.162h1.935v1.936c0 .356.29.645.646.645h2.58a.645.645 0 00.645-.645v-1.936h1.936v5.161zm-3.226-5.162h-1.29v1.29h1.29v-1.29zm-5.806-6.451h1.29v1.29h-1.29v-1.29zm-1.29 0H7.096v5.16h7.742v-5.16h-1.936v1.935a.645.645 0 01-.645.645h-2.58a.645.645 0 01-.646-.645V6.452zm-1.936 6.451v1.29h-1.29v-1.29h1.29zm-2.58 0H2.58v5.161h7.742v-5.16H8.387v1.935a.645.645 0 01-.645.645h-2.58a.645.645 0 01-.646-.645v-1.936zm14.838 6.452v5.161H12.46a4.507 4.507 0 00-8.148 0H1.29v-5.161h18.065zM1.29 25.806v1.29h2.633a4.058 4.058 0 010-1.29H1.29zm7.097 3.871a3.226 3.226 0 110-6.451 3.226 3.226 0 010 6.451zm4.465-3.87c.068.427.068.862 0 1.29h14.296a4.059 4.059 0 010-1.29H12.852zm18.76 3.87a3.226 3.226 0 110-6.451 3.226 3.226 0 010 6.451zm4.465-2.58h2.633v-1.29h-2.633c.07.427.07.862 0 1.29z" fill="#4785EE"/><path fill-rule="evenodd" clip-rule="evenodd" d="M6.452 26.452a1.936 1.936 0 113.87 0 1.936 1.936 0 01-3.87 0zm1.29 0a.645.645 0 101.29 0 .645.645 0 00-1.29 0zM29.677 26.452a1.935 1.935 0 113.871 0 1.935 1.935 0 01-3.87 0zm1.29 0a.645.645 0 101.291 0 .645.645 0 00-1.29 0z" fill="#4785EE"/><path d="M10.968 2.58H22.58v1.291H10.968v-1.29zM23.871 2.58h1.29v1.291h-1.29v-1.29zM7.097 0H20v1.29H7.097V0z" fill="#4785EE"/></svg>