<?xml version="1.0" encoding="utf-8"?><svg width="30" height="28" fill="none" xmlns="http://www.w3.org/2000/svg" viewBox="0 0 30 28"><path fill-rule="evenodd" clip-rule="evenodd" d="M4 10V3.5l1.5-3H28l1 3 .5 3.5v16l-.5 1h-5l-4.5.5-1 1-1 1-4-1.5-2.5-1H6l-1.5-.5L4 22l-.5-1.5-2.5-1-.5-.5 2-4.5 1-2.5H4v-2z" fill="#4785EE" fill-opacity=".3"/><path fill-rule="evenodd" clip-rule="evenodd" d="M30 3.706v19.65c0 .78-.634 1.414-1.414 1.414h-8.117a1.527 1.527 0 01-.662.546 1.59 1.59 0 01-.855.113 1.544 1.544 0 01-2.114 1.592l-5.519-2.25H4.847c-.78 0-1.415-.635-1.415-1.415v-1.084a.428.428 0 11.857 0v1.084c0 .308.25.558.558.558h4.371l-.597-.244a5.567 5.567 0 01-2.235-1.667 4.514 4.514 0 00-.51-.542 4.706 4.706 0 00-1.38-.869h-.001l-.53-.216-.022.051a.854.854 0 01-1.111.468L.53 19.957a.854.854 0 01-.468-1.112l2.814-6.9a.847.847 0 01.459-.464.847.847 0 01.652-.004l2.301.939a.847.847 0 01.464.459c.089.21.09.441.004.652l-.088.215.07.028a.31.31 0 00.037.009h.005l.007.002.01.001h.003c.243.034 1.12.023 4.24-.552l.163-.03.421-.079.071-.013.25-.048.324-.063a197.393 197.393 0 004.887-1.024l.006-.002c.429-.09.86.025 1.184.278.217.17.385.403.47.679a1.407 1.407 0 01-.927 1.755l-3.104.96 6.668 2.72a1.53 1.53 0 01.839.83c.159.378.161.797.006 1.178a1.536 1.536 0 01-.417.583l.004.003.004.002c.032.019.063.038.093.058l.011.008.005.004c.03.02.06.042.089.066l.003.002c.029.023.057.048.084.074l.015.014c.026.025.052.051.076.078l.013.016c.025.028.048.056.07.086l.002.002c.023.03.044.06.064.093l.011.018c.02.03.038.062.055.095l.01.019a1.53 1.53 0 01.056 1.284 1.544 1.544 0 01-1.822.908c.003.039.005.077.005.115v.01l.001.005h7.855c.307 0 .557-.25.557-.558V4.142h-9.08v6.511a.65.65 0 01-1.078.486l-2.269-2.01-2.269 2.01a.649.649 0 01-1.078-.486v-6.51H4.29v5.864a.428.428 0 11-.857 0V3.702l.003-.038.002-.01V3.65a.43.43 0 01.007-.034l.004-.014a.42.42 0 01.011-.036l.002-.004v-.003L4.655.506A.791.791 0 015.395 0h17.331a.428.428 0 110 .857h-3.313l.562 2.428h8.97l-.95-2.428h-2.129a.428.428 0 110-.857h2.171c.33 0 .621.199.741.506l1.193 3.052a.453.453 0 01.014.043l.003.014a.434.434 0 01.007.034l.002.015a.45.45 0 01.002.038v.004zM18.534.856h-3.636l-.562 2.43h4.76l-.562-2.43zm-5.077 2.43h-8.97l.95-2.43h8.582l-.562 2.43zm5.75 6.904V4.142h-4.98v6.048l2.06-1.825a.647.647 0 01.859 0l2.06 1.825zM3.15 20.1l-2.293-.935 2.81-6.893 2.294.936-2.81 6.892zm16.623 2.385l.492.2.595.243a.689.689 0 00.699-.11l.005-.005a.671.671 0 00.21-.325.679.679 0 00-.277-.765.689.689 0 00-.12-.063l-6.209-2.531a.429.429 0 01.324-.794l5.12 2.088a.294.294 0 00.019.007l.01.003a.41.41 0 01.036.013l.036.009.01.002.02.005.047.007a.337.337 0 01.018.002l.063.003h.004a.685.685 0 00.254-1.319l-7.775-3.17a.429.429 0 01.035-.806l4.247-1.315a.548.548 0 00.361-.685.563.563 0 00-.631-.374l-.025.004c-.107.024-2.497.56-4.973 1.042l-.26.05-.085.017-.165.031-.108.02-.133.026-.123.023-.107.02-.136.025-.071.013c-.961.177-1.785.314-2.456.409-.987.14-1.537.174-1.87.159-.267-.01-.366-.05-.435-.079l-.074-.03-1 2.452-1.058 2.595.531.217a5.566 5.566 0 012.236 1.668 4.691 4.691 0 001.89 1.41l2.62 1.069h.001l5.596 2.281a.685.685 0 10.51-1.27l-.006-.003-.013-.005-4.165-1.698a.429.429 0 01.324-.793l4.165 1.698.012.006.006.002a.2.2 0 01.007.002l.907.37c.177.072.38.07.558-.007a.666.666 0 00.352-.347c0-.002 0-.003.002-.005l.01-.024a.411.411 0 00.011-.034l.003-.01a.347.347 0 00.007-.02l.006-.025.001-.01.007-.031.004-.035.001-.01.002-.021v-.018l.001-.016v-.01-.022l-.002-.033-.003-.032c-.001-.011-.004-.022-.006-.032l-.001-.01-.004-.022a.377.377 0 00-.006-.022l-.003-.01a.21.21 0 01-.002-.008l-.007-.023-.011-.03-.012-.03a.394.394 0 00-.015-.03l-.004-.01-.01-.018a.392.392 0 00-.012-.022l-.006-.008a.696.696 0 01-.005-.009l-.01-.017a.472.472 0 00-.017-.021l-.005-.008a.627.627 0 01-.006-.008l-.011-.015a.51.51 0 00-.026-.028l-.007-.008-.011-.012-.03-.027-.008-.007a.24.24 0 00-.04-.032l-.006-.004a.3.3 0 01-.019-.014.676.676 0 00-.04-.024h-.001l-.016-.01a.677.677 0 00-.063-.03l-5.12-2.087a.428.428 0 01.323-.794l5.12 2.088h.002z" fill="#4785EE"/></svg>