<?xml version="1.0" encoding="utf-8"?><svg width="175" height="42" fill="none" xmlns="http://www.w3.org/2000/svg" viewBox="0 0 175 42"><path d="M130.554 10.918l1.551-1.961h-.87l-1.469 1.928V8.957h-.755v3.939h.755V10.95l1.494 1.945h.878l-1.584-1.978zM135.441 10.844c.435-.123.722-.435.722-.902 0-.755-.681-.985-1.313-.985h-1.912v3.939h2.101c.763 0 1.305-.394 1.305-1.108 0-.525-.353-.862-.903-.936v-.008zm-.599-1.272c.443 0 .616.222.616.485 0 .254-.222.541-.624.541h-1.149V9.572h1.157zm-1.157 2.7v-1.124h1.247c.419 0 .682.254.682.574 0 .329-.197.55-.616.55h-1.313zM140.449 9.58a1.91 1.91 0 00-1.494-.722c-.558 0-1.018.197-1.379.591-.361.394-.541.886-.541 1.477 0 .591.18 1.084.541 1.478.361.393.821.59 1.379.59.615 0 1.157-.287 1.494-.722l.582.673h.017V8.908h-.017l-.582.673zm-1.404 2.725c-.369 0-.673-.131-.911-.394-.229-.262-.344-.59-.344-.985 0-.393.115-.722.344-.984.238-.263.542-.394.911-.394.361 0 .665.123.911.377.246.255.369.558.369.927V11c0 .37-.123.673-.369.928-.246.254-.55.377-.911.377zM144.415 8.858c-.632 0-1.19.296-1.567.772l-.509-.673h-.016v5.826h.755V12.93l-.017-.566h.025c.263.352.738.631 1.329.631.55 0 1.01-.197 1.371-.599.361-.402.541-.886.541-1.469 0-.59-.18-1.083-.541-1.477-.361-.394-.821-.59-1.371-.59zm-.098 3.447c-.361 0-.665-.123-.911-.377a1.276 1.276 0 01-.369-.928v-.148c0-.369.123-.672.369-.927.246-.254.55-.377.911-.377.763 0 1.255.607 1.255 1.378 0 .394-.114.723-.352.985-.23.263-.534.394-.903.394zM146.8 8.957v.673h1.289v3.266h.763V9.63h1.297v-.673H146.8zM150.994 12.978l2.831-2.659h.017l-.009 2.577h.706V8.875h-.008l-2.831 2.65h-.017l.008-2.576h-.705v4.029h.008zM157.911 8.858c-.632 0-1.19.296-1.567.772l-.509-.673h-.017v5.826h.755V12.93l-.016-.566h.025c.262.352.738.631 1.329.631.55 0 1.009-.197 1.37-.599.362-.402.542-.886.542-1.469 0-.59-.18-1.083-.542-1.477-.361-.394-.82-.59-1.37-.59zm-.098 3.447c-.362 0-.665-.123-.911-.377a1.272 1.272 0 01-.37-.928v-.148c0-.369.123-.672.37-.927.246-.254.549-.377.911-.377.763 0 1.255.607 1.255 1.378 0 .394-.115.723-.353.985-.23.263-.533.394-.902.394zM163.601 10.598h-2.027V8.957h-.755v3.939h.755v-1.641h2.027v1.64h.763V8.958h-.763v1.641zM166.399 10.549V8.957h-.755v3.939h1.928c.845 0 1.387-.394 1.387-1.174 0-.787-.542-1.173-1.387-1.173h-1.173zm3.143 2.347h.763v-3.94h-.763v3.94zm-3.143-.624v-1.108h1.181c.427 0 .632.206.632.558 0 .337-.205.55-.64.55h-1.173zM174.971 11.18c.091-.746-.032-1.32-.361-1.723-.32-.402-.779-.599-1.37-.599-.591 0-1.067.197-1.42.583-.353.386-.525.878-.525 1.494 0 .64.189 1.14.566 1.51.386.369.895.55 1.543.55.542 0 .993-.124 1.346-.362v-.689a2.303 2.303 0 01-1.305.394c-.845 0-1.329-.435-1.37-1.157h2.896zm-1.731-1.723c.624 0 1.042.427 1.067 1.174h-2.241c.041-.698.493-1.174 1.174-1.174zM129.011 18.922v3.939h.755v-3.29h1.822v3.29h.763v-3.94h-3.34zM137.033 21.146c.09-.747-.033-1.322-.361-1.724-.32-.402-.78-.599-1.371-.599-.59 0-1.066.197-1.419.583-.353.386-.526.878-.526 1.494 0 .64.189 1.14.567 1.51.385.369.894.55 1.543.55.541 0 .992-.124 1.345-.362v-.69a2.3 2.3 0 01-1.304.395c-.846 0-1.33-.435-1.371-1.157h2.897zm-1.732-1.724c.624 0 1.043.427 1.067 1.174h-2.24c.041-.698.492-1.174 1.173-1.174zM140.152 18.823c-.632 0-1.19.296-1.568.772l-.508-.673h-.017v5.826h.755v-1.854l-.016-.567h.024c.263.353.739.632 1.33.632.55 0 1.009-.197 1.37-.599.361-.402.542-.886.542-1.469 0-.59-.181-1.083-.542-1.477-.361-.394-.82-.59-1.37-.59zm-.099 3.447c-.361 0-.664-.123-.911-.378a1.276 1.276 0 01-.369-.927v-.148c0-.369.123-.672.369-.927.247-.254.55-.377.911-.377.764 0 1.256.607 1.256 1.378 0 .394-.115.723-.353.985-.23.263-.533.394-.903.394zM146.457 21.146c.091-.747-.032-1.322-.361-1.724-.32-.402-.779-.599-1.37-.599-.591 0-1.067.197-1.42.583-.353.386-.525.878-.525 1.494 0 .64.189 1.14.566 1.51.386.369.895.55 1.543.55.542 0 .993-.124 1.346-.362v-.69a2.303 2.303 0 01-1.305.395c-.845 0-1.329-.435-1.37-1.157h2.896zm-1.731-1.724c.624 0 1.042.427 1.067 1.174h-2.241c.041-.698.493-1.174 1.174-1.174zM150.881 21.146c.09-.747-.033-1.322-.361-1.724-.32-.402-.779-.599-1.37-.599-.591 0-1.067.197-1.42.583-.353.386-.525.878-.525 1.494 0 .64.188 1.14.566 1.51.386.369.894.55 1.543.55.541 0 .993-.124 1.346-.362v-.69a2.303 2.303 0 01-1.305.395c-.845 0-1.33-.435-1.371-1.157h2.897zm-1.731-1.724c.623 0 1.042.427 1.066 1.174h-2.24c.041-.698.493-1.174 1.174-1.174zM153.885 20.776c.493-.205.739-.5.739-.894 0-.6-.575-1.059-1.494-1.059a2.57 2.57 0 00-1.387.378v.763a1.93 1.93 0 011.289-.476c.55 0 .861.197.861.517 0 .353-.336.55-.894.55h-.378v.541h.378c.697 0 1.067.271 1.067.591 0 .361-.402.6-1.034.6-.525 0-.985-.173-1.371-.518v.83c.394.237.878.36 1.445.36.508 0 .919-.106 1.239-.311.32-.214.484-.493.484-.838 0-.492-.312-.837-.944-1.034zM159.118 18.963h-2.913v1.149c0 .952-.107 1.65-.312 2.1h-.591v1.56h.64v-.911h2.897v.91h.64v-1.559h-.361v-3.25zm-2.191.648h1.453v2.601h-1.74c.189-.467.287-1.173.287-2.1v-.5zM161.318 20.514v-1.592h-.755v3.939h1.928c.845 0 1.387-.394 1.387-1.174 0-.788-.542-1.173-1.387-1.173h-1.173zm3.143 2.347h.763v-3.94h-.763v3.94zm-3.143-.624V21.13h1.181c.427 0 .632.205.632.558 0 .337-.205.55-.64.55h-1.173zM129.011 28.887v3.939h.755v-3.291h1.822v3.29h.763v-3.938h-3.34zM136.861 32.325a2.04 2.04 0 00.582-1.469 2.04 2.04 0 00-.582-1.469c-.386-.402-.878-.599-1.478-.599-.59 0-1.083.197-1.468.6a2.037 2.037 0 00-.583 1.468c0 .583.197 1.067.583 1.47.385.401.878.598 1.468.598.6 0 1.092-.197 1.478-.599zm-1.469-.098c-.378 0-.69-.132-.936-.394a1.392 1.392 0 01-.369-.977c0-.386.123-.706.369-.968.246-.271.558-.402.936-.402.377 0 .689.131.927.394.246.262.369.59.369.976s-.123.714-.369.977c-.238.262-.55.394-.927.394zM141.68 28.928h-2.914v1.149c0 .951-.106 1.65-.312 2.1h-.59v1.56h.64v-.911h2.897v.91h.64v-1.559h-.361v-3.25zm-2.192.648h1.453v2.601h-1.74c.189-.467.287-1.173.287-2.1v-.501zM146.871 30.848l1.551-1.961h-.87l-1.469 1.928v-1.928h-.755v3.939h.755V30.88l1.494 1.945h.878l-1.584-1.978zM149.616 28.887v2.855c0 .304-.041.485-.32.485a.625.625 0 01-.296-.082v.656c.14.057.296.09.468.09.583 0 .878-.369.878-1.1v-2.256h1.765v3.29h.73v-3.938h-3.225zM157.238 28.788c-.542 0-1.001.164-1.371.5a2.05 2.05 0 00-.664 1.264h-.353v-1.624h-.731v3.898h.731V31.2h.361c.074.5.295.91.665 1.239.369.32.828.484 1.362.484.591 0 1.083-.197 1.469-.599a2.04 2.04 0 00.582-1.469 2.04 2.04 0 00-.582-1.469c-.386-.402-.878-.599-1.469-.599zm0 3.439c-.378 0-.69-.132-.936-.394a1.392 1.392 0 01-.369-.977c0-.386.123-.706.369-.968.246-.271.558-.402.936-.402.377 0 .689.131.927.394.246.262.369.59.369.976s-.123.714-.369.977c-.238.262-.55.394-.927.394zM162.482 30.594a4.092 4.092 0 01-.985.147c-.451 0-.714-.205-.714-.59v-1.264h-.763v1.428c0 .68.46 1.083 1.272 1.083.328 0 .722-.058 1.19-.18v1.608h.763v-3.94h-.763v1.708zM70.856 25.964c0 1.175-.2 2.25-.6 3.225a6.833 6.833 0 01-1.824 2.545c-.801.708-1.823 1.262-3.065 1.663-1.243.4-2.852.6-4.829.6h-6.832c-.48 0-.875-.126-1.182-.38-.294-.267-.44-.714-.44-1.342V9.735c0-.587.146-1.008.44-1.262.307-.267.681-.4 1.122-.4h14.666a.57.57 0 01.34.1c.107.066.194.187.26.36.081.16.134.374.161.641.04.254.06.581.06.982 0 .374-.02.695-.06.962-.027.253-.08.467-.16.64a.843.843 0 01-.26.362c-.094.066-.201.1-.321.1h-10.98v6.45h4.308c1.67 0 3.046.161 4.127.482 1.082.32 1.997.794 2.745 1.422a6.268 6.268 0 011.723 2.304c.4.909.601 1.937.601 3.086zm-5.35.34a4.02 4.02 0 00-.28-1.542 3.092 3.092 0 00-.821-1.183c-.36-.333-.828-.587-1.403-.76-.56-.174-1.315-.261-2.264-.261h-3.385v7.473h3.446c.854 0 1.556-.08 2.103-.24.561-.16 1.029-.401 1.403-.722a3.39 3.39 0 00.881-1.182c.214-.467.32-.995.32-1.583zM95.099 33.276a.534.534 0 01-.14.361c-.08.107-.22.194-.421.26-.2.067-.468.12-.802.16-.334.041-.754.061-1.262.061-.52 0-.955-.02-1.302-.06a4.205 4.205 0 01-.802-.16.989.989 0 01-.42-.26.586.586 0 01-.12-.361V22.797h-9.698v10.479c0 .133-.04.253-.12.36-.08.107-.22.194-.42.26-.2.067-.468.12-.802.16-.334.041-.761.061-1.282.061-.508 0-.935-.02-1.282-.06a4.205 4.205 0 01-.802-.16c-.2-.067-.347-.154-.44-.26a.586.586 0 01-.12-.361V8.793c0-.134.04-.254.12-.361.093-.107.24-.194.44-.26.2-.067.468-.12.802-.16.347-.04.774-.06 1.282-.06.52 0 .948.02 1.282.06.334.04.601.093.801.16.2.066.341.153.421.26.08.107.12.227.12.36v9.517h9.697V8.794c0-.134.04-.254.12-.361a.988.988 0 01.421-.26c.2-.067.468-.12.802-.16.347-.04.781-.06 1.302-.06.508 0 .928.02 1.262.06.334.04.601.093.802.16.2.066.34.153.42.26.094.107.14.227.14.36v24.483zM119.942 33.297c0 .147-.04.273-.12.38-.08.094-.227.174-.441.24-.2.067-.474.114-.821.14-.347.041-.795.061-1.343.061-.574 0-1.041-.02-1.402-.06a3.897 3.897 0 01-.841-.14 1.19 1.19 0 01-.481-.3 1.364 1.364 0 01-.241-.482l-2.083-5.77c-.294-.841-.601-1.543-.922-2.104-.321-.574-.675-1.035-1.062-1.382a3.295 3.295 0 00-1.322-.761 5.831 5.831 0 00-1.663-.22h-1.182v10.377c0 .147-.04.274-.12.381-.081.094-.221.18-.421.26-.2.067-.468.114-.802.14-.333.041-.761.061-1.282.061-.507 0-.935-.02-1.282-.06a3.485 3.485 0 01-.801-.14 1.308 1.308 0 01-.441-.26.617.617 0 01-.12-.382V8.774c0-.147.04-.268.12-.361.093-.107.24-.194.441-.26.2-.067.467-.114.801-.14.347-.04.775-.06 1.282-.06.521 0 .949.02 1.282.06.334.026.602.073.802.14.2.066.34.153.421.26.08.093.12.214.12.36v9.738h1.182c.601 0 1.129-.08 1.583-.24.454-.161.861-.415 1.222-.762.374-.347.708-.795 1.002-1.343.307-.56.601-1.248.881-2.063l1.743-5.17c.067-.186.147-.34.241-.46.093-.134.24-.234.44-.3.214-.08.488-.134.822-.16.347-.04.808-.06 1.382-.06.521 0 .949.02 1.282.06.348.026.615.073.802.14.2.053.334.133.401.24.066.093.1.214.1.36 0 .174-.034.388-.1.642a8.358 8.358 0 01-.301 1.001l-1.743 4.608a18.472 18.472 0 01-.962 2.184 8.83 8.83 0 01-1.021 1.543 5.364 5.364 0 01-1.122 1.022 5.693 5.693 0 01-1.303.661v.02a8.197 8.197 0 011.443.781c.441.28.848.642 1.222 1.082.387.441.755.982 1.102 1.623.347.641.701 1.43 1.062 2.364l2.123 5.37c.214.547.341.928.381 1.142.04.2.06.367.06.5z" fill="#fff"/><rect width="41.618" height="41.618" rx="10" fill="#4785EE"/><path d="M5.862 7.034c3.471 3.532 10.603 9.915 14.09 13.463-1.743 1.773-11.92 11.341-14.09 13.501h6.472l14.177-13.482L12.334 7.034H5.862zm9.245 0c3.472 3.532 10.604 9.915 14.09 13.463-1.743 1.773-11.92 11.341-14.09 13.501h6.473l14.176-13.482L21.58 7.034h-6.472z" fill="#fff"/></svg>