<?xml version="1.0" encoding="utf-8"?><svg width="44" height="30" fill="none" xmlns="http://www.w3.org/2000/svg" viewBox="0 0 44 30"><path d="M37.5 12h-8.25V4.5H36l1.5 7.5z" fill="#B4E1FA"/><path d="M1.5 24.75H42a.75.75 0 00.75-.75v-5.25h-42V24c0 .414.336.75.75.75z" fill="#707487"/><path d="M29.25 18.75v-12h-3v12H.75v3h42v-3h-13.5z" fill="#5B5D6E"/><path d="M.75 0h25.5a.75.75 0 01.75.75v18a.75.75 0 01-.75.75H.75a.75.75 0 01-.75-.75v-18A.75.75 0 01.75 0z" fill="#FFD782"/><path fill-rule="evenodd" clip-rule="evenodd" d="M38.16 11.438l3.502 1.001a1.5 1.5 0 011.088 1.443v3.368H28.5V3.75a.75.75 0 01.75-.75h4.872a3 3 0 012.952 2.462l1.086 5.976zM30 9.75a1.5 1.5 0 001.5 1.5h4.578c.273 0 .48-.247.43-.515l-.877-4.868a.75.75 0 00-.738-.617H30.75A.75.75 0 0030 6v3.75z" fill="#FFD782"/><circle cx="35.25" cy="25.5" r="4.5" fill="#464655"/><circle cx="35.25" cy="25.5" r="3" fill="#C7CFE2"/><circle cx="35.25" cy="25.5" r="1.125" fill="#AFB9D2"/><circle cx="7.5" cy="25.5" r="4.5" fill="#464655"/><circle cx="7.5" cy="25.5" r="3" fill="#C7CFE2"/><circle cx="7.5" cy="25.5" r="1.125" fill="#AFB9D2"/><path d="M29.25 24h.286a.75.75 0 00.671-.415l1.628-3.256a1.5 1.5 0 011.342-.829h4.146a1.5 1.5 0 011.341.83l1.629 3.255a.75.75 0 00.67.415h1.787a.75.75 0 00.75-.75V18a1.5 1.5 0 00-1.5-1.5H28.5v6.75c0 .414.336.75.75.75z" fill="#FFC36E"/><path d="M26.25 26.25h-7.5a.75.75 0 01-.75-.75v-3a.75.75 0 01.75-.75h7.5a.75.75 0 01.75.75v3a.75.75 0 01-.75.75z" fill="#AFB9D2"/><path d="M21 23.25a.75.75 0 00-.75.75v2.25h1.5V24a.75.75 0 00-.75-.75zM24 23.25a.75.75 0 00-.75.75v2.25h1.5V24a.75.75 0 00-.75-.75z" fill="#959CB3"/><path d="M24.75 18H2.25a.75.75 0 010-1.5h22.5a.75.75 0 010 1.5z" fill="#FFC36E"/></svg>