<?xml version="1.0" encoding="utf-8"?><svg width="178" height="42" xmlns="http://www.w3.org/2000/svg" viewBox="0 0 178 42"><path d="M70.856 25.964c0 1.175-.2 2.25-.6 3.225a6.834 6.834 0 01-1.824 2.545c-.801.708-1.823 1.262-3.065 1.663-1.243.4-2.852.6-4.829.6h-6.832c-.48 0-.875-.126-1.182-.38-.294-.267-.44-.714-.44-1.342V9.735c0-.587.146-1.008.44-1.262.307-.267.681-.4 1.122-.4h14.666a.57.57 0 01.34.1c.107.066.194.187.26.36.081.16.134.374.161.641.04.254.06.581.06.982 0 .374-.02.695-.06.962-.027.253-.08.467-.16.64a.842.842 0 01-.26.362c-.094.066-.201.1-.321.1h-10.98v6.451h4.308c1.67 0 3.046.16 4.127.48 1.082.321 1.997.796 2.745 1.423a6.27 6.27 0 011.723 2.304c.4.909.601 1.937.601 3.086zm-5.35.34a4.02 4.02 0 00-.28-1.542 3.092 3.092 0 00-.821-1.182c-.36-.334-.828-.588-1.403-.762-.56-.173-1.315-.26-2.264-.26h-3.385v7.473h3.446c.854 0 1.556-.08 2.103-.24.561-.16 1.029-.401 1.403-.722.374-.32.668-.714.881-1.182.214-.467.32-.995.32-1.583zM95.099 33.277a.533.533 0 01-.14.36c-.08.107-.22.194-.421.26-.2.068-.468.12-.802.161-.334.04-.754.06-1.262.06-.52 0-.955-.02-1.302-.06a4.205 4.205 0 01-.802-.16.988.988 0 01-.42-.26.585.585 0 01-.12-.361V22.798h-9.698v10.479c0 .133-.04.253-.12.36-.08.107-.22.194-.42.26-.2.068-.468.12-.802.161-.334.04-.761.06-1.282.06-.508 0-.935-.02-1.282-.06a4.205 4.205 0 01-.802-.16c-.2-.067-.347-.154-.44-.26a.585.585 0 01-.12-.361V8.794c0-.134.04-.254.12-.36.093-.108.24-.195.44-.261.2-.067.468-.12.802-.16.347-.04.774-.06 1.282-.06.52 0 .948.02 1.282.06.334.04.601.093.801.16.2.066.341.153.421.26.08.107.12.227.12.36v9.517h9.697V8.794c0-.134.04-.254.12-.36a.988.988 0 01.421-.261c.2-.067.468-.12.802-.16.347-.04.781-.06 1.302-.06.508 0 .928.02 1.262.06.334.04.601.093.802.16.2.066.34.153.42.26.094.107.14.227.14.36v24.484zM119.942 33.297c0 .147-.04.273-.12.38-.08.094-.227.174-.441.24-.2.067-.474.114-.821.141-.347.04-.795.06-1.343.06-.574 0-1.041-.02-1.402-.06a3.897 3.897 0 01-.841-.14 1.19 1.19 0 01-.481-.3 1.365 1.365 0 01-.241-.482l-2.083-5.77c-.294-.841-.601-1.543-.922-2.103-.321-.575-.675-1.036-1.062-1.383a3.296 3.296 0 00-1.322-.761 5.831 5.831 0 00-1.663-.22h-1.182v10.378c0 .146-.04.273-.12.38-.081.094-.221.18-.421.26-.2.067-.468.114-.802.141-.333.04-.761.06-1.282.06-.507 0-.935-.02-1.282-.06a3.485 3.485 0 01-.801-.14 1.308 1.308 0 01-.441-.26.617.617 0 01-.12-.381V8.774c0-.147.04-.267.12-.361.093-.107.24-.194.441-.26.2-.067.467-.114.801-.14.347-.04.775-.06 1.282-.06.521 0 .949.02 1.282.06.334.026.602.073.802.14.2.066.34.153.421.26.08.094.12.214.12.36v9.738h1.182c.601 0 1.129-.08 1.583-.24.454-.161.861-.415 1.222-.762.374-.347.708-.795 1.002-1.342.307-.561.601-1.25.881-2.064l1.743-5.17c.067-.186.147-.34.241-.46.093-.133.24-.234.44-.3.214-.08.488-.134.822-.16.347-.04.808-.06 1.382-.06.521 0 .949.02 1.282.06.348.026.615.073.802.14.2.053.334.133.401.24.066.093.1.214.1.36 0 .174-.034.388-.1.642a8.359 8.359 0 01-.301 1.002l-1.743 4.608a18.472 18.472 0 01-.962 2.183 8.83 8.83 0 01-1.021 1.543 5.364 5.364 0 01-1.122 1.022 5.697 5.697 0 01-1.303.661v.02a8.197 8.197 0 011.443.781c.441.281.848.642 1.222 1.082.387.441.755.982 1.102 1.623.347.641.701 1.43 1.062 2.364l2.123 5.37c.214.547.341.928.381 1.142.04.2.06.367.06.5z"/><rect width="41.618" height="41.618" rx="10" fill="#4785EE"/><path d="M8 10c2.787 2.882 8.513 8.09 11.312 10.984C17.912 22.431 9.742 30.238 8 32h5.196l11.382-11-11.382-11H8zm7.423 0c2.787 2.882 8.512 8.09 11.311 10.984-1.4 1.447-9.57 9.254-11.311 11.016h5.196L32 21 20.619 10h-5.196z" fill="#fff"/><path d="M128.711 10.236l1.72-2.13h-.965l-1.629 2.094V8.107H127v4.275h.837v-2.11l1.657 2.11h.973l-1.756-2.146zM134.13 10.155c.483-.133.801-.472.801-.98 0-.819-.755-1.068-1.456-1.068h-2.12v4.275h2.33c.846 0 1.447-.428 1.447-1.202 0-.57-.392-.936-1.002-1.016v-.009zm-.664-1.38c.492 0 .683.24.683.525 0 .276-.246.588-.692.588h-1.274V8.775h1.283zm-1.283 2.93v-1.22h1.383c.464 0 .756.276.756.623 0 .356-.219.597-.683.597h-1.456zM139.683 8.784A2.131 2.131 0 00138.027 8c-.619 0-1.128.214-1.529.641-.4.428-.6.962-.6 1.603 0 .642.2 1.176.6 1.604.401.427.91.64 1.529.64.683 0 1.283-.311 1.656-.783l.647.73h.018V8.053h-.018l-.647.73zm-1.556 2.957c-.409 0-.746-.143-1.01-.428-.255-.285-.382-.641-.382-1.069 0-.427.127-.783.382-1.068a1.317 1.317 0 011.01-.428c.401 0 .737.134 1.01.41.273.276.41.605.41 1.006v.16c0 .401-.137.73-.41 1.007a1.36 1.36 0 01-1.01.41zM144.082 8c-.7 0-1.319.32-1.738.837l-.564-.73h-.018v6.323h.837v-2.012l-.018-.615h.027c.291.383.819.686 1.474.686.61 0 1.12-.214 1.52-.65.401-.437.601-.962.601-1.595 0-.64-.2-1.175-.601-1.603-.4-.427-.91-.641-1.52-.641zm-.109 3.74c-.4 0-.737-.133-1.01-.41a1.368 1.368 0 01-.409-1.005v-.16c0-.402.136-.731.409-1.007.273-.276.61-.41 1.01-.41.847 0 1.393.66 1.393 1.496 0 .428-.128.784-.392 1.07-.254.284-.591.427-1.001.427zM146.727 8.107v.73h1.429v3.545h.847V8.837h1.437v-.73h-3.713zM151.378 12.47l3.14-2.885h.018l-.009 2.797h.782V8.018h-.009l-3.139 2.877h-.019l.009-2.797h-.782v4.373h.009zM159.049 8c-.701 0-1.32.32-1.739.837l-.564-.73h-.018v6.323h.837v-2.012l-.018-.615h.027c.292.383.819.686 1.475.686.609 0 1.119-.214 1.52-.65.4-.437.6-.962.6-1.595 0-.64-.2-1.175-.6-1.603-.401-.427-.911-.641-1.52-.641zm-.11 3.74c-.4 0-.737-.133-1.01-.41a1.368 1.368 0 01-.409-1.005v-.16c0-.402.136-.731.409-1.007.273-.276.61-.41 1.01-.41.847 0 1.393.66 1.393 1.496 0 .428-.128.784-.391 1.07-.255.284-.592.427-1.002.427zM165.359 9.888h-2.248V8.107h-.837v4.275h.837V10.6h2.248v1.78h.846V8.108h-.846v1.781zM168.461 9.835V8.107h-.837v4.275h2.139c.937 0 1.538-.428 1.538-1.274 0-.855-.601-1.273-1.538-1.273h-1.302zm3.486 2.547h.846V8.107h-.846v4.275zm-3.486-.677v-1.202h1.311c.473 0 .7.222.7.605 0 .365-.227.597-.709.597h-1.302zM177.968 10.52c.1-.81-.036-1.433-.4-1.87-.355-.436-.865-.65-1.52-.65s-1.183.214-1.574.632c-.392.419-.583.953-.583 1.621 0 .695.209 1.238.628 1.639.428.4.992.597 1.711.597.601 0 1.101-.134 1.492-.392v-.748a2.59 2.59 0 01-1.447.427c-.937 0-1.474-.472-1.519-1.255h3.212zm-1.92-1.87c.692 0 1.156.463 1.183 1.274h-2.484c.045-.757.546-1.274 1.301-1.274zM127 18.922v4.275h.837v-3.572h2.021v3.572h.846v-4.275H127zM135.896 21.335c.1-.81-.037-1.434-.401-1.87-.355-.436-.864-.65-1.52-.65-.655 0-1.183.213-1.574.632-.391.419-.582.953-.582 1.621 0 .695.209 1.238.627 1.639.428.4.992.596 1.711.596.601 0 1.102-.133 1.493-.391v-.748a2.593 2.593 0 01-1.447.427c-.937 0-1.474-.472-1.52-1.256h3.213zm-1.921-1.87c.692 0 1.156.463 1.183 1.273h-2.484c.046-.756.546-1.273 1.301-1.273zM139.354 18.815c-.7 0-1.319.32-1.738.837l-.564-.73h-.018v6.323h.837v-2.013l-.018-.614h.027c.291.383.819.686 1.474.686.61 0 1.12-.214 1.52-.65.401-.437.601-.962.601-1.595 0-.641-.2-1.175-.601-1.603-.4-.427-.91-.641-1.52-.641zm-.109 3.74c-.4 0-.737-.133-1.01-.41a1.368 1.368 0 01-.409-1.006v-.16c0-.4.136-.73.409-1.006.273-.276.61-.41 1.01-.41.847 0 1.393.659 1.393 1.496 0 .428-.128.784-.392 1.069-.255.285-.591.427-1.001.427zM146.347 21.335c.1-.81-.036-1.434-.4-1.87-.355-.436-.865-.65-1.52-.65s-1.183.213-1.575.632c-.391.419-.582.953-.582 1.621 0 .695.209 1.238.628 1.639.428.4.992.596 1.711.596.601 0 1.101-.133 1.492-.391v-.748a2.59 2.59 0 01-1.447.427c-.937 0-1.474-.472-1.519-1.256h3.212zm-1.92-1.87c.692 0 1.156.463 1.183 1.273h-2.485c.046-.756.547-1.273 1.302-1.273zM151.253 21.335c.1-.81-.037-1.434-.401-1.87-.354-.436-.864-.65-1.519-.65-.656 0-1.183.213-1.575.632-.391.419-.582.953-.582 1.621 0 .695.209 1.238.628 1.639.427.4.992.596 1.711.596.6 0 1.101-.133 1.492-.391v-.748a2.593 2.593 0 01-1.447.427c-.937 0-1.474-.472-1.52-1.256h3.213zm-1.92-1.87c.691 0 1.155.463 1.183 1.273h-2.485c.046-.756.546-1.273 1.302-1.273zM154.584 20.934c.546-.222.819-.543.819-.97 0-.65-.637-1.15-1.656-1.15-.573 0-1.083.134-1.538.41v.829a2.167 2.167 0 011.429-.517c.61 0 .955.214.955.561 0 .383-.373.597-.992.597h-.418v.588h.418c.774 0 1.184.294 1.184.641 0 .392-.446.65-1.147.65a2.238 2.238 0 01-1.52-.56v.899c.437.258.974.392 1.602.392.564 0 1.019-.116 1.374-.339.355-.232.537-.534.537-.908 0-.535-.346-.909-1.047-1.122zM160.387 18.966h-3.23v1.247c0 1.033-.119 1.79-.346 2.28h-.655v1.692h.709v-.988h3.213v.988h.71v-1.692h-.401v-3.527zm-2.43.704h1.611v2.823h-1.929c.209-.508.318-1.273.318-2.28v-.543zM162.827 20.65v-1.728h-.838v4.275h2.139c.937 0 1.538-.428 1.538-1.274 0-.855-.601-1.273-1.538-1.273h-1.301zm3.485 2.547h.846v-4.275h-.846v4.275zm-3.485-.677v-1.203h1.31c.473 0 .701.223.701.606 0 .365-.228.597-.71.597h-1.301zM127 29.736v4.275h.837V30.44h2.021v3.571h.846v-4.275H127zM135.705 33.468a2.19 2.19 0 00.646-1.594 2.19 2.19 0 00-.646-1.594c-.428-.437-.974-.65-1.639-.65-.655 0-1.201.213-1.629.65a2.19 2.19 0 00-.646 1.594c0 .632.219 1.158.646 1.594.428.436.974.65 1.629.65.665 0 1.211-.214 1.639-.65zm-1.629-.107c-.419 0-.765-.142-1.038-.427a1.492 1.492 0 01-.409-1.06c0-.419.136-.766.409-1.051.273-.294.619-.436 1.038-.436.418 0 .764.142 1.028.427.273.285.409.641.409 1.06 0 .418-.136.775-.409 1.06-.264.285-.61.427-1.028.427zM141.049 29.78h-3.231v1.248c0 1.033-.118 1.79-.346 2.28h-.655V35h.71v-.989h3.212V35h.71v-1.692h-.4V29.78zm-2.43.704h1.611v2.824h-1.93c.209-.508.319-1.274.319-2.28v-.543zM146.805 31.865l1.72-2.129h-.964l-1.629 2.093v-2.093h-.837v4.275h.837v-2.11l1.656 2.11h.974l-1.757-2.146zM149.85 29.736v3.1c0 .33-.046.525-.355.525a.705.705 0 01-.328-.089v.713c.155.062.328.098.519.098.646 0 .974-.401.974-1.194V30.44h1.956v3.571h.81v-4.275h-3.576zM158.302 29.63c-.6 0-1.11.178-1.52.543-.409.365-.655.82-.737 1.371h-.391v-1.763h-.81v4.23h.81v-1.763h.4c.082.543.328.989.737 1.345.41.347.92.525 1.511.525.655 0 1.201-.214 1.629-.65.428-.436.646-.962.646-1.594 0-.632-.218-1.158-.646-1.594-.428-.437-.974-.65-1.629-.65zm0 3.731c-.418 0-.764-.142-1.037-.427a1.493 1.493 0 01-.41-1.06c0-.419.137-.766.41-1.051.273-.294.619-.436 1.037-.436.419 0 .765.142 1.029.427.273.285.409.641.409 1.06 0 .418-.136.775-.409 1.06-.264.285-.61.427-1.029.427zM164.118 31.589c-.428.107-.792.16-1.092.16-.501 0-.792-.222-.792-.641v-1.372h-.847v1.55c0 .74.51 1.176 1.411 1.176.364 0 .801-.063 1.32-.196v1.745h.846v-4.275h-.846v1.853z" fill="#191919"/><defs><radialGradient id="jpaint0_angular_11_151" cx="0" cy="0" r="1" gradientUnits="userSpaceOnUse" gradientTransform="rotate(-1.193 1009.344 -988.545) scale(14.0711)"><stop stop-color="#4785EE"/><stop offset="1" stop-color="#89B1F4"/></radialGradient></defs></svg>