<?xml version="1.0" encoding="utf-8"?><svg width="20" height="20" fill="none" xmlns="http://www.w3.org/2000/svg" viewBox="0 0 20 20"><path fill-rule="evenodd" clip-rule="evenodd" d="M11.137 18.823a21.287 21.287 0 01-7.084-5.528c-1.63-1.952-2.729-3.78-3.457-5.748C.122 6.274-.061 5.222.018 4.23A3.18 3.18 0 01.97 2.192L2.526.642C2.971.22 3.48 0 4.007 0c.533 0 1.036.22 1.464.638.283.261.57.551.845.833l.011.012.413.42 1.24 1.234c.453.448.69.966.69 1.492s-.24 1.044-.69 1.492c-.13.129-.258.257-.383.385-.353.361-.72.73-1.11 1.082.278.642.678 1.272 1.272 2.022 1.178 1.439 2.409 2.557 3.765 3.415.137.087.291.166.458.249.133.066.274.137.412.215l1.489-1.483c.437-.435.948-.667 1.48-.667.533 0 1.04.232 1.465.67l2.5 2.492c.895.89.895 2.06.009 2.98-.192.198-.392.393-.587.58l-.06.057a9.87 9.87 0 00-.743.771c-.004.009-.012.017-.017.021-.678.734-1.51 1.09-2.545 1.09-.092 0-.18-.004-.272-.008h-.011c-1.544-.1-2.929-.68-3.965-1.169zM1.694 2.909c-.4.398-.611.858-.661 1.41-.067.832.095 1.748.524 2.888.69 1.856 1.735 3.589 3.286 5.45a20.222 20.222 0 006.743 5.263c.953.451 2.222.982 3.586 1.069.071.004.146.008.217.008.736 0 1.306-.24 1.784-.754.26-.31.546-.586.822-.853l.048-.046c.195-.187.378-.365.553-.552.508-.526.512-1.065.012-1.562L16.1 12.735c-.162-.174-.42-.369-.736-.369-.258 0-.52.129-.762.37l-1.555 1.55c-.071.07-.287.28-.62.28a.872.872 0 01-.404-.103l-.022-.012a19.162 19.162 0 00-.572-.307c-.152-.077-.31-.156-.458-.253-1.448-.915-2.762-2.105-4.01-3.638-.695-.87-1.14-1.6-1.46-2.367l-.007-.016-.006-.017c-.083-.248-.137-.576.208-.92l.02-.02c.37-.326.707-.666 1.062-1.023l.087-.088.193-.195.194-.195c.258-.257.39-.518.39-.775s-.132-.518-.39-.775l-1.24-1.235-.216-.22-.216-.219-.112-.113c-.241-.244-.47-.476-.712-.7-.237-.24-.495-.36-.749-.36-.258 0-.524.12-.765.353L1.694 2.909z" fill="#0065FB"/></svg>