<?xml version="1.0" encoding="utf-8"?><svg width="16" height="18" fill="none" xmlns="http://www.w3.org/2000/svg" viewBox="0 0 16 18"><path fill-rule="evenodd" clip-rule="evenodd" d="M3.13 4.696A4.701 4.701 0 017.826 0a4.701 4.701 0 014.696 4.696A4.701 4.701 0 017.826 9.39 4.701 4.701 0 013.13 4.696zm1.044 0a3.656 3.656 0 003.652 3.652 3.656 3.656 0 003.652-3.652 3.656 3.656 0 00-3.652-3.653 3.656 3.656 0 00-3.652 3.653zM8.87 10.174c1.809 0 3.513.763 4.798 2.148 1.28 1.379 1.984 3.199 1.984 5.124 0 .306-.233.554-.522.554H.522C.234 18 0 17.752 0 17.446c0-1.926.705-3.745 1.984-5.124 1.285-1.385 2.99-2.148 4.799-2.148H8.87zM6.783 11.28c-2.991 0-5.455 2.47-5.717 5.611h13.52c-.262-3.14-2.726-5.61-5.716-5.61H6.783z" fill="#0065FB"/></svg>