<?xml version="1.0" encoding="utf-8"?><svg width="24" height="24" fill="none" xmlns="http://www.w3.org/2000/svg" viewBox="0 0 24 24"><path d="M12.003 0h-.006C5.38 0 0 5.382 0 12c0 2.625.846 5.058 2.284 7.034L.79 23.49l4.613-1.474A11.896 11.896 0 0012.003 24C18.619 24 24 18.616 24 12c0-6.617-5.38-12-11.997-12z" fill="#4CAF50"/><path d="M19.732 17.257c-.306.804-1.518 1.47-2.486 1.664-.662.132-1.526.236-4.436-.887-3.722-1.435-6.12-4.956-6.306-5.185C6.325 12.621 5 10.985 5 9.293s.923-2.516 1.295-2.87C6.601 6.133 7.105 6 7.59 6c.157 0 .298.007.424.013.373.015.56.036.805.582.305.686 1.05 2.378 1.138 2.552.09.174.18.41.054.638-.119.236-.223.34-.41.54-.187.201-.364.355-.551.57-.171.187-.364.387-.149.734.215.339.96 1.47 2.055 2.377 1.414 1.172 2.56 1.546 2.97 1.705.306.118.67.09.893-.13.283-.285.633-.757.99-1.221.253-.333.573-.375.908-.257.342.11 2.152.944 2.524 1.116.372.174.617.257.708.402.088.146.088.832-.217 1.636z" fill="#FAFAFA"/></svg>