<?xml version="1.0" ?><!DOCTYPE svg  PUBLIC '-//W3C//DTD SVG 1.1//EN'  'http://www.w3.org/Graphics/SVG/1.1/DTD/svg11.dtd'><svg enable-background="new 0 0 32 32" height="32px" version="1.1" viewBox="0 0 32 32" width="32px" xml:space="preserve" xmlns="http://www.w3.org/2000/svg" xmlns:xlink="http://www.w3.org/1999/xlink"><g id="mobile_optimization_seo_iOS_response_time_stopwatch"><g><g><g><g><g><g><path d="M13.5,4h-5C8.224,4,8,3.776,8,3.5S8.224,3,8.5,3h5C13.776,3,14,3.224,14,3.5S13.776,4,13.5,4z" fill="#263238"/></g></g></g></g><g><g><g><g><path d="M11.5,29h-1c-0.276,0-0.5-0.224-0.5-0.5s0.224-0.5,0.5-0.5h1c0.276,0,0.5,0.224,0.5,0.5         S11.776,29,11.5,29z" fill="#263238"/></g></g></g></g><g><g><path d="M16.5,31h-11C4.121,31,3,29.879,3,28.5v-25C3,2.121,4.121,1,5.5,1h11C17.879,1,19,2.121,19,3.5v4       C19,7.776,18.776,8,18.5,8S18,7.776,18,7.5v-4C18,2.673,17.327,2,16.5,2h-11C4.673,2,4,2.673,4,3.5v25       C4,29.327,4.673,30,5.5,30h11c0.827,0,1.5-0.673,1.5-1.5l0,0c0-0.276,0.224-0.5,0.5-0.5s0.5,0.224,0.5,0.5l0,0       C19,29.879,17.879,31,16.5,31z" fill="#263238"/></g></g></g></g><g id="deposit_3_"><g id="transfer_15_"><g><path d="M13.5,27h-1.002c-0.276,0-0.5-0.224-0.5-0.5s0.224-0.5,0.5-0.5H13.5C16.657,26,24,24.587,24,11.5V8h-1.5      c-0.179,0-0.344-0.096-0.434-0.251s-0.088-0.347,0.001-0.501l3.5-6c0.18-0.307,0.685-0.307,0.864,0l3.5,6      c0.09,0.154,0.091,0.346,0.001,0.501S29.679,8,29.5,8H28v3.5c0,0.276-0.224,0.5-0.5,0.5S27,11.776,27,11.5v-4      C27,7.224,27.224,7,27.5,7h1.129L26,2.492L23.371,7H24.5C24.776,7,25,7.224,25,7.5v4C25,25.489,16.958,27,13.5,27z" fill="#263238"/></g></g><circle cx="27.498" cy="13.5" fill="#263238" r="0.5"/></g><g><path d="M13.5,25C9.364,25,6,21.636,6,17.5S9.364,10,13.5,10s7.5,3.364,7.5,7.5S17.636,25,13.5,25z M13.5,11    C9.916,11,7,13.916,7,17.5S9.916,24,13.5,24s6.5-2.916,6.5-6.5S17.084,11,13.5,11z" fill="#263238"/><g><g><path d="M17.614,12.337c-0.102,0-0.205-0.031-0.293-0.096c-0.224-0.162-0.273-0.475-0.11-0.698l0.882-1.213      c0.161-0.224,0.474-0.272,0.698-0.11c0.224,0.162,0.273,0.475,0.11,0.698l-0.882,1.213      C17.921,12.266,17.769,12.337,17.614,12.337z" fill="#263238"/></g></g><g><g><path d="M9.386,12.337c-0.155,0-0.307-0.071-0.405-0.206L8.1,10.917c-0.163-0.224-0.113-0.536,0.11-0.698      c0.224-0.162,0.536-0.112,0.698,0.11l0.882,1.214c0.163,0.224,0.113,0.536-0.11,0.698C9.591,12.306,9.488,12.337,9.386,12.337z" fill="#263238"/></g></g><g><path d="M14.5,9h-2C12.224,9,12,8.776,12,8.5S12.224,8,12.5,8h2C14.776,8,15,8.224,15,8.5S14.776,9,14.5,9z" fill="#263238"/></g><g><g><g><path d="M16.248,12.744c0.114,0.065,0.201,0.173,0.229,0.305c0.042,0.128,0.02,0.265-0.045,0.377       c-0.065,0.113-0.173,0.2-0.305,0.229c-0.25,0.074-0.536-0.091-0.607-0.35c-0.041-0.129-0.019-0.266,0.045-0.378       c0.066-0.112,0.174-0.201,0.306-0.229C16,12.656,16.135,12.679,16.248,12.744z" fill="#263238"/></g><g><path d="M11.249,21.404c0.113,0.065,0.2,0.173,0.227,0.305c0.038,0.137,0.021,0.265-0.045,0.377       c-0.065,0.113-0.172,0.201-0.295,0.234c-0.268,0.063-0.555-0.101-0.616-0.355c-0.041-0.129-0.019-0.266,0.044-0.378       c0.066-0.112,0.169-0.192,0.296-0.232C10.999,21.317,11.135,21.339,11.249,21.404z" fill="#263238"/></g></g><g><g><path d="M18.26,14.756c0.066,0.113,0.087,0.25,0.045,0.378c-0.028,0.132-0.115,0.239-0.228,0.304       c-0.113,0.065-0.25,0.087-0.378,0.046c-0.254-0.061-0.419-0.347-0.351-0.606c0.029-0.132,0.116-0.239,0.228-0.305       c0.113-0.064,0.251-0.087,0.379-0.045C18.088,14.556,18.195,14.643,18.26,14.756z" fill="#263238"/></g><g><path d="M9.6,19.756c0.065,0.113,0.087,0.25,0.044,0.378c-0.036,0.137-0.114,0.239-0.228,0.304       c-0.113,0.065-0.249,0.088-0.373,0.056c-0.264-0.079-0.43-0.365-0.355-0.616c0.029-0.132,0.116-0.239,0.228-0.305       c0.114-0.064,0.243-0.082,0.373-0.054C9.427,19.556,9.534,19.643,9.6,19.756z" fill="#263238"/></g></g><g><g><path d="M18.996,17.504c0,0.131-0.049,0.26-0.15,0.35c-0.09,0.101-0.219,0.15-0.35,0.149       c-0.13,0-0.259-0.05-0.35-0.149c-0.189-0.18-0.189-0.51,0-0.7c0.091-0.1,0.221-0.149,0.35-0.15       c0.13,0.001,0.261,0.051,0.351,0.151C18.947,17.244,18.997,17.373,18.996,17.504z" fill="#263238"/></g><g><path d="M8.997,17.504c0,0.131-0.05,0.26-0.15,0.35c-0.1,0.101-0.219,0.15-0.35,0.149       c-0.13,0-0.26-0.049-0.351-0.139c-0.189-0.2-0.19-0.531,0-0.711c0.091-0.1,0.221-0.149,0.35-0.15       c0.13,0.001,0.25,0.051,0.35,0.141C8.947,17.244,8.996,17.373,8.997,17.504z" fill="#263238"/></g></g><g><g><path d="M18.26,20.252c-0.065,0.113-0.173,0.2-0.305,0.228c-0.128,0.042-0.265,0.021-0.378-0.045       c-0.112-0.065-0.2-0.173-0.229-0.305c-0.074-0.25,0.091-0.536,0.35-0.606c0.128-0.041,0.266-0.02,0.378,0.045       c0.113,0.065,0.201,0.174,0.229,0.306C18.347,20.002,18.325,20.139,18.26,20.252z" fill="#263238"/></g><g><path d="M9.6,15.252c-0.065,0.113-0.173,0.2-0.305,0.228C9.158,15.517,9.03,15.5,8.917,15.435       s-0.2-0.173-0.234-0.296c-0.064-0.268,0.101-0.555,0.355-0.615c0.129-0.041,0.266-0.02,0.378,0.045       c0.113,0.065,0.192,0.169,0.233,0.296C9.687,15.002,9.665,15.139,9.6,15.252z" fill="#263238"/></g></g><g><g><path d="M16.248,22.264c-0.113,0.065-0.25,0.087-0.378,0.045c-0.132-0.028-0.24-0.115-0.305-0.229       c-0.065-0.112-0.087-0.249-0.045-0.378c0.061-0.254,0.347-0.419,0.606-0.35c0.132,0.028,0.24,0.115,0.305,0.228       c0.065,0.113,0.086,0.251,0.045,0.379C16.448,22.091,16.361,22.198,16.248,22.264z" fill="#263238"/></g><g><path d="M11.248,13.604c-0.113,0.065-0.25,0.087-0.378,0.045c-0.137-0.036-0.24-0.115-0.305-0.229       c-0.065-0.112-0.087-0.249-0.055-0.373c0.079-0.264,0.365-0.43,0.615-0.355c0.132,0.029,0.24,0.116,0.305,0.229       c0.065,0.113,0.082,0.242,0.054,0.373C11.448,13.431,11.361,13.538,11.248,13.604z" fill="#263238"/></g></g><g><g><path d="M13.5,23c-0.13,0-0.26-0.05-0.35-0.15C13.05,22.76,13,22.63,13,22.5s0.05-0.26,0.15-0.351       c0.18-0.189,0.51-0.189,0.7,0C13.95,22.24,14,22.37,14,22.5s-0.05,0.26-0.15,0.35C13.76,22.95,13.63,23,13.5,23z" fill="#263238"/></g><g><path d="M13.5,13c-0.13,0-0.26-0.05-0.35-0.15c-0.1-0.1-0.15-0.22-0.15-0.35s0.05-0.26,0.14-0.351       c0.2-0.189,0.53-0.189,0.71,0C13.95,12.24,14,12.37,14,12.5s-0.05,0.25-0.14,0.35C13.76,12.95,13.63,13,13.5,13z" fill="#263238"/></g></g></g><g><path d="M13.5,16.5c0.186,0,0.351,0.064,0.5,0.153V12.5c0-0.276-0.224-0.5-0.5-0.5S13,12.224,13,12.5v4.153     C13.149,16.564,13.314,16.5,13.5,16.5z" fill="#263238"/><path d="M13.5,19c-0.827,0-1.5-0.673-1.5-1.5s0.673-1.5,1.5-1.5s1.5,0.673,1.5,1.5S14.327,19,13.5,19z M13.5,17     c-0.276,0-0.5,0.225-0.5,0.5s0.224,0.5,0.5,0.5s0.5-0.225,0.5-0.5S13.776,17,13.5,17z" fill="#263238"/></g></g><circle cx="27.498" cy="17.5" fill="#263238" r="0.5"/><circle cx="27.498" cy="19.5" fill="#263238" r="0.5"/><path d="M27.5,23c-0.276,0-0.5-0.224-0.5-0.5v-1c0-0.276,0.224-0.5,0.5-0.5s0.5,0.224,0.5,0.5v1   C28,22.776,27.776,23,27.5,23z" fill="#263238"/><path d="M27.5,29h-5c-0.276,0-0.5-0.224-0.5-0.5s0.224-0.5,0.5-0.5H27v-3.5c0-0.276,0.224-0.5,0.5-0.5   s0.5,0.224,0.5,0.5v4C28,28.776,27.776,29,27.5,29z" fill="#263238"/></g></svg>