<svg width="13" height="27" viewBox="0 0 13 27" fill="none" xmlns="http://www.w3.org/2000/svg">
<path d="M0.00469971 13.6128C0.028676 13.89 0.138609 14.1524 0.31889 14.3622L10.6958 26.5147H10.696C10.9177 26.7912 11.2407 26.9646 11.591 26.9951C11.9414 27.0258 12.2891 26.911 12.5544 26.6771C12.8198 26.4434 12.9799 26.1103 12.9982 25.7547C13.0166 25.3989 12.8915 25.0509 12.6517 24.7904L3.0143 13.5001L12.6517 2.20981C12.8915 1.94909 13.0166 1.60107 12.9982 1.24529C12.9799 0.889721 12.8198 0.556849 12.5544 0.322889C12.2891 0.0889721 11.9414 -0.0258083 11.591 0.00489044C11.2407 0.0355873 10.9176 0.208796 10.696 0.485323L0.319117 12.6378H0.31889C0.0881672 12.9063 -0.025157 13.2582 0.00469971 13.6129V13.6128Z" fill="#26252A" fill-opacity="0.5"/>
</svg>
