<svg width="13" height="27" viewBox="0 0 13 27" fill="none" xmlns="http://www.w3.org/2000/svg">
<path d="M12.9953 13.3872C12.9713 13.11 12.8614 12.8476 12.6811 12.6378L2.30425 0.485324H2.30402C2.08235 0.208796 1.75934 0.0353594 1.40896 0.00489026C1.05858 -0.02581 0.710893 0.0889724 0.445565 0.32289C0.180237 0.556579 0.0200848 0.889699 0.00176319 1.24529C-0.016559 1.60109 0.108531 1.94911 0.348299 2.20957L9.9857 13.4999L0.348299 24.7902C0.108531 25.0509 -0.0165585 25.3989 0.00176319 25.7547C0.0200854 26.1103 0.180231 26.4432 0.445565 26.6771C0.710893 26.911 1.05856 27.0258 1.40896 26.9951C1.75935 26.9644 2.08235 26.7912 2.30402 26.5147L12.6809 14.3622H12.6811C12.9118 14.0937 13.0252 13.7418 12.9953 13.3871V13.3872Z" fill="#26252A" fill-opacity="0.5"/>
</svg>
