<svg width="1083" height="1195" viewBox="0 0 1083 1195" fill="none" xmlns="http://www.w3.org/2000/svg">
<circle cx="594" cy="597" r="496" stroke="url(#paint0_radial_132_1957)" stroke-width="150"/>
<path d="M1189.82 582.511C1189.9 585.832 1189.95 589.159 1189.98 592.494L1188.98 592.502C1188.99 594.166 1189 595.832 1189 597.5C1189 599.167 1188.99 600.833 1188.98 602.497L1189.98 602.506C1189.95 605.84 1189.9 609.168 1189.82 612.489L1188.82 612.464C1188.74 615.78 1188.63 619.089 1188.49 622.391L1189.49 622.432C1189.36 625.754 1189.19 629.069 1189 632.377L1188 632.32C1187.81 635.643 1187.6 638.958 1187.35 642.267L1188.35 642.34C1188.1 645.654 1187.83 648.96 1187.53 652.259L1186.54 652.169C1186.24 655.473 1185.91 658.77 1185.56 662.058L1186.56 662.165C1186.2 665.479 1185.82 668.785 1185.41 672.083L1184.42 671.96C1184.01 675.253 1183.57 678.537 1183.11 681.812L1184.1 681.952C1183.64 685.242 1183.15 688.523 1182.63 691.796L1181.64 691.64C1181.13 694.926 1180.58 698.203 1180.01 701.471L1180.99 701.643C1180.42 704.917 1179.82 708.181 1179.2 711.436L1178.21 711.247C1177.59 714.504 1176.93 717.752 1176.26 720.991L1177.23 721.196C1176.55 724.456 1175.84 727.706 1175.1 730.946L1174.13 730.725C1173.39 733.96 1172.63 737.184 1171.85 740.399L1172.82 740.637C1172.03 743.864 1171.21 747.082 1170.37 750.288L1169.4 750.034C1168.56 753.249 1167.69 756.454 1166.79 759.647L1167.75 759.917C1166.86 763.116 1165.93 766.304 1164.98 769.481L1164.03 769.195C1163.08 772.373 1162.1 775.541 1161.1 778.697L1162.05 779C1161.05 782.172 1160.01 785.333 1158.96 788.483L1158.01 788.164C1156.95 791.308 1155.87 794.441 1154.77 797.561L1155.71 797.895C1154.6 801.028 1153.46 804.149 1152.3 807.257L1151.37 806.907C1150.2 810.019 1149.02 813.118 1147.81 816.205L1148.74 816.57C1147.52 819.662 1146.28 822.741 1145.02 825.808L1144.09 825.427C1142.83 828.495 1141.54 831.55 1140.23 834.592L1141.15 834.989C1139.83 838.042 1138.48 841.082 1137.12 844.109L1136.21 843.697C1134.84 846.719 1133.45 849.727 1132.04 852.721L1132.94 853.148C1131.52 856.154 1130.08 859.147 1128.61 862.125L1127.71 861.683C1126.25 864.661 1124.76 867.624 1123.24 870.573L1124.13 871.03C1122.61 873.984 1121.07 876.924 1119.51 879.849L1118.63 879.377C1117.06 882.304 1115.47 885.216 1113.86 888.113L1114.73 888.599C1113.12 891.504 1111.48 894.393 1109.81 897.267L1108.95 896.766C1107.29 899.636 1105.6 902.49 1103.9 905.329L1104.75 905.844C1103.04 908.693 1101.3 911.527 1099.55 914.345L1098.7 913.816C1096.94 916.63 1095.16 919.429 1093.36 922.212L1094.2 922.756C1092.4 925.543 1090.57 928.314 1088.72 931.069L1087.89 930.512C1086.04 933.268 1084.17 936.007 1082.27 938.729L1083.09 939.301C1081.2 942.028 1079.28 944.739 1077.33 947.433L1076.52 946.848C1074.58 949.538 1072.62 952.211 1070.64 954.866L1071.44 955.464C1069.46 958.128 1067.45 960.775 1065.42 963.404L1064.62 962.793C1062.6 965.417 1060.55 968.025 1058.48 970.614L1059.26 971.239C1057.19 973.833 1055.09 976.41 1052.97 978.968L1052.2 978.331C1050.09 980.888 1047.95 983.426 1045.8 985.947L1046.56 986.597C1044.4 989.121 1042.22 991.627 1040.02 994.115L1039.27 993.452C1037.07 995.936 1034.86 998.402 1032.62 1000.85L1033.36 1001.52C1031.12 1003.97 1028.85 1006.41 1026.57 1008.82L1025.84 1008.13C1023.57 1010.54 1021.27 1012.93 1018.95 1015.31L1019.67 1016C1017.34 1018.38 1015 1020.74 1012.64 1023.07L1011.94 1022.36C1009.58 1024.69 1007.21 1027.01 1004.81 1029.3L1005.5 1030.02C1003.1 1032.32 1000.68 1034.6 998.247 1036.85L997.568 1036.12C995.135 1038.37 992.683 1040.61 990.213 1042.82L990.88 1043.56C988.406 1045.78 985.913 1047.97 983.402 1050.15L982.748 1049.39C980.241 1051.56 977.716 1053.71 975.173 1055.84L975.815 1056.61C973.269 1058.74 970.705 1060.85 968.123 1062.94L967.494 1062.17C964.917 1064.25 962.322 1066.32 959.71 1068.36L960.326 1069.15C957.71 1071.19 955.076 1073.22 952.425 1075.22L951.822 1074.43C949.178 1076.42 946.516 1078.4 943.838 1080.35L944.427 1081.16C941.745 1083.12 939.046 1085.06 936.33 1086.97L935.754 1086.15C933.042 1088.06 930.314 1089.95 927.57 1091.82L928.132 1092.64C925.388 1094.51 922.626 1096.35 919.849 1098.17L919.301 1097.34C916.529 1099.15 913.74 1100.95 910.936 1102.72L911.47 1103.57C908.662 1105.34 905.838 1107.09 902.998 1108.82L902.478 1107.97C899.648 1109.69 896.803 1111.39 893.943 1113.07L894.449 1113.93C891.584 1115.61 888.704 1117.26 885.809 1118.89L885.318 1118.02C882.429 1119.65 879.525 1121.26 876.606 1122.84L877.083 1123.72C874.166 1125.3 871.234 1126.85 868.288 1128.39L867.827 1127.5C864.886 1129.03 861.93 1130.53 858.961 1132.02L859.407 1132.91C856.436 1134.39 853.45 1135.85 850.45 1137.29L850.019 1136.38C847.031 1137.81 844.03 1139.22 841.016 1140.6L841.432 1141.5C838.412 1142.89 835.379 1144.24 832.332 1145.58L831.931 1144.66C828.894 1145.99 825.844 1147.29 822.781 1148.57L823.166 1149.49C820.106 1150.77 817.032 1152.02 813.946 1153.25L813.577 1152.32C810.496 1153.54 807.402 1154.74 804.296 1155.92L804.65 1156.85C801.545 1158.03 798.428 1159.18 795.299 1160.3L794.962 1159.36C791.846 1160.48 788.718 1161.57 785.579 1162.64L785.901 1163.58C782.756 1164.65 779.599 1165.7 776.431 1166.71L776.125 1165.76C772.972 1166.77 769.807 1167.76 766.631 1168.72L766.92 1169.68C763.747 1170.64 760.562 1171.57 757.367 1172.48L757.094 1171.52C753.904 1172.43 750.703 1173.31 747.491 1174.16L747.748 1175.13C744.543 1175.98 741.328 1176.81 738.102 1177.61L737.861 1176.64C734.649 1177.43 731.427 1178.2 728.195 1178.95L728.419 1179.92C725.181 1180.67 721.933 1181.38 718.675 1182.08L718.468 1181.1C715.23 1181.78 711.983 1182.44 708.727 1183.08L708.918 1184.06C705.665 1184.69 702.402 1185.3 699.131 1185.88L698.956 1184.9C695.69 1185.47 692.415 1186.03 689.13 1186.55L689.288 1187.54C686.016 1188.06 682.734 1188.56 679.444 1189.03L679.303 1188.04C676.028 1188.51 672.745 1188.95 669.454 1189.36L669.579 1190.35C666.282 1190.77 662.977 1191.15 659.663 1191.51L659.555 1190.52C656.267 1190.88 652.97 1191.2 649.666 1191.51L649.757 1192.5C646.459 1192.81 643.153 1193.08 639.84 1193.33L639.765 1192.33C636.457 1192.58 633.142 1192.8 629.819 1192.99L629.877 1193.99C626.569 1194.18 623.254 1194.35 619.932 1194.48L619.89 1193.49C616.589 1193.62 613.28 1193.73 609.964 1193.81L609.989 1194.81C606.668 1194.9 603.34 1194.95 600.006 1194.98L599.998 1193.98C598.334 1193.99 596.668 1194 595 1194C593.333 1194 591.667 1193.99 590.003 1193.98L589.994 1194.98C586.66 1194.95 583.332 1194.9 580.011 1194.81L580.036 1193.81C576.721 1193.73 573.412 1193.62 570.11 1193.49L570.069 1194.48C566.747 1194.35 563.431 1194.18 560.123 1193.99L560.181 1192.99C556.859 1192.8 553.543 1192.58 550.235 1192.33L550.161 1193.33C546.848 1193.08 543.542 1192.81 540.244 1192.5L540.335 1191.51C537.031 1191.21 533.734 1190.88 530.445 1190.52L530.337 1191.51C527.024 1191.15 523.719 1190.77 520.422 1190.35L520.546 1189.36C517.255 1188.95 513.972 1188.51 510.698 1188.04L510.556 1189.03C507.266 1188.56 503.985 1188.06 500.712 1187.54L500.87 1186.55C497.586 1186.03 494.311 1185.47 491.044 1184.9L490.87 1185.88C487.598 1185.3 484.336 1184.69 481.083 1184.06L481.274 1183.08C478.017 1182.45 474.77 1181.78 471.533 1181.1L471.325 1182.08C468.067 1181.38 464.82 1180.67 461.582 1179.92L461.806 1178.95C458.574 1178.2 455.352 1177.43 452.14 1176.64L451.899 1177.61C448.673 1176.81 445.457 1175.98 442.252 1175.13L442.509 1174.16C439.298 1173.31 436.097 1172.43 432.907 1171.52L432.633 1172.48C429.438 1171.57 426.253 1170.64 423.08 1169.68L423.37 1168.72C420.194 1167.76 417.029 1166.77 413.875 1165.76L413.569 1166.71C410.401 1165.7 407.245 1164.65 404.1 1163.58L404.422 1162.64C401.282 1161.57 398.154 1160.48 395.039 1159.36L394.701 1160.3C391.572 1159.18 388.455 1158.03 385.351 1156.85L385.704 1155.92C382.598 1154.74 379.505 1153.54 376.424 1152.32L376.054 1153.25C372.968 1152.02 369.895 1150.77 366.834 1149.49L367.219 1148.57C364.156 1147.29 361.106 1145.99 358.069 1144.66L357.668 1145.58C354.622 1144.24 351.588 1142.89 348.569 1141.5L348.985 1140.6C345.97 1139.22 342.969 1137.81 339.981 1136.38L339.55 1137.29C336.55 1135.85 333.565 1134.39 330.593 1132.91L331.039 1132.02C328.07 1130.53 325.115 1129.03 322.174 1127.5L321.712 1128.39C318.766 1126.85 315.835 1125.3 312.918 1123.72L313.394 1122.84C310.475 1121.26 307.572 1119.65 304.683 1118.02L304.192 1118.89C301.296 1117.26 298.416 1115.61 295.551 1113.93L296.057 1113.07C293.197 1111.39 290.352 1109.69 287.523 1107.97L287.003 1108.82C284.163 1107.09 281.338 1105.34 278.53 1103.57L279.064 1102.72C276.26 1100.95 273.472 1099.15 270.699 1097.34L270.151 1098.17C267.374 1096.35 264.613 1094.51 261.868 1092.64L262.43 1091.82C259.686 1089.95 256.958 1088.06 254.246 1086.15L253.671 1086.97C250.955 1085.06 248.255 1083.12 245.573 1081.16L246.163 1080.35C243.484 1078.4 240.823 1076.42 238.178 1074.43L237.575 1075.22C234.924 1073.22 232.29 1071.19 229.674 1069.15L230.29 1068.36C227.678 1066.32 225.083 1064.25 222.506 1062.17L221.877 1062.94C219.295 1060.85 216.731 1058.74 214.185 1056.61L214.827 1055.84C212.284 1053.71 209.759 1051.56 207.252 1049.39L206.598 1050.15C204.087 1047.97 201.594 1045.78 199.12 1043.56L199.787 1042.82C197.317 1040.61 194.865 1038.37 192.433 1036.12L191.753 1036.85C189.316 1034.6 186.897 1032.32 184.498 1030.02L185.19 1029.3C182.794 1027.01 180.418 1024.69 178.061 1022.36L177.358 1023.07C174.997 1020.74 172.656 1018.38 170.334 1016.01L171.049 1015.31C168.732 1012.93 166.434 1010.54 164.155 1008.13L163.429 1008.82C161.147 1006.41 158.885 1003.98 156.643 1001.52L157.38 1000.85C155.143 998.402 152.926 995.937 150.729 993.453L149.98 994.115C147.78 991.628 145.6 989.121 143.441 986.597L144.201 985.947C142.045 983.427 139.911 980.888 137.796 978.331L137.026 978.969C134.91 976.41 132.815 973.833 130.741 971.239L131.522 970.615C129.453 968.025 127.404 965.418 125.376 962.793L124.585 963.404C122.554 960.775 120.544 958.128 118.556 955.465L119.358 954.867C117.376 952.211 115.416 949.538 113.477 946.848L112.666 947.433C110.725 944.739 108.805 942.028 106.907 939.301L107.728 938.73C105.834 936.007 103.962 933.268 102.112 930.512L101.282 931.07C99.4323 928.315 97.6051 925.543 95.8004 922.756L96.6398 922.212C94.8382 919.43 93.059 916.631 91.3025 913.816L90.4542 914.346C88.6955 911.528 86.9597 908.694 85.2468 905.844L86.1039 905.329C84.3974 902.49 82.7138 899.636 81.0534 896.767L80.1878 897.267C78.5246 894.393 76.8846 891.504 75.268 888.599L76.1417 888.113C74.5292 885.216 72.9401 882.304 71.3745 879.378L70.4927 879.849C68.928 876.924 67.3868 873.984 65.8694 871.03L66.7589 870.573C65.2441 867.624 63.753 864.661 62.286 861.683L61.389 862.125C59.9215 859.147 58.478 856.155 57.0587 853.148L57.963 852.721C56.5494 849.727 55.1598 846.719 53.7946 843.697L52.8833 844.109C51.5158 841.082 50.1727 838.042 48.8542 834.989L49.7723 834.593C48.4587 831.55 47.1696 828.495 45.9052 825.427L44.9806 825.808C43.7171 822.741 42.4782 819.662 41.2642 816.57L42.195 816.205C40.9831 813.118 39.7961 810.019 38.6342 806.908L37.6974 807.257C36.5367 804.149 35.401 801.028 34.2907 797.895L35.2332 797.561C34.1272 794.441 33.0464 791.309 31.991 788.165L31.043 788.483C29.9858 785.334 28.954 782.173 27.9479 779L28.9011 778.698C27.9002 775.542 26.9247 772.374 25.9749 769.195L25.0167 769.481C24.0675 766.305 23.144 763.117 22.2462 759.918L23.209 759.648C22.3128 756.454 21.4424 753.25 20.5981 750.035L19.6309 750.289C18.7887 747.082 17.9724 743.865 17.1822 740.637L18.1535 740.399C17.3665 737.185 16.6055 733.96 15.8706 730.725L14.8954 730.947C14.1594 727.707 13.4495 724.456 12.7661 721.196L13.7448 720.991C13.066 717.753 12.4133 714.505 11.787 711.247L10.805 711.436C10.1792 708.181 9.57973 704.917 9.0068 701.644L9.99183 701.472C9.41985 698.204 8.87437 694.927 8.3556 691.641L7.36784 691.797C6.85113 688.524 6.36089 685.242 5.89734 681.952L6.88756 681.813C6.4261 678.537 5.99113 675.253 5.58288 671.961L4.59048 672.084C4.18155 668.786 3.79939 665.48 3.44421 662.166L4.43851 662.059C4.08609 658.77 3.76027 655.474 3.4613 652.169L2.46537 652.26C2.16692 648.961 1.89517 645.655 1.65034 642.341L2.64762 642.267C2.40319 638.959 2.18564 635.643 1.99516 632.32L0.996803 632.377C0.807206 629.069 0.644406 625.754 0.508617 622.432L1.50778 622.391C1.37282 619.089 1.26458 615.781 1.18328 612.465L0.183579 612.489C0.102147 609.168 0.0477002 605.841 0.0204504 602.506L1.02042 602.498C1.00681 600.834 1 599.168 1 597.5C1 595.833 1.00681 594.167 1.02041 592.502L0.0204459 592.494C0.0476927 589.16 0.102137 585.832 0.183565 582.511L1.18327 582.536C1.26456 579.22 1.3728 575.911 1.50776 572.609L0.508595 572.568C0.644382 569.246 0.80718 565.931 0.996774 562.623L1.99514 562.68C2.1856 559.357 2.40316 556.042 2.64759 552.733L1.6503 552.66C1.89513 549.346 2.16688 546.039 2.46532 542.741L3.46125 542.831C3.76023 539.527 4.08604 536.23 4.43846 532.942L3.44415 532.835C3.79933 529.521 4.1815 526.214 4.59043 522.917L5.58283 523.04C5.99107 519.747 6.42604 516.463 6.88749 513.188L5.89727 513.048C6.36082 509.758 6.85106 506.476 7.36776 503.204L8.35553 503.36C8.87429 500.074 9.41977 496.797 9.99174 493.529L9.00672 493.356C9.57965 490.083 10.1791 486.819 10.8049 483.564L11.7869 483.753C12.4132 480.496 13.0659 477.248 13.7447 474.009L12.766 473.804C13.4494 470.544 14.1592 467.294 14.8953 464.054L15.8705 464.275C16.6054 461.04 17.3664 457.816 18.1534 454.601L17.1821 454.363C17.9723 451.136 18.7886 447.918 19.6308 444.712L20.598 444.966C21.4423 441.751 22.3127 438.546 23.2089 435.353L22.2461 435.083C23.1438 431.884 24.0674 428.696 25.0166 425.519L25.9748 425.805C26.9246 422.626 27.9001 419.459 28.901 416.302L27.9478 416C28.9539 412.828 29.9857 409.667 31.0429 406.517L31.9909 406.836C33.0463 403.692 34.1271 400.559 35.2331 397.439L34.2905 397.105C35.4009 393.972 36.5366 390.851 37.6973 387.743L38.6341 388.093C39.796 384.981 40.983 381.882 42.1949 378.795L41.2641 378.43C42.478 375.338 43.7169 372.259 44.9805 369.192L45.9051 369.573C47.1695 366.505 48.4586 363.45 49.7722 360.408L48.8541 360.011C50.1726 356.958 51.5157 353.918 52.8832 350.891L53.7945 351.303C55.1597 348.281 56.5492 345.273 57.9629 342.279L57.0586 341.852C58.4778 338.846 59.9213 335.853 61.3888 332.875L62.2859 333.317C63.7529 330.339 65.244 327.376 66.7588 324.427L65.8693 323.97C67.3867 321.016 68.9279 318.076 70.4926 315.151L71.3744 315.623C72.9399 312.696 74.5291 309.784 76.1416 306.887L75.2678 306.401C76.8844 303.496 78.5245 300.607 80.1877 297.733L81.0532 298.234C82.7137 295.364 84.3973 292.51 86.1037 289.671L85.2467 289.156C86.9595 286.307 88.6954 283.473 90.454 280.655L91.3024 281.184C93.0588 278.369 94.838 275.571 96.6397 272.788L95.8003 272.244C97.605 269.457 99.4322 266.686 101.282 263.931L102.112 264.488C103.962 261.732 105.834 258.993 107.728 256.27L106.907 255.699C108.805 252.972 110.724 250.261 112.666 247.567L113.477 248.152C115.416 245.462 117.376 242.789 119.358 240.134L118.556 239.536C120.544 236.872 122.554 234.225 124.585 231.596L125.376 232.207C127.404 229.583 129.452 226.975 131.522 224.386L130.741 223.761C132.815 221.167 134.91 218.59 137.026 216.032L137.796 216.669C139.91 214.112 142.045 211.574 144.201 209.053L143.441 208.403C145.6 205.879 147.78 203.373 149.98 200.885L150.729 201.548C152.926 199.064 155.143 196.598 157.38 194.152L156.642 193.477C158.884 191.025 161.146 188.592 163.428 186.179L164.155 186.866C166.433 184.456 168.731 182.065 171.049 179.694L170.334 178.995C172.655 176.62 174.997 174.264 177.357 171.927L178.061 172.638C180.418 170.305 182.794 167.992 185.189 165.699L184.498 164.977C186.897 162.68 189.316 160.402 191.753 158.145L192.432 158.879C194.865 156.626 197.317 154.394 199.787 152.181L199.12 151.436C201.594 149.221 204.087 147.025 206.598 144.851L207.252 145.607C209.759 143.436 212.284 141.285 214.827 139.156L214.185 138.389C216.731 136.257 219.295 134.146 221.877 132.056L222.506 132.834C225.083 130.748 227.678 128.683 230.29 126.64L229.674 125.852C232.29 123.806 234.924 121.78 237.575 119.777L238.178 120.575C240.822 118.576 243.484 116.6 246.162 114.645L245.573 113.837C248.255 111.88 250.954 109.944 253.67 108.031L254.246 108.848C256.958 106.938 259.686 105.05 262.43 103.184L261.868 102.357C264.612 100.492 267.374 98.6481 270.151 96.8273L270.699 97.6636C273.471 95.846 276.26 94.051 279.064 92.279L278.53 91.4336C281.338 89.6588 284.162 87.9069 287.002 86.1782L287.522 87.0324C290.352 85.31 293.197 83.6107 296.057 81.9347L295.551 81.0719C298.416 79.3931 301.296 77.7376 304.191 76.1058L304.682 76.9769C307.571 75.3485 310.475 73.7438 313.394 72.1628L312.917 71.2835C315.834 69.7034 318.766 68.147 321.712 66.6146L322.173 67.5017C325.114 65.9719 328.07 64.4661 331.039 62.9844L330.593 62.0896C333.564 60.6069 336.55 59.1483 339.55 57.7142L339.981 58.6165C342.969 57.1882 345.97 55.7843 348.984 54.4049L348.568 53.4956C351.588 52.1139 354.621 50.7568 357.668 49.4246L358.069 50.3408C361.106 49.0128 364.156 47.7096 367.219 46.4314L366.834 45.5085C369.894 44.2313 372.968 42.979 376.054 41.7519L376.423 42.6812C379.504 41.4561 382.598 40.2562 385.704 39.0817L385.35 38.1464C388.455 36.9724 391.572 35.8237 394.701 34.7006L395.038 35.6419C398.154 34.5236 401.282 33.4306 404.421 32.3634L404.099 31.4166C407.244 30.3475 410.401 29.3041 413.569 28.2866L413.875 29.2387C417.028 28.2259 420.193 27.2389 423.369 26.2778L423.08 25.3207C426.253 24.3605 429.438 23.4262 432.633 22.5181L432.906 23.48C436.096 22.5734 439.297 21.6928 442.509 20.8387L442.252 19.8723C445.457 19.0198 448.672 18.1936 451.898 17.3937L452.139 18.3643C455.351 17.568 458.573 16.7979 461.805 16.0543L461.581 15.0798C464.819 14.3349 468.067 13.6165 471.325 12.925L471.532 13.9032C474.77 13.2159 478.017 12.5551 481.274 11.921L481.082 10.9394C484.335 10.306 487.598 9.69926 490.869 9.11934L491.044 10.104C494.31 9.52506 497.585 8.97292 500.87 8.44782L500.712 7.46036C503.984 6.93713 507.266 6.44069 510.556 5.97128L510.697 6.96125C513.972 6.4941 517.255 6.05375 520.546 5.64045L520.421 4.64824C523.718 4.23424 527.023 3.84733 530.337 3.48773L530.445 4.48189C533.733 4.12498 537.03 3.79503 540.334 3.49225L540.243 2.49642C543.541 2.19425 546.847 1.91909 550.16 1.67119L550.235 2.6684C553.543 2.42091 556.858 2.20062 560.181 2.00776L560.123 1.00944C563.431 0.817427 566.746 0.652552 570.068 0.515035L570.11 1.51418C573.411 1.37751 576.72 1.26791 580.036 1.18559L580.011 0.185897C583.332 0.103438 586.659 0.0483033 589.994 0.0207091L590.002 1.02067C591.666 1.0069 593.332 1 595 1C596.667 1 598.333 1.0069 599.997 1.02067L600.006 0.0207041C603.34 0.048295 606.668 0.103426 609.989 0.185883L609.964 1.18557C613.279 1.26789 616.588 1.37749 619.89 1.51416L619.931 0.515011C623.253 0.652525 626.569 0.817396 629.877 1.00941L629.819 2.00773C633.141 2.20059 636.457 2.42087 639.765 2.66836L639.839 1.67114C643.152 1.91905 646.458 2.1942 649.756 2.49637L649.665 3.4922C652.969 3.79498 656.266 4.12493 659.555 4.48184L659.663 3.48768C662.976 3.84727 666.281 4.23418 669.578 4.64818L669.454 5.64038C672.745 6.05368 676.028 6.49403 679.302 6.96118L679.444 5.97121C682.734 6.44061 686.015 6.93705 689.288 7.46027L689.13 8.44774C692.414 8.97284 695.689 9.52497 698.956 10.1039L699.13 9.11925C702.402 9.69917 705.664 10.3059 708.917 10.9393L708.726 11.9209C711.983 12.555 715.23 13.2158 718.467 13.9031L718.675 12.9249C721.933 13.6164 725.18 14.3348 728.418 15.0797L728.194 16.0542C731.426 16.7978 734.648 17.5679 737.86 18.3642L738.101 17.3936C741.327 18.1934 744.543 19.0197 747.748 19.8721L747.491 20.8385C750.702 21.6927 753.903 22.5732 757.093 23.4798L757.367 22.5179C760.562 23.4261 763.747 24.3604 766.92 25.3206L766.63 26.2777C769.806 27.2388 772.971 28.2258 776.125 29.2386L776.431 28.2865C779.599 29.3039 782.755 30.3473 785.9 31.4164L785.578 32.3632C788.718 33.4305 791.846 34.5234 794.961 35.6417L795.299 34.7005C798.428 35.8236 801.545 36.9723 804.649 38.1462L804.296 39.0816C807.402 40.2561 810.495 41.456 813.576 42.681L813.946 41.7518C817.032 42.9789 820.105 44.2312 823.166 45.5084L822.781 46.4312C825.844 47.7095 828.894 49.0127 831.931 50.3407L832.332 49.4245C835.378 50.7567 838.412 52.1138 841.431 53.4954L841.015 54.4048C844.03 55.7841 847.031 57.1881 850.019 58.6163L850.45 57.7141C853.45 59.1482 856.435 60.6067 859.407 62.0895L858.961 62.9843C861.93 64.4659 864.885 65.9718 867.826 67.5016L868.288 66.6144C871.234 68.1468 874.166 69.7032 877.082 71.2834L876.606 72.1626C879.525 73.7436 882.428 75.3484 885.317 76.9767L885.808 76.1056C888.704 77.7375 891.584 79.3929 894.449 81.0718L893.943 81.9345C896.803 83.6105 899.648 85.3099 902.477 87.0322L902.997 86.178C905.837 87.9067 908.662 89.6586 911.47 91.4335L910.936 92.2788C913.74 94.0509 916.528 95.8458 919.301 97.6634L919.849 96.8271C922.626 98.6479 925.387 100.491 928.132 102.357L927.57 103.184C930.314 105.05 933.042 106.938 935.754 108.848L936.329 108.031C939.045 109.944 941.745 111.88 944.427 113.837L943.837 114.645C946.516 116.6 949.177 118.576 951.822 120.575L952.425 119.777C955.076 121.78 957.71 123.805 960.326 125.852L959.71 126.64C962.322 128.683 964.917 130.748 967.494 132.834L968.123 132.056C970.705 134.146 973.269 136.257 975.815 138.389L975.173 139.156C977.716 141.285 980.241 143.435 982.748 145.606L983.402 144.851C985.913 147.025 988.406 149.22 990.88 151.436L990.213 152.181C992.683 154.393 995.135 156.626 997.568 158.879L998.247 158.145C1000.68 160.402 1003.1 162.679 1005.5 164.976L1004.81 165.699C1007.21 167.992 1009.58 170.305 1011.94 172.638L1012.64 171.927C1015 174.263 1017.34 176.619 1019.67 178.995L1018.95 179.694C1021.27 182.065 1023.57 184.456 1025.84 186.865L1026.57 186.178C1028.85 188.592 1031.12 191.025 1033.36 193.477L1032.62 194.152C1034.86 196.598 1037.07 199.063 1039.27 201.547L1040.02 200.885C1042.22 203.373 1044.4 205.879 1046.56 208.403L1045.8 209.053C1047.95 211.573 1050.09 214.112 1052.2 216.669L1052.97 216.031C1055.09 218.59 1057.18 221.167 1059.26 223.761L1058.48 224.385C1060.55 226.975 1062.6 229.582 1064.62 232.207L1065.42 231.596C1067.45 234.225 1069.46 236.872 1071.44 239.535L1070.64 240.133C1072.62 242.789 1074.58 245.462 1076.52 248.152L1077.33 247.567C1079.28 250.261 1081.2 252.972 1083.09 255.699L1082.27 256.27C1084.17 258.993 1086.04 261.732 1087.89 264.488L1088.72 263.93C1090.57 266.685 1092.39 269.457 1094.2 272.244L1093.36 272.788C1095.16 275.57 1096.94 278.369 1098.7 281.184L1099.55 280.654C1101.3 283.473 1103.04 286.306 1104.75 289.156L1103.9 289.671C1105.6 292.51 1107.29 295.364 1108.95 298.233L1109.81 297.733C1111.48 300.607 1113.12 303.496 1114.73 306.401L1113.86 306.887C1115.47 309.784 1117.06 312.696 1118.63 315.622L1119.51 315.151C1121.07 318.076 1122.61 321.016 1124.13 323.97L1123.24 324.427C1124.76 327.376 1126.25 330.339 1127.71 333.317L1128.61 332.875C1130.08 335.853 1131.52 338.845 1132.94 341.852L1132.04 342.279C1133.45 345.273 1134.84 348.281 1136.21 351.303L1137.12 350.891C1138.48 353.918 1139.83 356.958 1141.15 360.011L1140.23 360.407C1141.54 363.45 1142.83 366.505 1144.09 369.573L1145.02 369.192C1146.28 372.259 1147.52 375.338 1148.74 378.43L1147.8 378.795C1149.02 381.882 1150.2 384.981 1151.37 388.092L1152.3 387.743C1153.46 390.851 1154.6 393.972 1155.71 397.105L1154.77 397.439C1155.87 400.559 1156.95 403.691 1158.01 406.835L1158.96 406.517C1160.01 409.666 1161.05 412.827 1162.05 416L1161.1 416.302C1162.1 419.458 1163.08 422.626 1164.03 425.805L1164.98 425.519C1165.93 428.695 1166.86 431.883 1167.75 435.082L1166.79 435.353C1167.69 438.546 1168.56 441.75 1169.4 444.965L1170.37 444.711C1171.21 447.918 1172.03 451.135 1172.82 454.363L1171.85 454.601C1172.63 457.815 1173.39 461.04 1174.13 464.275L1175.1 464.053C1175.84 467.293 1176.55 470.544 1177.23 473.804L1176.26 474.009C1176.93 477.247 1177.59 480.495 1178.21 483.753L1179.2 483.564C1179.82 486.819 1180.42 490.083 1180.99 493.356L1180.01 493.528C1180.58 496.796 1181.13 500.073 1181.64 503.359L1182.63 503.203C1183.15 506.476 1183.64 509.758 1184.1 513.048L1183.11 513.187C1183.57 516.463 1184.01 519.747 1184.42 523.039L1185.41 522.916C1185.82 526.214 1186.2 529.52 1186.56 532.834L1185.56 532.941C1185.91 536.23 1186.24 539.526 1186.54 542.831L1187.53 542.74C1187.83 546.039 1188.1 549.345 1188.35 552.659L1187.35 552.733C1187.6 556.041 1187.81 559.357 1188 562.68L1189 562.623C1189.19 565.931 1189.36 569.246 1189.49 572.568L1188.49 572.609C1188.63 575.911 1188.74 579.219 1188.82 582.535L1189.82 582.511Z" stroke="#C0C0C0" stroke-width="2" stroke-dasharray="10 10"/>
<defs>
<radialGradient id="paint0_radial_132_1957" cx="0" cy="0" r="1" gradientUnits="userSpaceOnUse" gradientTransform="translate(102 920) rotate(-37.0692) scale(1178.71)">
<stop stop-color="#E3C078"/>
<stop offset="1" stop-color="#987C54"/>
</radialGradient>
</defs>
</svg>
