<svg width="39" height="51" viewBox="0 0 39 51" fill="none" xmlns="http://www.w3.org/2000/svg">
<path d="M35.0437 50.1384H3.75365C1.64867 50.1384 0 48.4248 0 46.2368V3.80906C0 1.67367 1.64879 0.000976562 3.75365 0.000976562H28.1496C28.3322 0.000976562 28.5073 0.0751304 28.634 0.206537L38.8118 10.7669C38.9324 10.8922 39 11.0598 39 11.2339V46.2365C39 48.3517 37.1884 50.1381 35.044 50.1381L35.0437 50.1384ZM3.75365 1.34639C2.38085 1.34639 1.34553 2.40472 1.34553 3.80894V46.2367C1.34553 47.6696 2.4034 48.7926 3.75365 48.7926H35.0437C36.4343 48.7926 37.6542 47.5981 37.6542 46.2367V11.5056L27.8631 1.34699L3.75365 1.34639Z" fill="#26252A"/>
<path d="M38.3262 11.9528H31.3303C29.2253 11.9528 27.5767 10.2393 27.5767 8.05129V0.673019C27.5767 0.301306 27.878 0 28.2497 0C28.6214 0 28.9227 0.300838 28.9227 0.673019L28.9222 8.05129C28.9222 9.48417 29.9801 10.6072 31.3304 10.6072H38.3262C38.6979 10.6072 38.9992 10.908 38.9992 11.2802C38.9987 11.6519 38.6974 11.9528 38.3262 11.9528L38.3262 11.9528Z" fill="#26252A"/>
</svg>
