<svg width="129" height="46" viewBox="0 0 129 46" fill="none" xmlns="http://www.w3.org/2000/svg">
<path d="M11.1508 25.121C15.3957 25.121 18.5319 22.365 18.5319 18.0884C18.5319 13.8118 15.3957 11.0874 11.1508 11.0874H0V31.6784H5.38533V25.121H11.1508ZM11.1508 16.0926C12.3546 16.0926 13.1465 16.8212 13.1465 18.0884C13.1465 19.3872 12.3546 20.1158 11.1508 20.1158H5.38533V16.0926H11.1508Z" fill="#D9B773"/>
<path d="M21.6742 31.6784H26.9962V22.9669C27.3447 21.573 28.6752 20.8127 30.1007 20.8127C30.6075 20.8127 31.3045 20.8761 31.7163 20.9711V15.4591C29.8156 15.4591 28.1683 16.2193 26.9962 17.4865V15.8392H21.6742V31.6784Z" fill="#D9B773"/>
<path d="M42.5236 32.0586C47.5605 32.0586 51.2668 28.8274 51.2668 23.7588C51.2668 18.6903 47.5605 15.4591 42.5236 15.4591C37.4867 15.4591 33.7803 18.6903 33.7803 23.7588C33.7803 28.8274 37.4867 32.0586 42.5236 32.0586ZM42.5236 20.4643C44.551 20.4643 45.8815 21.6997 45.8815 23.7588C45.8815 25.8179 44.551 27.0534 42.5236 27.0534C40.4962 27.0534 39.1657 25.8179 39.1657 23.7588C39.1657 21.6997 40.4962 20.4643 42.5236 20.4643Z" fill="#D9B773"/>
<path d="M53.7627 22.4283H55.9802V31.6784H61.3022V22.4283H64.6918V17.4865H61.3022V17.1697C61.3022 15.1106 62.3159 14.1919 64.3433 14.1919V9.18674C59.1481 9.18674 55.9802 12.1012 55.9802 17.1697V17.4865H53.7627V22.4283Z" fill="#D9B773"/>
<path d="M67.8918 31.6784H73.2138V15.8392H67.8918V31.6784ZM67.8285 11.4676C67.8285 13.1465 68.9055 14.1603 70.5528 14.1603C72.2001 14.1603 73.2455 13.1465 73.2455 11.4676C73.2455 9.82031 72.2001 8.77492 70.5528 8.77492C68.9055 8.77492 67.8285 9.82031 67.8285 11.4676Z" fill="#D9B773"/>
<path d="M77.5446 31.6784H82.8666V9.50352H77.5446V31.6784Z" fill="#D9B773"/>
<path d="M93.1514 11.0874L87.8294 12.6714V15.8709H85.9287V20.8127H87.8294V24.6775C87.8294 28.7957 89.3183 32.0586 93.6266 32.0586C94.3235 32.0586 95.6223 31.9635 96.2242 31.8051V26.8633C96.0658 26.895 95.4006 26.9583 95.2422 26.9583C93.8483 26.9583 93.1514 26.103 93.1514 24.6141V20.8127H96.3826V15.8709H93.1514V11.0874Z" fill="#D9B773"/>
<path d="M99.7875 31.6784H105.11V22.9669C105.458 21.573 106.788 20.8127 108.214 20.8127C108.721 20.8127 109.418 20.8761 109.83 20.9711V15.4591C107.929 15.4591 106.282 16.2193 105.11 17.4865V15.8392H99.7875V31.6784Z" fill="#D9B773"/>
<path d="M129 15.8392H123.678V17.3598C122.443 16.156 120.827 15.4591 118.958 15.4591C114.871 15.4591 111.894 18.6903 111.894 23.7588C111.894 28.8274 114.871 32.0586 118.958 32.0586C120.827 32.0586 122.443 31.3933 123.678 30.1895V31.6784H129V15.8392ZM120.574 27.0534C118.578 27.0534 117.279 25.8179 117.279 23.7588C117.279 21.6997 118.578 20.4643 120.574 20.4643C122.569 20.4643 123.868 21.6997 123.868 23.7588C123.868 25.8179 122.569 27.0534 120.574 27.0534Z" fill="#D9B773"/>
<circle cx="24.7621" cy="22.1749" r="22.1749" fill="#26252A"/>
<circle cx="24.7619" cy="22.1749" r="19.0071" fill="#D9B773"/>
<mask id="mask0_301_2" style="mask-type:alpha" maskUnits="userSpaceOnUse" x="5" y="3" width="39" height="39">
<circle cx="24.7619" cy="22.1749" r="19.0071" fill="#D9B773"/>
</mask>
<g mask="url(#mask0_301_2)">
<path d="M11.1508 25.121C15.3957 25.121 18.5319 22.365 18.5319 18.0884C18.5319 13.8118 15.3957 11.0874 11.1508 11.0874H0V31.6784H5.38533V25.121H11.1508ZM11.1508 16.0926C12.3546 16.0926 13.1465 16.8212 13.1465 18.0884C13.1465 19.3872 12.3546 20.1158 11.1508 20.1158H5.38533V16.0926H11.1508Z" fill="#26252A"/>
<path d="M21.6742 31.6784H26.9962V22.9669C27.3447 21.573 28.6752 20.8127 30.1007 20.8127C30.6075 20.8127 31.3045 20.8761 31.7163 20.9711V15.4591C29.8156 15.4591 28.1683 16.2193 26.9962 17.4865V15.8392H21.6742V31.6784Z" fill="#26252A"/>
<path d="M42.5236 32.0586C47.5605 32.0586 51.2668 28.8274 51.2668 23.7588C51.2668 18.6903 47.5605 15.4591 42.5236 15.4591C37.4867 15.4591 33.7803 18.6903 33.7803 23.7588C33.7803 28.8274 37.4867 32.0586 42.5236 32.0586ZM42.5236 20.4643C44.551 20.4643 45.8815 21.6997 45.8815 23.7588C45.8815 25.8179 44.551 27.0534 42.5236 27.0534C40.4962 27.0534 39.1657 25.8179 39.1657 23.7588C39.1657 21.6997 40.4962 20.4643 42.5236 20.4643Z" fill="#26252A"/>
<path d="M53.7627 22.4283H55.9802V31.6784H61.3022V22.4283H64.6918V17.4865H61.3022V17.1697C61.3022 15.1106 62.3159 14.1919 64.3433 14.1919V9.18674C59.1481 9.18674 55.9802 12.1012 55.9802 17.1697V17.4865H53.7627V22.4283Z" fill="#26252A"/>
<path d="M67.8918 31.6784H73.2138V15.8392H67.8918V31.6784ZM67.8285 11.4676C67.8285 13.1465 68.9055 14.1603 70.5528 14.1603C72.2001 14.1603 73.2455 13.1465 73.2455 11.4676C73.2455 9.82031 72.2001 8.77492 70.5528 8.77492C68.9055 8.77492 67.8285 9.82031 67.8285 11.4676Z" fill="#26252A"/>
<path d="M77.5446 31.6784H82.8666V9.50352H77.5446V31.6784Z" fill="#26252A"/>
<path d="M93.1514 11.0874L87.8294 12.6714V15.8709H85.9287V20.8127H87.8294V24.6775C87.8294 28.7957 89.3183 32.0586 93.6266 32.0586C94.3235 32.0586 95.6223 31.9635 96.2242 31.8051V26.8633C96.0658 26.895 95.4006 26.9583 95.2422 26.9583C93.8483 26.9583 93.1514 26.103 93.1514 24.6141V20.8127H96.3826V15.8709H93.1514V11.0874Z" fill="#26252A"/>
<path d="M99.7875 31.6784H105.11V22.9669C105.458 21.573 106.788 20.8127 108.214 20.8127C108.721 20.8127 109.418 20.8761 109.83 20.9711V15.4591C107.929 15.4591 106.282 16.2193 105.11 17.4865V15.8392H99.7875V31.6784Z" fill="#26252A"/>
<path d="M129 15.8392H123.678V17.3598C122.443 16.156 120.827 15.4591 118.958 15.4591C114.871 15.4591 111.894 18.6903 111.894 23.7588C111.894 28.8274 114.871 32.0586 118.958 32.0586C120.827 32.0586 122.443 31.3933 123.678 30.1895V31.6784H129V15.8392ZM120.574 27.0534C118.578 27.0534 117.279 25.8179 117.279 23.7588C117.279 21.6997 118.578 20.4643 120.574 20.4643C122.569 20.4643 123.868 21.6997 123.868 23.7588C123.868 25.8179 122.569 27.0534 120.574 27.0534Z" fill="#26252A"/>
</g>
<path d="M57.96 39.44V40.92H60.552V41.96H57.96V44H56.664V38.4H60.896V39.44H57.96ZM61.7734 38.4H63.0694V44H61.7734V38.4ZM64.3984 38.4H65.6944V42.944H68.5024V44H64.3984V38.4ZM69.8631 39.456H68.0711V38.4H72.9511V39.456H71.1591V44H69.8631V39.456ZM77.9844 42.96V44H73.6484V38.4H77.8804V39.44H74.9364V40.656H77.5364V41.664H74.9364V42.96H77.9844ZM82.5836 44L81.5036 42.44H81.4396H80.3116V44H79.0156V38.4H81.4396C81.9356 38.4 82.3649 38.4827 82.7276 38.648C83.0956 38.8133 83.3782 39.048 83.5756 39.352C83.7729 39.656 83.8716 40.016 83.8716 40.432C83.8716 40.848 83.7702 41.208 83.5676 41.512C83.3702 41.8107 83.0876 42.04 82.7196 42.2L83.9756 44H82.5836ZM82.5596 40.432C82.5596 40.1173 82.4582 39.8773 82.2556 39.712C82.0529 39.5413 81.7569 39.456 81.3676 39.456H80.3116V41.408H81.3676C81.7569 41.408 82.0529 41.3227 82.2556 41.152C82.4582 40.9813 82.5596 40.7413 82.5596 40.432ZM89.004 44.096C88.5613 44.096 88.132 44.0373 87.716 43.92C87.3053 43.7973 86.9747 43.64 86.724 43.448L87.164 42.472C87.404 42.648 87.6893 42.7893 88.02 42.896C88.3507 43.0027 88.6813 43.056 89.012 43.056C89.38 43.056 89.652 43.0027 89.828 42.896C90.004 42.784 90.092 42.6373 90.092 42.456C90.092 42.3227 90.0387 42.2133 89.932 42.128C89.8307 42.0373 89.6973 41.9653 89.532 41.912C89.372 41.8587 89.1533 41.8 88.876 41.736C88.4493 41.6347 88.1 41.5333 87.828 41.432C87.556 41.3307 87.3213 41.168 87.124 40.944C86.932 40.72 86.836 40.4213 86.836 40.048C86.836 39.7227 86.924 39.4293 87.1 39.168C87.276 38.9013 87.54 38.6907 87.892 38.536C88.2493 38.3813 88.684 38.304 89.196 38.304C89.5533 38.304 89.9027 38.3467 90.244 38.432C90.5853 38.5173 90.884 38.64 91.14 38.8L90.74 39.784C90.2227 39.4907 89.7053 39.344 89.188 39.344C88.8253 39.344 88.556 39.4027 88.38 39.52C88.2093 39.6373 88.124 39.792 88.124 39.984C88.124 40.176 88.2227 40.32 88.42 40.416C88.6227 40.5067 88.9293 40.5973 89.34 40.688C89.7667 40.7893 90.116 40.8907 90.388 40.992C90.66 41.0933 90.892 41.2533 91.084 41.472C91.2813 41.6907 91.38 41.9867 91.38 42.36C91.38 42.68 91.2893 42.9733 91.108 43.24C90.932 43.5013 90.6653 43.7093 90.308 43.864C89.9507 44.0187 89.516 44.096 89.004 44.096ZM94.7536 44.096C93.9536 44.096 93.3296 43.8747 92.8816 43.432C92.4389 42.9893 92.2176 42.3573 92.2176 41.536V38.4H93.5136V41.488C93.5136 42.4907 93.9296 42.992 94.7616 42.992C95.1669 42.992 95.4762 42.872 95.6896 42.632C95.9029 42.3867 96.0096 42.0053 96.0096 41.488V38.4H97.2896V41.536C97.2896 42.3573 97.0656 42.9893 96.6176 43.432C96.1749 43.8747 95.5536 44.096 94.7536 44.096ZM100.994 38.4C101.49 38.4 101.92 38.4827 102.282 38.648C102.65 38.8133 102.933 39.048 103.13 39.352C103.328 39.656 103.426 40.016 103.426 40.432C103.426 40.8427 103.328 41.2027 103.13 41.512C102.933 41.816 102.65 42.0507 102.282 42.216C101.92 42.376 101.49 42.456 100.994 42.456H99.8663V44H98.5703V38.4H100.994ZM100.922 41.4C101.312 41.4 101.608 41.3173 101.81 41.152C102.013 40.9813 102.114 40.7413 102.114 40.432C102.114 40.1173 102.013 39.8773 101.81 39.712C101.608 39.5413 101.312 39.456 100.922 39.456H99.8663V41.4H100.922ZM106.776 38.4C107.272 38.4 107.701 38.4827 108.064 38.648C108.432 38.8133 108.714 39.048 108.912 39.352C109.109 39.656 109.208 40.016 109.208 40.432C109.208 40.8427 109.109 41.2027 108.912 41.512C108.714 41.816 108.432 42.0507 108.064 42.216C107.701 42.376 107.272 42.456 106.776 42.456H105.648V44H104.352V38.4H106.776ZM106.704 41.4C107.093 41.4 107.389 41.3173 107.592 41.152C107.794 40.9813 107.896 40.7413 107.896 40.432C107.896 40.1173 107.794 39.8773 107.592 39.712C107.389 39.5413 107.093 39.456 106.704 39.456H105.648V41.4H106.704ZM110.133 38.4H111.429V42.944H114.237V44H110.133V38.4ZM114.961 38.4H116.257V44H114.961V38.4ZM121.922 42.96V44H117.586V38.4H121.818V39.44H118.874V40.656H121.474V41.664H118.874V42.96H121.922ZM126.521 44L125.441 42.44H125.377H124.249V44H122.953V38.4H125.377C125.873 38.4 126.302 38.4827 126.665 38.648C127.033 38.8133 127.316 39.048 127.513 39.352C127.71 39.656 127.809 40.016 127.809 40.432C127.809 40.848 127.708 41.208 127.505 41.512C127.308 41.8107 127.025 42.04 126.657 42.2L127.913 44H126.521ZM126.497 40.432C126.497 40.1173 126.396 39.8773 126.193 39.712C125.99 39.5413 125.694 39.456 125.305 39.456H124.249V41.408H125.305C125.694 41.408 125.99 41.3227 126.193 41.152C126.396 40.9813 126.497 40.7413 126.497 40.432Z" fill="white"/>
</svg>
