<svg width="48" height="48" fill="none" xmlns="http://www.w3.org/2000/svg"><g clip-path="url(#clip0_369_219)"><path d="M46.62 36.843l-8.584-7.932c-1.846-1.706-1.846-4.476 0-6.182l8.584-7.923c1.846-1.706 1.846-4.476 0-6.182l-4.004-3.7c-1.847-1.706-4.845-1.706-6.691 0l-8.584 7.931c-1.846 1.706-4.845 1.706-6.691 0l-8.584-7.93c-1.846-1.707-4.844-1.707-6.691 0L1.371 8.623c-1.846 1.706-1.846 4.476 0 6.182l8.584 7.931c1.846 1.706 1.846 4.477 0 6.183L1.37 36.85c-1.846 1.707-1.846 4.477 0 6.184l4.004 3.699c1.847 1.706 4.845 1.706 6.691 0l8.584-7.931c1.846-1.706 4.845-1.706 6.691 0l8.584 7.931c1.846 1.706 4.844 1.706 6.69 0l4.005-3.708c1.846-1.714 1.846-4.476 0-6.182z" fill="#CF5C2B"/><path d="M46.619 33.194l-8.584-7.932c-1.846-1.706-1.846-4.476 0-6.182l8.584-7.923c1.846-1.706 1.846-4.476 0-6.182l-4.004-3.7c-1.846-1.706-4.845-1.706-6.691 0L27.34 9.206c-1.846 1.706-4.844 1.706-6.69 0l-8.584-7.93c-1.847-1.707-4.845-1.707-6.692 0L1.39 4.974c-1.847 1.706-1.847 4.476 0 6.182l8.583 7.931c1.847 1.706 1.847 4.477 0 6.183L1.39 33.194c-1.847 1.706-1.847 4.476 0 6.182l3.994 3.7c1.847 1.706 4.845 1.706 6.692 0l8.583-7.931c1.847-1.707 4.845-1.707 6.692 0l8.574 7.93c1.846 1.707 4.845 1.707 6.691 0l4.004-3.699c1.846-1.706 1.846-4.476 0-6.182z" fill="#FFD7B7"/></g><defs><clipPath id="clip0_369_219"><path fill="#fff" d="M0 0h48v48H0z"/></clipPath></defs></svg>