<svg width="25" height="30" viewBox="0 0 25 30" fill="none" xmlns="http://www.w3.org/2000/svg">
<path fill-rule="evenodd" clip-rule="evenodd" d="M0.5 13.5V8V5H3.5L5.5 4.5L8 4L10 2.5L12 1L14 2.5L16 3.5L18 4.5L20 5L22.5 5.5H23.5V14V17L22 20L20 23L19 24.5L16.5 26.5L14.5 28L12 29.5L9 27.5L7 26L5.5 24.5L3.5 22.5L2.5 20.5L1.5 18L1 16L0.5 13.5Z" fill="#4785EE" fill-opacity="0.3"/>
<path fill-rule="evenodd" clip-rule="evenodd" d="M11.9049 29.9601C11.9615 29.9865 12.0232 30.0001 12.0857 30C12.1482 30.0001 12.2099 29.9865 12.2666 29.9601C15.6901 28.4297 18.6847 26.0809 20.9867 23.1206C21.0874 22.9839 21.1877 22.8467 21.2734 22.7181C21.9551 21.7566 22.5314 20.7245 22.9924 19.6397C23.177 19.2119 23.3389 18.7748 23.4776 18.33C23.8024 17.3281 24.0144 16.2932 24.1097 15.2443C24.1522 14.817 24.1728 14.3879 24.1714 13.9586V4.91271C24.1718 4.79261 24.1218 4.67784 24.0336 4.59636C23.9454 4.51489 23.827 4.47417 23.7073 4.48414C18.9313 4.88571 15.234 3.465 12.4114 0.150857C12.3302 0.0553361 12.2111 0.000205867 12.0857 9.29465e-10C11.9604 -8.24107e-06 11.8414 0.0547981 11.76 0.15C8.87486 3.51814 5.18014 4.93629 0.469714 4.48457C0.349247 4.47255 0.229368 4.51246 0.140143 4.59429C0.050842 4.67554 -4.31033e-05 4.79069 2.73962e-08 4.91143V13.9586C2.73962e-08 20.5084 4.45071 26.4904 11.9049 29.9601ZM0.857143 13.9586V5.37729C5.47157 5.70814 9.15343 4.29814 12.0857 1.077C14.9601 4.24714 18.6429 5.65714 23.3143 5.37214V13.9586C23.3159 14.3609 23.2964 14.763 23.256 15.1633C23.1669 16.1529 22.9672 17.1294 22.6607 18.0746C22.5298 18.4932 22.3772 18.9048 22.2034 19.3076C21.7642 20.341 21.2148 21.324 20.5646 22.2394C20.481 22.3667 20.3893 22.4919 20.2924 22.6204C18.1197 25.4108 15.304 27.6339 12.0857 29.1C5.05071 25.761 0.857143 20.1137 0.857143 13.9586Z" fill="#4785EE"/>
<path d="M21.099 15.63C21.081 15.6301 21.0631 15.629 21.0454 15.6266C20.8106 15.5971 20.6441 15.383 20.6734 15.1483C20.7213 14.7535 20.7445 14.3562 20.7428 13.9586C20.7416 13.7219 20.9325 13.529 21.1692 13.5278C21.4059 13.5267 21.5988 13.7176 21.6 13.9543V13.9586C21.6018 14.3917 21.5763 14.8246 21.5237 15.2546C21.4969 15.4688 21.3149 15.6297 21.099 15.63Z" fill="#4785EE"/>
<path d="M19.7695 19.9029C19.6195 19.9027 19.4804 19.8241 19.4029 19.6956C19.3254 19.5671 19.3207 19.4074 19.3907 19.2746C19.6016 18.8766 19.7893 18.4668 19.953 18.0471C20.0081 17.9043 20.1352 17.8017 20.2865 17.778C20.4378 17.7543 20.5902 17.8131 20.6864 17.9323C20.7825 18.0514 20.8078 18.2129 20.7527 18.3557C20.5771 18.8065 20.3755 19.2466 20.1488 19.674C20.0747 19.8148 19.9287 19.9029 19.7695 19.9029Z" fill="#4785EE"/>
<path d="M12.0857 27.1328C12.0161 27.1327 11.9476 27.1158 11.886 27.0835C6.05355 24.012 2.57141 19.1053 2.57141 13.9585V7.54712C2.57115 7.31823 2.75079 7.12953 2.97941 7.11855C6.22047 7.00725 9.32995 5.80934 11.808 3.7174C11.9675 3.58313 12.2005 3.58313 12.36 3.7174C14.8502 5.78839 17.9566 6.97571 21.1933 7.09369C21.4209 7.106 21.599 7.29432 21.5987 7.52226V10.9551C21.5987 11.1918 21.4068 11.3837 21.1701 11.3837C20.9334 11.3837 20.7416 11.1918 20.7416 10.9551V7.92297C17.584 7.7285 14.5624 6.5686 12.0857 4.60026C9.6186 6.59017 6.59247 7.76137 3.42855 7.95083V13.9585C3.42855 18.795 6.58027 23.2534 12.0857 26.2187C14.0539 25.1865 15.8294 23.8228 17.3344 22.1875C17.4359 22.0702 17.5929 22.0169 17.7448 22.0482C17.8968 22.0794 18.02 22.1904 18.067 22.3382C18.1139 22.4861 18.0773 22.6478 17.9713 22.761C16.3463 24.5265 14.4212 25.99 12.2854 27.0835C12.2238 27.1158 12.1553 27.1327 12.0857 27.1328Z" fill="#4785EE"/>
</svg>
