<svg width="30" height="30" viewBox="0 0 30 30" fill="none" xmlns="http://www.w3.org/2000/svg">
<path fill-rule="evenodd" clip-rule="evenodd" d="M0.5 19V11.5L1 6.49998L4 2.99998L7 0.499984H21C21 0.499984 21.3462 0.231195 21.5 0.999984C21.5726 1.36315 22 3.49998 22 3.49998V7.49998V28L21.5 29L20.5 29.5H15H4H1L0.5 28.5V19Z" fill="#4785EE" fill-opacity="0.3"/>
<path fill-rule="evenodd" clip-rule="evenodd" d="M24.5 10V21V25L26 29.5L27 25V17V10V8L26.5 7H25.5V7.5H25L24.5 8V10Z" fill="#4785EE" fill-opacity="0.3"/>
<circle cx="5.02572" cy="15.2191" r="0.639975" fill="#4785EE"/>
<circle cx="5.02572" cy="18.3791" r="0.639975" fill="#4785EE"/>
<circle cx="5.02572" cy="21.539" r="0.639975" fill="#4785EE"/>
<path fill-rule="evenodd" clip-rule="evenodd" d="M7.3938 0H20.6657C21.6344 0 22.4225 0.788034 22.4224 1.75674V28.2433C22.4224 29.2119 21.6344 30 20.6657 30H1.75674C0.788034 30 0 29.2119 0 28.2433V15.6706C0 15.4259 0.198397 15.2275 0.443114 15.2275C0.687831 15.2275 0.886228 15.4259 0.886228 15.6706V28.2433C0.886228 28.7232 1.2767 29.1138 1.75674 29.1138H20.6658C21.1458 29.1138 21.5362 28.7232 21.5362 28.2433V1.75674C21.5362 1.27676 21.1458 0.886228 20.6658 0.886228H7.39386C7.34695 0.886228 7.30045 0.888532 7.25425 0.892254V5.10438C7.25425 6.10871 6.43715 6.92575 5.43281 6.92575H0.892313C0.888591 6.97196 0.886287 7.01851 0.886287 7.06536V13.8981C0.886287 14.1428 0.68789 14.3412 0.443173 14.3412C0.198456 14.3412 5.90819e-05 14.1428 5.90819e-05 13.8981V7.06536C5.90819e-05 6.37062 0.270595 5.71747 0.761861 5.2262C0.765524 5.22248 0.769305 5.21888 0.773145 5.21527L5.56049 0.756012C6.05105 0.268409 6.70183 0 7.3938 0ZM5.43275 6.03953C5.94842 6.03953 6.36796 5.62004 6.36796 5.10438H6.36802V1.22666C6.30262 1.2757 6.24017 1.32958 6.18132 1.38842C6.17766 1.39215 6.17388 1.39575 6.17004 1.39935L1.38322 5.85814C1.32645 5.91539 1.27445 5.97613 1.22689 6.03953H5.43275Z" fill="#4785EE"/>
<path d="M18.0367 14.776H7.7569C7.51218 14.776 7.31378 14.9744 7.31378 15.2191C7.31378 15.4638 7.51218 15.6622 7.7569 15.6622H18.0367C18.2814 15.6622 18.4798 15.4638 18.4798 15.2191C18.4798 14.9744 18.2814 14.776 18.0367 14.776Z" fill="#4785EE"/>
<path d="M18.0367 17.9359H7.7569C7.51218 17.9359 7.31378 18.1343 7.31378 18.379C7.31378 18.6237 7.51218 18.8221 7.7569 18.8221H18.0367C18.2814 18.8221 18.4798 18.6237 18.4798 18.379C18.4798 18.1343 18.2814 17.9359 18.0367 17.9359Z" fill="#4785EE"/>
<path d="M18.0367 21.0959H7.7569C7.51218 21.0959 7.31378 21.2943 7.31378 21.5391C7.31378 21.7838 7.51218 21.9822 7.7569 21.9822H18.0367C18.2814 21.9822 18.4798 21.7838 18.4798 21.5391C18.4798 21.2943 18.2814 21.0959 18.0367 21.0959Z" fill="#4785EE"/>
<path d="M9.88903 10.3804H4.64392C4.3992 10.3804 4.20081 10.5788 4.20081 10.8235C4.20081 11.0682 4.3992 11.2666 4.64392 11.2666H9.88903C10.1337 11.2666 10.3321 11.0682 10.3321 10.8235C10.3321 10.5788 10.1337 10.3804 9.88903 10.3804Z" fill="#4785EE"/>
<path fill-rule="evenodd" clip-rule="evenodd" d="M29.0203 9.32459H27.6571V8.25805C27.6571 7.24296 26.8313 6.41711 25.8162 6.41711C24.8011 6.41711 23.9753 7.24296 23.9753 8.25805V14.2404C23.9753 14.4851 24.1737 14.6835 24.4184 14.6835C24.6631 14.6835 24.8615 14.4851 24.8615 14.2404V10.2108H26.7709V24.2076H24.8615V16.0128C24.8615 15.7681 24.6631 15.5697 24.4184 15.5697C24.1737 15.5697 23.9753 15.7681 23.9753 16.0128V24.6508L23.9755 24.6559L23.9758 24.6602C23.9759 24.669 23.9763 24.6778 23.9771 24.6867C23.9776 24.6937 23.9784 24.7005 23.9793 24.7074C23.9802 24.7145 23.9812 24.7216 23.9825 24.7288C23.9841 24.7372 23.9859 24.7456 23.9878 24.7538L23.9887 24.758C23.989 24.7599 23.9894 24.7617 23.9899 24.7636L25.2574 29.5771C25.2603 29.5883 25.2637 29.5994 25.2675 29.6104C25.3489 29.8434 25.5694 29.9999 25.8162 29.9999C26.0631 29.9999 26.2836 29.8433 26.3648 29.6102C26.3686 29.5993 26.3721 29.5883 26.3749 29.5771L27.6425 24.7636L27.6429 24.7619L27.6446 24.7538C27.6466 24.7456 27.6483 24.7372 27.6498 24.7288C27.6511 24.7216 27.6522 24.7145 27.6531 24.7074C27.654 24.7005 27.6547 24.6937 27.6553 24.6867C27.656 24.6778 27.6564 24.669 27.6566 24.6602L27.6568 24.6559L27.6571 24.6508V10.2108H28.5772V16.6066C28.5772 16.8513 28.7756 17.0497 29.0203 17.0497C29.265 17.0497 29.4634 16.8513 29.4634 16.6066V9.76771C29.4635 9.52299 29.2651 9.32459 29.0203 9.32459ZM24.8615 9.32459V8.25805C24.8615 7.73163 25.2898 7.30334 25.8162 7.30334C26.3426 7.30334 26.7709 7.73163 26.7709 8.25805V9.32459H24.8615ZM24.9933 25.0939L25.8162 28.219L26.6391 25.0939H24.9933Z" fill="#4785EE"/>
</svg>
