<svg width="30" height="28" viewBox="0 0 30 28" fill="none" xmlns="http://www.w3.org/2000/svg">
<path fill-rule="evenodd" clip-rule="evenodd" d="M4 10V3.5L5.5 0.5H23H26.5H28L29 3.5L29.5 7V23L29 24H24L19.5 24.5L18.5 25.5L17.5 26.5L13.5 25L11 24H6L4.5 23.5L4 22L3.5 20.5L1 19.5L0.5 19L2.5 14.5L3.5 12H4V10Z" fill="#4785EE" fill-opacity="0.3"/>
<path fill-rule="evenodd" clip-rule="evenodd" d="M29.9996 3.70643L29.9999 3.71214L30 3.71378V23.3562C30 24.1361 29.3655 24.7705 28.5857 24.7705H20.4693C20.308 25.0084 20.0807 25.1971 19.8066 25.3155C19.5368 25.432 19.2392 25.4698 18.9522 25.4286C18.9791 25.6746 18.947 25.9305 18.8472 26.1754C18.6037 26.7724 18.0261 27.1348 17.418 27.1348C17.2244 27.1349 17.0279 27.0981 16.8379 27.0207L11.3195 24.7706H4.84653C4.06665 24.7706 3.43226 24.1361 3.43226 23.3563V22.2724C3.43226 22.0358 3.62404 21.844 3.86064 21.844C4.09724 21.844 4.28902 22.0358 4.28902 22.2724V23.3563C4.28902 23.6637 4.53915 23.9138 4.84653 23.9138H9.21832L8.62148 23.6705C7.74885 23.3146 6.97588 22.7379 6.38626 22.0027C6.35514 21.9638 6.32333 21.9254 6.29098 21.8876C6.22624 21.812 6.15921 21.7386 6.08989 21.6674C6.02057 21.5962 5.94909 21.5272 5.8755 21.4606C5.47085 21.0943 5.00333 20.7991 4.49591 20.5922L4.49497 20.5918L3.96447 20.3755L3.94331 20.4274C3.80861 20.7577 3.48904 20.9582 3.15254 20.9582C3.04549 20.9582 2.93679 20.9379 2.83174 20.8951L0.530824 19.9569C0.0954149 19.7793 -0.114409 19.2806 0.0631298 18.8452L2.87662 11.9451C2.96263 11.7342 3.12558 11.5694 3.33558 11.4811C3.54552 11.3928 3.77738 11.3914 3.98826 11.4775L6.28911 12.4156C6.44731 12.4801 6.57956 12.588 6.67307 12.7264C6.70424 12.7726 6.73114 12.8222 6.75323 12.8747C6.84153 13.0846 6.84282 13.3164 6.7568 13.5273L6.66932 13.7418L6.73952 13.7704C6.74866 13.7732 6.76049 13.7761 6.77567 13.7788L6.78065 13.7796L6.78768 13.7808L6.7984 13.7824L6.8011 13.7828C7.04438 13.8157 7.921 13.8054 11.0415 13.2305L11.2042 13.2004C11.3405 13.1751 11.4807 13.1488 11.6255 13.1213L11.696 13.1079C11.778 13.0923 11.8615 13.0763 11.9463 13.06C12.0521 13.0396 12.1595 13.0189 12.2698 12.9973C14.7447 12.5148 17.1148 11.9821 17.157 11.9726L17.1574 11.9725L17.1635 11.9712C17.5918 11.8813 18.0237 11.9956 18.3468 12.2488C18.564 12.4189 18.7321 12.6516 18.8169 12.9276C19.0441 13.6668 18.6283 14.4543 17.8899 14.6829L14.7865 15.6435L21.4537 18.3621C21.5013 18.3815 21.5476 18.4031 21.5926 18.4267C21.9071 18.5924 22.1527 18.8595 22.2924 19.1916C22.452 19.5711 22.4543 19.99 22.2989 20.3713C22.2058 20.5995 22.0629 20.7977 21.8819 20.9544L21.8859 20.9569L21.8896 20.9592C21.9215 20.9776 21.9525 20.9968 21.9828 21.0172L21.9945 21.0253L21.9992 21.0287C22.0295 21.0496 22.0592 21.0714 22.0878 21.0945L22.0908 21.0967C22.1199 21.1202 22.1478 21.1451 22.175 21.1707L22.1904 21.1852C22.2164 21.2104 22.2416 21.2364 22.2658 21.2634L22.2791 21.2787C22.3036 21.3067 22.3272 21.3353 22.3496 21.365L22.3509 21.3666C22.3735 21.3967 22.3946 21.4279 22.415 21.4597L22.4264 21.4776C22.4457 21.5086 22.464 21.5404 22.4812 21.573L22.4907 21.5918C22.5082 21.626 22.5247 21.6606 22.5398 21.6964C22.6995 22.0758 22.7018 22.4948 22.5463 22.876C22.2508 23.6009 21.4627 23.9799 20.7252 23.7844C20.7285 23.8225 20.7299 23.8608 20.7304 23.8993L20.7307 23.9062L20.7308 23.9085L20.731 23.9139H28.5857C28.8931 23.9139 29.1432 23.6637 29.1432 23.3563V4.14216H20.0629V10.6535C20.0629 10.9082 19.9129 11.1402 19.6807 11.2447C19.4485 11.3492 19.1754 11.3076 18.9849 11.1387L16.7161 9.12876L14.4473 11.1388C14.3266 11.2458 14.1726 11.3016 14.017 11.3016C13.9271 11.3016 13.8365 11.283 13.7515 11.2447C13.5193 11.1402 13.3693 10.9082 13.3693 10.6535V4.14216H4.28896V10.0073C4.28896 10.2439 4.09718 10.4356 3.86058 10.4356C3.62398 10.4356 3.4322 10.2439 3.4322 10.0073V3.71372L3.43226 3.71214L3.43253 3.70714L3.43279 3.70224C3.43314 3.68917 3.43396 3.67628 3.43543 3.66351L3.43675 3.65472L3.43759 3.64944C3.43935 3.63772 3.44152 3.62612 3.44421 3.6147L3.44767 3.60122C3.45107 3.5888 3.45494 3.57667 3.45939 3.56478L3.46052 3.5613L3.46162 3.55792L4.6537 0.506366C4.77388 0.198749 5.06485 0 5.39509 0H14.5579H18.8743H22.7256C22.9622 0 23.154 0.191777 23.154 0.428378C23.154 0.664979 22.9622 0.856755 22.7256 0.856755H19.4131L19.9751 3.2854H28.9443L27.9956 0.856755H25.8665C25.6299 0.856755 25.4381 0.664979 25.4381 0.428378C25.4381 0.191777 25.6299 0 25.8665 0H28.0371C28.3672 0 28.6583 0.198749 28.7784 0.506249L29.9705 3.55792C29.9714 3.56015 29.9719 3.56249 29.9728 3.56478C29.9772 3.57673 29.9811 3.58886 29.9845 3.60122L29.9879 3.6147C29.9906 3.62606 29.9928 3.63767 29.9946 3.64944C29.9953 3.65413 29.9961 3.65882 29.9967 3.66351C29.9982 3.67628 29.999 3.68917 29.9994 3.70224L29.9996 3.70643ZM18.5337 0.856755H14.8984L14.3365 3.2854H19.0957L18.5337 0.856755ZM13.4571 3.2854H4.48788L5.43657 0.856755H14.0191L13.4571 3.2854ZM19.2062 10.1901H19.2062V4.14216H14.2261V10.1901L16.2863 8.36494C16.4089 8.25642 16.5626 8.20216 16.7162 8.20216C16.8698 8.20216 17.0234 8.25642 17.1459 8.36494L19.2062 10.1901ZM3.15148 20.1002L0.857952 19.165L3.66845 12.2724L5.96198 13.2076L3.15148 20.1002ZM19.7741 22.4849L20.2658 22.6854L20.8608 22.928C20.9014 22.9445 20.9425 22.9564 20.984 22.9648C21.1882 23.006 21.3972 22.951 21.5535 22.8232C21.5557 22.8215 21.5577 22.8196 21.5597 22.8176C21.5614 22.8161 21.5631 22.8145 21.5648 22.813C21.5891 22.7923 21.6119 22.7696 21.6332 22.7454C21.6675 22.7063 21.6983 22.6634 21.7235 22.616C21.7344 22.5956 21.7443 22.5744 21.7532 22.5526C21.7618 22.5314 21.7694 22.51 21.7758 22.4883C21.8209 22.337 21.8124 22.1761 21.7503 22.0286C21.6972 21.9022 21.6095 21.797 21.4975 21.7232C21.4602 21.6986 21.4201 21.6774 21.3778 21.6602L15.1695 19.1288C14.9504 19.0394 14.8452 18.7894 14.9345 18.5703C15.0239 18.3512 15.2738 18.246 15.4929 18.3353L20.6138 20.4234C20.6197 20.4258 20.6257 20.4278 20.6317 20.4298C20.6352 20.431 20.6388 20.4321 20.6423 20.4334C20.6457 20.4346 20.649 20.4358 20.6524 20.4371C20.661 20.4403 20.6696 20.4434 20.6783 20.446C20.69 20.4495 20.7019 20.4519 20.7137 20.4547C20.7174 20.4555 20.721 20.4565 20.7247 20.4574C20.7309 20.459 20.7372 20.4607 20.7434 20.4619C20.7592 20.4649 20.7751 20.4667 20.791 20.4687C20.7943 20.4691 20.7976 20.4696 20.8009 20.4701C20.8037 20.4706 20.8065 20.471 20.8094 20.4713C20.8302 20.4732 20.851 20.474 20.8718 20.474L20.8757 20.4742C20.9645 20.4737 21.0531 20.4557 21.1374 20.4203C21.3059 20.3494 21.4367 20.2171 21.5058 20.0478C21.5749 19.8785 21.5738 19.6924 21.5029 19.5239C21.432 19.3553 21.2997 19.2244 21.1304 19.1554L13.3548 15.9849C13.1872 15.9165 13.0807 15.7503 13.0885 15.5695C13.0963 15.3887 13.2169 15.2325 13.3898 15.1789L17.6368 13.8644C17.8348 13.8032 17.9733 13.6387 18.0117 13.4481C18.0292 13.3615 18.0259 13.2695 17.9982 13.1792C17.9193 12.9225 17.6497 12.7633 17.3745 12.804C17.372 12.8044 17.3694 12.8048 17.3669 12.8051C17.3587 12.8063 17.3505 12.8074 17.3424 12.8091C17.235 12.8333 14.8449 13.3694 12.3687 13.851L12.1097 13.9011L12.024 13.9175L11.8586 13.9491L11.7511 13.9695L11.6181 13.9947L11.4948 14.0178L11.3878 14.0378L11.2519 14.063L11.1808 14.0761C10.2197 14.2529 9.39639 14.39 8.72519 14.4848C7.73848 14.6242 7.1877 14.6589 6.85477 14.6439C6.58829 14.6338 6.48926 14.5936 6.41983 14.5653L6.34606 14.5353L5.34622 16.9873L4.2882 19.5822L4.81941 19.7987L4.81958 19.7988C5.41952 20.0435 5.97235 20.3925 6.45089 20.8257C6.66838 21.0226 6.87053 21.2369 7.05481 21.4666C7.24184 21.6998 7.45061 21.9141 7.67748 22.1068C8.05559 22.428 8.48391 22.689 8.94516 22.8771L11.5655 23.9456L11.5662 23.9459L17.1616 26.2274C17.5112 26.3701 17.9114 26.2016 18.0539 25.852C18.1964 25.5024 18.028 25.1021 17.6785 24.9596C17.6761 24.9586 17.6739 24.9575 17.6717 24.9564C17.67 24.9556 17.6683 24.9548 17.6665 24.954C17.662 24.9524 17.6575 24.9511 17.653 24.9493L13.4884 23.2512C13.2694 23.1618 13.1642 22.9118 13.2535 22.6927C13.3428 22.4736 13.5927 22.3685 13.8119 22.4578L17.9765 24.1559C17.9809 24.1576 17.9849 24.1598 17.9892 24.1618C17.991 24.1625 17.9929 24.1631 17.9948 24.1637C17.9972 24.1645 17.9995 24.1653 18.0019 24.1662L18.9091 24.5361C19.0861 24.6083 19.2893 24.6056 19.4669 24.529C19.6282 24.4594 19.7517 24.3366 19.8186 24.1821C19.8193 24.1803 19.8197 24.1785 19.8205 24.1767C19.8238 24.1687 19.8274 24.1609 19.831 24.1531C19.8343 24.1444 19.8371 24.1355 19.8398 24.1266C19.8406 24.124 19.8414 24.1214 19.8423 24.1188C19.8432 24.1158 19.8442 24.1128 19.8452 24.1098C19.8476 24.1027 19.8499 24.0956 19.8518 24.0885C19.8541 24.0802 19.8558 24.0719 19.8575 24.0636C19.8581 24.0604 19.8588 24.0572 19.8594 24.054C19.8616 24.0435 19.8642 24.0332 19.8659 24.0227C19.8678 24.0114 19.8688 23.9999 19.87 23.9885C19.8703 23.9853 19.8707 23.982 19.8711 23.9788C19.872 23.9714 19.8729 23.9641 19.8734 23.9567C19.8738 23.9507 19.8739 23.9448 19.8739 23.9389C19.874 23.9337 19.874 23.9285 19.874 23.9232C19.8741 23.9198 19.8741 23.9164 19.8742 23.913C19.8744 23.9056 19.8746 23.8982 19.8743 23.8909C19.874 23.88 19.8727 23.8692 19.8718 23.8583C19.8709 23.8474 19.8704 23.8365 19.869 23.8257C19.8676 23.815 19.8654 23.8044 19.8634 23.7937C19.8628 23.7903 19.8622 23.7869 19.8616 23.7834C19.8604 23.7762 19.8592 23.7689 19.8576 23.7617C19.8559 23.7544 19.8539 23.7473 19.8518 23.7402C19.8509 23.737 19.85 23.7338 19.8491 23.7306C19.8483 23.7278 19.8475 23.725 19.8468 23.7221C19.8447 23.7144 19.8427 23.7067 19.8402 23.6992C19.8368 23.6889 19.8326 23.6789 19.8287 23.6688C19.8249 23.6587 19.8215 23.6485 19.8172 23.6387C19.8141 23.6317 19.8107 23.6248 19.8072 23.618C19.8056 23.6149 19.804 23.6117 19.8025 23.6086C19.8009 23.6054 19.7994 23.6022 19.7979 23.599C19.7949 23.5928 19.7919 23.5866 19.7886 23.5806C19.7846 23.5733 19.7802 23.5663 19.7757 23.5592C19.774 23.5565 19.7722 23.5537 19.7705 23.5509C19.7687 23.548 19.7669 23.545 19.7651 23.542C19.7617 23.5364 19.7584 23.5308 19.7547 23.5253C19.7496 23.5179 19.7441 23.5107 19.7385 23.5035C19.7367 23.5011 19.7348 23.4987 19.733 23.4963C19.7309 23.4935 19.7288 23.4907 19.7267 23.4878C19.7231 23.4829 19.7195 23.478 19.7156 23.4733C19.7093 23.4658 19.7026 23.4586 19.6959 23.4515C19.694 23.4494 19.692 23.4473 19.69 23.4452C19.6877 23.4427 19.6854 23.4401 19.6831 23.4375C19.6793 23.4333 19.6756 23.429 19.6715 23.425C19.6622 23.4156 19.652 23.4071 19.642 23.3982C19.6395 23.396 19.637 23.3937 19.6345 23.3914C19.6307 23.3878 19.6268 23.3842 19.6227 23.3808C19.6134 23.3732 19.6035 23.3661 19.5936 23.3591C19.5916 23.3577 19.5897 23.3563 19.5877 23.3549C19.5852 23.3531 19.5827 23.3512 19.5801 23.3492C19.5766 23.3465 19.573 23.3438 19.5693 23.3413C19.5563 23.3327 19.5426 23.3249 19.5288 23.3171L19.5278 23.3165C19.5223 23.3134 19.5171 23.3098 19.5115 23.3068C19.4915 23.2962 19.4708 23.2865 19.4494 23.2778L14.329 21.19C14.1099 21.1006 14.0047 20.8506 14.0941 20.6315C14.1834 20.4124 14.4334 20.3072 14.6525 20.3965L19.7727 22.4843L19.7729 22.4844L19.7734 22.4846L19.7741 22.4849Z" fill="#4785EE"/>
</svg>
