<svg width="31" height="30" viewBox="0 0 31 30" fill="none" xmlns="http://www.w3.org/2000/svg">
<path fill-rule="evenodd" clip-rule="evenodd" d="M9.5 13.5L9 10.5L8.5 9L8 6L9 2.5L11 1L15.5 0.5L18.5 1H19.5L20.5 2.5L21.5 3.5L22 5V8L21.5 10.5L20.5 12.5L19.5 15.5L18.5 18L19 19.5L27 22L29 25L29.5 29L21.5 29.5H8.5H2L0.5 28.5L1 25.5L2 23L4 21.5L7 20.5L10 19.5L11 19L12 17.5L10.5 16L9.5 13.5Z" fill="#4785EE" fill-opacity="0.3"/>
<path d="M14.1921 22.23C13.9655 22.0637 13.6467 22.1123 13.4802 22.3389L13.4173 22.4245C13.251 22.651 13.2994 22.9694 13.5257 23.1361C13.6166 23.2031 13.7225 23.2354 13.8274 23.2354C13.9835 23.2354 14.1376 23.1639 14.2373 23.0287L14.3012 22.9419C14.4676 22.7152 14.4188 22.3965 14.1921 22.23Z" fill="#4785EE"/>
<path d="M14.325 27.0749L13.0152 24.6933L14.2381 23.0277C14.4047 22.801 14.3558 22.4823 14.129 22.3158C13.9023 22.1492 13.5836 22.1981 13.4171 22.4249L12.0017 24.3526C11.8844 24.5124 11.8705 24.7257 11.966 24.8994L13.4326 27.5658V27.5657C13.5253 27.7343 13.6995 27.8296 13.8793 27.8296C13.9623 27.8296 14.0464 27.8093 14.1243 27.7665C14.3707 27.631 14.4605 27.3214 14.325 27.0749Z" fill="#4785EE"/>
<path d="M18.1208 24.3527L16.7111 22.4328C16.5942 22.2737 16.3962 22.1963 16.2024 22.2347C16.0086 22.2727 15.8544 22.4195 15.8065 22.611C15.7698 22.758 15.8004 22.9137 15.8901 23.0359L17.107 24.6934L15.8062 27.0589C15.7649 27.134 15.7432 27.2187 15.7432 27.3045C15.7432 27.537 15.9006 27.74 16.1258 27.7978C16.1679 27.8087 16.2105 27.8139 16.2525 27.8139C16.4348 27.8139 16.6076 27.7155 16.6987 27.55L18.1565 24.8996C18.2521 24.7258 18.2381 24.5124 18.1208 24.3527Z" fill="#4785EE"/>
<path fill-rule="evenodd" clip-rule="evenodd" d="M18.4019 16.3807C18.5578 16.2733 18.7603 16.2613 18.9278 16.3492C19.0953 16.4373 19.2002 16.6108 19.2002 16.8001V18.621C19.2002 18.7779 19.1279 18.926 19.0043 19.0225C18.9907 19.033 18.9766 19.0429 18.9621 19.0521L15.3595 21.4595L15.3535 21.4635L15.3483 21.4669C15.3336 21.4769 15.3183 21.4863 15.3023 21.4948C15.2267 21.5352 15.144 21.5553 15.0613 21.5553C14.963 21.5553 14.865 21.5269 14.78 21.4706L14.7705 21.4643L14.7688 21.463L11.1575 19.0499C11.1423 19.0402 11.1274 19.0296 11.1132 19.0181C10.9927 18.9214 10.9224 18.7754 10.9224 18.6209V16.8738C10.9224 16.6854 11.0264 16.5124 11.1927 16.424C11.3589 16.3356 11.5606 16.3463 11.7166 16.4517C11.8784 16.5609 12.0404 16.6791 12.1984 16.8032C13.2316 17.6146 14.2082 18.1096 14.7499 18.0957C14.7808 18.0947 14.812 18.097 14.8427 18.1018C14.8937 18.1091 16.1959 18.2768 17.5664 17.0377C17.8179 16.8105 18.099 16.5894 18.4019 16.3807ZM15.0612 20.4335L18.1815 18.3485H18.1817V17.8537C16.6011 19.2403 15.0412 19.1484 14.7354 19.1145H14.7294C13.8184 19.1146 12.7007 18.4374 11.941 17.8852V18.3484L15.0612 20.4335Z" fill="#4785EE"/>
<path d="M15.5636 20.9623C15.53 20.7603 15.3786 20.5981 15.1794 20.5506C14.9801 20.5033 14.7719 20.5795 14.6507 20.7446L13.4801 22.339C13.3137 22.5658 13.3625 22.8845 13.5893 23.051C13.6801 23.1177 13.7856 23.1498 13.8903 23.1498C14.0469 23.1498 14.2014 23.0777 14.3013 22.9418L15.4658 21.3557C15.532 21.2691 15.5706 21.1614 15.5706 21.0462C15.5705 21.0182 15.5682 20.9899 15.5636 20.9623Z" fill="#4785EE"/>
<path fill-rule="evenodd" clip-rule="evenodd" d="M20.9508 2.06297C22.5715 2.7422 22.8101 4.464 22.8202 4.54378C22.8229 4.56514 22.8242 4.58661 22.8242 4.60808V8.25896C22.8242 8.68256 22.7036 9.09998 22.4754 9.46609C21.8197 10.5178 21.6163 11.8313 21.6143 11.8445C21.5765 12.0953 21.3608 12.2783 21.111 12.2784C21.0983 12.2784 21.0856 12.2778 21.0727 12.2769C20.8069 12.2571 20.6014 12.0359 20.6014 11.7693V7.57238C20.5752 7.40918 20.364 6.37031 19.1806 5.93377L16.8135 5.10281C16.4854 4.9875 16.1257 4.99203 15.8008 5.11552C15.3152 5.29996 14.6482 5.54812 14.2278 5.68296C13.9834 5.76133 13.7276 5.80104 13.4675 5.80104H11.2565C11.0535 5.83863 9.8733 6.11697 9.52748 7.54714V11.0442C9.52748 11.3198 9.30815 11.5455 9.03257 11.5532C8.75565 11.5609 8.52526 11.3482 8.50973 11.073C8.4699 10.3681 8.20585 9.90181 7.99147 9.63482C7.55905 9.09639 7.32083 8.41492 7.32083 7.71611V5.03386C7.32083 2.25812 9.57901 0 12.3546 0H19.1902C19.2229 0 19.2554 0.00311814 19.2874 0.00935443C20.0337 0.154436 20.5429 0.485606 20.8009 0.993805C20.9929 1.37192 20.9978 1.76057 20.9508 2.06297ZM21.6199 8.91259C21.7414 8.71191 21.8056 8.48623 21.8056 8.25872H21.8055V4.64662C21.7711 4.44547 21.5066 3.20192 20.2101 2.88981C20.0612 2.85398 19.9364 2.75314 19.8701 2.61518C19.8039 2.47722 19.8032 2.31678 19.8683 2.17823C19.8685 2.17788 20.0491 1.75687 19.8905 1.45111C19.761 1.20131 19.4197 1.07852 19.1388 1.01869H12.3545C10.1406 1.01869 8.33929 2.81998 8.33929 5.03398V7.71617C8.33929 8.00086 8.398 8.28079 8.5089 8.53706V7.48889C8.5089 7.45159 8.51302 7.41441 8.52114 7.378C9.03234 5.08675 11.0637 4.79788 11.1499 4.7867C11.1716 4.78394 11.1934 4.78252 11.2153 4.78252H13.4675C13.6218 4.78252 13.773 4.75911 13.9167 4.71304C14.2327 4.61173 14.7592 4.42164 15.4391 4.16337C15.7236 4.05511 16.024 4.00093 16.3245 4.00093C16.604 4.00093 16.8836 4.04776 17.1509 4.1416L19.5215 4.97385L19.5284 4.97632C21.3984 5.66325 21.6089 7.40859 21.6169 7.48254C21.6189 7.50084 21.6199 7.51914 21.6199 7.53755V8.91259Z" fill="#4785EE"/>
<path fill-rule="evenodd" clip-rule="evenodd" d="M19.5285 4.97633C21.3985 5.66327 21.6089 7.4086 21.6169 7.48255C21.6188 7.50091 21.6199 7.51921 21.62 7.53756V11.7692C21.62 11.7844 21.6193 11.7996 21.6179 11.8147C21.3169 15.176 19.8833 16.6106 19.0555 17.1666C19.044 17.1743 19.0328 17.1822 19.0216 17.1901L19.0178 17.1927L18.9798 17.2194C18.7135 17.4028 18.4679 17.5959 18.2494 17.7933C16.9478 18.97 15.6483 19.1296 15.0392 19.1296C14.8979 19.1296 14.7937 19.121 14.7353 19.1146H14.7294C13.6546 19.1146 12.2922 18.172 11.5693 17.6043C11.4303 17.4953 11.2883 17.3915 11.1468 17.296C11.1357 17.2885 11.125 17.281 11.1144 17.2735L11.1015 17.2644C8.61996 15.6218 8.51235 12.0303 8.509 11.8782L8.50888 11.8669V7.48879C8.50888 7.45149 8.513 7.41431 8.52112 7.37789C9.03232 5.08664 11.0636 4.79777 11.1498 4.7866C11.1715 4.78383 11.1934 4.78242 11.2153 4.78242H13.4674C13.6218 4.78242 13.773 4.75906 13.9167 4.713C14.2327 4.61163 14.7592 4.42154 15.439 4.16326C15.9882 3.95464 16.5961 3.94687 17.1509 4.14161L19.5216 4.97386L19.5285 4.97633ZM18.4875 16.3209C19.0313 15.9557 20.3238 14.7797 20.6013 11.7462H20.6013V7.57233C20.5751 7.40913 20.3639 6.37026 19.1806 5.93372L16.8135 5.10276C16.4854 4.98745 16.1257 4.99198 15.8008 5.11547C15.3153 5.29991 14.6482 5.54807 14.2278 5.68292C13.9833 5.76128 13.7276 5.80099 13.4675 5.80099H11.2556C11.0621 5.83653 9.87451 6.11169 9.52745 7.54709V11.8595C9.53187 11.989 9.66289 15.0907 11.6654 16.4161C11.6798 16.4257 11.692 16.4343 11.7042 16.443L11.7167 16.4519C11.8783 16.5609 12.0403 16.6791 12.1983 16.8033C13.2315 17.6147 14.2081 18.1097 14.7498 18.0958C14.7798 18.0949 14.8098 18.0968 14.8394 18.1012C14.903 18.1102 16.2009 18.2721 17.5664 17.0377C17.8178 16.8104 18.0989 16.5893 18.4019 16.3806L18.4301 16.3607L18.4302 16.3607C18.4492 16.3473 18.4682 16.3339 18.4875 16.3209Z" fill="#4785EE"/>
<path d="M15.5167 20.8185C15.4373 20.6598 15.2811 20.5538 15.1043 20.5387C14.9278 20.5241 14.7557 20.6017 14.6506 20.7448L13.4307 22.4064C13.2644 22.633 13.313 22.9515 13.5394 23.1181C13.6302 23.1849 13.736 23.2172 13.8407 23.2172C13.997 23.2172 14.1513 23.1455 14.2511 23.01L15.4711 21.3546C15.5357 21.267 15.5705 21.1551 15.5705 21.0464C15.5705 20.9674 15.552 20.8893 15.5167 20.8185Z" fill="#4785EE"/>
<path d="M15.5494 29.0185C15.358 28.8184 15.0419 28.8078 14.8377 28.9947L14.7212 29.1012C14.5469 29.2606 14.5051 29.519 14.6203 29.7252L14.6239 29.7316C14.7016 29.871 14.8404 29.9659 14.9985 29.9878C15.0219 29.991 15.0453 29.9926 15.0686 29.9926C15.2027 29.9926 15.3325 29.9396 15.4287 29.8434L15.5415 29.7305C15.7372 29.5348 15.7408 29.2185 15.5494 29.0185Z" fill="#4785EE"/>
<path d="M15.4012 29.1011L15.2848 28.9947C15.0805 28.8078 14.7644 28.8185 14.573 29.0185C14.3817 29.2186 14.3852 29.535 14.581 29.7307L14.6939 29.8436C14.7901 29.9398 14.9199 29.9927 15.054 29.9927C15.0779 29.9927 15.102 29.9911 15.1261 29.9876C15.2847 29.9649 15.4234 29.8689 15.5005 29.7284L15.5041 29.722C15.617 29.516 15.5745 29.2596 15.4012 29.1011Z" fill="#4785EE"/>
<path d="M15.4098 29.1091L15.4092 29.1085C15.3305 29.035 15.2288 28.9865 15.1167 28.9742C14.9666 28.9579 14.8204 29.0087 14.7141 29.1077L14.7126 29.1091C14.6096 29.203 14.5497 29.3351 14.5467 29.4744C14.5437 29.6138 14.5979 29.7483 14.6967 29.8465L14.7021 29.8519C14.8014 29.9507 14.9313 30 15.0612 30C15.1916 30 15.3219 29.9503 15.4212 29.8509L15.4266 29.8456C15.525 29.7472 15.5789 29.6128 15.5756 29.4738C15.5726 29.3346 15.5126 29.2029 15.4098 29.1091Z" fill="#4785EE"/>
<path d="M15.2264 20.5532C15.0155 20.4857 14.7841 20.564 14.6556 20.7446C14.512 20.9469 14.5357 21.2225 14.7107 21.3983C14.8092 21.4973 14.9399 21.548 15.0716 21.548C15.1739 21.548 15.2768 21.5174 15.3655 21.4549C15.5011 21.3596 15.5817 21.2042 15.5817 21.0385V21.0372C15.5817 20.8156 15.4376 20.6206 15.2264 20.5532Z" fill="#4785EE"/>
<path d="M15.4751 20.7404L15.4707 20.7345C15.34 20.5576 15.1106 20.4848 14.9018 20.5536C14.693 20.6223 14.5519 20.8174 14.5519 21.0372V21.0459C14.5519 21.2334 14.6572 21.4044 14.8224 21.4931C14.8972 21.5333 14.9798 21.5531 15.0623 21.5531C15.1618 21.5531 15.2611 21.5243 15.3466 21.4677C15.463 21.3906 15.5427 21.269 15.567 21.1315C15.5913 20.9941 15.5581 20.8526 15.4751 20.7404Z" fill="#4785EE"/>
<path fill-rule="evenodd" clip-rule="evenodd" d="M20.8154 18.8415C20.9557 18.8918 21.067 19.0011 21.1198 19.1406C21.1726 19.2799 21.1616 19.4356 21.0897 19.5663L18.1564 24.8994C18.0726 25.0519 17.9169 25.1508 17.7434 25.1622C17.7323 25.163 17.7212 25.1634 17.7101 25.1634C17.5487 25.1634 17.3959 25.0867 17.2997 24.9555L14.6507 21.3478C14.6034 21.2834 14.572 21.2088 14.5589 21.1301C14.5474 21.0612 14.5502 20.9904 14.5671 20.9226C14.598 20.7992 14.674 20.6916 14.7801 20.6214L15.0706 21.0395L14.7865 20.6171L14.7895 20.6151L18.4076 18.1974C18.527 18.1175 18.6747 18.0919 18.8141 18.1268C18.8304 18.1308 18.8468 18.1359 18.8627 18.1415L20.8154 18.8415ZM15.7867 21.1738L17.6485 23.7095L19.9094 19.5988L18.7602 19.1868L15.7867 21.1738Z" fill="#4785EE"/>
<path fill-rule="evenodd" clip-rule="evenodd" d="M15.3451 20.6231C15.4604 20.7005 15.5391 20.8215 15.563 20.9582C15.5869 21.0949 15.554 21.2354 15.4718 21.3473L14.2416 23.023L14.2382 23.0276L12.8228 24.9553C12.7264 25.0865 12.5737 25.1632 12.4123 25.1632C12.4012 25.1632 12.3901 25.1629 12.379 25.1622C12.2055 25.1508 12.0498 25.0517 11.966 24.8994L9.0328 19.5663C8.96091 19.4356 8.94997 19.28 9.00274 19.1405C9.05551 19.0011 9.16676 18.8918 9.30714 18.8415L11.2599 18.1415C11.2799 18.1343 11.3004 18.1283 11.3212 18.1237C11.457 18.0936 11.5994 18.1201 11.7149 18.1974L15.3451 20.6231ZM13.4136 22.4295L13.4173 22.4246L14.3356 21.1737L11.3622 19.1868L10.2129 19.5987L12.4739 23.7094L13.4136 22.4295Z" fill="#4785EE"/>
<path fill-rule="evenodd" clip-rule="evenodd" d="M29.4402 23.8674L30.0972 27.8347C30.1868 28.375 30.0349 28.9246 29.6806 29.3425C29.3264 29.7603 28.809 29.9999 28.2611 29.9999H15.0725C14.8863 29.9999 14.715 29.8983 14.6256 29.7351L14.6216 29.7278C14.5131 29.5294 14.5484 29.2833 14.7083 29.1234L14.8211 29.0105C14.8265 29.0052 14.832 29 14.8376 28.9949L20.3033 23.9949L19.7692 22.9751C19.6872 22.8184 19.6923 22.6305 19.7826 22.4785C19.8729 22.3265 20.0357 22.2323 20.2125 22.2296L21.5147 22.2095L20.1876 19.5483C20.0947 19.3618 20.1246 19.1377 20.2631 18.9822C20.4016 18.8267 20.6206 18.7712 20.8166 18.842L27.1726 21.1416C28.3643 21.5726 29.2332 22.6172 29.4402 23.8674ZM28.2612 28.9814C28.5091 28.9814 28.7434 28.8729 28.9039 28.6837C29.0643 28.4945 29.1331 28.2458 29.0926 28.0011V28.001L28.4356 24.0337C28.2887 23.1465 27.6721 22.4052 26.8263 22.0993L21.6675 20.2329L22.7875 22.4789C22.8656 22.6356 22.8578 22.8213 22.7669 22.9709C22.6759 23.1204 22.5146 23.2128 22.3396 23.2154L21.0555 23.2352L21.3878 23.8696C21.4951 24.0744 21.451 24.3257 21.2803 24.4816L16.3613 28.9814H28.2612Z" fill="#4785EE"/>
<path d="M15.4142 29.1131L15.4083 29.1078C15.2067 28.9253 14.8971 28.9334 14.7054 29.1262L14.7001 29.1316C14.555 29.2775 14.512 29.4964 14.591 29.6863C14.67 29.8762 14.8556 30 15.0612 30H15.0724C15.283 30 15.4719 29.8703 15.5475 29.6739C15.6234 29.4773 15.5704 29.2544 15.4142 29.1131Z" fill="#4785EE"/>
<path d="M15.3982 29.0984C15.2826 28.9943 15.1258 28.9487 14.9723 28.9749C14.8189 29.0008 14.6858 29.0956 14.611 29.232L14.6074 29.2384C14.5001 29.4341 14.5327 29.677 14.688 29.8375L14.6898 29.8394C14.7896 29.9425 14.9226 29.9945 15.0559 29.9945C15.1785 29.9945 15.3016 29.9504 15.399 29.8614L15.4043 29.8566C15.4506 29.8144 15.4887 29.764 15.5167 29.708C15.6193 29.503 15.5685 29.2516 15.3982 29.0984Z" fill="#4785EE"/>
<path fill-rule="evenodd" clip-rule="evenodd" d="M15.4181 29.1274L15.4202 29.1296C15.5665 29.275 15.6106 29.4943 15.5319 29.6849C15.4533 29.8756 15.2675 30 15.0612 30H1.86137C1.31363 30 0.796197 29.7604 0.441847 29.3426C0.0875551 28.9248 -0.0643514 28.3753 0.0251334 27.8348L0.68212 23.8675C0.889153 22.6172 1.75811 21.5726 2.94983 21.1416L9.30573 18.8421C9.50146 18.7711 9.72079 18.8267 9.85922 18.9822C9.99766 19.1377 10.0277 19.3619 9.93471 19.5483L8.60767 22.2096L9.90994 22.2296C10.0867 22.2324 10.2495 22.3266 10.3398 22.4786C10.4301 22.6306 10.4353 22.8186 10.3532 22.9752L9.81904 23.9949L15.2848 28.9949C15.2903 28.9999 15.2958 29.0052 15.3011 29.0105L15.414 29.1234L15.4181 29.1274ZM1.21873 28.6838C1.37911 28.873 1.61339 28.9815 1.86143 28.9815H13.7614L8.8423 24.4816C8.6718 24.3257 8.62768 24.0743 8.73493 23.8696L9.06722 23.2352L7.78313 23.2154C7.6081 23.2127 7.44672 23.1204 7.35583 22.9708C7.26481 22.8212 7.25705 22.6355 7.33518 22.4788L8.45512 20.233L3.29636 22.0993C2.45064 22.4053 1.83401 23.1464 1.6871 24.0338L1.03012 28.0011C0.98964 28.2458 1.05836 28.4946 1.21873 28.6838Z" fill="#4785EE"/>
<path fill-rule="evenodd" clip-rule="evenodd" d="M16.7111 22.4325C16.8008 22.5547 16.8315 22.7105 16.7947 22.8575C16.7797 22.9176 16.7538 22.9746 16.7186 23.0255L16.2061 23.7614L16.7555 27.2243C16.7596 27.2507 16.7618 27.2774 16.7618 27.3041V27.3044C16.7618 27.3902 16.7401 27.4746 16.6988 27.5498L15.5075 29.7156C15.4181 29.8784 15.247 29.9794 15.0613 29.9794C14.8756 29.9794 14.7045 29.8784 14.6151 29.7156L13.4326 27.5658C13.3781 27.4666 13.3581 27.3523 13.3759 27.2405L13.9278 23.7613L13.4097 23.0173C13.3032 22.8643 13.2888 22.6653 13.3721 22.4985C13.3853 22.4722 13.4007 22.447 13.4182 22.4234L14.6349 20.7725C14.6968 20.677 14.7898 20.6023 14.9027 20.5653C15.1118 20.4967 15.3415 20.5672 15.4717 20.7447L16.7111 22.4325ZM14.4091 27.2278L15.0613 28.4134L15.7222 27.2118L15.1679 23.7184C15.1473 23.5884 15.1778 23.4555 15.253 23.3476L15.6746 22.7421L15.0628 21.9088L14.4541 22.7347L14.8809 23.3476C14.956 23.4556 14.9866 23.5884 14.9659 23.7184L14.4091 27.2278Z" fill="#4785EE"/>
</svg>
