<svg width="40" height="31" viewBox="0 0 40 31" fill="none" xmlns="http://www.w3.org/2000/svg">
<path fill-rule="evenodd" clip-rule="evenodd" d="M1 19.5L2 18.5V12.5H6.5V10V6.5H9L12.5 6L15 6.5V12L15.5 12.5H19.5L20 10L20.5 7.5H22L23 8.5H30.5L33 16L36.5 18.5L38 19.5V24V25.5L39.5 26V27.5H35L34.5 29L33 29.5L31.5 30L29.5 29.5L28.5 28.5L27 27.5H12.5L11.5 28L10.5 29L8.5 30L6 29L4.5 28L3.5 27.5H1V20V19.5Z" fill="#4785EE" fill-opacity="0.3"/>
<path fill-rule="evenodd" clip-rule="evenodd" d="M39.3548 24.5161H38.7097V18.7096C38.7101 18.4787 38.5871 18.2651 38.3871 18.1496L34.0852 15.6909L31.58 8.18319C31.4922 7.91961 31.2456 7.74183 30.9677 7.7419H23.2258V7.09674C23.2258 6.74043 22.937 6.45158 22.5806 6.45158H20C19.6437 6.45158 19.3548 6.74043 19.3548 7.09674V11.6129H16.129V5.80642C16.129 5.4501 15.8402 5.16125 15.4839 5.16125H6.45161C6.0953 5.16125 5.80645 5.4501 5.80645 5.80642V11.6129H1.93548C1.57917 11.6129 1.29032 11.9017 1.29032 12.258V18.0645H0.645161C0.288849 18.0645 0 18.3533 0 18.7096V27.7419C0 28.0982 0.288849 28.3871 0.645161 28.3871H4.3129C5.05771 29.9627 6.64429 30.9676 8.3871 30.9676C10.1299 30.9676 11.7165 29.9627 12.4613 28.3871H27.5387C28.2835 29.9627 29.8701 30.9676 31.6129 30.9676C33.3557 30.9676 34.9423 29.9627 35.6871 28.3871H39.3548C39.7112 28.3871 40 28.0982 40 27.7419V25.1613C40 24.8049 39.7112 24.5161 39.3548 24.5161ZM36.129 19.3548H37.4194V20.6451H36.129V19.3548ZM25.8065 15.4838H32.6529L31.3632 11.6129H25.8065V15.4838ZM30.5026 9.03222L30.9329 10.3225H25.1613C24.805 10.3225 24.5161 10.6114 24.5161 10.9677V16.129C24.5161 16.4853 24.805 16.7742 25.1613 16.7742H33.3774L35.6355 18.0645H35.4839C35.1276 18.0645 34.8387 18.3533 34.8387 18.7096V21.2903C34.8387 21.6466 35.1276 21.9354 35.4839 21.9354H37.4194V24.5161H35.6871C34.9423 22.9405 33.3557 21.9355 31.6129 21.9355C29.8701 21.9355 28.2835 22.9405 27.5387 24.5161H23.2258V9.03222H30.5026ZM21.9355 24.5161V7.7419H20.6452V24.5161H21.9355ZM19.3548 18.0645H11.6129V12.9032H13.5484V14.8387C13.5484 15.195 13.8372 15.4838 14.1935 15.4838H16.7742C17.1305 15.4838 17.4194 15.195 17.4194 14.8387V12.9032H19.3548V18.0645ZM16.129 12.9032H14.8387V14.1935H16.129V12.9032ZM10.3226 6.45158H11.6129V7.7419H10.3226V6.45158ZM9.03226 6.45158H7.09677V11.6129H14.8387V6.45158H12.9032V8.38706C12.9032 8.74337 12.6144 9.03222 12.2581 9.03222H9.67742C9.32111 9.03222 9.03226 8.74337 9.03226 8.38706V6.45158ZM7.09677 12.9032V14.1935H5.80645V12.9032H7.09677ZM4.51613 12.9032H2.58065V18.0645H10.3226V12.9032H8.3871V14.8387C8.3871 15.195 8.09825 15.4838 7.74194 15.4838H5.16129C4.80498 15.4838 4.51613 15.195 4.51613 14.8387V12.9032ZM19.3548 19.3548V24.5161H12.4613C11.7165 22.9405 10.1299 21.9355 8.3871 21.9355C6.64429 21.9355 5.05771 22.9405 4.3129 24.5161H1.29032V19.3548H19.3548ZM1.29032 25.8064V27.0967H3.92258C3.85376 26.6694 3.85376 26.2338 3.92258 25.8064H1.29032ZM8.3871 29.6774C6.60553 29.6774 5.16129 28.2331 5.16129 26.4516C5.16129 24.67 6.60553 23.2258 8.3871 23.2258C10.1687 23.2258 11.6129 24.67 11.6129 26.4516C11.6108 28.2323 10.1678 29.6753 8.3871 29.6774ZM12.8516 25.8064C12.9204 26.2338 12.9204 26.6694 12.8516 27.0967H27.1484C27.0796 26.6694 27.0796 26.2338 27.1484 25.8064H12.8516ZM31.6129 29.6774C29.8313 29.6774 28.3871 28.2331 28.3871 26.4516C28.3871 24.67 29.8313 23.2258 31.6129 23.2258C33.3945 23.2258 34.8387 24.67 34.8387 26.4516C34.8366 28.2323 33.3936 29.6753 31.6129 29.6774ZM36.0774 27.0967H38.7097V25.8064H36.0774C36.1462 26.2338 36.1462 26.6694 36.0774 27.0967Z" fill="#4785EE"/>
<path fill-rule="evenodd" clip-rule="evenodd" d="M6.45166 26.4516C6.45166 25.3827 7.31821 24.5161 8.38714 24.5161C9.45608 24.5161 10.3226 25.3827 10.3226 26.4516C10.3226 27.5205 9.45608 28.3871 8.38714 28.3871C7.31821 28.3871 6.45166 27.5205 6.45166 26.4516ZM7.74198 26.4516C7.74198 26.8079 8.03083 27.0968 8.38714 27.0968C8.74346 27.0968 9.03231 26.8079 9.03231 26.4516C9.03231 26.0953 8.74346 25.8064 8.38714 25.8064C8.03083 25.8064 7.74198 26.0953 7.74198 26.4516Z" fill="#4785EE"/>
<path fill-rule="evenodd" clip-rule="evenodd" d="M29.6774 26.4516C29.6774 25.3827 30.5439 24.5161 31.6129 24.5161C32.6818 24.5161 33.5483 25.3827 33.5483 26.4516C33.5483 27.5205 32.6818 28.3871 31.6129 28.3871C30.5439 28.3871 29.6774 27.5205 29.6774 26.4516ZM30.9677 26.4516C30.9677 26.8079 31.2565 27.0968 31.6129 27.0968C31.9692 27.0968 32.258 26.8079 32.258 26.4516C32.258 26.0953 31.9692 25.8064 31.6129 25.8064C31.2565 25.8064 30.9677 26.0953 30.9677 26.4516Z" fill="#4785EE"/>
<path d="M10.9678 2.58069H22.5807V3.87101H10.9678V2.58069Z" fill="#4785EE"/>
<path d="M23.871 2.58069H25.1613V3.87101H23.871V2.58069Z" fill="#4785EE"/>
<path d="M7.0968 0H20V1.29032H7.0968V0Z" fill="#4785EE"/>
</svg>
