<svg width="28" height="30" viewBox="0 0 28 30" fill="none" xmlns="http://www.w3.org/2000/svg">
<path fill-rule="evenodd" clip-rule="evenodd" d="M0.5 0.5H17L17.5 1V6V13H25.5L26.5 13.5V17V28.5L25.5 29.5H9H1L0.5 28.5V25.5V0.5Z" fill="#4785EE" fill-opacity="0.3"/>
<path fill-rule="evenodd" clip-rule="evenodd" d="M0.440215 26.3027C0.682676 26.3027 0.878672 26.1067 0.878672 25.8642V0.878613H17.2008V2.14594C17.2008 2.38846 17.3968 2.58615 17.6392 2.58615C17.8818 2.58615 18.0795 2.38846 18.0795 2.14594V0.440156C18.0795 0.197695 17.8818 0 17.6392 0H0.440156C0.197695 0 5.85937e-05 0.197695 5.85937e-05 0.440156V25.8642C5.85937e-05 26.1067 0.197695 26.3027 0.440215 26.3027ZM13.0634 3.44982C12.4954 2.88182 11.7097 2.52967 10.8427 2.52967C10.1716 2.52967 9.54879 2.74061 9.03891 3.09937C8.82469 2.9499 8.59049 2.82533 8.34135 2.73229C7.99582 2.60109 7.62381 2.52967 7.2368 2.52967C6.36984 2.52967 5.5841 2.88182 5.01609 3.44982C4.44639 4.01783 4.09594 4.8034 4.09594 5.67041C4.09594 6.53912 4.44639 7.32305 5.01609 7.89281C5.5841 8.46094 6.36979 8.81133 7.2368 8.81133C7.62545 8.81133 7.99916 8.7399 8.34463 8.60871C8.59377 8.51578 8.82627 8.39109 9.03891 8.24332C9.54879 8.60209 10.1716 8.81133 10.8427 8.81133C11.7097 8.81133 12.4954 8.46088 13.0634 7.89281C13.6314 7.32305 13.9835 6.53912 13.9835 5.67041C13.9835 4.80346 13.6314 4.01783 13.0634 3.44982ZM0.440156 30C0.197637 30 0 29.804 0 29.5615V27.8541C0 27.6115 0.197637 27.4155 0.440156 27.4155C0.682676 27.4155 0.878613 27.6116 0.878613 27.8541V29.1214H13.0451C12.8674 28.8357 12.7644 28.4985 12.7644 28.1398V14.2659C12.7644 13.7527 12.9737 13.2877 13.3109 12.9504C13.648 12.6132 14.1131 12.4039 14.6246 12.4039H17.2008V4.13742C17.2008 3.89326 17.3968 3.69727 17.6392 3.69727C17.8818 3.69727 18.0795 3.89326 18.0795 4.13742V12.4039H25.5338C26.047 12.4039 26.5121 12.6132 26.8492 12.9504C27.1864 13.2876 27.3957 13.7526 27.3957 14.2658V28.1397C27.3957 28.6512 27.1864 29.1163 26.8492 29.4535C26.5121 29.7907 26.047 29.9999 25.5338 29.9999H0.440156V30ZM14.8672 25.6284H17.2042C17.4467 25.6284 17.6443 25.8244 17.6443 26.0668V27.7992C17.6443 28.0417 17.4467 28.2394 17.2042 28.2394H14.8672C14.6246 28.2394 14.427 28.0417 14.427 27.7992V26.0668C14.427 25.8244 14.6246 25.6284 14.8672 25.6284ZM15.3057 26.5071H16.7656H16.7657V27.3607H15.3057V26.5071ZM22.9543 25.6284H25.2929C25.5354 25.6284 25.7314 25.8244 25.7314 26.0668V27.7992C25.7314 28.0417 25.5354 28.2394 25.2929 28.2394H22.9543C22.7118 28.2394 22.5159 28.0417 22.5159 27.7992V26.0668C22.5158 25.8244 22.7118 25.6284 22.9543 25.6284ZM23.3944 26.5071H24.8528V27.3607H23.3944V26.5071ZM18.9115 25.6284H21.2486C21.4911 25.6284 21.687 25.8244 21.687 26.0668V27.7992C21.687 28.0417 21.491 28.2394 21.2486 28.2394H18.9115C18.6674 28.2394 18.4714 28.0417 18.4714 27.7992V26.0668C18.4714 25.8244 18.6674 25.6284 18.9115 25.6284ZM19.3501 26.5071H20.8084V27.3607H19.3501V26.5071ZM14.8672 22.1902H17.2042C17.4467 22.1902 17.6443 22.3862 17.6443 22.6287V24.3611C17.6443 24.6036 17.4467 24.8012 17.2042 24.8012H14.8672C14.6246 24.8012 14.427 24.6036 14.427 24.3611V22.6287C14.427 22.3862 14.6246 22.1902 14.8672 22.1902ZM15.3057 23.0689H16.7656H16.7657V23.921H15.3057V23.0689ZM22.9543 22.1902H25.2929C25.5354 22.1902 25.7314 22.3862 25.7314 22.6287V24.3611C25.7314 24.6036 25.5354 24.8012 25.2929 24.8012H22.9543C22.7118 24.8012 22.5159 24.6036 22.5159 24.3611V22.6287C22.5158 22.3862 22.7118 22.1902 22.9543 22.1902ZM23.3944 23.0689H24.8528V23.921H23.3944V23.0689ZM18.9115 22.1902H21.2486C21.4911 22.1902 21.687 22.3862 21.687 22.6287V24.3611C21.687 24.6036 21.491 24.8012 21.2486 24.8012H18.9115C18.6674 24.8012 18.4714 24.6036 18.4714 24.3611V22.6287C18.4714 22.3862 18.6674 22.1902 18.9115 22.1902ZM19.3501 23.0689H20.8084V23.921H19.3501V23.0689ZM14.8672 18.7521H17.2042C17.4467 18.7521 17.6443 18.948 17.6443 19.1905V20.9229C17.6443 21.1654 17.4467 21.363 17.2042 21.363H14.8672C14.6246 21.363 14.427 21.1654 14.427 20.9229V19.1905C14.427 18.948 14.6246 18.7521 14.8672 18.7521ZM15.3057 19.6307H16.7656H16.7657V20.4827H15.3057V19.6307ZM22.9543 18.7521H25.2929C25.5354 18.7521 25.7314 18.948 25.7314 19.1905V20.9229C25.7314 21.1654 25.5354 21.363 25.2929 21.363H22.9543C22.7118 21.363 22.5159 21.1654 22.5159 20.9229V19.1905C22.5158 18.948 22.7118 18.7521 22.9543 18.7521ZM23.3944 19.6307H24.8528V20.4827H23.3944V19.6307ZM18.9115 18.7521H21.2486C21.4911 18.7521 21.687 18.948 21.687 19.1905V20.9229C21.687 21.1654 21.491 21.363 21.2486 21.363H18.9115C18.6674 21.363 18.4714 21.1654 18.4714 20.9229V19.1905C18.4714 18.948 18.6674 18.7521 18.9115 18.7521ZM19.3501 19.6307H20.8084V20.4827H19.3501V19.6307ZM19.0843 17.0446C19.3269 17.0446 19.5245 17.2423 19.5245 17.4848C19.5245 17.7274 19.3269 17.9233 19.0843 17.9233H14.8672C14.6246 17.9233 14.427 17.7273 14.427 17.4848V14.5665C14.427 14.324 14.6246 14.1281 14.8672 14.1281H25.2929C25.5354 14.1281 25.7314 14.3241 25.7314 14.5665V17.4848C25.7314 17.7274 25.5354 17.9233 25.2929 17.9233H21.0741C20.8316 17.9233 20.6357 17.7273 20.6357 17.4848C20.6357 17.2423 20.8317 17.0446 21.0741 17.0446H24.8528V15.0067H15.3057V17.0446H19.0843ZM7.13215 24.753C7.13215 24.9956 7.32978 25.1932 7.5723 25.1932H11.2114C11.4556 25.1932 11.6516 24.9956 11.6516 24.753C11.6516 24.5106 11.4556 24.3146 11.2114 24.3146H7.5723C7.32978 24.3146 7.13215 24.5105 7.13215 24.753ZM7.5723 21.2119C7.32978 21.2119 7.13215 21.0143 7.13215 20.7718C7.13215 20.5293 7.32978 20.3333 7.5723 20.3333H11.2114C11.4556 20.3333 11.6516 20.5293 11.6516 20.7718C11.6516 21.0143 11.4556 21.2119 11.2114 21.2119H7.5723ZM7.13215 16.7904C7.13215 17.033 7.32978 17.2306 7.5723 17.2306H11.2114C11.4556 17.2306 11.6516 17.033 11.6516 16.7904C11.6516 16.548 11.4556 16.352 11.2114 16.352H7.5723C7.32978 16.352 7.13215 16.5479 7.13215 16.7904ZM7.5723 13.2494C7.32978 13.2494 7.13215 13.0518 7.13215 12.8092C7.13215 12.5667 7.32978 12.369 7.5723 12.369H11.2114C11.4556 12.369 11.6516 12.5667 11.6516 12.8092C11.6516 13.0518 11.4556 13.2494 11.2114 13.2494H7.5723ZM2.33039 24.4424C2.1593 24.6152 2.1593 24.8926 2.33039 25.0637L3.26883 26.0021C3.43992 26.1748 3.71895 26.1748 3.89004 26.0021L5.76686 24.1253C5.93795 23.9542 5.93795 23.6768 5.76686 23.5041C5.59582 23.333 5.31674 23.333 5.14564 23.5041L3.57943 25.0703L2.9516 24.4424C2.78051 24.2714 2.50148 24.2714 2.33039 24.4424ZM2.33039 21.0824C2.1593 20.9113 2.1593 20.6323 2.33039 20.4612C2.50148 20.2901 2.78051 20.2901 2.9516 20.4612L3.57943 21.089L5.14564 19.5228C5.31674 19.3517 5.59582 19.3517 5.76686 19.5228C5.93795 19.6939 5.93795 19.9729 5.76686 20.144L3.89004 22.0208C3.71895 22.1936 3.43992 22.1936 3.26883 22.0208L2.33039 21.0824ZM2.33039 16.4798C2.1593 16.6509 2.1593 16.93 2.33039 17.1011L3.26883 18.0396C3.43992 18.2123 3.71895 18.2123 3.89004 18.0396L5.76686 16.1627C5.93795 15.9916 5.93795 15.7125 5.76686 15.5415C5.59582 15.3704 5.31674 15.3704 5.14564 15.5415L3.57943 17.1077L2.9516 16.4798C2.78051 16.3088 2.50148 16.3088 2.33039 16.4798ZM2.33039 13.1198C2.1593 12.9487 2.1593 12.6697 2.33039 12.4986C2.50148 12.3275 2.78051 12.3275 2.9516 12.4986L3.57943 13.1265L5.14564 11.5601C5.31674 11.389 5.59582 11.389 5.76686 11.5601C5.93795 11.7312 5.93795 12.0103 5.76686 12.1813L3.89004 14.0582C3.71895 14.2293 3.43992 14.2293 3.26883 14.0582L2.33039 13.1198ZM8.38119 7.62211C7.95598 7.08721 7.70186 6.40787 7.70186 5.67041C7.70186 4.93301 7.95598 4.25537 8.38283 3.71883C8.27162 3.65408 8.15531 3.5976 8.03244 3.55277C7.78664 3.45973 7.51916 3.40822 7.23686 3.40822C6.61236 3.40822 6.04594 3.66234 5.6373 4.07098C5.22709 4.48125 4.97461 5.04592 4.97461 5.67041C4.97461 6.29496 5.22709 6.86133 5.6373 7.26996C6.04594 7.68023 6.61236 7.93271 7.23686 7.93271C7.51916 7.93271 7.78992 7.88285 8.03578 7.78822C8.15701 7.74334 8.27162 7.68855 8.38119 7.62211ZM10.8427 3.40828C11.4672 3.40828 12.0336 3.6624 12.4422 4.07104C12.8524 4.48125 13.105 5.04592 13.105 5.67047C13.105 6.29502 12.8524 6.86139 12.4422 7.27002C12.0336 7.68029 11.4672 7.93277 10.8427 7.93277C10.2182 7.93277 9.6518 7.68029 9.24316 7.27002C8.83459 6.86139 8.58041 6.29502 8.58041 5.67047C8.58041 5.04598 8.83459 4.48131 9.24316 4.07104C9.6518 3.6624 10.2182 3.40828 10.8427 3.40828ZM14.6246 29.1214H25.5337C25.8045 29.1214 26.0486 29.0118 26.228 28.8323C26.4058 28.6546 26.5171 28.4088 26.5171 28.1398V14.2659C26.5171 13.9952 26.4058 13.7494 26.228 13.5716C26.0486 13.3939 25.8045 13.2826 25.5337 13.2826H14.6246C14.3556 13.2826 14.1098 13.3938 13.9321 13.5716C13.7527 13.7493 13.643 13.9952 13.643 14.2659V28.1398C13.643 28.4088 13.7527 28.6546 13.9321 28.8323C14.1098 29.0118 14.3556 29.1214 14.6246 29.1214Z" fill="#4785EE"/>
</svg>
