<svg width="175" height="42" viewBox="0 0 175 42" fill="none" xmlns="http://www.w3.org/2000/svg">
<path d="M130.554 10.9182L132.105 8.95687H131.235L129.766 10.8854V8.95687H129.011V12.8959H129.766V10.951L131.26 12.8959H132.138L130.554 10.9182Z" fill="white"/>
<path d="M135.441 10.8443C135.876 10.7212 136.163 10.4094 136.163 9.94164C136.163 9.18665 135.482 8.95687 134.85 8.95687H132.938V12.8959H135.039C135.802 12.8959 136.344 12.502 136.344 11.7881C136.344 11.2629 135.991 10.9264 135.441 10.8525V10.8443ZM134.842 9.57235C135.285 9.57235 135.458 9.79393 135.458 10.0565C135.458 10.3109 135.236 10.5982 134.834 10.5982H133.685V9.57235H134.842ZM133.685 12.2723V11.148H134.932C135.351 11.148 135.614 11.4024 135.614 11.7224C135.614 12.0507 135.417 12.2723 134.998 12.2723H133.685Z" fill="white"/>
<path d="M140.449 9.58056C140.112 9.16203 139.587 8.8584 138.955 8.8584C138.397 8.8584 137.937 9.05535 137.576 9.44926C137.215 9.84316 137.035 10.3355 137.035 10.9264C137.035 11.5173 137.215 12.0096 137.576 12.4036C137.937 12.7975 138.397 12.9944 138.955 12.9944C139.57 12.9944 140.112 12.7072 140.449 12.2723L141.031 12.9452H141.048V8.90764H141.031L140.449 9.58056ZM139.045 12.3051C138.676 12.3051 138.372 12.1738 138.134 11.9112C137.905 11.6486 137.79 11.3203 137.79 10.9264C137.79 10.5325 137.905 10.2042 138.134 9.94164C138.372 9.67904 138.676 9.54773 139.045 9.54773C139.406 9.54773 139.71 9.67083 139.956 9.92523C140.202 10.1796 140.325 10.4833 140.325 10.8525V11.0003C140.325 11.3696 140.202 11.6732 139.956 11.9276C139.71 12.182 139.406 12.3051 139.045 12.3051Z" fill="white"/>
<path d="M144.415 8.8584C143.783 8.8584 143.225 9.15383 142.848 9.6298L142.339 8.95687H142.323V14.7834H143.078V12.9288L143.061 12.3625H143.086C143.349 12.7154 143.824 12.9944 144.415 12.9944C144.965 12.9944 145.425 12.7975 145.786 12.3953C146.147 11.9932 146.327 11.5091 146.327 10.9264C146.327 10.3355 146.147 9.84316 145.786 9.44926C145.425 9.05535 144.965 8.8584 144.415 8.8584ZM144.317 12.3051C143.956 12.3051 143.652 12.182 143.406 11.9276C143.16 11.6732 143.037 11.3696 143.037 11.0003V10.8525C143.037 10.4833 143.16 10.1796 143.406 9.92523C143.652 9.67083 143.956 9.54773 144.317 9.54773C145.08 9.54773 145.572 10.155 145.572 10.9264C145.572 11.3203 145.458 11.6486 145.22 11.9112C144.99 12.1738 144.686 12.3051 144.317 12.3051Z" fill="white"/>
<path d="M146.8 8.95687V9.6298H148.089V12.8959H148.852V9.6298H150.149V8.95687H146.8Z" fill="white"/>
<path d="M150.994 12.978L153.825 10.3191H153.842L153.833 12.8959H154.539V8.87481H154.531L151.7 11.5255H151.683L151.691 8.94867H150.986V12.978H150.994Z" fill="white"/>
<path d="M157.911 8.8584C157.279 8.8584 156.721 9.15383 156.344 9.6298L155.835 8.95687H155.818V14.7834H156.573V12.9288L156.557 12.3625H156.582C156.844 12.7154 157.32 12.9944 157.911 12.9944C158.461 12.9944 158.92 12.7975 159.281 12.3953C159.643 11.9932 159.823 11.5091 159.823 10.9264C159.823 10.3355 159.643 9.84316 159.281 9.44926C158.92 9.05535 158.461 8.8584 157.911 8.8584ZM157.813 12.3051C157.451 12.3051 157.148 12.182 156.902 11.9276C156.655 11.6732 156.532 11.3696 156.532 11.0003V10.8525C156.532 10.4833 156.655 10.1796 156.902 9.92523C157.148 9.67083 157.451 9.54773 157.813 9.54773C158.576 9.54773 159.068 10.155 159.068 10.9264C159.068 11.3203 158.953 11.6486 158.715 11.9112C158.485 12.1738 158.182 12.3051 157.813 12.3051Z" fill="white"/>
<path d="M163.601 10.5982H161.574V8.95687H160.819V12.8959H161.574V11.2547H163.601V12.8959H164.364V8.95687H163.601V10.5982Z" fill="white"/>
<path d="M166.399 10.5489V8.95687H165.644V12.8959H167.572C168.417 12.8959 168.959 12.502 168.959 11.7224C168.959 10.9346 168.417 10.5489 167.572 10.5489H166.399ZM169.542 12.8959H170.305V8.95687H169.542V12.8959ZM166.399 12.2723V11.1644H167.58C168.007 11.1644 168.212 11.3696 168.212 11.7224C168.212 12.0589 168.007 12.2723 167.572 12.2723H166.399Z" fill="white"/>
<path d="M174.971 11.1808C175.062 10.434 174.939 9.85958 174.61 9.45746C174.29 9.05535 173.831 8.8584 173.24 8.8584C172.649 8.8584 172.173 9.05535 171.82 9.44105C171.467 9.82675 171.295 10.3191 171.295 10.9346C171.295 11.5747 171.484 12.0753 171.861 12.4446C172.247 12.8139 172.756 12.9944 173.404 12.9944C173.946 12.9944 174.397 12.8713 174.75 12.6333V11.944C174.356 12.2066 173.921 12.3379 173.445 12.3379C172.6 12.3379 172.116 11.903 172.075 11.1808H174.971ZM173.24 9.45746C173.864 9.45746 174.282 9.8842 174.307 10.631H172.066C172.107 9.93343 172.559 9.45746 173.24 9.45746Z" fill="white"/>
<path d="M129.011 18.9218V22.8608H129.766V19.5701H131.588V22.8608H132.351V18.9218H129.011Z" fill="white"/>
<path d="M137.033 21.1457C137.123 20.3989 137 19.8245 136.672 19.4224C136.352 19.0202 135.892 18.8233 135.301 18.8233C134.711 18.8233 134.235 19.0202 133.882 19.4059C133.529 19.7916 133.356 20.284 133.356 20.8995C133.356 21.5396 133.545 22.0402 133.923 22.4095C134.308 22.7788 134.817 22.9593 135.466 22.9593C136.007 22.9593 136.458 22.8362 136.811 22.5982V21.9089C136.417 22.1715 135.983 22.3028 135.507 22.3028C134.661 22.3028 134.177 21.8679 134.136 21.1457H137.033ZM135.301 19.4224C135.925 19.4224 136.344 19.8491 136.368 20.5959H134.128C134.169 19.8983 134.62 19.4224 135.301 19.4224Z" fill="white"/>
<path d="M140.152 18.8233C139.52 18.8233 138.962 19.1187 138.584 19.5947L138.076 18.9218H138.059V24.7483H138.814V22.8937L138.798 22.3274H138.822C139.085 22.6803 139.561 22.9593 140.152 22.9593C140.702 22.9593 141.161 22.7623 141.522 22.3602C141.883 21.9581 142.064 21.4739 142.064 20.8913C142.064 20.3004 141.883 19.8081 141.522 19.4141C141.161 19.0202 140.702 18.8233 140.152 18.8233ZM140.053 22.27C139.692 22.27 139.389 22.1469 139.142 21.8925C138.896 21.6381 138.773 21.3344 138.773 20.9652V20.8174C138.773 20.4481 138.896 20.1445 139.142 19.8901C139.389 19.6357 139.692 19.5126 140.053 19.5126C140.817 19.5126 141.309 20.1199 141.309 20.8913C141.309 21.2852 141.194 21.6135 140.956 21.8761C140.726 22.1387 140.423 22.27 140.053 22.27Z" fill="white"/>
<path d="M146.457 21.1457C146.548 20.3989 146.425 19.8245 146.096 19.4224C145.776 19.0202 145.317 18.8233 144.726 18.8233C144.135 18.8233 143.659 19.0202 143.306 19.4059C142.953 19.7916 142.781 20.284 142.781 20.8995C142.781 21.5396 142.97 22.0402 143.347 22.4095C143.733 22.7788 144.242 22.9593 144.89 22.9593C145.432 22.9593 145.883 22.8362 146.236 22.5982V21.9089C145.842 22.1715 145.407 22.3028 144.931 22.3028C144.086 22.3028 143.602 21.8679 143.561 21.1457H146.457ZM144.726 19.4224C145.35 19.4224 145.768 19.8491 145.793 20.5959H143.552C143.593 19.8983 144.045 19.4224 144.726 19.4224Z" fill="white"/>
<path d="M150.881 21.1457C150.971 20.3989 150.848 19.8245 150.52 19.4224C150.2 19.0202 149.741 18.8233 149.15 18.8233C148.559 18.8233 148.083 19.0202 147.73 19.4059C147.377 19.7916 147.205 20.284 147.205 20.8995C147.205 21.5396 147.393 22.0402 147.771 22.4095C148.157 22.7788 148.665 22.9593 149.314 22.9593C149.855 22.9593 150.307 22.8362 150.66 22.5982V21.9089C150.266 22.1715 149.831 22.3028 149.355 22.3028C148.51 22.3028 148.025 21.8679 147.984 21.1457H150.881ZM149.15 19.4224C149.773 19.4224 150.192 19.8491 150.216 20.5959H147.976C148.017 19.8983 148.469 19.4224 149.15 19.4224Z" fill="white"/>
<path d="M153.885 20.7764C154.378 20.5712 154.624 20.2758 154.624 19.8819C154.624 19.2828 154.049 18.8233 153.13 18.8233C152.613 18.8233 152.154 18.9464 151.743 19.2008V19.964C152.121 19.6439 152.548 19.488 153.032 19.488C153.582 19.488 153.893 19.685 153.893 20.005C153.893 20.3579 153.557 20.5548 152.999 20.5548H152.621V21.0965H152.999C153.696 21.0965 154.066 21.3673 154.066 21.6873C154.066 22.0484 153.664 22.2864 153.032 22.2864C152.507 22.2864 152.047 22.114 151.661 21.7694V22.5982C152.055 22.8362 152.539 22.9593 153.106 22.9593C153.614 22.9593 154.025 22.8526 154.345 22.6475C154.665 22.4341 154.829 22.1551 154.829 21.8104C154.829 21.318 154.517 20.9734 153.885 20.7764Z" fill="white"/>
<path d="M159.118 18.9628H156.205V20.1117C156.205 21.0636 156.098 21.7612 155.893 22.2125H155.302V23.7717H155.942V22.8608H158.839V23.7717H159.479V22.2125H159.118V18.9628ZM156.927 19.6111H158.38V22.2125H156.64C156.829 21.7448 156.927 21.039 156.927 20.1117V19.6111Z" fill="white"/>
<path d="M161.318 20.5138V18.9218H160.563V22.8608H162.491C163.336 22.8608 163.878 22.4669 163.878 21.6873C163.878 20.8995 163.336 20.5138 162.491 20.5138H161.318ZM164.461 22.8608H165.224V18.9218H164.461V22.8608ZM161.318 22.2371V21.1293H162.499C162.926 21.1293 163.131 21.3344 163.131 21.6873C163.131 22.0238 162.926 22.2371 162.491 22.2371H161.318Z" fill="white"/>
<path d="M129.011 28.8867V32.8257H129.766V29.535H131.588V32.8257H132.351V28.8867H129.011Z" fill="white"/>
<path d="M136.861 32.3251C137.246 31.923 137.443 31.4388 137.443 30.8562C137.443 30.2735 137.246 29.7894 136.861 29.3872C136.475 28.9851 135.983 28.7882 135.383 28.7882C134.793 28.7882 134.3 28.9851 133.915 29.3872C133.529 29.7894 133.332 30.2735 133.332 30.8562C133.332 31.4388 133.529 31.923 133.915 32.3251C134.3 32.7272 134.793 32.9242 135.383 32.9242C135.983 32.9242 136.475 32.7272 136.861 32.3251ZM135.392 32.2266C135.014 32.2266 134.702 32.0953 134.456 31.8327C134.21 31.5619 134.087 31.2419 134.087 30.8562C134.087 30.4705 134.21 30.1504 134.456 29.8878C134.702 29.617 135.014 29.4857 135.392 29.4857C135.769 29.4857 136.081 29.617 136.319 29.8796C136.565 30.1422 136.688 30.4705 136.688 30.8562C136.688 31.2419 136.565 31.5701 136.319 31.8327C136.081 32.0953 135.769 32.2266 135.392 32.2266Z" fill="white"/>
<path d="M141.68 28.9277H138.766V30.0766C138.766 31.0285 138.66 31.7261 138.454 32.1774H137.864V33.7366H138.504V32.8257H141.401V33.7366H142.041V32.1774H141.68V28.9277ZM139.488 29.576H140.941V32.1774H139.201C139.39 31.7096 139.488 31.0039 139.488 30.0766V29.576Z" fill="white"/>
<path d="M146.871 30.848L148.422 28.8867H147.552L146.083 30.8152V28.8867H145.328V32.8257H146.083V30.8808L147.577 32.8257H148.455L146.871 30.848Z" fill="white"/>
<path d="M149.616 28.8867V31.7425C149.616 32.0461 149.575 32.2266 149.296 32.2266C149.206 32.2266 149.107 32.202 149 32.1446V32.8011C149.14 32.8585 149.296 32.8914 149.468 32.8914C150.051 32.8914 150.346 32.5221 150.346 31.7917V29.535H152.111V32.8257H152.841V28.8867H149.616Z" fill="white"/>
<path d="M157.238 28.7882C156.696 28.7882 156.237 28.9523 155.867 29.2888C155.498 29.6252 155.276 30.0438 155.203 30.5525H154.85V28.9277H154.119V32.8257H154.85V31.2009H155.211C155.285 31.7014 155.506 32.1118 155.876 32.44C156.245 32.7601 156.704 32.9242 157.238 32.9242C157.829 32.9242 158.321 32.7272 158.707 32.3251C159.092 31.923 159.289 31.4388 159.289 30.8562C159.289 30.2735 159.092 29.7894 158.707 29.3872C158.321 28.9851 157.829 28.7882 157.238 28.7882ZM157.238 32.2266C156.86 32.2266 156.548 32.0953 156.302 31.8327C156.056 31.5619 155.933 31.2419 155.933 30.8562C155.933 30.4705 156.056 30.1504 156.302 29.8878C156.548 29.617 156.86 29.4857 157.238 29.4857C157.615 29.4857 157.927 29.617 158.165 29.8796C158.411 30.1422 158.534 30.4705 158.534 30.8562C158.534 31.2419 158.411 31.5701 158.165 31.8327C157.927 32.0953 157.615 32.2266 157.238 32.2266Z" fill="white"/>
<path d="M162.482 30.5936C162.096 30.6921 161.768 30.7413 161.497 30.7413C161.046 30.7413 160.783 30.5361 160.783 30.1504V28.8867H160.02V30.3146C160.02 30.9957 160.48 31.3978 161.292 31.3978C161.62 31.3978 162.014 31.3404 162.482 31.2173V32.8257H163.245V28.8867H162.482V30.5936Z" fill="white"/>
<path d="M70.8562 25.9637C70.8562 27.1391 70.6559 28.2143 70.2552 29.1894C69.8545 30.1644 69.2467 31.0126 68.432 31.7338C67.6306 32.4417 66.6088 32.996 65.3666 33.3967C64.1244 33.7974 62.515 33.9978 60.5382 33.9978H53.7062C53.2253 33.9978 52.8313 33.8709 52.5241 33.6171C52.2303 33.35 52.0833 32.9025 52.0833 32.2748V9.73527C52.0833 9.14758 52.2303 8.72684 52.5241 8.47306C52.8313 8.20593 53.2053 8.07236 53.6461 8.07236H68.3118C68.4453 8.07236 68.5589 8.10575 68.6524 8.17253C68.7592 8.23932 68.846 8.35953 68.9128 8.53317C68.993 8.69345 69.0464 8.90716 69.0731 9.17429C69.1132 9.42807 69.1332 9.75531 69.1332 10.156C69.1332 10.53 69.1132 10.8506 69.0731 11.1177C69.0464 11.3715 68.993 11.5852 68.9128 11.7588C68.846 11.9191 68.7592 12.0393 68.6524 12.1195C68.5589 12.1862 68.452 12.2196 68.3318 12.2196H57.3526V18.6709H61.6601C63.3297 18.6709 64.7055 18.8312 65.7874 19.1518C66.8693 19.4723 67.7842 19.9465 68.5322 20.5743C69.2801 21.202 69.8545 21.97 70.2552 22.8783C70.6559 23.7866 70.8562 24.815 70.8562 25.9637ZM65.5069 26.3043C65.5069 25.73 65.4134 25.2157 65.2264 24.7616C65.0394 24.2941 64.7656 23.9001 64.4049 23.5795C64.0443 23.2456 63.5768 22.9918 63.0025 22.8182C62.4415 22.6446 61.6868 22.5577 60.7385 22.5577H57.3526V30.0308H60.7986C61.6534 30.0308 62.3547 29.9507 62.9023 29.7904C63.4633 29.6301 63.9308 29.3897 64.3048 29.0691C64.6787 28.7486 64.9726 28.3546 65.1863 27.8871C65.4 27.4196 65.5069 26.892 65.5069 26.3043Z" fill="white"/>
<path d="M95.0987 33.2765C95.0987 33.4101 95.052 33.5303 94.9585 33.6372C94.8783 33.744 94.7381 33.8308 94.5377 33.8976C94.3374 33.9644 94.0702 34.0178 93.7363 34.0579C93.4024 34.098 92.9817 34.118 92.4741 34.118C91.9532 34.118 91.5191 34.098 91.1718 34.0579C90.8379 34.0178 90.5708 33.9644 90.3704 33.8976C90.1834 33.8308 90.0432 33.744 89.9497 33.6372C89.8695 33.5303 89.8295 33.4101 89.8295 33.2765V22.7982H80.1325V33.2765C80.1325 33.4101 80.0924 33.5303 80.0123 33.6372C79.9321 33.744 79.7919 33.8308 79.5915 33.8976C79.3912 33.9644 79.1241 34.0178 78.7901 34.0579C78.4562 34.098 78.0288 34.118 77.5079 34.118C77.0003 34.118 76.5729 34.098 76.2256 34.0579C75.8917 34.0178 75.6246 33.9644 75.4242 33.8976C75.2239 33.8308 75.077 33.744 74.9835 33.6372C74.9033 33.5303 74.8633 33.4101 74.8633 33.2765V8.79362C74.8633 8.66006 74.9033 8.53984 74.9835 8.43299C75.077 8.32614 75.2239 8.23932 75.4242 8.17253C75.6246 8.10575 75.8917 8.05232 76.2256 8.01225C76.5729 7.97218 77.0003 7.95215 77.5079 7.95215C78.0288 7.95215 78.4562 7.97218 78.7901 8.01225C79.1241 8.05232 79.3912 8.10575 79.5915 8.17253C79.7919 8.23932 79.9321 8.32614 80.0123 8.43299C80.0924 8.53984 80.1325 8.66006 80.1325 8.79362V18.3103H89.8295V8.79362C89.8295 8.66006 89.8695 8.53984 89.9497 8.43299C90.0432 8.32614 90.1834 8.23932 90.3704 8.17253C90.5708 8.10575 90.8379 8.05232 91.1718 8.01225C91.5191 7.97218 91.9532 7.95215 92.4741 7.95215C92.9817 7.95215 93.4024 7.97218 93.7363 8.01225C94.0702 8.05232 94.3374 8.10575 94.5377 8.17253C94.7381 8.23932 94.8783 8.32614 94.9585 8.43299C95.052 8.53984 95.0987 8.66006 95.0987 8.79362V33.2765Z" fill="white"/>
<path d="M119.942 33.2966C119.942 33.4435 119.902 33.5704 119.822 33.6772C119.742 33.7707 119.595 33.8509 119.381 33.9176C119.181 33.9844 118.907 34.0312 118.56 34.0579C118.213 34.098 117.765 34.118 117.217 34.118C116.643 34.118 116.176 34.098 115.815 34.0579C115.468 34.0312 115.187 33.9844 114.974 33.9176C114.76 33.8375 114.6 33.7373 114.493 33.6171C114.386 33.4835 114.306 33.3233 114.252 33.1363L112.169 27.3662C111.875 26.5247 111.568 25.8235 111.247 25.2625C110.926 24.6881 110.572 24.2273 110.185 23.8801C109.798 23.5194 109.357 23.2656 108.863 23.1187C108.369 22.9718 107.814 22.8983 107.2 22.8983H106.018V33.2765C106.018 33.4234 105.978 33.5503 105.898 33.6572C105.817 33.7507 105.677 33.8375 105.477 33.9176C105.277 33.9844 105.009 34.0312 104.675 34.0579C104.342 34.098 103.914 34.118 103.393 34.118C102.886 34.118 102.458 34.098 102.111 34.0579C101.777 34.0312 101.51 33.9844 101.31 33.9176C101.109 33.8375 100.962 33.7507 100.869 33.6572C100.789 33.5503 100.749 33.4234 100.749 33.2765V8.77359C100.749 8.62666 100.789 8.50645 100.869 8.41296C100.962 8.3061 101.109 8.21928 101.31 8.1525C101.51 8.08572 101.777 8.03897 102.111 8.01225C102.458 7.97218 102.886 7.95215 103.393 7.95215C103.914 7.95215 104.342 7.97218 104.675 8.01225C105.009 8.03897 105.277 8.08572 105.477 8.1525C105.677 8.21928 105.817 8.3061 105.898 8.41296C105.978 8.50645 106.018 8.62666 106.018 8.77359V18.5106H107.2C107.801 18.5106 108.329 18.4305 108.783 18.2702C109.237 18.1099 109.644 17.8562 110.005 17.5089C110.379 17.1616 110.713 16.7142 111.007 16.1665C111.314 15.6056 111.608 14.9177 111.888 14.1029L113.631 8.93387C113.698 8.74687 113.778 8.59327 113.872 8.47306C113.965 8.33949 114.112 8.23932 114.312 8.17253C114.526 8.09239 114.8 8.03897 115.134 8.01225C115.481 7.97218 115.942 7.95215 116.516 7.95215C117.037 7.95215 117.465 7.97218 117.798 8.01225C118.146 8.03897 118.413 8.08572 118.6 8.1525C118.8 8.20593 118.934 8.28607 119.001 8.39292C119.067 8.48642 119.101 8.60663 119.101 8.75355C119.101 8.92719 119.067 9.1409 119.001 9.39468C118.947 9.64845 118.847 9.98237 118.7 10.3964L116.957 15.0045C116.636 15.8593 116.316 16.5873 115.995 17.1883C115.675 17.7894 115.334 18.3036 114.974 18.731C114.626 19.1451 114.252 19.4857 113.852 19.7528C113.464 20.02 113.03 20.2403 112.549 20.414V20.434C113.084 20.6611 113.564 20.9215 113.992 21.2154C114.433 21.4959 114.84 21.8565 115.214 22.2973C115.601 22.7381 115.969 23.279 116.316 23.9201C116.663 24.5612 117.017 25.3493 117.378 26.2843L119.501 31.6537C119.715 32.2013 119.842 32.582 119.882 32.7957C119.922 32.996 119.942 33.163 119.942 33.2966Z" fill="white"/>
<rect x="0.00012207" width="41.6181" height="41.6181" rx="10" fill="#4785EE"/>
<path d="M5.86169 7.03418C9.33315 10.5658 16.4652 16.9491 19.9521 20.4965C18.2089 22.27 8.0317 31.838 5.86224 33.998H12.3343L26.5111 20.5161L12.3343 7.03418H5.86169ZM15.1075 7.03418C18.5789 10.5658 25.7109 16.9491 29.1974 20.4965C27.4541 22.27 17.2769 31.838 15.1075 33.998H21.5795L35.7564 20.5161L21.5795 7.03418H15.1075Z" fill="white"/>
</svg>
