<svg width="44" height="30" viewBox="0 0 44 30" fill="none" xmlns="http://www.w3.org/2000/svg">
<path d="M37.4999 12H29.25V4.50003H36L37.4999 12Z" fill="#B4E1FA"/>
<path d="M1.49995 24.75H41.9999C42.4141 24.75 42.75 24.4142 42.75 24V18.75H0.75V24C0.75 24.4142 1.08577 24.75 1.49995 24.75Z" fill="#707487"/>
<path d="M29.2499 18.75V6.75006H26.25V18.75H0.75V21.75H42.7499V18.75H29.2499Z" fill="#5B5D6E"/>
<path d="M0.750034 0H26.25C26.6642 0 27 0.33585 27 0.750034V18.75C27 19.1642 26.6642 19.5 26.25 19.5H0.750034C0.33585 19.5 0 19.1642 0 18.75V0.750034C0 0.33585 0.33585 0 0.750034 0Z" fill="#FFD782"/>
<path fill-rule="evenodd" clip-rule="evenodd" d="M38.1598 11.4385L41.6619 12.4391C42.3059 12.6231 42.7498 13.2118 42.7498 13.8815V17.2501H28.4999V3.7501C28.4999 3.33549 28.8354 3.00006 29.2499 3.00006H34.122C35.5721 3.00006 36.8136 4.03573 37.0736 5.46248L38.1598 11.4385ZM29.9999 9.75003C29.9999 10.5785 30.6715 11.25 31.4999 11.25H36.078C36.3508 11.25 36.5571 11.003 36.5087 10.7346L35.6314 5.86698C35.5671 5.5098 35.2562 5.24999 34.8933 5.24999H30.75C30.3358 5.24999 29.9999 5.58584 29.9999 6.00003V9.75003Z" fill="#FFD782"/>
<circle cx="35.25" cy="25.5" r="4.50003" fill="#464655"/>
<circle cx="35.25" cy="25.5" r="2.99997" fill="#C7CFE2"/>
<circle cx="35.25" cy="25.5" r="1.12497" fill="#AFB9D2"/>
<circle cx="7.50003" cy="25.5" r="4.50003" fill="#464655"/>
<circle cx="7.49997" cy="25.5" r="2.99997" fill="#C7CFE2"/>
<circle cx="7.49997" cy="25.5" r="1.12497" fill="#AFB9D2"/>
<path d="M29.2499 24H29.5364C29.8204 24 30.0801 23.8395 30.2072 23.5854L31.8354 20.3292C32.0894 19.821 32.6088 19.5 33.177 19.5H37.3229C37.891 19.5 38.4105 19.821 38.6645 20.3292L40.2927 23.5854C40.4197 23.8395 40.6794 24 40.9635 24H42.7498C43.164 24 43.4999 23.6641 43.4999 23.2499V18C43.4999 17.1715 42.8283 16.5 41.9999 16.5H28.4999V23.2499C28.4999 23.6641 28.8357 24 29.2499 24Z" fill="#FFC36E"/>
<path d="M26.25 26.25H18.75C18.3359 26.25 18 25.9142 18 25.5V22.5C18 22.0858 18.3359 21.75 18.75 21.75H26.25C26.6642 21.75 27.0001 22.0858 27.0001 22.5V25.5C27 25.9142 26.6642 26.25 26.25 26.25Z" fill="#AFB9D2"/>
<path d="M20.9999 23.2499C20.5857 23.2499 20.2499 23.5858 20.2499 24V26.25H21.7499V24C21.7499 23.5858 21.4141 23.2499 20.9999 23.2499Z" fill="#959CB3"/>
<path d="M23.9999 23.2499C23.5857 23.2499 23.2499 23.5858 23.2499 24V26.25H24.7499V24C24.7499 23.5858 24.4141 23.2499 23.9999 23.2499Z" fill="#959CB3"/>
<path d="M24.7499 18H2.25003C1.83585 18 1.5 17.6641 1.5 17.2499C1.5 16.8358 1.83585 16.4999 2.25003 16.4999H24.7499C25.1641 16.4999 25.5 16.8358 25.5 17.2499C25.5 17.6642 25.1641 18 24.7499 18Z" fill="#FFC36E"/>
</svg>
