<svg width="178" height="42" viewBox="0 0 178 42" xmlns="http://www.w3.org/2000/svg">
<path d="M70.8562 25.9638C70.8562 27.1392 70.6559 28.2144 70.2552 29.1894C69.8545 30.1645 69.2467 31.0126 68.432 31.7339C67.6306 32.4418 66.6088 32.9961 65.3666 33.3968C64.1244 33.7975 62.515 33.9979 60.5382 33.9979H53.7062C53.2253 33.9979 52.8313 33.871 52.5241 33.6172C52.2303 33.3501 52.0833 32.9026 52.0833 32.2748V9.73535C52.0833 9.14765 52.2303 8.72692 52.5241 8.47314C52.8313 8.206 53.2053 8.07244 53.6461 8.07244H68.3118C68.4453 8.07244 68.5589 8.10583 68.6524 8.17261C68.7592 8.23939 68.846 8.35961 68.9128 8.53324C68.993 8.69352 69.0464 8.90723 69.0731 9.17437C69.1132 9.42814 69.1332 9.75538 69.1332 10.1561C69.1332 10.5301 69.1132 10.8506 69.0731 11.1178C69.0464 11.3715 68.993 11.5853 68.9128 11.7589C68.846 11.9192 68.7592 12.0394 68.6524 12.1195C68.5589 12.1863 68.452 12.2197 68.3318 12.2197H57.3526V18.671H61.6601C63.3297 18.671 64.7055 18.8313 65.7874 19.1518C66.8693 19.4724 67.7842 19.9466 68.5322 20.5743C69.2801 21.2021 69.8545 21.9701 70.2552 22.8784C70.6559 23.7866 70.8562 24.8151 70.8562 25.9638ZM65.5069 26.3044C65.5069 25.73 65.4134 25.2158 65.2264 24.7617C65.0394 24.2942 64.7656 23.9002 64.4049 23.5796C64.0443 23.2457 63.5768 22.9919 63.0025 22.8183C62.4415 22.6446 61.6868 22.5578 60.7385 22.5578H57.3526V30.0309H60.7986C61.6534 30.0309 62.3547 29.9508 62.9023 29.7905C63.4633 29.6302 63.9308 29.3898 64.3048 29.0692C64.6787 28.7487 64.9726 28.3546 65.1863 27.8872C65.4 27.4197 65.5069 26.8921 65.5069 26.3044Z" fill="black"/>
<path d="M95.0987 33.2766C95.0987 33.4102 95.052 33.5304 94.9585 33.6372C94.8783 33.7441 94.7381 33.8309 94.5377 33.8977C94.3374 33.9645 94.0702 34.0179 93.7363 34.058C93.4024 34.098 92.9817 34.1181 92.4741 34.1181C91.9532 34.1181 91.5191 34.098 91.1718 34.058C90.8379 34.0179 90.5708 33.9645 90.3704 33.8977C90.1834 33.8309 90.0432 33.7441 89.9497 33.6372C89.8695 33.5304 89.8295 33.4102 89.8295 33.2766V22.7982H80.1325V33.2766C80.1325 33.4102 80.0924 33.5304 80.0123 33.6372C79.9321 33.7441 79.7919 33.8309 79.5915 33.8977C79.3912 33.9645 79.1241 34.0179 78.7901 34.058C78.4562 34.098 78.0288 34.1181 77.5079 34.1181C77.0003 34.1181 76.5729 34.098 76.2256 34.058C75.8917 34.0179 75.6246 33.9645 75.4242 33.8977C75.2239 33.8309 75.077 33.7441 74.9835 33.6372C74.9033 33.5304 74.8633 33.4102 74.8633 33.2766V8.7937C74.8633 8.66013 74.9033 8.53992 74.9835 8.43307C75.077 8.32621 75.2239 8.23939 75.4242 8.17261C75.6246 8.10583 75.8917 8.0524 76.2256 8.01233C76.5729 7.97226 77.0003 7.95222 77.5079 7.95222C78.0288 7.95222 78.4562 7.97226 78.7901 8.01233C79.1241 8.0524 79.3912 8.10583 79.5915 8.17261C79.7919 8.23939 79.9321 8.32621 80.0123 8.43307C80.0924 8.53992 80.1325 8.66013 80.1325 8.7937V18.3104H89.8295V8.7937C89.8295 8.66013 89.8695 8.53992 89.9497 8.43307C90.0432 8.32621 90.1834 8.23939 90.3704 8.17261C90.5708 8.10583 90.8379 8.0524 91.1718 8.01233C91.5191 7.97226 91.9532 7.95222 92.4741 7.95222C92.9817 7.95222 93.4024 7.97226 93.7363 8.01233C94.0702 8.0524 94.3374 8.10583 94.5377 8.17261C94.7381 8.23939 94.8783 8.32621 94.9585 8.43307C95.052 8.53992 95.0987 8.66013 95.0987 8.7937V33.2766Z" fill="black"/>
<path d="M119.942 33.2966C119.942 33.4436 119.902 33.5704 119.822 33.6773C119.742 33.7708 119.595 33.8509 119.381 33.9177C119.181 33.9845 118.907 34.0313 118.56 34.058C118.213 34.098 117.765 34.1181 117.217 34.1181C116.643 34.1181 116.176 34.098 115.815 34.058C115.468 34.0313 115.187 33.9845 114.974 33.9177C114.76 33.8376 114.6 33.7374 114.493 33.6172C114.386 33.4836 114.306 33.3233 114.252 33.1364L112.169 27.3662C111.875 26.5248 111.568 25.8235 111.247 25.2626C110.926 24.6882 110.572 24.2274 110.185 23.8801C109.798 23.5195 109.357 23.2657 108.863 23.1188C108.369 22.9719 107.814 22.8984 107.2 22.8984H106.018V33.2766C106.018 33.4235 105.978 33.5504 105.898 33.6573C105.817 33.7508 105.677 33.8376 105.477 33.9177C105.277 33.9845 105.009 34.0313 104.675 34.058C104.342 34.098 103.914 34.1181 103.393 34.1181C102.886 34.1181 102.458 34.098 102.111 34.058C101.777 34.0313 101.51 33.9845 101.31 33.9177C101.109 33.8376 100.962 33.7508 100.869 33.6573C100.789 33.5504 100.749 33.4235 100.749 33.2766V8.77366C100.749 8.62674 100.789 8.50653 100.869 8.41303C100.962 8.30618 101.109 8.21936 101.31 8.15258C101.51 8.08579 101.777 8.03904 102.111 8.01233C102.458 7.97226 102.886 7.95222 103.393 7.95222C103.914 7.95222 104.342 7.97226 104.675 8.01233C105.009 8.03904 105.277 8.08579 105.477 8.15258C105.677 8.21936 105.817 8.30618 105.898 8.41303C105.978 8.50653 106.018 8.62674 106.018 8.77366V18.5107H107.2C107.801 18.5107 108.329 18.4306 108.783 18.2703C109.237 18.11 109.644 17.8562 110.005 17.509C110.379 17.1617 110.713 16.7142 111.007 16.1666C111.314 15.6056 111.608 14.9178 111.888 14.103L113.631 8.93394C113.698 8.74695 113.778 8.59335 113.872 8.47314C113.965 8.33957 114.112 8.23939 114.312 8.17261C114.526 8.09247 114.8 8.03904 115.134 8.01233C115.481 7.97226 115.942 7.95222 116.516 7.95222C117.037 7.95222 117.465 7.97226 117.798 8.01233C118.146 8.03904 118.413 8.08579 118.6 8.15258C118.8 8.206 118.934 8.28614 119.001 8.393C119.067 8.48649 119.101 8.6067 119.101 8.75363C119.101 8.92727 119.067 9.14097 119.001 9.39475C118.947 9.64853 118.847 9.98245 118.7 10.3965L116.957 15.0046C116.636 15.8594 116.316 16.5874 115.995 17.1884C115.675 17.7895 115.334 18.3037 114.974 18.7311C114.626 19.1452 114.252 19.4858 113.852 19.7529C113.464 20.02 113.03 20.2404 112.549 20.4141V20.4341C113.084 20.6612 113.564 20.9216 113.992 21.2155C114.433 21.496 114.84 21.8566 115.214 22.2974C115.601 22.7381 115.969 23.2791 116.316 23.9202C116.663 24.5613 117.017 25.3494 117.378 26.2843L119.501 31.6538C119.715 32.2014 119.842 32.582 119.882 32.7958C119.922 32.9961 119.942 33.1631 119.942 33.2966Z" fill="black"/>
<rect x="0.00012207" width="41.6181" height="41.6181" rx="10" fill="#4785EE"/>
<path d="M8 10C10.787 12.8815 16.5127 18.0897 19.3121 20.984C17.9125 22.431 9.74212 30.2376 8.00044 32H13.1963L24.5778 21L13.1963 10H8ZM15.4227 10C18.2096 12.8815 23.9353 18.0897 26.7343 20.984C25.3348 22.431 17.1644 30.2376 15.4227 32H20.6186L32 21L20.6186 10H15.4227Z" fill="white"/>
<path d="M128.711 10.2355L130.431 8.10688H129.466L127.837 10.1998V8.10688H127V12.3819H127.837V10.2711L129.494 12.3819H130.467L128.711 10.2355Z" fill="#191919"/>
<path d="M134.13 10.1553C134.613 10.0217 134.931 9.68329 134.931 9.17563C134.931 8.35625 134.176 8.10688 133.475 8.10688H131.355V12.3819H133.685C134.531 12.3819 135.132 11.9544 135.132 11.1795C135.132 10.6095 134.74 10.2444 134.13 10.1642V10.1553ZM133.466 8.77485C133.958 8.77485 134.149 9.01531 134.149 9.30032C134.149 9.57641 133.903 9.88813 133.457 9.88813H132.183V8.77485H133.466ZM132.183 11.705V10.4848H133.566C134.03 10.4848 134.322 10.7609 134.322 11.1083C134.322 11.4645 134.103 11.705 133.639 11.705H132.183Z" fill="#191919"/>
<path d="M139.683 8.78375C139.31 8.32953 138.728 8 138.027 8C137.408 8 136.899 8.21375 136.498 8.64125C136.098 9.06875 135.898 9.60313 135.898 10.2444C135.898 10.8856 136.098 11.42 136.498 11.8475C136.899 12.275 137.408 12.4888 138.027 12.4888C138.71 12.4888 139.31 12.177 139.683 11.705L140.33 12.4353H140.348V8.05344H140.33L139.683 8.78375ZM138.127 11.7406C137.718 11.7406 137.381 11.5981 137.117 11.3131C136.862 11.0281 136.735 10.6719 136.735 10.2444C136.735 9.81688 136.862 9.46063 137.117 9.17563C137.381 8.89063 137.718 8.74813 138.127 8.74813C138.528 8.74813 138.864 8.88172 139.137 9.15782C139.41 9.43391 139.547 9.76344 139.547 10.1642V10.3245C139.547 10.7253 139.41 11.0549 139.137 11.3309C138.864 11.607 138.528 11.7406 138.127 11.7406Z" fill="#191919"/>
<path d="M144.082 8C143.382 8 142.763 8.32063 142.344 8.83719L141.78 8.10688H141.762V14.4303H142.599V12.4175L142.581 11.803H142.608C142.899 12.1859 143.427 12.4888 144.082 12.4888C144.692 12.4888 145.202 12.275 145.602 11.8386C146.003 11.4022 146.203 10.8767 146.203 10.2444C146.203 9.60313 146.003 9.06875 145.602 8.64125C145.202 8.21375 144.692 8 144.082 8ZM143.973 11.7406C143.573 11.7406 143.236 11.607 142.963 11.3309C142.69 11.0549 142.554 10.7253 142.554 10.3245V10.1642C142.554 9.76344 142.69 9.43391 142.963 9.15782C143.236 8.88172 143.573 8.74813 143.973 8.74813C144.82 8.74813 145.366 9.40719 145.366 10.2444C145.366 10.6719 145.238 11.0281 144.974 11.3131C144.72 11.5981 144.383 11.7406 143.973 11.7406Z" fill="#191919"/>
<path d="M146.727 8.10688V8.83719H148.156V12.3819H149.003V8.83719H150.44V8.10688H146.727Z" fill="#191919"/>
<path d="M151.378 12.4709L154.518 9.58532H154.536L154.527 12.3819H155.309V8.01781H155.3L152.161 10.8945H152.142L152.151 8.09797H151.369V12.4709H151.378Z" fill="#191919"/>
<path d="M159.049 8C158.348 8 157.729 8.32063 157.31 8.83719L156.746 8.10688H156.728V14.4303H157.565V12.4175L157.547 11.803H157.574C157.866 12.1859 158.393 12.4888 159.049 12.4888C159.658 12.4888 160.168 12.275 160.569 11.8386C160.969 11.4022 161.169 10.8767 161.169 10.2444C161.169 9.60313 160.969 9.06875 160.569 8.64125C160.168 8.21375 159.658 8 159.049 8ZM158.939 11.7406C158.539 11.7406 158.202 11.607 157.929 11.3309C157.656 11.0549 157.52 10.7253 157.52 10.3245V10.1642C157.52 9.76344 157.656 9.43391 157.929 9.15782C158.202 8.88172 158.539 8.74813 158.939 8.74813C159.786 8.74813 160.332 9.40719 160.332 10.2444C160.332 10.6719 160.204 11.0281 159.941 11.3131C159.686 11.5981 159.349 11.7406 158.939 11.7406Z" fill="#191919"/>
<path d="M165.359 9.88813H163.111V8.10688H162.274V12.3819H163.111V10.6006H165.359V12.3819H166.205V8.10688H165.359V9.88813Z" fill="#191919"/>
<path d="M168.461 9.83469V8.10688H167.624V12.3819H169.763C170.7 12.3819 171.301 11.9544 171.301 11.1083C171.301 10.2533 170.7 9.83469 169.763 9.83469H168.461ZM171.947 12.3819H172.793V8.10688H171.947V12.3819ZM168.461 11.705V10.5027H169.772C170.245 10.5027 170.472 10.7253 170.472 11.1083C170.472 11.4734 170.245 11.705 169.763 11.705H168.461Z" fill="#191919"/>
<path d="M177.968 10.5205C178.068 9.71 177.932 9.08657 177.568 8.65016C177.213 8.21375 176.703 8 176.048 8C175.393 8 174.865 8.21375 174.474 8.63234C174.082 9.05094 173.891 9.58532 173.891 10.2533C173.891 10.948 174.1 11.4913 174.519 11.892C174.947 12.2928 175.511 12.4888 176.23 12.4888C176.831 12.4888 177.331 12.3552 177.722 12.0969V11.3488C177.286 11.6338 176.803 11.7763 176.275 11.7763C175.338 11.7763 174.801 11.3042 174.756 10.5205H177.968ZM176.048 8.65016C176.74 8.65016 177.204 9.11328 177.231 9.92375H174.747C174.792 9.16672 175.293 8.65016 176.048 8.65016Z" fill="#191919"/>
<path d="M127 18.9216V23.1966H127.837V19.6252H129.858V23.1966H130.704V18.9216H127Z" fill="#191919"/>
<path d="M135.896 21.3352C135.996 20.5248 135.859 19.9013 135.495 19.4649C135.14 19.0285 134.631 18.8148 133.975 18.8148C133.32 18.8148 132.792 19.0285 132.401 19.4471C132.01 19.8657 131.819 20.4001 131.819 21.068C131.819 21.7627 132.028 22.306 132.446 22.7068C132.874 23.1076 133.438 23.3035 134.157 23.3035C134.758 23.3035 135.259 23.1699 135.65 22.9116V22.1635C135.213 22.4485 134.731 22.591 134.203 22.591C133.266 22.591 132.729 22.119 132.683 21.3352H135.896ZM133.975 19.4649C134.667 19.4649 135.131 19.928 135.158 20.7385H132.674C132.72 19.9815 133.22 19.4649 133.975 19.4649Z" fill="#191919"/>
<path d="M139.354 18.8148C138.654 18.8148 138.035 19.1354 137.616 19.6519L137.052 18.9216H137.034V25.2451H137.871V23.2323L137.853 22.6177H137.88C138.171 23.0007 138.699 23.3035 139.354 23.3035C139.964 23.3035 140.474 23.0898 140.874 22.6534C141.275 22.217 141.475 21.6915 141.475 21.0591C141.475 20.4179 141.275 19.8835 140.874 19.456C140.474 19.0285 139.964 18.8148 139.354 18.8148ZM139.245 22.5554C138.845 22.5554 138.508 22.4218 138.235 22.1457C137.962 21.8696 137.826 21.5401 137.826 21.1393V20.979C137.826 20.5782 137.962 20.2487 138.235 19.9726C138.508 19.6965 138.845 19.5629 139.245 19.5629C140.092 19.5629 140.638 20.2219 140.638 21.0591C140.638 21.4866 140.51 21.8429 140.246 22.1279C139.991 22.4129 139.655 22.5554 139.245 22.5554Z" fill="#191919"/>
<path d="M146.347 21.3352C146.447 20.5248 146.311 19.9013 145.947 19.4649C145.592 19.0285 145.082 18.8148 144.427 18.8148C143.772 18.8148 143.244 19.0285 142.852 19.4471C142.461 19.8657 142.27 20.4001 142.27 21.068C142.27 21.7627 142.479 22.306 142.898 22.7068C143.326 23.1076 143.89 23.3035 144.609 23.3035C145.21 23.3035 145.71 23.1699 146.101 22.9116V22.1635C145.665 22.4485 145.182 22.591 144.654 22.591C143.717 22.591 143.18 22.119 143.135 21.3352H146.347ZM144.427 19.4649C145.119 19.4649 145.583 19.928 145.61 20.7385H143.125C143.171 19.9815 143.672 19.4649 144.427 19.4649Z" fill="#191919"/>
<path d="M151.253 21.3352C151.353 20.5248 151.216 19.9013 150.852 19.4649C150.498 19.0285 149.988 18.8148 149.333 18.8148C148.677 18.8148 148.15 19.0285 147.758 19.4471C147.367 19.8657 147.176 20.4001 147.176 21.068C147.176 21.7627 147.385 22.306 147.804 22.7068C148.231 23.1076 148.796 23.3035 149.515 23.3035C150.115 23.3035 150.616 23.1699 151.007 22.9116V22.1635C150.57 22.4485 150.088 22.591 149.56 22.591C148.623 22.591 148.086 22.119 148.04 21.3352H151.253ZM149.333 19.4649C150.024 19.4649 150.488 19.928 150.516 20.7385H148.031C148.077 19.9815 148.577 19.4649 149.333 19.4649Z" fill="#191919"/>
<path d="M154.584 20.9345C155.13 20.7118 155.403 20.3912 155.403 19.9637C155.403 19.3135 154.766 18.8148 153.747 18.8148C153.174 18.8148 152.664 18.9484 152.209 19.2244V20.0527C152.628 19.7054 153.101 19.5362 153.638 19.5362C154.248 19.5362 154.593 19.7499 154.593 20.0973C154.593 20.4802 154.22 20.694 153.601 20.694H153.183V21.2818H153.601C154.375 21.2818 154.785 21.5757 154.785 21.923C154.785 22.3149 154.339 22.5732 153.638 22.5732C153.055 22.5732 152.546 22.3862 152.118 22.0121V22.9116C152.555 23.1699 153.092 23.3035 153.72 23.3035C154.284 23.3035 154.739 23.1877 155.094 22.9651C155.449 22.7335 155.631 22.4307 155.631 22.0566C155.631 21.5223 155.285 21.1482 154.584 20.9345Z" fill="#191919"/>
<path d="M160.387 18.9662H157.157V20.213C157.157 21.2462 157.038 22.0032 156.811 22.493H156.156V24.1852H156.865V23.1966H160.078V24.1852H160.788V22.493H160.387V18.9662ZM157.957 19.6698H159.568V22.493H157.639C157.848 21.9854 157.957 21.2195 157.957 20.213V19.6698Z" fill="#191919"/>
<path d="M162.827 20.6495V18.9216H161.989V23.1966H164.128C165.065 23.1966 165.666 22.7691 165.666 21.923C165.666 21.068 165.065 20.6495 164.128 20.6495H162.827ZM166.312 23.1966H167.158V18.9216H166.312V23.1966ZM162.827 22.5198V21.3174H164.137C164.61 21.3174 164.838 21.5401 164.838 21.923C164.838 22.2882 164.61 22.5198 164.128 22.5198H162.827Z" fill="#191919"/>
<path d="M127 29.7364V34.0114H127.837V30.44H129.858V34.0114H130.704V29.7364H127Z" fill="#191919"/>
<path d="M135.705 33.4681C136.132 33.0317 136.351 32.5062 136.351 31.8739C136.351 31.2416 136.132 30.7161 135.705 30.2797C135.277 29.8433 134.731 29.6295 134.066 29.6295C133.411 29.6295 132.865 29.8433 132.437 30.2797C132.01 30.7161 131.791 31.2416 131.791 31.8739C131.791 32.5062 132.01 33.0317 132.437 33.4681C132.865 33.9045 133.411 34.1183 134.066 34.1183C134.731 34.1183 135.277 33.9045 135.705 33.4681ZM134.076 33.3612C133.657 33.3612 133.311 33.2187 133.038 32.9337C132.765 32.6398 132.629 32.2925 132.629 31.8739C132.629 31.4553 132.765 31.108 133.038 30.823C133.311 30.5291 133.657 30.3865 134.076 30.3865C134.494 30.3865 134.84 30.5291 135.104 30.8141C135.377 31.0991 135.513 31.4553 135.513 31.8739C135.513 32.2925 135.377 32.6487 135.104 32.9337C134.84 33.2187 134.494 33.3612 134.076 33.3612Z" fill="#191919"/>
<path d="M141.049 29.7809H137.818V31.0278C137.818 32.0609 137.7 32.818 137.472 33.3078H136.817V35H137.527V34.0114H140.739V35H141.449V33.3078H141.049V29.7809ZM138.619 30.4845H140.23V33.3078H138.3C138.509 32.8002 138.619 32.0342 138.619 31.0278V30.4845Z" fill="#191919"/>
<path d="M146.805 31.865L148.525 29.7364H147.561L145.932 31.8294V29.7364H145.095V34.0114H145.932V31.9006L147.588 34.0114H148.562L146.805 31.865Z" fill="#191919"/>
<path d="M149.85 29.7364V32.8358C149.85 33.1653 149.804 33.3612 149.495 33.3612C149.395 33.3612 149.286 33.3345 149.167 33.2722V33.9847C149.322 34.047 149.495 34.0827 149.686 34.0827C150.332 34.0827 150.66 33.6819 150.66 32.8892V30.44H152.616V34.0114H153.426V29.7364H149.85Z" fill="#191919"/>
<path d="M158.302 29.6295C157.702 29.6295 157.192 29.8076 156.782 30.1728C156.373 30.538 156.127 30.9922 156.045 31.5444H155.654V29.7809H154.844V34.0114H155.654V32.248H156.054C156.136 32.7912 156.382 33.2366 156.791 33.5928C157.201 33.9402 157.711 34.1183 158.302 34.1183C158.957 34.1183 159.503 33.9045 159.931 33.4681C160.359 33.0317 160.577 32.5062 160.577 31.8739C160.577 31.2416 160.359 30.7161 159.931 30.2797C159.503 29.8433 158.957 29.6295 158.302 29.6295ZM158.302 33.3612C157.884 33.3612 157.538 33.2187 157.265 32.9337C156.992 32.6398 156.855 32.2925 156.855 31.8739C156.855 31.4553 156.992 31.108 157.265 30.823C157.538 30.5291 157.884 30.3865 158.302 30.3865C158.721 30.3865 159.067 30.5291 159.331 30.8141C159.604 31.0991 159.74 31.4553 159.74 31.8739C159.74 32.2925 159.604 32.6487 159.331 32.9337C159.067 33.2187 158.721 33.3612 158.302 33.3612Z" fill="#191919"/>
<path d="M164.118 31.5889C163.69 31.6958 163.326 31.7492 163.026 31.7492C162.525 31.7492 162.234 31.5266 162.234 31.108V29.7364H161.387V31.2861C161.387 32.0253 161.897 32.4617 162.798 32.4617C163.162 32.4617 163.599 32.3994 164.118 32.2658V34.0114H164.964V29.7364H164.118V31.5889Z" fill="#191919"/>
<defs>
<radialGradient id="paint0_angular_11_151" cx="0" cy="0" r="1" gradientUnits="userSpaceOnUse" gradientTransform="translate(20.8092 20.809) rotate(-1.19349) scale(14.0711)">
<stop stop-color="#4785EE"/>
<stop offset="1" stop-color="#89B1F4"/>
</radialGradient>
</defs>
</svg>
