<svg width="20" height="20" viewBox="0 0 20 20" fill="none" xmlns="http://www.w3.org/2000/svg">
<path fill-rule="evenodd" clip-rule="evenodd" d="M11.1373 18.823C8.41667 17.5093 6.03304 15.6527 4.05291 13.2947C2.42222 11.3427 1.324 9.51513 0.596009 7.54662C0.121777 6.27435 -0.0612595 5.22172 0.0177792 4.23125C0.084338 3.4397 0.404653 2.75591 0.970403 2.19229L2.52622 0.642354C2.97133 0.219644 3.47884 0 4.00715 0C4.53962 0 5.04297 0.219644 5.47145 0.63821C5.75432 0.899295 6.04136 1.18939 6.31591 1.4712L6.32737 1.48295C6.46478 1.62386 6.59856 1.76107 6.74022 1.9022L7.97988 3.13717C8.43332 3.58475 8.67043 4.10278 8.67043 4.62909C8.67043 5.15541 8.42916 5.67344 7.97988 6.12101L7.97979 6.1211C7.85087 6.24954 7.72194 6.37798 7.59717 6.50642C7.24358 6.86697 6.8775 7.23581 6.48647 7.58806C6.76518 8.23042 7.16454 8.86034 7.75941 9.61044C8.93667 11.0485 10.168 12.1674 11.5241 13.0253C11.6614 13.1123 11.8153 13.191 11.9817 13.2739C12.1149 13.3402 12.2563 13.4107 12.3936 13.4894L13.8828 12.0058C14.3196 11.5707 14.8313 11.3386 15.3638 11.3386C15.8962 11.3386 16.4037 11.5707 16.8281 12.0099L19.3282 14.5006C20.2226 15.3916 20.2226 16.5603 19.3365 17.4803C19.1451 17.6792 18.9455 17.874 18.7499 18.0605C18.7302 18.0796 18.7105 18.0986 18.6909 18.1176C18.4253 18.3742 18.1718 18.6192 17.9471 18.8893C17.9429 18.8976 17.9346 18.9059 17.9304 18.9101C17.2524 19.6436 16.4204 20 15.3846 20C15.2927 20 15.2047 19.9962 15.1132 19.9922L15.1017 19.9917C13.5583 19.8923 12.1731 19.3121 11.1373 18.823ZM1.69423 2.90924C1.29488 3.30709 1.08272 3.7671 1.0328 4.31828C0.966243 5.15126 1.12848 6.06714 1.55695 7.2068C2.2475 9.06341 3.29164 10.7957 4.8433 12.6564C6.72774 14.9026 8.99907 16.6722 11.5865 17.9196C12.5392 18.3713 13.8079 18.9018 15.1724 18.9888C15.2431 18.993 15.318 18.9971 15.3887 18.9971C16.125 18.9971 16.6949 18.7567 17.1733 18.2429C17.4329 17.9333 17.7185 17.6571 17.995 17.3898C18.0109 17.3743 18.0269 17.3589 18.0427 17.3436C18.2383 17.1571 18.4213 16.9789 18.596 16.7924C19.1035 16.2661 19.1077 15.7273 18.6085 15.23L16.1001 12.7352C15.9378 12.5611 15.6799 12.3663 15.3638 12.3663C15.1058 12.3663 14.8438 12.4948 14.6025 12.7352L13.0467 14.2851C12.976 14.3556 12.7596 14.5669 12.4268 14.5669C12.2937 14.5669 12.1606 14.5338 12.0233 14.4633C12.015 14.4592 12.0077 14.455 12.0005 14.4509C11.9932 14.4467 11.9859 14.4426 11.9776 14.4385C11.8403 14.3514 11.6864 14.2727 11.52 14.1898C11.4899 14.1745 11.4596 14.1592 11.4289 14.1438C11.2772 14.0673 11.1197 13.988 10.9709 13.8914C9.52322 12.9755 8.20868 11.7862 6.9607 10.2528C6.26599 9.38251 5.82088 8.65313 5.50057 7.88645C5.49849 7.88023 5.49641 7.87505 5.49433 7.86987C5.49225 7.86469 5.49017 7.85951 5.48809 7.85329C5.40489 7.60464 5.35081 7.27725 5.69608 6.93328L5.71688 6.91256C6.0861 6.58688 6.42331 6.24704 6.77784 5.88975C6.80677 5.86058 6.83583 5.8313 6.86502 5.80191C6.9295 5.73767 6.99398 5.6724 7.05846 5.60713C7.12294 5.54186 7.18742 5.47659 7.25189 5.41235C7.50981 5.15541 7.64293 4.89432 7.64293 4.63738C7.64293 4.38044 7.50981 4.11935 7.25189 3.86241L6.01224 2.62743C5.93996 2.55337 5.86768 2.48033 5.79591 2.4078C5.72311 2.33423 5.65083 2.26119 5.5796 2.18815C5.54198 2.15012 5.50473 2.11238 5.46776 2.07493C5.22673 1.83077 4.99759 1.59865 4.75594 1.37588C4.51882 1.13552 4.26091 1.01533 4.00715 1.01533C3.74924 1.01533 3.483 1.13552 3.24172 1.36759L1.69423 2.90924Z" fill="#0065FB"/>
</svg>
