<svg width="16" height="18" viewBox="0 0 16 18" fill="none" xmlns="http://www.w3.org/2000/svg">
<path fill-rule="evenodd" clip-rule="evenodd" d="M3.13049 4.69565C3.13049 2.10647 5.23696 0 7.82615 0C10.4153 0 12.5218 2.10647 12.5218 4.69565C12.5218 7.28483 10.4153 9.3913 7.82615 9.3913C5.23696 9.3913 3.13049 7.28483 3.13049 4.69565ZM4.17397 4.69565C4.17397 6.70946 5.81234 8.34783 7.82615 8.34783C9.83995 8.34783 11.4783 6.70946 11.4783 4.69565C11.4783 2.68184 9.83995 1.04348 7.82615 1.04348C5.81234 1.04348 4.17397 2.68184 4.17397 4.69565Z" fill="#0065FB"/>
<path fill-rule="evenodd" clip-rule="evenodd" d="M8.86957 10.1739C10.6786 10.1739 12.3828 10.9368 13.6684 12.3222C14.9477 13.7008 15.6522 15.5205 15.6522 17.4462C15.6522 17.7521 15.4186 18 15.1304 18H0.521739C0.2336 18 0 17.7521 0 17.4462C0 15.5205 0.704522 13.7008 1.98379 12.3222C3.26936 10.9368 4.97363 10.1739 6.78261 10.1739H8.86957ZM6.78261 11.2814C3.79169 11.2814 1.32783 13.7515 1.06643 16.8925H14.5857C14.3243 13.7515 11.8605 11.2814 8.86957 11.2814H6.78261Z" fill="#0065FB"/>
</svg>
