<svg width="33" height="33" viewBox="0 0 33 33" fill="none" xmlns="http://www.w3.org/2000/svg">
<path d="M30.6558 0.405667L17.4467 13.6147C16.9058 14.1556 16.0493 14.1556 15.5533 13.6147L2.3442 0.405667C1.80331 -0.135222 0.946733 -0.135222 0.450749 0.405667C-0.0901404 0.946557 -0.0901404 1.80313 0.450749 2.29912L13.6598 15.5082C14.2007 16.0491 14.2007 16.9057 13.6598 17.4016L0.405667 30.6558C-0.135222 31.1967 -0.135222 32.0533 0.405667 32.5493C0.946557 33.0901 1.80313 33.0901 2.29912 32.5493L15.5082 19.3402C16.0491 18.7993 16.9057 18.7993 17.4016 19.3402L30.6558 32.5943C31.1967 33.1352 32.0533 33.1352 32.5493 32.5943C33.0901 32.0534 33.0901 31.1969 32.5493 30.7009L19.3853 17.4467C18.8444 16.9058 18.8444 16.0493 19.3853 15.5533L32.5943 2.3442C33.1352 1.80331 33.1352 0.946733 32.5943 0.450749C32.0534 -0.0904543 31.1969 -0.0904543 30.656 0.405466L30.6558 0.405667Z" fill="#4785EE"/>
</svg>
