<svg width="24" height="24" viewBox="0 0 24 24" fill="none" xmlns="http://www.w3.org/2000/svg">
<path d="M12.003 0H11.997C5.3805 0 0 5.382 0 12C0 14.625 0.846 17.058 2.2845 19.0335L0.789 23.4915L5.4015 22.017C7.299 23.274 9.5625 24 12.003 24C18.6195 24 24 18.6165 24 12C24 5.3835 18.6195 0 12.003 0Z" fill="#4CAF50"/>
<path d="M19.7319 17.2574C19.4263 18.0607 18.2136 18.7269 17.2462 18.9214C16.5844 19.0526 15.72 19.1573 12.81 18.0342C9.08788 16.5986 6.69088 13.0775 6.50406 12.8491C6.32516 12.6206 5 10.9846 5 9.29263C5 7.60063 5.92302 6.77673 6.29508 6.423C6.60064 6.13265 7.10569 6 7.59015 6C7.74689 6 7.8878 6.00737 8.01446 6.01326C8.38651 6.028 8.57333 6.04864 8.81873 6.59544C9.1243 7.2808 9.86841 8.9728 9.95707 9.14672C10.0473 9.32063 10.1376 9.55645 10.0109 9.7849C9.89216 10.0207 9.78767 10.1254 9.60085 10.3258C9.41402 10.5263 9.2367 10.6795 9.04988 10.8947C8.8789 11.0819 8.68574 11.2824 8.90106 11.6287C9.11638 11.9677 9.86049 13.0982 10.9561 14.0061C12.3699 15.1778 13.5162 15.5522 13.9262 15.7113C14.2318 15.8293 14.5959 15.8013 14.8191 15.5802C15.1025 15.2957 15.4524 14.8241 15.8087 14.3598C16.062 14.0267 16.3818 13.9854 16.7174 14.1034C17.0594 14.2139 18.869 15.0466 19.2411 15.2191C19.6131 15.393 19.8585 15.4755 19.9488 15.6214C20.0374 15.7674 20.0374 16.4527 19.7319 17.2574Z" fill="#FAFAFA"/>
</svg>
