<?xml version="1.0" encoding="utf-8"?><svg viewBox="0 0 178 42" xmlns="http://www.w3.org/2000/svg" xmlns:xlink="http://www.w3.org/1999/xlink"><style>:root>svg{display:none}:root>svg:target{display:block}</style><svg fill="none" viewBox="0 0 40 31" id="comfort-delivery-truck" xmlns="http://www.w3.org/2000/svg"><path fill-rule="evenodd" clip-rule="evenodd" d="M1 19.5l1-1v-6h4.5v-6H9l3.5-.5 2.5.5V12l.5.5h4L20 10l.5-2.5H22l1 1h7.5L33 16l3.5 2.5 1.5 1v6l1.5.5v1.5H35l-.5 1.5-1.5.5-1.5.5-2-.5-1-1-1.5-1H12.5l-1 .5-1 1-2 1L6 29l-1.5-1-1-.5H1v-8z" fill="#4785EE" fill-opacity=".3"/><path fill-rule="evenodd" clip-rule="evenodd" d="M39.355 24.516h-.645V18.71a.645.645 0 00-.323-.56l-4.302-2.46-2.505-7.507a.645.645 0 00-.612-.441h-7.742v-.645a.645.645 0 00-.645-.645H20a.645.645 0 00-.645.645v4.516h-3.226V5.806a.645.645 0 00-.645-.645H6.452a.645.645 0 00-.646.645v5.807h-3.87a.645.645 0 00-.646.645v5.806H.645A.645.645 0 000 18.71v9.032c0 .356.289.645.645.645h3.668a4.506 4.506 0 008.148 0H27.54a4.506 4.506 0 008.148 0h3.668a.645.645 0 00.645-.645v-2.58a.645.645 0 00-.645-.646zm-3.226-5.161h1.29v1.29h-1.29v-1.29zm-10.322-3.871h6.846l-1.29-3.871h-5.556v3.87zm4.696-6.452l.43 1.29H25.16a.645.645 0 00-.645.646v5.161c0 .356.289.645.645.645h8.216l2.258 1.29h-.151a.645.645 0 00-.645.646v2.58c0 .357.289.645.645.645h1.935v2.581h-1.732a4.507 4.507 0 00-8.148 0h-4.313V9.032h7.277zm-8.567 15.484V7.742h-1.29v16.774h1.29zm-2.581-6.451h-7.742v-5.162h1.935v1.936c0 .356.29.645.646.645h2.58a.645.645 0 00.645-.645v-1.936h1.936v5.161zm-3.226-5.162h-1.29v1.29h1.29v-1.29zm-5.806-6.451h1.29v1.29h-1.29v-1.29zm-1.29 0H7.096v5.16h7.742v-5.16h-1.936v1.935a.645.645 0 01-.645.645h-2.58a.645.645 0 01-.646-.645V6.452zm-1.936 6.451v1.29h-1.29v-1.29h1.29zm-2.58 0H2.58v5.161h7.742v-5.16H8.387v1.935a.645.645 0 01-.645.645h-2.58a.645.645 0 01-.646-.645v-1.936zm14.838 6.452v5.161H12.46a4.507 4.507 0 00-8.148 0H1.29v-5.161h18.065zM1.29 25.806v1.29h2.633a4.058 4.058 0 010-1.29H1.29zm7.097 3.871a3.226 3.226 0 110-6.451 3.226 3.226 0 010 6.451zm4.465-3.87c.068.427.068.862 0 1.29h14.296a4.059 4.059 0 010-1.29H12.852zm18.76 3.87a3.226 3.226 0 110-6.451 3.226 3.226 0 010 6.451zm4.465-2.58h2.633v-1.29h-2.633c.07.427.07.862 0 1.29z" fill="#4785EE"/><path fill-rule="evenodd" clip-rule="evenodd" d="M6.452 26.452a1.936 1.936 0 113.87 0 1.936 1.936 0 01-3.87 0zm1.29 0a.645.645 0 101.29 0 .645.645 0 00-1.29 0zM29.677 26.452a1.935 1.935 0 113.871 0 1.935 1.935 0 01-3.87 0zm1.29 0a.645.645 0 101.291 0 .645.645 0 00-1.29 0z" fill="#4785EE"/><path d="M10.968 2.58H22.58v1.291H10.968v-1.29zM23.871 2.58h1.29v1.291h-1.29v-1.29zM7.097 0H20v1.29H7.097V0z" fill="#4785EE"/></svg><svg fill="none" viewBox="0 0 30 30" id="comfort-document" xmlns="http://www.w3.org/2000/svg"><path fill-rule="evenodd" clip-rule="evenodd" d="M.5 19v-7.5l.5-5L4 3 7 .5h14s.346-.269.5.5l.5 2.5V28l-.5 1-1 .5H1l-.5-1V19zM24.5 10v15l1.5 4.5 1-4.5V8l-.5-1h-1v.5H25l-.5.5v2z" fill="#4785EE" fill-opacity=".3"/><circle cx="5.026" cy="15.219" r=".64" fill="#4785EE"/><circle cx="5.026" cy="18.379" r=".64" fill="#4785EE"/><circle cx="5.026" cy="21.539" r=".64" fill="#4785EE"/><path fill-rule="evenodd" clip-rule="evenodd" d="M7.394 0h13.272c.968 0 1.756.788 1.756 1.757v26.486c0 .969-.788 1.757-1.756 1.757H1.756A1.759 1.759 0 010 28.243V15.671a.443.443 0 01.886 0v12.572c0 .48.39.87.87.87h18.91c.48 0 .87-.39.87-.87V1.757c0-.48-.39-.87-.87-.87H7.394c-.047 0-.094.002-.14.005v4.212a1.823 1.823 0 01-1.821 1.822H.893a1.738 1.738 0 00-.007.14v6.832a.443.443 0 01-.886 0V7.065a2.584 2.584 0 01.773-1.85L5.56.756A2.584 2.584 0 017.394 0zM5.433 6.04c.515 0 .935-.42.935-.936V1.227a1.741 1.741 0 00-.198.172L1.383 5.86a1.741 1.741 0 00-.156.18h4.206z" fill="#4785EE"/><path d="M18.037 14.776H7.757a.443.443 0 000 .886h10.28a.443.443 0 000-.886zM18.037 17.936H7.757a.443.443 0 000 .886h10.28a.443.443 0 000-.886zM18.037 21.096H7.757a.443.443 0 000 .886h10.28a.443.443 0 000-.886zM9.889 10.38H4.644a.443.443 0 000 .887h5.245a.443.443 0 000-.887z" fill="#4785EE"/><path fill-rule="evenodd" clip-rule="evenodd" d="M29.02 9.325h-1.363V8.258c0-1.015-.826-1.84-1.84-1.84-1.016 0-1.842.825-1.842 1.84v5.982a.443.443 0 00.886 0v-4.03h1.91v13.998h-1.91v-8.195a.443.443 0 00-.886 0v8.647a.338.338 0 00.008.069.65.65 0 00.005.025v.004l.002.006 1.267 4.813a.582.582 0 001.117 0l1.268-4.813v-.002l.003-.008a.41.41 0 00.012-.094V10.211h.92v6.396a.443.443 0 00.886 0v-6.84a.443.443 0 00-.443-.442zm-4.159 0V8.258a.956.956 0 011.91 0v1.067h-1.91zm.132 15.769l.823 3.125.823-3.125h-1.646z" fill="#4785EE"/></svg><svg fill="none" viewBox="0 0 31 30" id="comfort-manager" xmlns="http://www.w3.org/2000/svg"><path fill-rule="evenodd" clip-rule="evenodd" d="M9.5 13.5l-.5-3L8.5 9 8 6l1-3.5L11 1l4.5-.5 3 .5h1l1 1.5 1 1L22 5v3l-.5 2.5-1 2-1 3-1 2.5.5 1.5 8 2.5 2 3 .5 4-8 .5H2l-1.5-1 .5-3L2 23l2-1.5 3-1 3-1 1-.5 1-1.5-1.5-1.5-1-2.5z" fill="#4785EE" fill-opacity=".3"/><path d="M14.192 22.23a.51.51 0 00-.712.109l-.063.085a.51.51 0 00.82.605l.064-.087a.51.51 0 00-.109-.712z" fill="#4785EE"/><path d="M14.325 27.075l-1.31-2.382 1.223-1.665a.51.51 0 10-.82-.603l-1.416 1.928a.51.51 0 00-.036.546l1.467 2.667a.509.509 0 10.892-.491zM18.12 24.353l-1.409-1.92a.508.508 0 10-.82.603l1.216 1.657-1.3 2.366a.51.51 0 00.892.491l1.457-2.65a.51.51 0 00-.035-.547z" fill="#4785EE"/><path fill-rule="evenodd" clip-rule="evenodd" d="M18.402 16.38a.51.51 0 01.798.42v1.821a.51.51 0 01-.238.431L15.36 21.46l-.006.005-.006.003a.493.493 0 01-.287.088.509.509 0 01-.281-.084l-.01-.007-.001-.001-3.611-2.413a.51.51 0 01-.235-.429v-1.747a.51.51 0 01.794-.422c.161.109.323.227.481.351 1.034.812 2.01 1.307 2.552 1.293a.498.498 0 01.093.006c.05.007 1.353.175 2.723-1.064.252-.227.533-.449.836-.657zm-3.34 4.053l3.12-2.084v-.495c-1.58 1.386-3.14 1.294-3.447 1.26h-.006c-.91 0-2.028-.677-2.788-1.229v.463l3.12 2.085z" fill="#4785EE"/><path d="M15.564 20.962a.51.51 0 00-.913-.217l-1.17 1.594a.51.51 0 00.82.603l1.165-1.586a.509.509 0 00.098-.394z" fill="#4785EE"/><path fill-rule="evenodd" clip-rule="evenodd" d="M20.95 2.063c1.622.68 1.86 2.401 1.87 2.48a.513.513 0 01.004.065V8.26c0 .424-.12.841-.349 1.207-.655 1.052-.859 2.365-.86 2.379a.51.51 0 01-1.014-.076V7.572a2.165 2.165 0 00-1.42-1.638l-2.367-.831a1.476 1.476 0 00-1.013.013c-.486.184-1.153.432-1.573.567-.245.078-.5.118-.76.118h-2.211c-.204.038-1.384.316-1.73 1.746v3.497a.51.51 0 01-1.017.029c-.04-.705-.304-1.171-.519-1.438a3.073 3.073 0 01-.67-1.919V5.034A5.04 5.04 0 0112.355 0h6.835c.033 0 .065.003.097.01.747.144 1.256.476 1.514.984.192.378.197.767.15 1.069zm.67 6.85c.121-.201.186-.427.186-.654V4.647c-.035-.202-.3-1.445-1.596-1.757a.51.51 0 01-.342-.712s.181-.421.023-.727c-.13-.25-.471-.372-.752-.432h-6.784a4.02 4.02 0 00-4.016 4.015v2.682c0 .285.059.565.17.821V7.49a.51.51 0 01.012-.111 3.242 3.242 0 012.629-2.591.518.518 0 01.065-.004h2.252c.155 0 .306-.024.45-.07.316-.101.842-.291 1.522-.55a2.49 2.49 0 011.712-.021l2.37.832.007.002a3.175 3.175 0 012.089 2.507.505.505 0 01.003.055v1.375z" fill="#4785EE"/><path fill-rule="evenodd" clip-rule="evenodd" d="M19.529 4.976a3.174 3.174 0 012.088 2.507.564.564 0 01.003.055v4.231c0 .015 0 .03-.002.046-.301 3.361-1.735 4.796-2.563 5.352l-.033.023-.004.003-.038.026a7.098 7.098 0 00-.73.574c-1.302 1.177-2.602 1.337-3.21 1.337-.142 0-.246-.009-.305-.015h-.006c-1.074 0-2.437-.943-3.16-1.51a7.368 7.368 0 00-.455-.332l-.013-.009C8.62 15.622 8.512 12.03 8.51 11.878V7.49a.51.51 0 01.012-.111 3.242 3.242 0 012.629-2.591.518.518 0 01.065-.005h2.252c.155 0 .306-.023.45-.069.316-.101.842-.291 1.522-.55a2.498 2.498 0 011.712-.021l2.37.832.008.002zm-1.041 11.345c.543-.365 1.836-1.541 2.113-4.575V7.572a2.165 2.165 0 00-1.42-1.638l-2.367-.831a1.476 1.476 0 00-1.013.012c-.486.185-1.153.433-1.573.568-.245.078-.5.118-.76.118h-2.212c-.194.036-1.381.31-1.729 1.746v4.313c.005.129.136 3.23 2.138 4.556l.04.027.012.009c.161.109.323.227.481.351 1.034.812 2.01 1.307 2.552 1.293.03-.001.06 0 .09.005.063.01 1.36.171 2.726-1.063.252-.228.533-.449.836-.657l.028-.02.058-.04z" fill="#4785EE"/><path d="M15.517 20.819a.51.51 0 00-.866-.074l-1.22 1.661a.51.51 0 00.82.604l1.22-1.655a.527.527 0 00.046-.537zM15.55 29.018a.51.51 0 00-.712-.023l-.117.106a.51.51 0 00-.1.624l.003.007a.509.509 0 00.805.111l.112-.113a.51.51 0 00.008-.712z" fill="#4785EE"/><path d="M15.401 29.101l-.116-.106a.51.51 0 00-.704.736l.113.113a.51.51 0 00.806-.116l.004-.006a.51.51 0 00-.103-.62z" fill="#4785EE"/><path d="M15.41 29.11v-.002a.51.51 0 00-.696 0l-.001.001a.51.51 0 00-.016.737l.005.006a.507.507 0 00.72-.001l.005-.005a.509.509 0 00-.017-.737zM15.226 20.553a.511.511 0 00-.515.845.508.508 0 00.655.057.509.509 0 00.216-.416v-.002a.509.509 0 00-.356-.484z" fill="#4785EE"/><path d="M15.475 20.74l-.004-.005a.51.51 0 00-.92.302v.009a.51.51 0 00.796.422.51.51 0 00.128-.728z" fill="#4785EE"/><path fill-rule="evenodd" clip-rule="evenodd" d="M20.815 18.841a.51.51 0 01.275.725L18.156 24.9a.51.51 0 01-.856.056l-2.65-3.607a.509.509 0 01.13-.727l.29.419-.284-.423.004-.002 3.618-2.418a.509.509 0 01.455-.055l1.952.7zm-5.028 2.333l1.861 2.535 2.261-4.11-1.149-.412-2.973 1.987z" fill="#4785EE"/><path fill-rule="evenodd" clip-rule="evenodd" d="M15.345 20.623a.51.51 0 01.127.724l-1.23 1.676-.004.005-1.415 1.927a.51.51 0 01-.857-.056l-2.933-5.333a.51.51 0 01.274-.724l1.953-.7a.51.51 0 01.455.056l3.63 2.425zm-1.931 1.806l.003-.004.919-1.251-2.974-1.987-1.15.412 2.262 4.11.94-1.28zM29.44 23.867l.657 3.968A1.858 1.858 0 0128.261 30H15.073a.51.51 0 01-.447-.265l-.004-.007a.51.51 0 01.086-.605l.113-.113a.608.608 0 01.017-.015l5.465-5-.534-1.02a.51.51 0 01.444-.745l1.302-.02-1.327-2.662a.51.51 0 01.629-.706l6.356 2.3a3.512 3.512 0 012.267 2.725zm-1.179 5.114a.841.841 0 00.832-.98l-.657-3.967a2.492 2.492 0 00-1.61-1.935l-5.159-1.866 1.12 2.246a.51.51 0 01-.447.736l-1.285.02.333.635a.509.509 0 01-.108.612l-4.919 4.5h11.9z" fill="#4785EE"/><path d="M15.414 29.113l-.006-.005a.51.51 0 00-.703.018l-.005.006a.51.51 0 00.361.868h.011a.51.51 0 00.342-.887z" fill="#4785EE"/><path d="M15.398 29.098a.508.508 0 00-.787.134l-.004.006a.51.51 0 00.081.6l.002.001a.508.508 0 00.709.022l.005-.004a.51.51 0 00-.006-.759z" fill="#4785EE"/><path fill-rule="evenodd" clip-rule="evenodd" d="M15.418 29.127l.002.003a.509.509 0 01-.359.87h-13.2a1.858 1.858 0 01-1.836-2.165l.657-3.968a3.512 3.512 0 012.268-2.725l6.356-2.3a.509.509 0 01.629.706L8.608 22.21l1.302.02a.51.51 0 01.443.745l-.534 1.02 5.466 5 .016.015.113.113.004.004zm-14.2-.443c.161.189.395.297.643.297h11.9l-4.919-4.5a.51.51 0 01-.107-.611l.332-.635-1.284-.02a.51.51 0 01-.448-.736l1.12-2.246-5.159 1.866a2.492 2.492 0 00-1.609 1.935L1.03 28a.842.842 0 00.189.683z" fill="#4785EE"/><path fill-rule="evenodd" clip-rule="evenodd" d="M16.711 22.433a.51.51 0 01.008.593l-.513.735.55 3.463a.51.51 0 01-.057.326l-1.192 2.166a.509.509 0 01-.892 0l-1.182-2.15a.509.509 0 01-.057-.325l.552-3.48-.518-.744a.51.51 0 01.008-.594l1.217-1.65a.508.508 0 01.837-.028l1.24 1.688zm-2.302 4.795l.652 1.185.661-1.201-.554-3.494a.51.51 0 01.085-.37l.422-.606-.612-.833-.609.826.427.613a.51.51 0 01.085.37l-.557 3.51z" fill="#4785EE"/></svg><svg fill="none" viewBox="0 0 30 28" id="comfort-package" xmlns="http://www.w3.org/2000/svg"><path fill-rule="evenodd" clip-rule="evenodd" d="M4 10V3.5l1.5-3H28l1 3 .5 3.5v16l-.5 1h-5l-4.5.5-1 1-1 1-4-1.5-2.5-1H6l-1.5-.5L4 22l-.5-1.5-2.5-1-.5-.5 2-4.5 1-2.5H4v-2z" fill="#4785EE" fill-opacity=".3"/><path fill-rule="evenodd" clip-rule="evenodd" d="M30 3.706v19.65c0 .78-.634 1.414-1.414 1.414h-8.117a1.527 1.527 0 01-.662.546 1.59 1.59 0 01-.855.113 1.544 1.544 0 01-2.114 1.592l-5.519-2.25H4.847c-.78 0-1.415-.635-1.415-1.415v-1.084a.428.428 0 11.857 0v1.084c0 .308.25.558.558.558h4.371l-.597-.244a5.567 5.567 0 01-2.235-1.667 4.514 4.514 0 00-.51-.542 4.706 4.706 0 00-1.38-.869h-.001l-.53-.216-.022.051a.854.854 0 01-1.111.468L.53 19.957a.854.854 0 01-.468-1.112l2.814-6.9a.847.847 0 01.459-.464.847.847 0 01.652-.004l2.301.939a.847.847 0 01.464.459c.089.21.09.441.004.652l-.088.215.07.028a.31.31 0 00.037.009h.005l.007.002.01.001h.003c.243.034 1.12.023 4.24-.552l.163-.03.421-.079.071-.013.25-.048.324-.063a197.393 197.393 0 004.887-1.024l.006-.002c.429-.09.86.025 1.184.278.217.17.385.403.47.679a1.407 1.407 0 01-.927 1.755l-3.104.96 6.668 2.72a1.53 1.53 0 01.839.83c.159.378.161.797.006 1.178a1.536 1.536 0 01-.417.583l.004.003.004.002c.032.019.063.038.093.058l.011.008.005.004c.03.02.06.042.089.066l.003.002c.029.023.057.048.084.074l.015.014c.026.025.052.051.076.078l.013.016c.025.028.048.056.07.086l.002.002c.023.03.044.06.064.093l.011.018c.02.03.038.062.055.095l.01.019a1.53 1.53 0 01.056 1.284 1.544 1.544 0 01-1.822.908c.003.039.005.077.005.115v.01l.001.005h7.855c.307 0 .557-.25.557-.558V4.142h-9.08v6.511a.65.65 0 01-1.078.486l-2.269-2.01-2.269 2.01a.649.649 0 01-1.078-.486v-6.51H4.29v5.864a.428.428 0 11-.857 0V3.702l.003-.038.002-.01V3.65a.43.43 0 01.007-.034l.004-.014a.42.42 0 01.011-.036l.002-.004v-.003L4.655.506A.791.791 0 015.395 0h17.331a.428.428 0 110 .857h-3.313l.562 2.428h8.97l-.95-2.428h-2.129a.428.428 0 110-.857h2.171c.33 0 .621.199.741.506l1.193 3.052a.453.453 0 01.014.043l.003.014a.434.434 0 01.007.034l.002.015a.45.45 0 01.002.038v.004zM18.534.856h-3.636l-.562 2.43h4.76l-.562-2.43zm-5.077 2.43h-8.97l.95-2.43h8.582l-.562 2.43zm5.75 6.904V4.142h-4.98v6.048l2.06-1.825a.647.647 0 01.859 0l2.06 1.825zM3.15 20.1l-2.293-.935 2.81-6.893 2.294.936-2.81 6.892zm16.623 2.385l.492.2.595.243a.689.689 0 00.699-.11l.005-.005a.671.671 0 00.21-.325.679.679 0 00-.277-.765.689.689 0 00-.12-.063l-6.209-2.531a.429.429 0 01.324-.794l5.12 2.088a.294.294 0 00.019.007l.01.003a.41.41 0 01.036.013l.036.009.01.002.02.005.047.007a.337.337 0 01.018.002l.063.003h.004a.685.685 0 00.254-1.319l-7.775-3.17a.429.429 0 01.035-.806l4.247-1.315a.548.548 0 00.361-.685.563.563 0 00-.631-.374l-.025.004c-.107.024-2.497.56-4.973 1.042l-.26.05-.085.017-.165.031-.108.02-.133.026-.123.023-.107.02-.136.025-.071.013c-.961.177-1.785.314-2.456.409-.987.14-1.537.174-1.87.159-.267-.01-.366-.05-.435-.079l-.074-.03-1 2.452-1.058 2.595.531.217a5.566 5.566 0 012.236 1.668 4.691 4.691 0 001.89 1.41l2.62 1.069h.001l5.596 2.281a.685.685 0 10.51-1.27l-.006-.003-.013-.005-4.165-1.698a.429.429 0 01.324-.793l4.165 1.698.012.006.006.002a.2.2 0 01.007.002l.907.37c.177.072.38.07.558-.007a.666.666 0 00.352-.347c0-.002 0-.003.002-.005l.01-.024a.411.411 0 00.011-.034l.003-.01a.347.347 0 00.007-.02l.006-.025.001-.01.007-.031.004-.035.001-.01.002-.021v-.018l.001-.016v-.01-.022l-.002-.033-.003-.032c-.001-.011-.004-.022-.006-.032l-.001-.01-.004-.022a.377.377 0 00-.006-.022l-.003-.01a.21.21 0 01-.002-.008l-.007-.023-.011-.03-.012-.03a.394.394 0 00-.015-.03l-.004-.01-.01-.018a.392.392 0 00-.012-.022l-.006-.008a.696.696 0 01-.005-.009l-.01-.017a.472.472 0 00-.017-.021l-.005-.008a.627.627 0 01-.006-.008l-.011-.015a.51.51 0 00-.026-.028l-.007-.008-.011-.012-.03-.027-.008-.007a.24.24 0 00-.04-.032l-.006-.004a.3.3 0 01-.019-.014.676.676 0 00-.04-.024h-.001l-.016-.01a.677.677 0 00-.063-.03l-5.12-2.087a.428.428 0 01.323-.794l5.12 2.088h.002z" fill="#4785EE"/></svg><svg fill="none" viewBox="0 0 25 30" id="comfort-shield" xmlns="http://www.w3.org/2000/svg"><path fill-rule="evenodd" clip-rule="evenodd" d="M.5 13.5V5h3l2-.5L8 4l2-1.5L12 1l2 1.5 2 1 2 1 2 .5 2.5.5h1V17L22 20l-2 3-1 1.5-2.5 2-2 1.5-2.5 1.5-3-2L7 26l-1.5-1.5-2-2-1-2-1-2.5-.5-2-.5-2.5z" fill="#4785EE" fill-opacity=".3"/><path fill-rule="evenodd" clip-rule="evenodd" d="M11.905 29.96a.426.426 0 00.362 0 22.87 22.87 0 008.72-6.84c.1-.136.2-.273.286-.402a16.439 16.439 0 001.72-3.078c.184-.428.346-.865.485-1.31a14.16 14.16 0 00.632-3.086c.042-.427.063-.856.061-1.285V4.913a.429.429 0 00-.464-.429c-4.776.402-8.473-1.019-11.296-4.333A.428.428 0 0011.76.15C8.875 3.518 5.18 4.936.47 4.485a.429.429 0 00-.47.427v9.047c0 6.55 4.45 12.531 11.905 16.001zM.857 13.96V5.377c4.615.331 8.296-1.079 11.229-4.3 2.874 3.17 6.557 4.58 11.228 4.295v8.587c.002.402-.018.804-.058 1.204-.09.99-.289 1.966-.595 2.912-.131.418-.284.83-.458 1.233a15.6 15.6 0 01-1.638 2.931 7.22 7.22 0 01-.273.381 21.916 21.916 0 01-8.206 6.48C5.05 25.761.857 20.114.857 13.959z" fill="#4785EE"/><path d="M21.099 15.63a.429.429 0 01-.426-.482c.048-.395.071-.792.07-1.19a.429.429 0 11.857-.004v.005c.002.433-.024.866-.076 1.296a.429.429 0 01-.425.375zM19.77 19.903a.429.429 0 01-.38-.628c.212-.398.4-.808.563-1.228a.429.429 0 11.8.309c-.176.45-.378.89-.604 1.318a.428.428 0 01-.38.229z" fill="#4785EE"/><path d="M12.086 27.133a.431.431 0 01-.2-.05c-5.832-3.071-9.315-7.978-9.315-13.124V7.547c0-.229.18-.417.408-.428a14.455 14.455 0 008.829-3.402.429.429 0 01.552 0 14.65 14.65 0 008.833 3.377c.228.012.406.2.406.428v3.433a.429.429 0 01-.857 0V7.923A15.437 15.437 0 0112.086 4.6a15.24 15.24 0 01-8.657 3.35v6.009c0 4.836 3.151 9.294 8.657 12.26a19.341 19.341 0 005.248-4.032.428.428 0 11.637.574 20.303 20.303 0 01-5.686 4.323.431.431 0 01-.2.049z" fill="#4785EE"/></svg><svg fill="none" viewBox="0 0 28 30" id="comfort-wedding-cost" xmlns="http://www.w3.org/2000/svg"><path fill-rule="evenodd" clip-rule="evenodd" d="M.5.5H17l.5.5v12h8l1 .5v15l-1 1H1l-.5-1V.5z" fill="#4785EE" fill-opacity=".3"/><path fill-rule="evenodd" clip-rule="evenodd" d="M.44 26.303a.438.438 0 00.439-.439V.88H17.2v1.267a.44.44 0 10.878 0V.44a.441.441 0 00-.44-.44H.44A.44.44 0 000 .44v25.424a.44.44 0 00.44.439zM13.063 3.45a3.132 3.132 0 00-2.22-.92c-.671 0-1.294.21-1.804.57a3.141 3.141 0 00-.698-.368 3.132 3.132 0 00-3.325.718 3.125 3.125 0 00-.92 2.22c0 .87.35 1.653.92 2.223a3.13 3.13 0 003.329.716c.249-.093.481-.218.694-.366.51.36 1.133.568 1.804.568a3.136 3.136 0 003.14-3.14c0-.868-.352-1.653-.92-2.221zM.44 30a.44.44 0 01-.44-.439v-1.707a.44.44 0 01.879 0v1.267h12.166a1.855 1.855 0 01-.28-.981V14.266c0-.513.209-.978.546-1.316a1.854 1.854 0 011.314-.546H17.2V4.137a.438.438 0 11.878 0v8.267h7.455c.513 0 .978.21 1.315.546.337.338.547.803.547 1.316V28.14c0 .511-.21.976-.547 1.313a1.855 1.855 0 01-1.315.547H.44zm14.427-4.372h2.337a.44.44 0 01.44.439v1.732a.44.44 0 01-.44.44h-2.337a.44.44 0 01-.44-.44v-1.732a.44.44 0 01.44-.439zm.439.88h1.46v.853h-1.46v-.854zm7.648-.88h2.339c.242 0 .438.196.438.439v1.732a.44.44 0 01-.438.44h-2.339a.44.44 0 01-.438-.44v-1.732c0-.243.196-.439.438-.439zm.44.88h1.459v.853h-1.459v-.854zm-4.482-.88h2.337c.242 0 .438.196.438.439v1.732a.44.44 0 01-.438.44h-2.337a.44.44 0 01-.44-.44v-1.732c0-.243.195-.439.44-.439zm.438.88h1.458v.853H19.35v-.854zm-4.483-4.318h2.337a.44.44 0 01.44.439v1.732a.44.44 0 01-.44.44h-2.337a.44.44 0 01-.44-.44V22.63a.44.44 0 01.44-.439zm.439.879h1.46v.852h-1.46v-.852zm7.648-.879h2.339c.242 0 .438.196.438.439v1.732a.44.44 0 01-.438.44h-2.339a.44.44 0 01-.438-.44V22.63c0-.243.196-.439.438-.439zm.44.879h1.459v.852h-1.459v-.852zm-4.482-.879h2.337c.242 0 .438.196.438.439v1.732a.44.44 0 01-.438.44h-2.337a.44.44 0 01-.44-.44V22.63c0-.243.195-.439.44-.439zm.438.879h1.458v.852H19.35v-.852zm-4.483-4.317h2.337a.44.44 0 01.44.439v1.732a.44.44 0 01-.44.44h-2.337a.44.44 0 01-.44-.44V19.19a.44.44 0 01.44-.439zm.439.879h1.46v.852h-1.46v-.852zm7.648-.879h2.339c.242 0 .438.196.438.439v1.732a.44.44 0 01-.438.44h-2.339a.44.44 0 01-.438-.44V19.19c0-.243.196-.439.438-.439zm.44.879h1.459v.852h-1.459v-.852zm-4.482-.879h2.337c.242 0 .438.196.438.439v1.732a.44.44 0 01-.438.44h-2.337a.44.44 0 01-.44-.44V19.19c0-.243.195-.439.44-.439zm.438.879h1.458v.852H19.35v-.852zm-.266-2.586a.44.44 0 110 .879h-4.217a.44.44 0 01-.44-.44v-2.918a.44.44 0 01.44-.438h10.426c.242 0 .438.196.438.438v2.919a.438.438 0 01-.438.438h-4.219a.44.44 0 010-.879h3.779v-2.037h-9.547v2.038h3.778zM7.132 24.753c0 .243.198.44.44.44h3.64a.44.44 0 100-.878h-3.64a.44.44 0 00-.44.438zm.44-3.541a.44.44 0 110-.879h3.64a.438.438 0 110 .879h-3.64zm-.44-4.422c0 .243.198.44.44.44h3.64a.44.44 0 100-.878h-3.64a.44.44 0 00-.44.438zm.44-3.54a.44.44 0 010-.881h3.64a.44.44 0 110 .88h-3.64zM2.33 24.441a.44.44 0 000 .622l.939.938c.17.173.45.173.621 0l1.877-1.877a.44.44 0 00-.621-.62L3.579 25.07l-.627-.628a.44.44 0 00-.622 0zm0-3.36a.44.44 0 01.622-.62l.627.627 1.567-1.566a.44.44 0 01.62.621L3.89 22.021a.437.437 0 01-.621 0l-.939-.939zm0-4.602a.44.44 0 000 .621l.939.939c.17.172.45.172.621 0l1.877-1.877a.44.44 0 00-.621-.622l-1.567 1.567-.627-.628a.44.44 0 00-.622 0zm0-3.36a.44.44 0 01.622-.621l.627.627 1.567-1.566a.44.44 0 01.62.621L3.89 14.058a.44.44 0 01-.621 0l-.939-.938zm6.051-5.498a3.127 3.127 0 01-.68-1.952c0-.737.255-1.415.682-1.951a2.24 2.24 0 00-1.146-.31c-.625 0-1.191.253-1.6.662-.41.41-.662.975-.662 1.6 0 .624.252 1.19.662 1.599.409.41.975.663 1.6.663a2.224 2.224 0 001.144-.31zm2.462-4.214c.624 0 1.19.254 1.6.663.41.41.662.975.662 1.6a2.25 2.25 0 01-.663 1.599 2.25 2.25 0 01-1.6.663 2.25 2.25 0 01-1.599-.663 2.257 2.257 0 010-3.199 2.257 2.257 0 011.6-.663zm3.782 25.713h10.909c.27 0 .515-.11.694-.289a.98.98 0 00.29-.692V14.266a.984.984 0 00-.983-.983h-10.91a.98.98 0 00-.693.289.974.974 0 00-.289.694V28.14c0 .269.11.515.29.692.177.18.423.29.692.29z" fill="#4785EE"/></svg><svg fill="none" viewBox="0 0 15 11" id="document-check" xmlns="http://www.w3.org/2000/svg"><path d="M14.56 2.563l-7.912 7.912a1.502 1.502 0 01-2.124 0L.44 6.39a1.501 1.501 0 012.122-2.123L5.586 7.29 12.437.44a1.501 1.501 0 012.124 2.123z" fill="#4785EE"/></svg><svg fill="none" viewBox="0 0 175 42" id="footer-logo" xmlns="http://www.w3.org/2000/svg"><path d="M130.554 10.918l1.551-1.961h-.87l-1.469 1.928V8.957h-.755v3.939h.755V10.95l1.494 1.945h.878l-1.584-1.978zM135.441 10.844c.435-.123.722-.435.722-.902 0-.755-.681-.985-1.313-.985h-1.912v3.939h2.101c.763 0 1.305-.394 1.305-1.108 0-.525-.353-.862-.903-.936v-.008zm-.599-1.272c.443 0 .616.222.616.485 0 .254-.222.541-.624.541h-1.149V9.572h1.157zm-1.157 2.7v-1.124h1.247c.419 0 .682.254.682.574 0 .329-.197.55-.616.55h-1.313zM140.449 9.58a1.91 1.91 0 00-1.494-.722c-.558 0-1.018.197-1.379.591-.361.394-.541.886-.541 1.477 0 .591.18 1.084.541 1.478.361.393.821.59 1.379.59.615 0 1.157-.287 1.494-.722l.582.673h.017V8.908h-.017l-.582.673zm-1.404 2.725c-.369 0-.673-.131-.911-.394-.229-.262-.344-.59-.344-.985 0-.393.115-.722.344-.984.238-.263.542-.394.911-.394.361 0 .665.123.911.377.246.255.369.558.369.927V11c0 .37-.123.673-.369.928-.246.254-.55.377-.911.377zM144.415 8.858c-.632 0-1.19.296-1.567.772l-.509-.673h-.016v5.826h.755V12.93l-.017-.566h.025c.263.352.738.631 1.329.631.55 0 1.01-.197 1.371-.599.361-.402.541-.886.541-1.469 0-.59-.18-1.083-.541-1.477-.361-.394-.821-.59-1.371-.59zm-.098 3.447c-.361 0-.665-.123-.911-.377a1.276 1.276 0 01-.369-.928v-.148c0-.369.123-.672.369-.927.246-.254.55-.377.911-.377.763 0 1.255.607 1.255 1.378 0 .394-.114.723-.352.985-.23.263-.534.394-.903.394zM146.8 8.957v.673h1.289v3.266h.763V9.63h1.297v-.673H146.8zM150.994 12.978l2.831-2.659h.017l-.009 2.577h.706V8.875h-.008l-2.831 2.65h-.017l.008-2.576h-.705v4.029h.008zM157.911 8.858c-.632 0-1.19.296-1.567.772l-.509-.673h-.017v5.826h.755V12.93l-.016-.566h.025c.262.352.738.631 1.329.631.55 0 1.009-.197 1.37-.599.362-.402.542-.886.542-1.469 0-.59-.18-1.083-.542-1.477-.361-.394-.82-.59-1.37-.59zm-.098 3.447c-.362 0-.665-.123-.911-.377a1.272 1.272 0 01-.37-.928v-.148c0-.369.123-.672.37-.927.246-.254.549-.377.911-.377.763 0 1.255.607 1.255 1.378 0 .394-.115.723-.353.985-.23.263-.533.394-.902.394zM163.601 10.598h-2.027V8.957h-.755v3.939h.755v-1.641h2.027v1.64h.763V8.958h-.763v1.641zM166.399 10.549V8.957h-.755v3.939h1.928c.845 0 1.387-.394 1.387-1.174 0-.787-.542-1.173-1.387-1.173h-1.173zm3.143 2.347h.763v-3.94h-.763v3.94zm-3.143-.624v-1.108h1.181c.427 0 .632.206.632.558 0 .337-.205.55-.64.55h-1.173zM174.971 11.18c.091-.746-.032-1.32-.361-1.723-.32-.402-.779-.599-1.37-.599-.591 0-1.067.197-1.42.583-.353.386-.525.878-.525 1.494 0 .64.189 1.14.566 1.51.386.369.895.55 1.543.55.542 0 .993-.124 1.346-.362v-.689a2.303 2.303 0 01-1.305.394c-.845 0-1.329-.435-1.37-1.157h2.896zm-1.731-1.723c.624 0 1.042.427 1.067 1.174h-2.241c.041-.698.493-1.174 1.174-1.174zM129.011 18.922v3.939h.755v-3.29h1.822v3.29h.763v-3.94h-3.34zM137.033 21.146c.09-.747-.033-1.322-.361-1.724-.32-.402-.78-.599-1.371-.599-.59 0-1.066.197-1.419.583-.353.386-.526.878-.526 1.494 0 .64.189 1.14.567 1.51.385.369.894.55 1.543.55.541 0 .992-.124 1.345-.362v-.69a2.3 2.3 0 01-1.304.395c-.846 0-1.33-.435-1.371-1.157h2.897zm-1.732-1.724c.624 0 1.043.427 1.067 1.174h-2.24c.041-.698.492-1.174 1.173-1.174zM140.152 18.823c-.632 0-1.19.296-1.568.772l-.508-.673h-.017v5.826h.755v-1.854l-.016-.567h.024c.263.353.739.632 1.33.632.55 0 1.009-.197 1.37-.599.361-.402.542-.886.542-1.469 0-.59-.181-1.083-.542-1.477-.361-.394-.82-.59-1.37-.59zm-.099 3.447c-.361 0-.664-.123-.911-.378a1.276 1.276 0 01-.369-.927v-.148c0-.369.123-.672.369-.927.247-.254.55-.377.911-.377.764 0 1.256.607 1.256 1.378 0 .394-.115.723-.353.985-.23.263-.533.394-.903.394zM146.457 21.146c.091-.747-.032-1.322-.361-1.724-.32-.402-.779-.599-1.37-.599-.591 0-1.067.197-1.42.583-.353.386-.525.878-.525 1.494 0 .64.189 1.14.566 1.51.386.369.895.55 1.543.55.542 0 .993-.124 1.346-.362v-.69a2.303 2.303 0 01-1.305.395c-.845 0-1.329-.435-1.37-1.157h2.896zm-1.731-1.724c.624 0 1.042.427 1.067 1.174h-2.241c.041-.698.493-1.174 1.174-1.174zM150.881 21.146c.09-.747-.033-1.322-.361-1.724-.32-.402-.779-.599-1.37-.599-.591 0-1.067.197-1.42.583-.353.386-.525.878-.525 1.494 0 .64.188 1.14.566 1.51.386.369.894.55 1.543.55.541 0 .993-.124 1.346-.362v-.69a2.303 2.303 0 01-1.305.395c-.845 0-1.33-.435-1.371-1.157h2.897zm-1.731-1.724c.623 0 1.042.427 1.066 1.174h-2.24c.041-.698.493-1.174 1.174-1.174zM153.885 20.776c.493-.205.739-.5.739-.894 0-.6-.575-1.059-1.494-1.059a2.57 2.57 0 00-1.387.378v.763a1.93 1.93 0 011.289-.476c.55 0 .861.197.861.517 0 .353-.336.55-.894.55h-.378v.541h.378c.697 0 1.067.271 1.067.591 0 .361-.402.6-1.034.6-.525 0-.985-.173-1.371-.518v.83c.394.237.878.36 1.445.36.508 0 .919-.106 1.239-.311.32-.214.484-.493.484-.838 0-.492-.312-.837-.944-1.034zM159.118 18.963h-2.913v1.149c0 .952-.107 1.65-.312 2.1h-.591v1.56h.64v-.911h2.897v.91h.64v-1.559h-.361v-3.25zm-2.191.648h1.453v2.601h-1.74c.189-.467.287-1.173.287-2.1v-.5zM161.318 20.514v-1.592h-.755v3.939h1.928c.845 0 1.387-.394 1.387-1.174 0-.788-.542-1.173-1.387-1.173h-1.173zm3.143 2.347h.763v-3.94h-.763v3.94zm-3.143-.624V21.13h1.181c.427 0 .632.205.632.558 0 .337-.205.55-.64.55h-1.173zM129.011 28.887v3.939h.755v-3.291h1.822v3.29h.763v-3.938h-3.34zM136.861 32.325a2.04 2.04 0 00.582-1.469 2.04 2.04 0 00-.582-1.469c-.386-.402-.878-.599-1.478-.599-.59 0-1.083.197-1.468.6a2.037 2.037 0 00-.583 1.468c0 .583.197 1.067.583 1.47.385.401.878.598 1.468.598.6 0 1.092-.197 1.478-.599zm-1.469-.098c-.378 0-.69-.132-.936-.394a1.392 1.392 0 01-.369-.977c0-.386.123-.706.369-.968.246-.271.558-.402.936-.402.377 0 .689.131.927.394.246.262.369.59.369.976s-.123.714-.369.977c-.238.262-.55.394-.927.394zM141.68 28.928h-2.914v1.149c0 .951-.106 1.65-.312 2.1h-.59v1.56h.64v-.911h2.897v.91h.64v-1.559h-.361v-3.25zm-2.192.648h1.453v2.601h-1.74c.189-.467.287-1.173.287-2.1v-.501zM146.871 30.848l1.551-1.961h-.87l-1.469 1.928v-1.928h-.755v3.939h.755V30.88l1.494 1.945h.878l-1.584-1.978zM149.616 28.887v2.855c0 .304-.041.485-.32.485a.625.625 0 01-.296-.082v.656c.14.057.296.09.468.09.583 0 .878-.369.878-1.1v-2.256h1.765v3.29h.73v-3.938h-3.225zM157.238 28.788c-.542 0-1.001.164-1.371.5a2.05 2.05 0 00-.664 1.264h-.353v-1.624h-.731v3.898h.731V31.2h.361c.074.5.295.91.665 1.239.369.32.828.484 1.362.484.591 0 1.083-.197 1.469-.599a2.04 2.04 0 00.582-1.469 2.04 2.04 0 00-.582-1.469c-.386-.402-.878-.599-1.469-.599zm0 3.439c-.378 0-.69-.132-.936-.394a1.392 1.392 0 01-.369-.977c0-.386.123-.706.369-.968.246-.271.558-.402.936-.402.377 0 .689.131.927.394.246.262.369.59.369.976s-.123.714-.369.977c-.238.262-.55.394-.927.394zM162.482 30.594a4.092 4.092 0 01-.985.147c-.451 0-.714-.205-.714-.59v-1.264h-.763v1.428c0 .68.46 1.083 1.272 1.083.328 0 .722-.058 1.19-.18v1.608h.763v-3.94h-.763v1.708zM70.856 25.964c0 1.175-.2 2.25-.6 3.225a6.833 6.833 0 01-1.824 2.545c-.801.708-1.823 1.262-3.065 1.663-1.243.4-2.852.6-4.829.6h-6.832c-.48 0-.875-.126-1.182-.38-.294-.267-.44-.714-.44-1.342V9.735c0-.587.146-1.008.44-1.262.307-.267.681-.4 1.122-.4h14.666a.57.57 0 01.34.1c.107.066.194.187.26.36.081.16.134.374.161.641.04.254.06.581.06.982 0 .374-.02.695-.06.962-.027.253-.08.467-.16.64a.843.843 0 01-.26.362c-.094.066-.201.1-.321.1h-10.98v6.45h4.308c1.67 0 3.046.161 4.127.482 1.082.32 1.997.794 2.745 1.422a6.268 6.268 0 011.723 2.304c.4.909.601 1.937.601 3.086zm-5.35.34a4.02 4.02 0 00-.28-1.542 3.092 3.092 0 00-.821-1.183c-.36-.333-.828-.587-1.403-.76-.56-.174-1.315-.261-2.264-.261h-3.385v7.473h3.446c.854 0 1.556-.08 2.103-.24.561-.16 1.029-.401 1.403-.722a3.39 3.39 0 00.881-1.182c.214-.467.32-.995.32-1.583zM95.099 33.276a.534.534 0 01-.14.361c-.08.107-.22.194-.421.26-.2.067-.468.12-.802.16-.334.041-.754.061-1.262.061-.52 0-.955-.02-1.302-.06a4.205 4.205 0 01-.802-.16.989.989 0 01-.42-.26.586.586 0 01-.12-.361V22.797h-9.698v10.479c0 .133-.04.253-.12.36-.08.107-.22.194-.42.26-.2.067-.468.12-.802.16-.334.041-.761.061-1.282.061-.508 0-.935-.02-1.282-.06a4.205 4.205 0 01-.802-.16c-.2-.067-.347-.154-.44-.26a.586.586 0 01-.12-.361V8.793c0-.134.04-.254.12-.361.093-.107.24-.194.44-.26.2-.067.468-.12.802-.16.347-.04.774-.06 1.282-.06.52 0 .948.02 1.282.06.334.04.601.093.801.16.2.066.341.153.421.26.08.107.12.227.12.36v9.517h9.697V8.794c0-.134.04-.254.12-.361a.988.988 0 01.421-.26c.2-.067.468-.12.802-.16.347-.04.781-.06 1.302-.06.508 0 .928.02 1.262.06.334.04.601.093.802.16.2.066.34.153.42.26.094.107.14.227.14.36v24.483zM119.942 33.297c0 .147-.04.273-.12.38-.08.094-.227.174-.441.24-.2.067-.474.114-.821.14-.347.041-.795.061-1.343.061-.574 0-1.041-.02-1.402-.06a3.897 3.897 0 01-.841-.14 1.19 1.19 0 01-.481-.3 1.364 1.364 0 01-.241-.482l-2.083-5.77c-.294-.841-.601-1.543-.922-2.104-.321-.574-.675-1.035-1.062-1.382a3.295 3.295 0 00-1.322-.761 5.831 5.831 0 00-1.663-.22h-1.182v10.377c0 .147-.04.274-.12.381-.081.094-.221.18-.421.26-.2.067-.468.114-.802.14-.333.041-.761.061-1.282.061-.507 0-.935-.02-1.282-.06a3.485 3.485 0 01-.801-.14 1.308 1.308 0 01-.441-.26.617.617 0 01-.12-.382V8.774c0-.147.04-.268.12-.361.093-.107.24-.194.441-.26.2-.067.467-.114.801-.14.347-.04.775-.06 1.282-.06.521 0 .949.02 1.282.06.334.026.602.073.802.14.2.066.34.153.421.26.08.093.12.214.12.36v9.738h1.182c.601 0 1.129-.08 1.583-.24.454-.161.861-.415 1.222-.762.374-.347.708-.795 1.002-1.343.307-.56.601-1.248.881-2.063l1.743-5.17c.067-.186.147-.34.241-.46.093-.134.24-.234.44-.3.214-.08.488-.134.822-.16.347-.04.808-.06 1.382-.06.521 0 .949.02 1.282.06.348.026.615.073.802.14.2.053.334.133.401.24.066.093.1.214.1.36 0 .174-.034.388-.1.642a8.358 8.358 0 01-.301 1.001l-1.743 4.608a18.472 18.472 0 01-.962 2.184 8.83 8.83 0 01-1.021 1.543 5.364 5.364 0 01-1.122 1.022 5.693 5.693 0 01-1.303.661v.02a8.197 8.197 0 011.443.781c.441.28.848.642 1.222 1.082.387.441.755.982 1.102 1.623.347.641.701 1.43 1.062 2.364l2.123 5.37c.214.547.341.928.381 1.142.04.2.06.367.06.5z" fill="#fff"/><rect width="41.618" height="41.618" rx="10" fill="#4785EE"/><path d="M5.862 7.034c3.471 3.532 10.603 9.915 14.09 13.463-1.743 1.773-11.92 11.341-14.09 13.501h6.472l14.177-13.482L12.334 7.034H5.862zm9.245 0c3.472 3.532 10.604 9.915 14.09 13.463-1.743 1.773-11.92 11.341-14.09 13.501h6.473l14.176-13.482L21.58 7.034h-6.472z" fill="#fff"/></svg><svg fill="none" viewBox="0 0 44 30" id="free-trucking" xmlns="http://www.w3.org/2000/svg"><path d="M37.5 12h-8.25V4.5H36l1.5 7.5z" fill="#B4E1FA"/><path d="M1.5 24.75H42a.75.75 0 00.75-.75v-5.25h-42V24c0 .414.336.75.75.75z" fill="#707487"/><path d="M29.25 18.75v-12h-3v12H.75v3h42v-3h-13.5z" fill="#5B5D6E"/><path d="M.75 0h25.5a.75.75 0 01.75.75v18a.75.75 0 01-.75.75H.75a.75.75 0 01-.75-.75v-18A.75.75 0 01.75 0z" fill="#FFD782"/><path fill-rule="evenodd" clip-rule="evenodd" d="M38.16 11.438l3.502 1.001a1.5 1.5 0 011.088 1.443v3.368H28.5V3.75a.75.75 0 01.75-.75h4.872a3 3 0 012.952 2.462l1.086 5.976zM30 9.75a1.5 1.5 0 001.5 1.5h4.578c.273 0 .48-.247.43-.515l-.877-4.868a.75.75 0 00-.738-.617H30.75A.75.75 0 0030 6v3.75z" fill="#FFD782"/><circle cx="35.25" cy="25.5" r="4.5" fill="#464655"/><circle cx="35.25" cy="25.5" r="3" fill="#C7CFE2"/><circle cx="35.25" cy="25.5" r="1.125" fill="#AFB9D2"/><circle cx="7.5" cy="25.5" r="4.5" fill="#464655"/><circle cx="7.5" cy="25.5" r="3" fill="#C7CFE2"/><circle cx="7.5" cy="25.5" r="1.125" fill="#AFB9D2"/><path d="M29.25 24h.286a.75.75 0 00.671-.415l1.628-3.256a1.5 1.5 0 011.342-.829h4.146a1.5 1.5 0 011.341.83l1.629 3.255a.75.75 0 00.67.415h1.787a.75.75 0 00.75-.75V18a1.5 1.5 0 00-1.5-1.5H28.5v6.75c0 .414.336.75.75.75z" fill="#FFC36E"/><path d="M26.25 26.25h-7.5a.75.75 0 01-.75-.75v-3a.75.75 0 01.75-.75h7.5a.75.75 0 01.75.75v3a.75.75 0 01-.75.75z" fill="#AFB9D2"/><path d="M21 23.25a.75.75 0 00-.75.75v2.25h1.5V24a.75.75 0 00-.75-.75zM24 23.25a.75.75 0 00-.75.75v2.25h1.5V24a.75.75 0 00-.75-.75z" fill="#959CB3"/><path d="M24.75 18H2.25a.75.75 0 010-1.5h22.5a.75.75 0 010 1.5z" fill="#FFC36E"/></svg><svg viewBox="0 0 178 42" id="header-logo" xmlns="http://www.w3.org/2000/svg"><path d="M70.856 25.964c0 1.175-.2 2.25-.6 3.225a6.834 6.834 0 01-1.824 2.545c-.801.708-1.823 1.262-3.065 1.663-1.243.4-2.852.6-4.829.6h-6.832c-.48 0-.875-.126-1.182-.38-.294-.267-.44-.714-.44-1.342V9.735c0-.587.146-1.008.44-1.262.307-.267.681-.4 1.122-.4h14.666a.57.57 0 01.34.1c.107.066.194.187.26.36.081.16.134.374.161.641.04.254.06.581.06.982 0 .374-.02.695-.06.962-.027.253-.08.467-.16.64a.842.842 0 01-.26.362c-.094.066-.201.1-.321.1h-10.98v6.451h4.308c1.67 0 3.046.16 4.127.48 1.082.321 1.997.796 2.745 1.423a6.27 6.27 0 011.723 2.304c.4.909.601 1.937.601 3.086zm-5.35.34a4.02 4.02 0 00-.28-1.542 3.092 3.092 0 00-.821-1.182c-.36-.334-.828-.588-1.403-.762-.56-.173-1.315-.26-2.264-.26h-3.385v7.473h3.446c.854 0 1.556-.08 2.103-.24.561-.16 1.029-.401 1.403-.722.374-.32.668-.714.881-1.182.214-.467.32-.995.32-1.583zM95.099 33.277a.533.533 0 01-.14.36c-.08.107-.22.194-.421.26-.2.068-.468.12-.802.161-.334.04-.754.06-1.262.06-.52 0-.955-.02-1.302-.06a4.205 4.205 0 01-.802-.16.988.988 0 01-.42-.26.585.585 0 01-.12-.361V22.798h-9.698v10.479c0 .133-.04.253-.12.36-.08.107-.22.194-.42.26-.2.068-.468.12-.802.161-.334.04-.761.06-1.282.06-.508 0-.935-.02-1.282-.06a4.205 4.205 0 01-.802-.16c-.2-.067-.347-.154-.44-.26a.585.585 0 01-.12-.361V8.794c0-.134.04-.254.12-.36.093-.108.24-.195.44-.261.2-.067.468-.12.802-.16.347-.04.774-.06 1.282-.06.52 0 .948.02 1.282.06.334.04.601.093.801.16.2.066.341.153.421.26.08.107.12.227.12.36v9.517h9.697V8.794c0-.134.04-.254.12-.36a.988.988 0 01.421-.261c.2-.067.468-.12.802-.16.347-.04.781-.06 1.302-.06.508 0 .928.02 1.262.06.334.04.601.093.802.16.2.066.34.153.42.26.094.107.14.227.14.36v24.484zM119.942 33.297c0 .147-.04.273-.12.38-.08.094-.227.174-.441.24-.2.067-.474.114-.821.141-.347.04-.795.06-1.343.06-.574 0-1.041-.02-1.402-.06a3.897 3.897 0 01-.841-.14 1.19 1.19 0 01-.481-.3 1.365 1.365 0 01-.241-.482l-2.083-5.77c-.294-.841-.601-1.543-.922-2.103-.321-.575-.675-1.036-1.062-1.383a3.296 3.296 0 00-1.322-.761 5.831 5.831 0 00-1.663-.22h-1.182v10.378c0 .146-.04.273-.12.38-.081.094-.221.18-.421.26-.2.067-.468.114-.802.141-.333.04-.761.06-1.282.06-.507 0-.935-.02-1.282-.06a3.485 3.485 0 01-.801-.14 1.308 1.308 0 01-.441-.26.617.617 0 01-.12-.381V8.774c0-.147.04-.267.12-.361.093-.107.24-.194.441-.26.2-.067.467-.114.801-.14.347-.04.775-.06 1.282-.06.521 0 .949.02 1.282.06.334.026.602.073.802.14.2.066.34.153.421.26.08.094.12.214.12.36v9.738h1.182c.601 0 1.129-.08 1.583-.24.454-.161.861-.415 1.222-.762.374-.347.708-.795 1.002-1.342.307-.561.601-1.25.881-2.064l1.743-5.17c.067-.186.147-.34.241-.46.093-.133.24-.234.44-.3.214-.08.488-.134.822-.16.347-.04.808-.06 1.382-.06.521 0 .949.02 1.282.06.348.026.615.073.802.14.2.053.334.133.401.24.066.093.1.214.1.36 0 .174-.034.388-.1.642a8.359 8.359 0 01-.301 1.002l-1.743 4.608a18.472 18.472 0 01-.962 2.183 8.83 8.83 0 01-1.021 1.543 5.364 5.364 0 01-1.122 1.022 5.697 5.697 0 01-1.303.661v.02a8.197 8.197 0 011.443.781c.441.281.848.642 1.222 1.082.387.441.755.982 1.102 1.623.347.641.701 1.43 1.062 2.364l2.123 5.37c.214.547.341.928.381 1.142.04.2.06.367.06.5z"/><rect width="41.618" height="41.618" rx="10" fill="#4785EE"/><path d="M8 10c2.787 2.882 8.513 8.09 11.312 10.984C17.912 22.431 9.742 30.238 8 32h5.196l11.382-11-11.382-11H8zm7.423 0c2.787 2.882 8.512 8.09 11.311 10.984-1.4 1.447-9.57 9.254-11.311 11.016h5.196L32 21 20.619 10h-5.196z" fill="#fff"/><path d="M128.711 10.236l1.72-2.13h-.965l-1.629 2.094V8.107H127v4.275h.837v-2.11l1.657 2.11h.973l-1.756-2.146zM134.13 10.155c.483-.133.801-.472.801-.98 0-.819-.755-1.068-1.456-1.068h-2.12v4.275h2.33c.846 0 1.447-.428 1.447-1.202 0-.57-.392-.936-1.002-1.016v-.009zm-.664-1.38c.492 0 .683.24.683.525 0 .276-.246.588-.692.588h-1.274V8.775h1.283zm-1.283 2.93v-1.22h1.383c.464 0 .756.276.756.623 0 .356-.219.597-.683.597h-1.456zM139.683 8.784A2.131 2.131 0 00138.027 8c-.619 0-1.128.214-1.529.641-.4.428-.6.962-.6 1.603 0 .642.2 1.176.6 1.604.401.427.91.64 1.529.64.683 0 1.283-.311 1.656-.783l.647.73h.018V8.053h-.018l-.647.73zm-1.556 2.957c-.409 0-.746-.143-1.01-.428-.255-.285-.382-.641-.382-1.069 0-.427.127-.783.382-1.068a1.317 1.317 0 011.01-.428c.401 0 .737.134 1.01.41.273.276.41.605.41 1.006v.16c0 .401-.137.73-.41 1.007a1.36 1.36 0 01-1.01.41zM144.082 8c-.7 0-1.319.32-1.738.837l-.564-.73h-.018v6.323h.837v-2.012l-.018-.615h.027c.291.383.819.686 1.474.686.61 0 1.12-.214 1.52-.65.401-.437.601-.962.601-1.595 0-.64-.2-1.175-.601-1.603-.4-.427-.91-.641-1.52-.641zm-.109 3.74c-.4 0-.737-.133-1.01-.41a1.368 1.368 0 01-.409-1.005v-.16c0-.402.136-.731.409-1.007.273-.276.61-.41 1.01-.41.847 0 1.393.66 1.393 1.496 0 .428-.128.784-.392 1.07-.254.284-.591.427-1.001.427zM146.727 8.107v.73h1.429v3.545h.847V8.837h1.437v-.73h-3.713zM151.378 12.47l3.14-2.885h.018l-.009 2.797h.782V8.018h-.009l-3.139 2.877h-.019l.009-2.797h-.782v4.373h.009zM159.049 8c-.701 0-1.32.32-1.739.837l-.564-.73h-.018v6.323h.837v-2.012l-.018-.615h.027c.292.383.819.686 1.475.686.609 0 1.119-.214 1.52-.65.4-.437.6-.962.6-1.595 0-.64-.2-1.175-.6-1.603-.401-.427-.911-.641-1.52-.641zm-.11 3.74c-.4 0-.737-.133-1.01-.41a1.368 1.368 0 01-.409-1.005v-.16c0-.402.136-.731.409-1.007.273-.276.61-.41 1.01-.41.847 0 1.393.66 1.393 1.496 0 .428-.128.784-.391 1.07-.255.284-.592.427-1.002.427zM165.359 9.888h-2.248V8.107h-.837v4.275h.837V10.6h2.248v1.78h.846V8.108h-.846v1.781zM168.461 9.835V8.107h-.837v4.275h2.139c.937 0 1.538-.428 1.538-1.274 0-.855-.601-1.273-1.538-1.273h-1.302zm3.486 2.547h.846V8.107h-.846v4.275zm-3.486-.677v-1.202h1.311c.473 0 .7.222.7.605 0 .365-.227.597-.709.597h-1.302zM177.968 10.52c.1-.81-.036-1.433-.4-1.87-.355-.436-.865-.65-1.52-.65s-1.183.214-1.574.632c-.392.419-.583.953-.583 1.621 0 .695.209 1.238.628 1.639.428.4.992.597 1.711.597.601 0 1.101-.134 1.492-.392v-.748a2.59 2.59 0 01-1.447.427c-.937 0-1.474-.472-1.519-1.255h3.212zm-1.92-1.87c.692 0 1.156.463 1.183 1.274h-2.484c.045-.757.546-1.274 1.301-1.274zM127 18.922v4.275h.837v-3.572h2.021v3.572h.846v-4.275H127zM135.896 21.335c.1-.81-.037-1.434-.401-1.87-.355-.436-.864-.65-1.52-.65-.655 0-1.183.213-1.574.632-.391.419-.582.953-.582 1.621 0 .695.209 1.238.627 1.639.428.4.992.596 1.711.596.601 0 1.102-.133 1.493-.391v-.748a2.593 2.593 0 01-1.447.427c-.937 0-1.474-.472-1.52-1.256h3.213zm-1.921-1.87c.692 0 1.156.463 1.183 1.273h-2.484c.046-.756.546-1.273 1.301-1.273zM139.354 18.815c-.7 0-1.319.32-1.738.837l-.564-.73h-.018v6.323h.837v-2.013l-.018-.614h.027c.291.383.819.686 1.474.686.61 0 1.12-.214 1.52-.65.401-.437.601-.962.601-1.595 0-.641-.2-1.175-.601-1.603-.4-.427-.91-.641-1.52-.641zm-.109 3.74c-.4 0-.737-.133-1.01-.41a1.368 1.368 0 01-.409-1.006v-.16c0-.4.136-.73.409-1.006.273-.276.61-.41 1.01-.41.847 0 1.393.659 1.393 1.496 0 .428-.128.784-.392 1.069-.255.285-.591.427-1.001.427zM146.347 21.335c.1-.81-.036-1.434-.4-1.87-.355-.436-.865-.65-1.52-.65s-1.183.213-1.575.632c-.391.419-.582.953-.582 1.621 0 .695.209 1.238.628 1.639.428.4.992.596 1.711.596.601 0 1.101-.133 1.492-.391v-.748a2.59 2.59 0 01-1.447.427c-.937 0-1.474-.472-1.519-1.256h3.212zm-1.92-1.87c.692 0 1.156.463 1.183 1.273h-2.485c.046-.756.547-1.273 1.302-1.273zM151.253 21.335c.1-.81-.037-1.434-.401-1.87-.354-.436-.864-.65-1.519-.65-.656 0-1.183.213-1.575.632-.391.419-.582.953-.582 1.621 0 .695.209 1.238.628 1.639.427.4.992.596 1.711.596.6 0 1.101-.133 1.492-.391v-.748a2.593 2.593 0 01-1.447.427c-.937 0-1.474-.472-1.52-1.256h3.213zm-1.92-1.87c.691 0 1.155.463 1.183 1.273h-2.485c.046-.756.546-1.273 1.302-1.273zM154.584 20.934c.546-.222.819-.543.819-.97 0-.65-.637-1.15-1.656-1.15-.573 0-1.083.134-1.538.41v.829a2.167 2.167 0 011.429-.517c.61 0 .955.214.955.561 0 .383-.373.597-.992.597h-.418v.588h.418c.774 0 1.184.294 1.184.641 0 .392-.446.65-1.147.65a2.238 2.238 0 01-1.52-.56v.899c.437.258.974.392 1.602.392.564 0 1.019-.116 1.374-.339.355-.232.537-.534.537-.908 0-.535-.346-.909-1.047-1.122zM160.387 18.966h-3.23v1.247c0 1.033-.119 1.79-.346 2.28h-.655v1.692h.709v-.988h3.213v.988h.71v-1.692h-.401v-3.527zm-2.43.704h1.611v2.823h-1.929c.209-.508.318-1.273.318-2.28v-.543zM162.827 20.65v-1.728h-.838v4.275h2.139c.937 0 1.538-.428 1.538-1.274 0-.855-.601-1.273-1.538-1.273h-1.301zm3.485 2.547h.846v-4.275h-.846v4.275zm-3.485-.677v-1.203h1.31c.473 0 .701.223.701.606 0 .365-.228.597-.71.597h-1.301zM127 29.736v4.275h.837V30.44h2.021v3.571h.846v-4.275H127zM135.705 33.468a2.19 2.19 0 00.646-1.594 2.19 2.19 0 00-.646-1.594c-.428-.437-.974-.65-1.639-.65-.655 0-1.201.213-1.629.65a2.19 2.19 0 00-.646 1.594c0 .632.219 1.158.646 1.594.428.436.974.65 1.629.65.665 0 1.211-.214 1.639-.65zm-1.629-.107c-.419 0-.765-.142-1.038-.427a1.492 1.492 0 01-.409-1.06c0-.419.136-.766.409-1.051.273-.294.619-.436 1.038-.436.418 0 .764.142 1.028.427.273.285.409.641.409 1.06 0 .418-.136.775-.409 1.06-.264.285-.61.427-1.028.427zM141.049 29.78h-3.231v1.248c0 1.033-.118 1.79-.346 2.28h-.655V35h.71v-.989h3.212V35h.71v-1.692h-.4V29.78zm-2.43.704h1.611v2.824h-1.93c.209-.508.319-1.274.319-2.28v-.543zM146.805 31.865l1.72-2.129h-.964l-1.629 2.093v-2.093h-.837v4.275h.837v-2.11l1.656 2.11h.974l-1.757-2.146zM149.85 29.736v3.1c0 .33-.046.525-.355.525a.705.705 0 01-.328-.089v.713c.155.062.328.098.519.098.646 0 .974-.401.974-1.194V30.44h1.956v3.571h.81v-4.275h-3.576zM158.302 29.63c-.6 0-1.11.178-1.52.543-.409.365-.655.82-.737 1.371h-.391v-1.763h-.81v4.23h.81v-1.763h.4c.082.543.328.989.737 1.345.41.347.92.525 1.511.525.655 0 1.201-.214 1.629-.65.428-.436.646-.962.646-1.594 0-.632-.218-1.158-.646-1.594-.428-.437-.974-.65-1.629-.65zm0 3.731c-.418 0-.764-.142-1.037-.427a1.493 1.493 0 01-.41-1.06c0-.419.137-.766.41-1.051.273-.294.619-.436 1.037-.436.419 0 .765.142 1.029.427.273.285.409.641.409 1.06 0 .418-.136.775-.409 1.06-.264.285-.61.427-1.029.427zM164.118 31.589c-.428.107-.792.16-1.092.16-.501 0-.792-.222-.792-.641v-1.372h-.847v1.55c0 .74.51 1.176 1.411 1.176.364 0 .801-.063 1.32-.196v1.745h.846v-4.275h-.846v1.853z" fill="#191919"/><defs><radialGradient id="jpaint0_angular_11_151" cx="0" cy="0" r="1" gradientUnits="userSpaceOnUse" gradientTransform="rotate(-1.193 1009.344 -988.545) scale(14.0711)"><stop stop-color="#4785EE"/><stop offset="1" stop-color="#89B1F4"/></radialGradient></defs></svg><svg fill="none" viewBox="0 0 20 20" id="hero-telephone" xmlns="http://www.w3.org/2000/svg"><path fill-rule="evenodd" clip-rule="evenodd" d="M11.137 18.823a21.287 21.287 0 01-7.084-5.528c-1.63-1.952-2.729-3.78-3.457-5.748C.122 6.274-.061 5.222.018 4.23A3.18 3.18 0 01.97 2.192L2.526.642C2.971.22 3.48 0 4.007 0c.533 0 1.036.22 1.464.638.283.261.57.551.845.833l.011.012.413.42 1.24 1.234c.453.448.69.966.69 1.492s-.24 1.044-.69 1.492c-.13.129-.258.257-.383.385-.353.361-.72.73-1.11 1.082.278.642.678 1.272 1.272 2.022 1.178 1.439 2.409 2.557 3.765 3.415.137.087.291.166.458.249.133.066.274.137.412.215l1.489-1.483c.437-.435.948-.667 1.48-.667.533 0 1.04.232 1.465.67l2.5 2.492c.895.89.895 2.06.009 2.98-.192.198-.392.393-.587.58l-.06.057a9.87 9.87 0 00-.743.771c-.004.009-.012.017-.017.021-.678.734-1.51 1.09-2.545 1.09-.092 0-.18-.004-.272-.008h-.011c-1.544-.1-2.929-.68-3.965-1.169zM1.694 2.909c-.4.398-.611.858-.661 1.41-.067.832.095 1.748.524 2.888.69 1.856 1.735 3.589 3.286 5.45a20.222 20.222 0 006.743 5.263c.953.451 2.222.982 3.586 1.069.071.004.146.008.217.008.736 0 1.306-.24 1.784-.754.26-.31.546-.586.822-.853l.048-.046c.195-.187.378-.365.553-.552.508-.526.512-1.065.012-1.562L16.1 12.735c-.162-.174-.42-.369-.736-.369-.258 0-.52.129-.762.37l-1.555 1.55c-.071.07-.287.28-.62.28a.872.872 0 01-.404-.103l-.022-.012a19.162 19.162 0 00-.572-.307c-.152-.077-.31-.156-.458-.253-1.448-.915-2.762-2.105-4.01-3.638-.695-.87-1.14-1.6-1.46-2.367l-.007-.016-.006-.017c-.083-.248-.137-.576.208-.92l.02-.02c.37-.326.707-.666 1.062-1.023l.087-.088.193-.195.194-.195c.258-.257.39-.518.39-.775s-.132-.518-.39-.775l-1.24-1.235-.216-.22-.216-.219-.112-.113c-.241-.244-.47-.476-.712-.7-.237-.24-.495-.36-.749-.36-.258 0-.524.12-.765.353L1.694 2.909z" fill="#0065FB"/></svg><svg fill="none" viewBox="0 0 44 30" id="hero-trucking" xmlns="http://www.w3.org/2000/svg"><path d="M37.5 12h-8.25V4.5H36l1.5 7.5z" fill="#B4E1FA"/><path d="M1.5 24.75H42a.75.75 0 00.75-.75v-5.25h-42V24c0 .414.336.75.75.75z" fill="#707487"/><path d="M29.25 18.75v-12h-3v12H.75v3h42v-3h-13.5z" fill="#5B5D6E"/><path d="M.75 0h25.5a.75.75 0 01.75.75v18a.75.75 0 01-.75.75H.75a.75.75 0 01-.75-.75v-18A.75.75 0 01.75 0z" fill="#FFD782"/><path fill-rule="evenodd" clip-rule="evenodd" d="M38.16 11.438l3.502 1.001a1.5 1.5 0 011.088 1.443v3.368H28.5V3.75a.75.75 0 01.75-.75h4.872a3 3 0 012.952 2.462l1.086 5.976zM30 9.75a1.5 1.5 0 001.5 1.5h4.578c.273 0 .48-.247.43-.515l-.877-4.868a.75.75 0 00-.738-.617H30.75A.75.75 0 0030 6v3.75z" fill="#FFD782"/><circle cx="35.25" cy="25.5" r="4.5" fill="#464655"/><circle cx="35.25" cy="25.5" r="3" fill="#C7CFE2"/><circle cx="35.25" cy="25.5" r="1.125" fill="#AFB9D2"/><circle cx="7.5" cy="25.5" r="4.5" fill="#464655"/><circle cx="7.5" cy="25.5" r="3" fill="#C7CFE2"/><circle cx="7.5" cy="25.5" r="1.125" fill="#AFB9D2"/><path d="M29.25 24h.286a.75.75 0 00.671-.415l1.628-3.256a1.5 1.5 0 011.342-.829h4.146a1.5 1.5 0 011.341.83l1.629 3.255a.75.75 0 00.67.415h1.787a.75.75 0 00.75-.75V18a1.5 1.5 0 00-1.5-1.5H28.5v6.75c0 .414.336.75.75.75z" fill="#FFC36E"/><path d="M26.25 26.25h-7.5a.75.75 0 01-.75-.75v-3a.75.75 0 01.75-.75h7.5a.75.75 0 01.75.75v3a.75.75 0 01-.75.75z" fill="#AFB9D2"/><path d="M21 23.25a.75.75 0 00-.75.75v2.25h1.5V24a.75.75 0 00-.75-.75zM24 23.25a.75.75 0 00-.75.75v2.25h1.5V24a.75.75 0 00-.75-.75z" fill="#959CB3"/><path d="M24.75 18H2.25a.75.75 0 010-1.5h22.5a.75.75 0 010 1.5z" fill="#FFC36E"/></svg><svg fill="none" viewBox="0 0 16 18" id="hero-user" xmlns="http://www.w3.org/2000/svg"><path fill-rule="evenodd" clip-rule="evenodd" d="M3.13 4.696A4.701 4.701 0 017.826 0a4.701 4.701 0 014.696 4.696A4.701 4.701 0 017.826 9.39 4.701 4.701 0 013.13 4.696zm1.044 0a3.656 3.656 0 003.652 3.652 3.656 3.656 0 003.652-3.652 3.656 3.656 0 00-3.652-3.653 3.656 3.656 0 00-3.652 3.653zM8.87 10.174c1.809 0 3.513.763 4.798 2.148 1.28 1.379 1.984 3.199 1.984 5.124 0 .306-.233.554-.522.554H.522C.234 18 0 17.752 0 17.446c0-1.926.705-3.745 1.984-5.124 1.285-1.385 2.99-2.148 4.799-2.148H8.87zM6.783 11.28c-2.991 0-5.455 2.47-5.717 5.611h13.52c-.262-3.14-2.726-5.61-5.716-5.61H6.783z" fill="#0065FB"/></svg><svg fill="none" viewBox="0 0 21 12" id="if-arrow" xmlns="http://www.w3.org/2000/svg"><path d="M10.95 11.173l9.225-9.25A.775.775 0 0019.077.828l-8.676 8.7-8.676-8.7A.775.775 0 10.627 1.921l9.225 9.251a.774.774 0 001.098 0z" fill="#191919"/></svg><svg fill="none" viewBox="0 0 33 33" id="modal-form-close" xmlns="http://www.w3.org/2000/svg"><path d="M30.656.406l-13.21 13.209c-.54.54-1.397.54-1.893 0L2.344.405c-.54-.54-1.397-.54-1.893 0C-.09.948-.09 1.804.45 2.3L13.66 15.51c.54.54.54 1.397 0 1.893L.406 30.656c-.541.54-.541 1.397 0 1.893.54.541 1.397.541 1.893 0L15.51 19.34c.54-.54 1.397-.54 1.893 0l13.254 13.254c.54.541 1.397.541 1.893 0 .541-.54.541-1.397 0-1.893L19.385 17.447c-.54-.541-.54-1.398 0-1.894l13.21-13.209c.54-.54.54-1.397 0-1.893a1.403 1.403 0 00-1.939-.046z" fill="#fff"/></svg><svg fill="none" viewBox="0 0 33 33" id="modal-info-close" xmlns="http://www.w3.org/2000/svg"><path d="M30.656.406l-13.21 13.209c-.54.54-1.397.54-1.893 0L2.344.405c-.54-.54-1.397-.54-1.893 0C-.09.948-.09 1.804.45 2.3L13.66 15.51c.54.54.54 1.397 0 1.893L.406 30.656c-.541.54-.541 1.397 0 1.893.54.541 1.397.541 1.893 0L15.51 19.34c.54-.54 1.397-.54 1.893 0l13.254 13.254c.54.541 1.397.541 1.893 0 .541-.54.541-1.397 0-1.893L19.385 17.447c-.54-.541-.54-1.398 0-1.894l13.21-13.209c.54-.54.54-1.397 0-1.893a1.403 1.403 0 00-1.939-.046z" fill="#4785EE"/></svg><svg fill="none" viewBox="0 0 17 30" id="reviews-next" xmlns="http://www.w3.org/2000/svg"><path d="M15.86 14.177L1.984.339A1.163 1.163 0 00.342 1.986L13.392 15 .342 28.014a1.163 1.163 0 101.642 1.646L15.86 15.823a1.162 1.162 0 000-1.646z" fill="#4785EE"/></svg><svg fill="none" viewBox="0 0 16 30" id="reviews-prev" xmlns="http://www.w3.org/2000/svg"><path d="M.338 14.177L14.04.339a1.139 1.139 0 011.624.003 1.173 1.173 0 01-.002 1.644L2.775 15l12.888 13.014c.448.453.45 1.19.002 1.644a1.139 1.139 0 01-1.625.002L.338 15.823a1.169 1.169 0 010-1.646z" fill="#4785EE"/></svg><svg fill="none" viewBox="0 0 24 24" id="reviews-whatsapp" xmlns="http://www.w3.org/2000/svg"><path d="M12.003 0h-.006C5.38 0 0 5.382 0 12c0 2.625.846 5.058 2.284 7.034L.79 23.49l4.613-1.474A11.896 11.896 0 0012.003 24C18.619 24 24 18.616 24 12c0-6.617-5.38-12-11.997-12z" fill="#4CAF50"/><path d="M19.732 17.257c-.306.804-1.518 1.47-2.486 1.664-.662.132-1.526.236-4.436-.887-3.722-1.435-6.12-4.956-6.306-5.185C6.325 12.621 5 10.985 5 9.293s.923-2.516 1.295-2.87C6.601 6.133 7.105 6 7.59 6c.157 0 .298.007.424.013.373.015.56.036.805.582.305.686 1.05 2.378 1.138 2.552.09.174.18.41.054.638-.119.236-.223.34-.41.54-.187.201-.364.355-.551.57-.171.187-.364.387-.149.734.215.339.96 1.47 2.055 2.377 1.414 1.172 2.56 1.546 2.97 1.705.306.118.67.09.893-.13.283-.285.633-.757.99-1.221.253-.333.573-.375.908-.257.342.11 2.152.944 2.524 1.116.372.174.617.257.708.402.088.146.088.832-.217 1.636z" fill="#FAFAFA"/></svg></svg>