<svg width="157" height="32" fill="none" xmlns="http://www.w3.org/2000/svg"><g fill="#fff"><path fill-rule="evenodd" clip-rule="evenodd" d="M54.407 11.574v12.483h3.809V11.574h2.405V8.195h-2.406v-.171c0-.802.602-1.69 1.92-1.69h.486V2.526h-.716c-3.264 0-5.498 1.947-5.498 5.498v.171H53.06v3.379h1.346zm7.932-3.379v15.862h3.809V8.195h-3.809zm0-1.832V2.87h3.809v3.493h-3.809zm6.873 1.832v15.862h3.808V15.64c0-1.403.2-4.352 3.294-4.352 1.489 0 3.178.801 3.178 4.352v8.417h3.809v-9.276c0-4.467-2.52-7.101-6.186-7.101-2.577 0-3.837 1.317-4.352 1.976h-.058v-1.46h-3.493z" fill-opacity=".498"/><path fill-rule="evenodd" clip-rule="evenodd" d="M102.431 17.715H90.003c.487 1.947 2.12 3.149 4.153 3.149 1.23 0 2.605-.344 3.55-1.489h4.296c-2.12 5.04-6.959 5.097-7.703 5.097-5.699 0-8.39-4.696-8.39-8.332 0-3.636 2.72-8.561 8.447-8.561 4.84 0 8.161 3.722 8.161 8.446 0 .573 0 1.117-.086 1.69zm-12.485-3.379h8.59c-.543-2.004-2.233-3.15-4.18-3.15-2.09 0-3.78 1.26-4.41 3.15zm18.9 1.489l-5.355 8.131h4.696l3.208-5.125 3.207 5.125h4.696l-5.527-8.131 5.04-7.73h-4.438l-3.007 4.752-3.007-4.753h-4.439l4.926 7.73zm12.113 13.428V8.094h3.494v2.062h.057c1.346-2.205 3.866-2.577 5.097-2.577 4.324 0 7.961 3.321 7.961 8.446 0 4.352-2.921 8.447-7.961 8.447-1.289 0-3.293-.344-4.782-2.234h-.057v7.015h-3.809zm3.579-13.228c0-2.777 1.89-4.838 4.668-4.838 3.207 0 4.553 2.69 4.553 4.81 0 2.806-1.976 4.867-4.696 4.867-2.577 0-4.525-1.804-4.525-4.839zm22.938-8.446c4.868 0 8.419 3.837 8.419 8.475 0 4.61-3.579 8.418-8.419 8.418-4.839 0-8.419-3.808-8.419-8.418 0-4.638 3.551-8.475 8.419-8.475zm-4.61 8.475c0-2.577 1.775-4.867 4.61-4.867 2.835 0 4.61 2.29 4.61 4.867s-1.804 4.81-4.61 4.81-4.61-2.233-4.61-4.81z"/><ellipse cx="34.532" cy="16" rx="5.475" ry="5.474"/><circle opacity=".7" cx="22.319" cy="4.632" r="4.632"/><circle opacity=".7" cx="22.319" cy="27.368" r="4.632"/><circle opacity=".7" cx="22.319" cy="16" r="4.632"/><ellipse opacity=".6" cx="11.791" cy="16" rx="3.79" ry="3.789"/><ellipse opacity=".5" cx="2.948" cy="16" rx="2.948" ry="2.947"/></g></svg>