<svg width="154" height="320" fill="none" xmlns="http://www.w3.org/2000/svg"><path opacity=".164" fill-rule="evenodd" clip-rule="evenodd" d="M48.428 131.121c0-13.091 9.035-24.022 21.163-27.122v54.244c-12.128-3.1-21.163-14.031-21.163-27.122zM69.59 56.046v31.727c-6.116-2.679-10.402-8.769-10.402-15.86 0-7.098 4.286-13.195 10.402-15.867zm24.214 15.867c0 7.091-4.3 13.181-10.41 15.86V56.046c6.11 2.679 10.41 8.769 10.41 15.867zm-10.41 86.33v-54.244c12.135 3.1 21.171 14.031 21.171 27.122s-9.036 24.022-21.17 27.122zm-69.59 11.289l55.786 52.932V320h13.805v-97.371l55.965-53.097v80.772h13.805v-112.9L83.396 203.6v-31.203c19.81-3.307 34.975-20.534 34.975-41.276 0-15.501-8.483-29.028-21.018-36.27 6.253-5.704 10.257-13.83 10.257-22.938 0-14.79-10.382-27.143-24.214-30.298V0H69.59v41.615C55.758 44.77 45.384 57.123 45.384 71.913c0 9.114 4.003 17.241 10.257 22.937-12.535 7.243-21.018 20.77-21.018 36.271 0 20.742 15.165 37.962 34.968 41.276v31.03L0 137.404v112.9h13.805v-80.772z" fill="#fff"/></svg>