<svg width="11" height="15" fill="none" xmlns="http://www.w3.org/2000/svg"><path fill-rule="evenodd" clip-rule="evenodd" d="M5.855 14.055l.2-.256a46.055 46.055 0 002.098-2.95c.35-.538.672-1.06.957-1.56C10 7.728 10.5 6.46 10.5 5.533 10.5 2.753 8.261.5 5.5.5s-5 2.253-5 5.033c0 .928.5 2.195 1.39 3.756.285.5.607 1.022.957 1.56a46.055 46.055 0 002.298 3.206l.355.445.355-.445zm-.701-1.492a45.216 45.216 0 01-1.547-2.216 29.922 29.922 0 01-.928-1.514c-.815-1.428-1.27-2.581-1.27-3.3 0-2.274 1.832-4.118 4.091-4.118 2.26 0 4.09 1.844 4.09 4.118 0 .719-.454 1.872-1.269 3.3-.275.484-.587.99-.928 1.514A45.216 45.216 0 015.5 13.024a45.865 45.865 0 01-.346-.46zM4.5 5.5a1 1 0 102 0 1 1 0 00-2 0z" fill="#fff"/></svg>